<?xml version="1.0" encoding="utf-8" standalone="no"?>
<!DOCTYPE svg PUBLIC "-//W3C//DTD SVG 1.1//EN"
  "http://www.w3.org/Graphics/SVG/1.1/DTD/svg11.dtd">
<svg xmlns:xlink="http://www.w3.org/1999/xlink" width="241.78199pt" height="360pt" viewBox="0 0 241.78199 360" xmlns="http://www.w3.org/2000/svg" version="1.1">
 <metadata>
  <rdf:RDF xmlns:dc="http://purl.org/dc/elements/1.1/" xmlns:cc="http://creativecommons.org/ns#" xmlns:rdf="http://www.w3.org/1999/02/22-rdf-syntax-ns#">
   <cc:Work>
    <dc:type rdf:resource="http://purl.org/dc/dcmitype/StillImage"/>
    <dc:date>2024-02-09T15:25:47.067842</dc:date>
    <dc:format>image/svg+xml</dc:format>
    <dc:creator>
     <cc:Agent>
      <dc:title>Matplotlib v3.7.1, https://matplotlib.org/</dc:title>
     </cc:Agent>
    </dc:creator>
   </cc:Work>
  </rdf:RDF>
 </metadata>
 <defs>
  <style type="text/css">*{stroke-linejoin: round; stroke-linecap: butt}</style>
 </defs>
 <g id="figure_1">
  <g id="patch_1">
   <path d="M 0 360 
L 241.78199 360 
L 241.78199 0 
L 0 0 
z
" style="fill: #ffffff"/>
  </g>
  <g id="axes_1">
   <g id="patch_2">
    <path d="M 46.548111 144.430936 
L 228.264588 144.430936 
L 228.264588 7.2 
L 46.548111 7.2 
z
" style="fill: #ffffff"/>
   </g>
   <g id="patch_3">
    <path d="M 54.807951 144.430936 
L 65.132751 144.430936 
L 65.132751 115.387351 
L 54.807951 115.387351 
z
" clip-path="url(#paf069e6acf)" style="fill: #0000ff"/>
   </g>
   <g id="patch_4">
    <path d="M 65.132751 144.430936 
L 75.45755 144.430936 
L 75.45755 129.909143 
L 65.132751 129.909143 
z
" clip-path="url(#paf069e6acf)" style="fill: #0000ff"/>
   </g>
   <g id="patch_5">
    <path d="M 75.45755 144.430936 
L 85.78235 144.430936 
L 85.78235 115.387351 
L 75.45755 115.387351 
z
" clip-path="url(#paf069e6acf)" style="fill: #0000ff"/>
   </g>
   <g id="patch_6">
    <path d="M 85.78235 144.430936 
L 96.10715 144.430936 
L 96.10715 100.865559 
L 85.78235 100.865559 
z
" clip-path="url(#paf069e6acf)" style="fill: #0000ff"/>
   </g>
   <g id="patch_7">
    <path d="M 96.10715 144.430936 
L 106.43195 144.430936 
L 106.43195 86.343767 
L 96.10715 86.343767 
z
" clip-path="url(#paf069e6acf)" style="fill: #0000ff"/>
   </g>
   <g id="patch_8">
    <path d="M 106.43195 144.430936 
L 116.75675 144.430936 
L 116.75675 129.909143 
L 106.43195 129.909143 
z
" clip-path="url(#paf069e6acf)" style="fill: #0000ff"/>
   </g>
   <g id="patch_9">
    <path d="M 116.75675 144.430936 
L 127.08155 144.430936 
L 127.08155 13.734806 
L 116.75675 13.734806 
z
" clip-path="url(#paf069e6acf)" style="fill: #0000ff"/>
   </g>
   <g id="patch_10">
    <path d="M 127.08155 144.430936 
L 137.406349 144.430936 
L 137.406349 42.778391 
L 127.08155 42.778391 
z
" clip-path="url(#paf069e6acf)" style="fill: #0000ff"/>
   </g>
   <g id="patch_11">
    <path d="M 137.406349 144.430936 
L 147.731149 144.430936 
L 147.731149 71.821975 
L 137.406349 71.821975 
z
" clip-path="url(#paf069e6acf)" style="fill: #0000ff"/>
   </g>
   <g id="patch_12">
    <path d="M 147.731149 144.430936 
L 158.055949 144.430936 
L 158.055949 42.778391 
L 147.731149 42.778391 
z
" clip-path="url(#paf069e6acf)" style="fill: #0000ff"/>
   </g>
   <g id="patch_13">
    <path d="M 158.055949 144.430936 
L 168.380749 144.430936 
L 168.380749 115.387351 
L 158.055949 115.387351 
z
" clip-path="url(#paf069e6acf)" style="fill: #0000ff"/>
   </g>
   <g id="patch_14">
    <path d="M 168.380749 144.430936 
L 178.705549 144.430936 
L 178.705549 100.865559 
L 168.380749 100.865559 
z
" clip-path="url(#paf069e6acf)" style="fill: #0000ff"/>
   </g>
   <g id="patch_15">
    <path d="M 178.705549 144.430936 
L 189.030349 144.430936 
L 189.030349 129.909143 
L 178.705549 129.909143 
z
" clip-path="url(#paf069e6acf)" style="fill: #0000ff"/>
   </g>
   <g id="patch_16">
    <path d="M 189.030349 144.430936 
L 199.355148 144.430936 
L 199.355148 144.430936 
L 189.030349 144.430936 
z
" clip-path="url(#paf069e6acf)" style="fill: #0000ff"/>
   </g>
   <g id="patch_17">
    <path d="M 199.355148 144.430936 
L 209.679948 144.430936 
L 209.679948 129.909143 
L 199.355148 129.909143 
z
" clip-path="url(#paf069e6acf)" style="fill: #0000ff"/>
   </g>
   <g id="patch_18">
    <path d="M 209.679948 144.430936 
L 220.004748 144.430936 
L 220.004748 129.909143 
L 209.679948 129.909143 
z
" clip-path="url(#paf069e6acf)" style="fill: #0000ff"/>
   </g>
   <g id="matplotlib.axis_1">
    <g id="xtick_1">
     <g id="line2d_1">
      <defs>
       <path id="m934e004230" d="M 0 0 
L 0 3.5 
" style="stroke: #000000; stroke-width: 0.8"/>
      </defs>
      <g>
       <use xlink:href="#m934e004230" x="61.161674" y="144.430936" style="stroke: #000000; stroke-width: 0.8"/>
      </g>
     </g>
     <g id="text_1">
      <!-- $\mathdefault{540}$ -->
      <g transform="translate(53.689671 158.349434) scale(0.1 -0.1)">
       <defs>
        <path id="CMR17-35" d="M 730 3692 
C 794 3666 1056 3584 1325 3584 
C 1920 3584 2246 3911 2432 4100 
C 2432 4157 2432 4192 2394 4192 
C 2387 4192 2374 4192 2323 4163 
C 2099 4058 1837 3973 1517 3973 
C 1325 3973 1037 3999 723 4139 
C 653 4171 640 4171 634 4171 
C 602 4171 595 4164 595 4037 
L 595 2203 
C 595 2089 595 2057 659 2057 
C 691 2057 704 2070 736 2114 
C 941 2401 1222 2522 1542 2522 
C 1766 2522 2246 2382 2246 1289 
C 2246 1085 2246 715 2054 421 
C 1894 159 1645 25 1370 25 
C 947 25 518 320 403 814 
C 429 807 480 795 506 795 
C 589 795 749 840 749 1038 
C 749 1210 627 1280 506 1280 
C 358 1280 262 1190 262 1011 
C 262 454 704 -128 1382 -128 
C 2042 -128 2669 440 2669 1264 
C 2669 2030 2170 2624 1549 2624 
C 1222 2624 947 2503 730 2274 
L 730 3692 
z
" transform="scale(0.015625)"/>
        <path id="CMR17-34" d="M 2150 4122 
C 2150 4256 2144 4256 2029 4256 
L 128 1254 
L 128 1088 
L 1779 1088 
L 1779 457 
C 1779 224 1766 160 1318 160 
L 1197 160 
L 1197 0 
C 1402 0 1747 0 1965 0 
C 2182 0 2528 0 2733 0 
L 2733 160 
L 2611 160 
C 2163 160 2150 224 2150 457 
L 2150 1088 
L 2803 1088 
L 2803 1254 
L 2150 1254 
L 2150 4122 
z
M 1798 3703 
L 1798 1254 
L 256 1254 
L 1798 3703 
z
" transform="scale(0.015625)"/>
        <path id="CMR17-30" d="M 2688 2025 
C 2688 2416 2682 3080 2413 3591 
C 2176 4039 1798 4198 1466 4198 
C 1158 4198 768 4058 525 3597 
C 269 3118 243 2524 243 2025 
C 243 1661 250 1106 448 619 
C 723 -39 1216 -128 1466 -128 
C 1760 -128 2208 -7 2470 600 
C 2662 1042 2688 1559 2688 2025 
z
M 1466 -26 
C 1056 -26 813 325 723 812 
C 653 1188 653 1738 653 2096 
C 653 2588 653 2997 736 3387 
C 858 3929 1216 4096 1466 4096 
C 1728 4096 2067 3923 2189 3400 
C 2272 3036 2278 2607 2278 2096 
C 2278 1680 2278 1169 2202 792 
C 2067 95 1690 -26 1466 -26 
z
" transform="scale(0.015625)"/>
       </defs>
       <use xlink:href="#CMR17-35" transform="scale(0.996264)"/>
       <use xlink:href="#CMR17-34" transform="translate(45.690477 0) scale(0.996264)"/>
       <use xlink:href="#CMR17-30" transform="translate(91.380954 0) scale(0.996264)"/>
      </g>
     </g>
    </g>
    <g id="xtick_2">
     <g id="line2d_2">
      <g>
       <use xlink:href="#m934e004230" x="92.930289" y="144.430936" style="stroke: #000000; stroke-width: 0.8"/>
      </g>
     </g>
     <g id="text_2">
      <!-- $\mathdefault{560}$ -->
      <g transform="translate(85.458286 158.349434) scale(0.1 -0.1)">
       <defs>
        <path id="CMR17-36" d="M 678 2176 
C 678 3690 1395 4032 1811 4032 
C 1946 4032 2272 4009 2400 3776 
C 2298 3776 2106 3776 2106 3553 
C 2106 3381 2246 3323 2336 3323 
C 2394 3323 2566 3348 2566 3560 
C 2566 3954 2246 4179 1805 4179 
C 1043 4179 243 3390 243 1984 
C 243 253 966 -128 1478 -128 
C 2099 -128 2688 427 2688 1283 
C 2688 2081 2170 2662 1517 2662 
C 1126 2662 838 2407 678 1960 
L 678 2176 
z
M 1478 25 
C 691 25 691 1200 691 1436 
C 691 1896 909 2560 1504 2560 
C 1613 2560 1926 2560 2138 2120 
C 2253 1870 2253 1609 2253 1289 
C 2253 944 2253 690 2118 434 
C 1978 171 1773 25 1478 25 
z
" transform="scale(0.015625)"/>
       </defs>
       <use xlink:href="#CMR17-35" transform="scale(0.996264)"/>
       <use xlink:href="#CMR17-36" transform="translate(45.690477 0) scale(0.996264)"/>
       <use xlink:href="#CMR17-30" transform="translate(91.380954 0) scale(0.996264)"/>
      </g>
     </g>
    </g>
    <g id="xtick_3">
     <g id="line2d_3">
      <g>
       <use xlink:href="#m934e004230" x="124.698903" y="144.430936" style="stroke: #000000; stroke-width: 0.8"/>
      </g>
     </g>
     <g id="text_3">
      <!-- $\mathdefault{580}$ -->
      <g transform="translate(117.226901 158.349434) scale(0.1 -0.1)">
       <defs>
        <path id="CMR17-38" d="M 1741 2264 
C 2144 2467 2554 2773 2554 3263 
C 2554 3841 1990 4179 1472 4179 
C 890 4179 378 3759 378 3180 
C 378 3021 416 2747 666 2505 
C 730 2442 998 2251 1171 2130 
C 883 1983 211 1634 211 934 
C 211 279 838 -128 1459 -128 
C 2144 -128 2720 362 2720 1010 
C 2720 1590 2330 1857 2074 2029 
L 1741 2264 
z
M 902 2822 
C 851 2854 595 3051 595 3351 
C 595 3739 998 4032 1459 4032 
C 1965 4032 2336 3676 2336 3262 
C 2336 2669 1670 2331 1638 2331 
C 1632 2331 1626 2331 1574 2370 
L 902 2822 
z
M 2080 1519 
C 2176 1449 2483 1240 2483 851 
C 2483 381 2010 25 1472 25 
C 890 25 448 438 448 940 
C 448 1443 838 1862 1280 2060 
L 2080 1519 
z
" transform="scale(0.015625)"/>
       </defs>
       <use xlink:href="#CMR17-35" transform="scale(0.996264)"/>
       <use xlink:href="#CMR17-38" transform="translate(45.690477 0) scale(0.996264)"/>
       <use xlink:href="#CMR17-30" transform="translate(91.380954 0) scale(0.996264)"/>
      </g>
     </g>
    </g>
    <g id="xtick_4">
     <g id="line2d_4">
      <g>
       <use xlink:href="#m934e004230" x="156.467518" y="144.430936" style="stroke: #000000; stroke-width: 0.8"/>
      </g>
     </g>
     <g id="text_4">
      <!-- $\mathdefault{600}$ -->
      <g transform="translate(148.995515 158.349434) scale(0.1 -0.1)">
       <use xlink:href="#CMR17-36" transform="scale(0.996264)"/>
       <use xlink:href="#CMR17-30" transform="translate(45.690477 0) scale(0.996264)"/>
       <use xlink:href="#CMR17-30" transform="translate(91.380954 0) scale(0.996264)"/>
      </g>
     </g>
    </g>
    <g id="xtick_5">
     <g id="line2d_5">
      <g>
       <use xlink:href="#m934e004230" x="188.236133" y="144.430936" style="stroke: #000000; stroke-width: 0.8"/>
      </g>
     </g>
     <g id="text_5">
      <!-- $\mathdefault{620}$ -->
      <g transform="translate(180.76413 158.349434) scale(0.1 -0.1)">
       <defs>
        <path id="CMR17-32" d="M 2669 989 
L 2554 989 
C 2490 536 2438 459 2413 420 
C 2381 369 1920 369 1830 369 
L 602 369 
C 832 619 1280 1072 1824 1597 
C 2214 1967 2669 2402 2669 3035 
C 2669 3790 2067 4224 1395 4224 
C 691 4224 262 3604 262 3030 
C 262 2780 448 2748 525 2748 
C 589 2748 781 2787 781 3010 
C 781 3207 614 3264 525 3264 
C 486 3264 448 3258 422 3245 
C 544 3790 915 4058 1306 4058 
C 1862 4058 2227 3617 2227 3035 
C 2227 2479 1901 2000 1536 1584 
L 262 146 
L 262 0 
L 2515 0 
L 2669 989 
z
" transform="scale(0.015625)"/>
       </defs>
       <use xlink:href="#CMR17-36" transform="scale(0.996264)"/>
       <use xlink:href="#CMR17-32" transform="translate(45.690477 0) scale(0.996264)"/>
       <use xlink:href="#CMR17-30" transform="translate(91.380954 0) scale(0.996264)"/>
      </g>
     </g>
    </g>
    <g id="xtick_6">
     <g id="line2d_6">
      <g>
       <use xlink:href="#m934e004230" x="220.004748" y="144.430936" style="stroke: #000000; stroke-width: 0.8"/>
      </g>
     </g>
     <g id="text_6">
      <!-- $\mathdefault{640}$ -->
      <g transform="translate(212.532745 158.349434) scale(0.1 -0.1)">
       <use xlink:href="#CMR17-36" transform="scale(0.996264)"/>
       <use xlink:href="#CMR17-34" transform="translate(45.690477 0) scale(0.996264)"/>
       <use xlink:href="#CMR17-30" transform="translate(91.380954 0) scale(0.996264)"/>
      </g>
     </g>
    </g>
   </g>
   <g id="matplotlib.axis_2">
    <g id="ytick_1">
     <g id="line2d_7">
      <defs>
       <path id="m26721d44ba" d="M 0 0 
L -3.5 0 
" style="stroke: #000000; stroke-width: 0.8"/>
      </defs>
      <g>
       <use xlink:href="#m26721d44ba" x="46.548111" y="144.430936" style="stroke: #000000; stroke-width: 0.8"/>
      </g>
     </g>
     <g id="text_7">
      <!-- $\mathdefault{0}$ -->
      <g transform="translate(34.566776 147.890185) scale(0.1 -0.1)">
       <use xlink:href="#CMR17-30" transform="scale(0.996264)"/>
      </g>
     </g>
    </g>
    <g id="ytick_2">
     <g id="line2d_8">
      <g>
       <use xlink:href="#m26721d44ba" x="46.548111" y="115.387351" style="stroke: #000000; stroke-width: 0.8"/>
      </g>
     </g>
     <g id="text_8">
      <!-- $\mathdefault{2}$ -->
      <g transform="translate(34.566776 118.8466) scale(0.1 -0.1)">
       <use xlink:href="#CMR17-32" transform="scale(0.996264)"/>
      </g>
     </g>
    </g>
    <g id="ytick_3">
     <g id="line2d_9">
      <g>
       <use xlink:href="#m26721d44ba" x="46.548111" y="86.343767" style="stroke: #000000; stroke-width: 0.8"/>
      </g>
     </g>
     <g id="text_9">
      <!-- $\mathdefault{4}$ -->
      <g transform="translate(34.566776 89.803016) scale(0.1 -0.1)">
       <use xlink:href="#CMR17-34" transform="scale(0.996264)"/>
      </g>
     </g>
    </g>
    <g id="ytick_4">
     <g id="line2d_10">
      <g>
       <use xlink:href="#m26721d44ba" x="46.548111" y="57.300183" style="stroke: #000000; stroke-width: 0.8"/>
      </g>
     </g>
     <g id="text_10">
      <!-- $\mathdefault{6}$ -->
      <g transform="translate(34.566776 60.759432) scale(0.1 -0.1)">
       <use xlink:href="#CMR17-36" transform="scale(0.996264)"/>
      </g>
     </g>
    </g>
    <g id="ytick_5">
     <g id="line2d_11">
      <g>
       <use xlink:href="#m26721d44ba" x="46.548111" y="28.256599" style="stroke: #000000; stroke-width: 0.8"/>
      </g>
     </g>
     <g id="text_11">
      <!-- $\mathdefault{8}$ -->
      <g transform="translate(34.566776 31.715848) scale(0.1 -0.1)">
       <use xlink:href="#CMR17-38" transform="scale(0.996264)"/>
      </g>
     </g>
    </g>
   </g>
   <g id="patch_19">
    <path d="M 46.548111 144.430936 
L 46.548111 7.2 
" style="fill: none; stroke: #000000; stroke-width: 0.8; stroke-linejoin: miter; stroke-linecap: square"/>
   </g>
   <g id="patch_20">
    <path d="M 228.264588 144.430936 
L 228.264588 7.2 
" style="fill: none; stroke: #000000; stroke-width: 0.8; stroke-linejoin: miter; stroke-linecap: square"/>
   </g>
   <g id="patch_21">
    <path d="M 46.548111 144.430936 
L 228.264588 144.430936 
" style="fill: none; stroke: #000000; stroke-width: 0.8; stroke-linejoin: miter; stroke-linecap: square"/>
   </g>
   <g id="patch_22">
    <path d="M 46.548111 7.2 
L 228.264588 7.2 
" style="fill: none; stroke: #000000; stroke-width: 0.8; stroke-linejoin: miter; stroke-linecap: square"/>
   </g>
   <g id="legend_1">
    <g id="patch_23">
     <path d="M 172.770852 29.137178 
L 221.264588 29.137178 
Q 223.264588 29.137178 223.264588 27.137178 
L 223.264588 14.2 
Q 223.264588 12.2 221.264588 12.2 
L 172.770852 12.2 
Q 170.770852 12.2 170.770852 14.2 
L 170.770852 27.137178 
Q 170.770852 29.137178 172.770852 29.137178 
z
" style="fill: #ffffff; opacity: 0.8; stroke: #cccccc; stroke-linejoin: miter"/>
    </g>
    <g id="patch_24">
     <path d="M 174.770852 23.2 
L 194.770852 23.2 
L 194.770852 16.2 
L 174.770852 16.2 
z
" style="fill: #0000ff"/>
    </g>
    <g id="text_12">
     <!-- Ch1 -->
     <g transform="translate(202.770852 23.2) scale(0.1 -0.1)">
      <defs>
       <path id="CMSS17-43" d="M 3501 714 
C 3072 427 2874 344 2355 344 
C 1459 344 934 1303 934 2179 
C 934 3112 1472 4032 2381 4032 
C 2790 4032 3059 3918 3386 3715 
L 3475 4217 
C 3168 4370 2778 4440 2387 4440 
C 1158 4440 397 3316 397 2179 
C 397 927 1299 -64 2323 -64 
C 2874 -64 3066 -19 3539 280 
L 3501 714 
z
" transform="scale(0.015625)"/>
       <path id="CMSS17-68" d="M 2618 1891 
C 2618 2292 2522 2820 1798 2820 
C 1395 2820 1133 2623 947 2407 
L 947 4448 
L 474 4448 
L 474 32 
L 960 32 
L 960 1573 
C 960 1973 1114 2432 1549 2432 
C 2112 2432 2131 2056 2131 1839 
L 2131 32 
L 2618 32 
L 2618 1891 
z
" transform="scale(0.015625)"/>
       <path id="CMSS17-31" d="M 1818 4288 
L 1696 4288 
C 1350 3940 947 3890 538 3890 
L 538 3520 
C 723 3520 1024 3520 1325 3667 
L 1325 369 
L 570 369 
L 570 0 
L 2573 0 
L 2573 369 
L 1818 369 
L 1818 4288 
z
" transform="scale(0.015625)"/>
      </defs>
      <use xlink:href="#CMSS17-43" transform="scale(0.996264)"/>
      <use xlink:href="#CMSS17-68" transform="translate(59.855772 0) scale(0.996264)"/>
      <use xlink:href="#CMSS17-31" transform="translate(108.060715 0) scale(0.996264)"/>
     </g>
    </g>
   </g>
  </g>
  <g id="axes_2">
   <g id="patch_25">
    <path d="M 46.548111 308.317548 
L 228.264588 308.317548 
L 228.264588 171.086612 
L 46.548111 171.086612 
z
" style="fill: #ffffff"/>
   </g>
   <g id="patch_26">
    <path d="M 54.807951 308.317548 
L 65.132751 308.317548 
L 65.132751 293.795756 
L 54.807951 293.795756 
z
" clip-path="url(#p3207cc80ea)" style="fill: #ff0000"/>
   </g>
   <g id="patch_27">
    <path d="M 65.132751 308.317548 
L 75.45755 308.317548 
L 75.45755 308.317548 
L 65.132751 308.317548 
z
" clip-path="url(#p3207cc80ea)" style="fill: #ff0000"/>
   </g>
   <g id="patch_28">
    <path d="M 75.45755 308.317548 
L 85.78235 308.317548 
L 85.78235 293.795756 
L 75.45755 293.795756 
z
" clip-path="url(#p3207cc80ea)" style="fill: #ff0000"/>
   </g>
   <g id="patch_29">
    <path d="M 85.78235 308.317548 
L 96.10715 308.317548 
L 96.10715 279.273963 
L 85.78235 279.273963 
z
" clip-path="url(#p3207cc80ea)" style="fill: #ff0000"/>
   </g>
   <g id="patch_30">
    <path d="M 96.10715 308.317548 
L 106.43195 308.317548 
L 106.43195 279.273963 
L 96.10715 279.273963 
z
" clip-path="url(#p3207cc80ea)" style="fill: #ff0000"/>
   </g>
   <g id="patch_31">
    <path d="M 106.43195 308.317548 
L 116.75675 308.317548 
L 116.75675 221.186795 
L 106.43195 221.186795 
z
" clip-path="url(#p3207cc80ea)" style="fill: #ff0000"/>
   </g>
   <g id="patch_32">
    <path d="M 116.75675 308.317548 
L 127.08155 308.317548 
L 127.08155 264.752171 
L 116.75675 264.752171 
z
" clip-path="url(#p3207cc80ea)" style="fill: #ff0000"/>
   </g>
   <g id="patch_33">
    <path d="M 127.08155 308.317548 
L 137.406349 308.317548 
L 137.406349 206.665003 
L 127.08155 206.665003 
z
" clip-path="url(#p3207cc80ea)" style="fill: #ff0000"/>
   </g>
   <g id="patch_34">
    <path d="M 137.406349 308.317548 
L 147.731149 308.317548 
L 147.731149 221.186795 
L 137.406349 221.186795 
z
" clip-path="url(#p3207cc80ea)" style="fill: #ff0000"/>
   </g>
   <g id="patch_35">
    <path d="M 147.731149 308.317548 
L 158.055949 308.317548 
L 158.055949 235.708587 
L 147.731149 235.708587 
z
" clip-path="url(#p3207cc80ea)" style="fill: #ff0000"/>
   </g>
   <g id="patch_36">
    <path d="M 158.055949 308.317548 
L 168.380749 308.317548 
L 168.380749 250.230379 
L 158.055949 250.230379 
z
" clip-path="url(#p3207cc80ea)" style="fill: #ff0000"/>
   </g>
   <g id="patch_37">
    <path d="M 168.380749 308.317548 
L 178.705549 308.317548 
L 178.705549 250.230379 
L 168.380749 250.230379 
z
" clip-path="url(#p3207cc80ea)" style="fill: #ff0000"/>
   </g>
   <g id="patch_38">
    <path d="M 178.705549 308.317548 
L 189.030349 308.317548 
L 189.030349 250.230379 
L 178.705549 250.230379 
z
" clip-path="url(#p3207cc80ea)" style="fill: #ff0000"/>
   </g>
   <g id="patch_39">
    <path d="M 189.030349 308.317548 
L 199.355148 308.317548 
L 199.355148 279.273963 
L 189.030349 279.273963 
z
" clip-path="url(#p3207cc80ea)" style="fill: #ff0000"/>
   </g>
   <g id="patch_40">
    <path d="M 199.355148 308.317548 
L 209.679948 308.317548 
L 209.679948 308.317548 
L 199.355148 308.317548 
z
" clip-path="url(#p3207cc80ea)" style="fill: #ff0000"/>
   </g>
   <g id="patch_41">
    <path d="M 209.679948 308.317548 
L 220.004748 308.317548 
L 220.004748 279.273963 
L 209.679948 279.273963 
z
" clip-path="url(#p3207cc80ea)" style="fill: #ff0000"/>
   </g>
   <g id="matplotlib.axis_3">
    <g id="xtick_7">
     <g id="line2d_12">
      <g>
       <use xlink:href="#m934e004230" x="49.479022" y="308.317548" style="stroke: #000000; stroke-width: 0.8"/>
      </g>
     </g>
     <g id="text_13">
      <!-- $\mathdefault{380}$ -->
      <g transform="translate(42.007019 322.236046) scale(0.1 -0.1)">
       <defs>
        <path id="CMR17-33" d="M 1414 2157 
C 1984 2157 2234 1662 2234 1090 
C 2234 320 1824 25 1453 25 
C 1114 25 563 194 390 693 
C 422 680 454 680 486 680 
C 640 680 755 782 755 948 
C 755 1133 614 1216 486 1216 
C 378 1216 211 1165 211 926 
C 211 335 787 -128 1466 -128 
C 2176 -128 2720 430 2720 1085 
C 2720 1707 2208 2157 1600 2227 
C 2086 2328 2554 2756 2554 3329 
C 2554 3820 2048 4179 1472 4179 
C 890 4179 378 3829 378 3329 
C 378 3110 544 3072 627 3072 
C 762 3072 877 3155 877 3321 
C 877 3486 762 3569 627 3569 
C 602 3569 570 3569 544 3557 
C 730 3959 1235 4032 1459 4032 
C 1683 4032 2106 3925 2106 3320 
C 2106 3143 2080 2828 1862 2550 
C 1670 2304 1453 2304 1242 2284 
C 1210 2284 1062 2269 1037 2269 
C 992 2263 966 2257 966 2208 
C 966 2163 973 2157 1101 2157 
L 1414 2157 
z
" transform="scale(0.015625)"/>
       </defs>
       <use xlink:href="#CMR17-33" transform="scale(0.996264)"/>
       <use xlink:href="#CMR17-38" transform="translate(45.690477 0) scale(0.996264)"/>
       <use xlink:href="#CMR17-30" transform="translate(91.380954 0) scale(0.996264)"/>
      </g>
     </g>
    </g>
    <g id="xtick_8">
     <g id="line2d_13">
      <g>
       <use xlink:href="#m934e004230" x="85.005215" y="308.317548" style="stroke: #000000; stroke-width: 0.8"/>
      </g>
     </g>
     <g id="text_14">
      <!-- $\mathdefault{400}$ -->
      <g transform="translate(77.533212 322.236046) scale(0.1 -0.1)">
       <use xlink:href="#CMR17-34" transform="scale(0.996264)"/>
       <use xlink:href="#CMR17-30" transform="translate(45.690477 0) scale(0.996264)"/>
       <use xlink:href="#CMR17-30" transform="translate(91.380954 0) scale(0.996264)"/>
      </g>
     </g>
    </g>
    <g id="xtick_9">
     <g id="line2d_14">
      <g>
       <use xlink:href="#m934e004230" x="120.531408" y="308.317548" style="stroke: #000000; stroke-width: 0.8"/>
      </g>
     </g>
     <g id="text_15">
      <!-- $\mathdefault{420}$ -->
      <g transform="translate(113.059405 322.236046) scale(0.1 -0.1)">
       <use xlink:href="#CMR17-34" transform="scale(0.996264)"/>
       <use xlink:href="#CMR17-32" transform="translate(45.690477 0) scale(0.996264)"/>
       <use xlink:href="#CMR17-30" transform="translate(91.380954 0) scale(0.996264)"/>
      </g>
     </g>
    </g>
    <g id="xtick_10">
     <g id="line2d_15">
      <g>
       <use xlink:href="#m934e004230" x="156.057601" y="308.317548" style="stroke: #000000; stroke-width: 0.8"/>
      </g>
     </g>
     <g id="text_16">
      <!-- $\mathdefault{440}$ -->
      <g transform="translate(148.585598 322.236046) scale(0.1 -0.1)">
       <use xlink:href="#CMR17-34" transform="scale(0.996264)"/>
       <use xlink:href="#CMR17-34" transform="translate(45.690477 0) scale(0.996264)"/>
       <use xlink:href="#CMR17-30" transform="translate(91.380954 0) scale(0.996264)"/>
      </g>
     </g>
    </g>
    <g id="xtick_11">
     <g id="line2d_16">
      <g>
       <use xlink:href="#m934e004230" x="191.583794" y="308.317548" style="stroke: #000000; stroke-width: 0.8"/>
      </g>
     </g>
     <g id="text_17">
      <!-- $\mathdefault{460}$ -->
      <g transform="translate(184.111791 322.236046) scale(0.1 -0.1)">
       <use xlink:href="#CMR17-34" transform="scale(0.996264)"/>
       <use xlink:href="#CMR17-36" transform="translate(45.690477 0) scale(0.996264)"/>
       <use xlink:href="#CMR17-30" transform="translate(91.380954 0) scale(0.996264)"/>
      </g>
     </g>
    </g>
    <g id="xtick_12">
     <g id="line2d_17">
      <g>
       <use xlink:href="#m934e004230" x="227.109987" y="308.317548" style="stroke: #000000; stroke-width: 0.8"/>
      </g>
     </g>
     <g id="text_18">
      <!-- $\mathdefault{480}$ -->
      <g transform="translate(219.637984 322.236046) scale(0.1 -0.1)">
       <use xlink:href="#CMR17-34" transform="scale(0.996264)"/>
       <use xlink:href="#CMR17-38" transform="translate(45.690477 0) scale(0.996264)"/>
       <use xlink:href="#CMR17-30" transform="translate(91.380954 0) scale(0.996264)"/>
      </g>
     </g>
    </g>
   </g>
   <g id="matplotlib.axis_4">
    <g id="ytick_6">
     <g id="line2d_18">
      <g>
       <use xlink:href="#m26721d44ba" x="46.548111" y="308.317548" style="stroke: #000000; stroke-width: 0.8"/>
      </g>
     </g>
     <g id="text_19">
      <!-- $\mathdefault{0}$ -->
      <g transform="translate(34.566776 311.776797) scale(0.1 -0.1)">
       <use xlink:href="#CMR17-30" transform="scale(0.996264)"/>
      </g>
     </g>
    </g>
    <g id="ytick_7">
     <g id="line2d_19">
      <g>
       <use xlink:href="#m26721d44ba" x="46.548111" y="279.273963" style="stroke: #000000; stroke-width: 0.8"/>
      </g>
     </g>
     <g id="text_20">
      <!-- $\mathdefault{2}$ -->
      <g transform="translate(34.566776 282.733213) scale(0.1 -0.1)">
       <use xlink:href="#CMR17-32" transform="scale(0.996264)"/>
      </g>
     </g>
    </g>
    <g id="ytick_8">
     <g id="line2d_20">
      <g>
       <use xlink:href="#m26721d44ba" x="46.548111" y="250.230379" style="stroke: #000000; stroke-width: 0.8"/>
      </g>
     </g>
     <g id="text_21">
      <!-- $\mathdefault{4}$ -->
      <g transform="translate(34.566776 253.689628) scale(0.1 -0.1)">
       <use xlink:href="#CMR17-34" transform="scale(0.996264)"/>
      </g>
     </g>
    </g>
    <g id="ytick_9">
     <g id="line2d_21">
      <g>
       <use xlink:href="#m26721d44ba" x="46.548111" y="221.186795" style="stroke: #000000; stroke-width: 0.8"/>
      </g>
     </g>
     <g id="text_22">
      <!-- $\mathdefault{6}$ -->
      <g transform="translate(34.566776 224.646044) scale(0.1 -0.1)">
       <use xlink:href="#CMR17-36" transform="scale(0.996264)"/>
      </g>
     </g>
    </g>
    <g id="ytick_10">
     <g id="line2d_22">
      <g>
       <use xlink:href="#m26721d44ba" x="46.548111" y="192.143211" style="stroke: #000000; stroke-width: 0.8"/>
      </g>
     </g>
     <g id="text_23">
      <!-- $\mathdefault{8}$ -->
      <g transform="translate(34.566776 195.60246) scale(0.1 -0.1)">
       <use xlink:href="#CMR17-38" transform="scale(0.996264)"/>
      </g>
     </g>
    </g>
   </g>
   <g id="patch_42">
    <path d="M 46.548111 308.317548 
L 46.548111 171.086612 
" style="fill: none; stroke: #000000; stroke-width: 0.8; stroke-linejoin: miter; stroke-linecap: square"/>
   </g>
   <g id="patch_43">
    <path d="M 228.264588 308.317548 
L 228.264588 171.086612 
" style="fill: none; stroke: #000000; stroke-width: 0.8; stroke-linejoin: miter; stroke-linecap: square"/>
   </g>
   <g id="patch_44">
    <path d="M 46.548111 308.317548 
L 228.264588 308.317548 
" style="fill: none; stroke: #000000; stroke-width: 0.8; stroke-linejoin: miter; stroke-linecap: square"/>
   </g>
   <g id="patch_45">
    <path d="M 46.548111 171.086612 
L 228.264588 171.086612 
" style="fill: none; stroke: #000000; stroke-width: 0.8; stroke-linejoin: miter; stroke-linecap: square"/>
   </g>
   <g id="legend_2">
    <g id="patch_46">
     <path d="M 172.770852 193.023791 
L 221.264588 193.023791 
Q 223.264588 193.023791 223.264588 191.023791 
L 223.264588 178.086612 
Q 223.264588 176.086612 221.264588 176.086612 
L 172.770852 176.086612 
Q 170.770852 176.086612 170.770852 178.086612 
L 170.770852 191.023791 
Q 170.770852 193.023791 172.770852 193.023791 
z
" style="fill: #ffffff; opacity: 0.8; stroke: #cccccc; stroke-linejoin: miter"/>
    </g>
    <g id="patch_47">
     <path d="M 174.770852 187.086612 
L 194.770852 187.086612 
L 194.770852 180.086612 
L 174.770852 180.086612 
z
" style="fill: #ff0000"/>
    </g>
    <g id="text_24">
     <!-- Ch2 -->
     <g transform="translate(202.770852 187.086612) scale(0.1 -0.1)">
      <defs>
       <path id="CMSS17-32" d="M 1651 1357 
C 1830 1541 2099 1764 2285 1987 
C 2464 2204 2701 2511 2701 2957 
C 2701 3657 2227 4288 1421 4288 
C 787 4288 422 3893 250 3274 
L 499 2929 
C 640 3510 838 3880 1338 3880 
C 1888 3880 2195 3433 2195 2942 
C 2195 2355 1747 1901 1408 1563 
C 1030 1187 659 804 301 408 
L 301 0 
L 2701 0 
L 2701 433 
L 1613 433 
C 1536 433 1459 433 1382 433 
L 742 433 
L 742 439 
L 1651 1357 
z
" transform="scale(0.015625)"/>
      </defs>
      <use xlink:href="#CMSS17-43" transform="scale(0.996264)"/>
      <use xlink:href="#CMSS17-68" transform="translate(59.855772 0) scale(0.996264)"/>
      <use xlink:href="#CMSS17-32" transform="translate(108.060715 0) scale(0.996264)"/>
     </g>
    </g>
   </g>
  </g>
  <g id="text_25">
   <!-- Gamma Ray Events per Interval -->
   <g transform="translate(46.154491 350.475404) scale(0.12 -0.12)">
    <defs>
     <path id="CMSS17-47" d="M 3610 1856 
L 2336 1856 
L 2336 1461 
L 3123 1461 
L 3123 471 
C 2874 401 2618 350 2362 350 
C 1466 350 934 1301 934 2200 
C 934 3095 1491 4032 2362 4032 
C 2854 4032 3130 3881 3469 3627 
L 3552 4134 
C 3130 4351 2867 4440 2387 4440 
C 1146 4440 397 3324 397 2182 
C 397 1090 1152 -64 2349 -64 
C 2797 -64 3213 51 3610 248 
L 3610 1856 
z
" transform="scale(0.015625)"/>
     <path id="CMSS17-61" d="M 2406 1791 
C 2406 2392 1978 2808 1402 2808 
C 1120 2808 813 2757 461 2553 
L 499 2135 
C 659 2248 934 2432 1395 2432 
C 1722 2432 1920 2180 1920 1782 
L 1920 1536 
C 896 1536 256 1238 256 726 
C 256 461 416 -64 947 -64 
C 1043 -64 1562 -64 1933 217 
L 1933 -19 
L 2406 -19 
L 2406 1791 
z
M 1920 816 
C 1920 701 1920 548 1728 434 
C 1562 325 1350 325 1261 325 
C 941 325 723 511 723 744 
C 723 1211 1722 1211 1920 1211 
L 1920 816 
z
" transform="scale(0.015625)"/>
     <path id="CMSS17-6d" d="M 4288 1877 
C 4288 2308 4179 2816 3462 2816 
C 2982 2816 2694 2516 2566 2331 
C 2451 2670 2182 2816 1798 2816 
C 1363 2816 1088 2568 941 2389 
L 941 2758 
L 474 2758 
L 474 0 
L 960 0 
L 960 1559 
C 960 1939 1101 2428 1555 2428 
C 2138 2428 2138 2016 2138 1829 
L 2138 0 
L 2624 0 
L 2624 1559 
C 2624 1939 2765 2428 3219 2428 
C 3802 2428 3802 2016 3802 1829 
L 3802 0 
L 4288 0 
L 4288 1877 
z
" transform="scale(0.015625)"/>
     <path id="CMSS17-52" d="M 2522 2109 
L 2534 2115 
C 3533 2459 3539 3147 3539 3268 
C 3539 3873 2925 4453 2003 4453 
L 570 4453 
L 570 32 
L 1094 32 
L 1094 2048 
L 2035 2048 
L 3168 32 
L 3706 32 
L 2522 2109 
z
M 1094 2437 
L 1094 4096 
L 1933 4096 
C 2746 4096 3034 3637 3034 3267 
C 3034 2922 2778 2437 1933 2437 
L 1094 2437 
z
" transform="scale(0.015625)"/>
     <path id="CMSS17-79" d="M 2675 2752 
L 2176 2752 
C 1632 1294 1446 702 1434 383 
L 1427 383 
C 1408 696 1126 1460 902 2007 
L 602 2752 
L 83 2752 
L 1216 13 
C 1146 -178 1043 -465 1011 -529 
C 870 -885 774 -885 672 -885 
C 646 -885 442 -885 211 -809 
L 250 -1229 
C 410 -1261 570 -1280 685 -1280 
C 845 -1280 1165 -1280 1459 -497 
L 2675 2752 
z
" transform="scale(0.015625)"/>
     <path id="CMSS17-45" d="M 1958 433 
C 1446 433 1216 433 1101 433 
L 1101 2107 
L 3085 2107 
L 3085 2496 
L 1101 2496 
L 1101 4009 
L 1926 4009 
C 2003 4009 2080 4009 2157 4009 
L 3251 4009 
L 3251 4416 
L 563 4416 
L 563 0 
L 3334 0 
L 3334 433 
L 1958 433 
z
" transform="scale(0.015625)"/>
     <path id="CMSS17-76" d="M 2675 2752 
L 2176 2752 
L 1747 1556 
C 1613 1165 1421 627 1389 352 
L 1382 352 
C 1370 468 1318 634 1286 749 
C 1248 890 1197 1056 1158 1172 
L 595 2752 
L 83 2752 
L 1094 0 
L 1664 0 
L 2675 2752 
z
" transform="scale(0.015625)"/>
     <path id="CMSS17-65" d="M 2502 1377 
C 2502 1590 2490 2003 2285 2345 
C 2061 2713 1696 2816 1421 2816 
C 755 2816 192 2188 192 1375 
C 192 582 774 -64 1510 -64 
C 1798 -64 2150 19 2470 248 
C 2470 274 2458 414 2451 420 
C 2451 433 2432 630 2432 656 
C 2125 407 1773 325 1517 325 
C 1107 325 666 667 646 1377 
L 2502 1377 
z
M 698 1728 
C 781 2084 1062 2421 1421 2421 
C 1517 2421 1965 2421 2080 1728 
L 698 1728 
z
" transform="scale(0.015625)"/>
     <path id="CMSS17-6e" d="M 2618 1877 
C 2618 2283 2522 2816 1798 2816 
C 1389 2816 1120 2606 941 2389 
L 941 2758 
L 474 2758 
L 474 0 
L 960 0 
L 960 1559 
C 960 1964 1114 2428 1549 2428 
C 2112 2428 2131 2048 2131 1829 
L 2131 0 
L 2618 0 
L 2618 1877 
z
" transform="scale(0.015625)"/>
     <path id="CMSS17-74" d="M 1069 2368 
L 1901 2368 
L 1901 2737 
L 1069 2737 
L 1069 3520 
L 614 3520 
L 614 2737 
L 109 2737 
L 109 2368 
L 602 2368 
L 602 749 
C 602 384 685 -64 1107 -64 
C 1427 -64 1722 25 2003 172 
L 1901 548 
C 1747 414 1562 337 1363 337 
C 1082 337 1069 696 1069 856 
L 1069 2368 
z
" transform="scale(0.015625)"/>
     <path id="CMSS17-73" d="M 2061 2627 
C 1683 2807 1389 2807 1197 2807 
C 742 2807 198 2648 198 2003 
C 198 1359 902 1218 1094 1179 
C 1389 1122 1715 1058 1715 740 
C 1715 337 1254 337 1171 337 
C 915 337 563 407 243 638 
L 166 210 
C 531 0 883 -64 1178 -64 
C 1965 -64 2163 416 2163 781 
C 2163 1094 1984 1305 1862 1401 
C 1651 1568 1574 1587 1050 1696 
C 960 1709 646 1779 646 2066 
C 646 2432 1050 2432 1139 2432 
C 1555 2432 1811 2303 1984 2208 
L 2061 2627 
z
" transform="scale(0.015625)"/>
     <path id="CMSS17-70" d="M 966 333 
C 1178 129 1466 -5 1773 -5 
C 2368 -5 2880 603 2880 1412 
C 2880 2159 2496 2816 1946 2816 
C 1626 2816 1242 2702 954 2472 
L 954 2765 
L 480 2765 
L 480 -1216 
L 966 -1216 
L 966 333 
z
M 966 2100 
C 1018 2176 1235 2415 1587 2415 
C 2035 2415 2394 1960 2394 1412 
C 2394 787 1958 384 1530 384 
C 1402 384 1267 415 1139 523 
C 966 674 966 768 966 857 
L 966 2100 
z
" transform="scale(0.015625)"/>
     <path id="CMSS17-72" d="M 954 1363 
C 954 1965 1395 2368 1958 2368 
L 1958 2789 
C 1549 2789 1165 2585 934 2253 
L 934 2758 
L 480 2758 
L 480 0 
L 954 0 
L 954 1363 
z
" transform="scale(0.015625)"/>
     <path id="CMSS17-49" d="M 1094 4416 
L 557 4416 
L 557 0 
L 1094 0 
L 1094 4416 
z
" transform="scale(0.015625)"/>
     <path id="CMSS17-6c" d="M 947 4416 
L 474 4416 
L 474 0 
L 947 0 
L 947 4416 
z
" transform="scale(0.015625)"/>
    </defs>
    <use xlink:href="#CMSS17-47" transform="scale(0.996264)"/>
    <use xlink:href="#CMSS17-61" transform="translate(62.458226 0) scale(0.996264)"/>
    <use xlink:href="#CMSS17-6d" transform="translate(107.380146 0) scale(0.996264)"/>
    <use xlink:href="#CMSS17-6d" transform="translate(181.609401 0) scale(0.996264)"/>
    <use xlink:href="#CMSS17-61" transform="translate(255.838655 0) scale(0.996264)"/>
    <use xlink:href="#CMSS17-52" transform="translate(331.989688 0) scale(0.996264)"/>
    <use xlink:href="#CMSS17-61" transform="translate(392.405843 0) scale(0.996264)"/>
    <use xlink:href="#CMSS17-79" transform="translate(434.72531 0) scale(0.996264)"/>
    <use xlink:href="#CMSS17-45" transform="translate(508.954564 0) scale(0.996264)"/>
    <use xlink:href="#CMSS17-76" transform="translate(564.846578 0) scale(0.996264)"/>
    <use xlink:href="#CMSS17-65" transform="translate(607.846719 0) scale(0.996264)"/>
    <use xlink:href="#CMSS17-6e" transform="translate(649.485541 0) scale(0.996264)"/>
    <use xlink:href="#CMSS17-74" transform="translate(697.690484 0) scale(0.996264)"/>
    <use xlink:href="#CMSS17-73" transform="translate(731.522051 0) scale(0.996264)"/>
    <use xlink:href="#CMSS17-70" transform="translate(798.664706 0) scale(0.996264)"/>
    <use xlink:href="#CMSS17-65" transform="translate(849.472088 0) scale(0.996264)"/>
    <use xlink:href="#CMSS17-72" transform="translate(891.11091 0) scale(0.996264)"/>
    <use xlink:href="#CMSS17-49" transform="translate(954.249795 0) scale(0.996264)"/>
    <use xlink:href="#CMSS17-6e" transform="translate(980.033721 0) scale(0.996264)"/>
    <use xlink:href="#CMSS17-74" transform="translate(1028.238664 0) scale(0.996264)"/>
    <use xlink:href="#CMSS17-65" transform="translate(1062.07023 0) scale(0.996264)"/>
    <use xlink:href="#CMSS17-72" transform="translate(1103.709052 0) scale(0.996264)"/>
    <use xlink:href="#CMSS17-76" transform="translate(1135.618825 0) scale(0.996264)"/>
    <use xlink:href="#CMSS17-61" transform="translate(1178.618967 0) scale(0.996264)"/>
    <use xlink:href="#CMSS17-6c" transform="translate(1223.540887 0) scale(0.996264)"/>
   </g>
  </g>
  <g id="text_26">
   <!-- Counts -->
   <g transform="translate(15.50218 193.428307) rotate(-90) scale(0.12 -0.12)">
    <defs>
     <path id="CMSS17-6f" d="M 2829 1356 
C 2829 2176 2221 2816 1504 2816 
C 768 2816 173 2157 173 1356 
C 173 544 787 -64 1498 -64 
C 2227 -64 2829 563 2829 1356 
z
M 1504 337 
C 1050 337 659 709 659 1408 
C 659 2151 1114 2427 1498 2427 
C 1914 2427 2342 2126 2342 1408 
C 2342 683 1926 337 1504 337 
z
" transform="scale(0.015625)"/>
     <path id="CMSS17-75" d="M 2618 2739 
L 2131 2739 
L 2131 972 
C 2131 498 1786 306 1421 306 
C 998 306 960 447 960 709 
L 960 2739 
L 474 2739 
L 474 678 
C 474 179 646 -64 1088 -64 
C 1306 -64 1798 -13 2144 306 
L 2144 0 
L 2618 0 
L 2618 2739 
z
" transform="scale(0.015625)"/>
    </defs>
    <use xlink:href="#CMSS17-43" transform="scale(0.996264)"/>
    <use xlink:href="#CMSS17-6f" transform="translate(59.855772 0) scale(0.996264)"/>
    <use xlink:href="#CMSS17-75" transform="translate(106.699395 0) scale(0.996264)"/>
    <use xlink:href="#CMSS17-6e" transform="translate(154.904338 0) scale(0.996264)"/>
    <use xlink:href="#CMSS17-74" transform="translate(203.109281 0) scale(0.996264)"/>
    <use xlink:href="#CMSS17-73" transform="translate(236.940848 0) scale(0.996264)"/>
   </g>
  </g>
 </g>
 <defs>
  <clipPath id="paf069e6acf">
   <rect x="46.548111" y="7.2" width="181.716477" height="137.230936"/>
  </clipPath>
  <clipPath id="p3207cc80ea">
   <rect x="46.548111" y="171.086612" width="181.716477" height="137.230936"/>
  </clipPath>
 </defs>
</svg>
