<?xml version="1.0" encoding="utf-8" standalone="no"?>
<!DOCTYPE svg PUBLIC "-//W3C//DTD SVG 1.1//EN"
  "http://www.w3.org/Graphics/SVG/1.1/DTD/svg11.dtd">
<svg xmlns:xlink="http://www.w3.org/1999/xlink" width="935.496pt" height="515.52pt" viewBox="0 0 935.496 515.52" xmlns="http://www.w3.org/2000/svg" version="1.1">
 <metadata>
  <rdf:RDF xmlns:dc="http://purl.org/dc/elements/1.1/" xmlns:cc="http://creativecommons.org/ns#" xmlns:rdf="http://www.w3.org/1999/02/22-rdf-syntax-ns#">
   <cc:Work>
    <dc:type rdf:resource="http://purl.org/dc/dcmitype/StillImage"/>
    <dc:date>2024-04-23T08:19:25.114270</dc:date>
    <dc:format>image/svg+xml</dc:format>
    <dc:creator>
     <cc:Agent>
      <dc:title>Matplotlib v3.7.1, https://matplotlib.org/</dc:title>
     </cc:Agent>
    </dc:creator>
   </cc:Work>
  </rdf:RDF>
 </metadata>
 <defs>
  <style type="text/css">*{stroke-linejoin: round; stroke-linecap: butt}</style>
 </defs>
 <g id="figure_1">
  <g id="patch_1">
   <path d="M 0 515.52 
L 935.496 515.52 
L 935.496 0 
L 0 0 
z
" style="fill: #ffffff"/>
  </g>
  <g id="axes_1">
   <g id="patch_2">
    <path d="M 63.691714 463.477032 
L 928.296 463.477032 
L 928.296 13.42665 
L 63.691714 13.42665 
z
" style="fill: #ffffff"/>
   </g>
   <g id="patch_3">
    <path d="M 135.987349 463.477032 
L 151.744486 463.477032 
L 151.744486 418.471994 
L 135.987349 418.471994 
z
" clip-path="url(#p3191fc542e)" style="fill: #1f77b4; opacity: 0.5; stroke: #000000; stroke-width: 0.5; stroke-linejoin: miter"/>
   </g>
   <g id="patch_4">
    <path d="M 151.744486 463.477032 
L 167.501623 463.477032 
L 167.501623 463.477032 
L 151.744486 463.477032 
z
" clip-path="url(#p3191fc542e)" style="fill: #1f77b4; opacity: 0.5; stroke: #000000; stroke-width: 0.5; stroke-linejoin: miter"/>
   </g>
   <g id="patch_5">
    <path d="M 167.501623 463.477032 
L 183.25876 463.477032 
L 183.25876 395.969475 
L 167.501623 395.969475 
z
" clip-path="url(#p3191fc542e)" style="fill: #1f77b4; opacity: 0.5; stroke: #000000; stroke-width: 0.5; stroke-linejoin: miter"/>
   </g>
   <g id="patch_6">
    <path d="M 183.25876 463.477032 
L 199.015898 463.477032 
L 199.015898 350.964437 
L 183.25876 350.964437 
z
" clip-path="url(#p3191fc542e)" style="fill: #1f77b4; opacity: 0.5; stroke: #000000; stroke-width: 0.5; stroke-linejoin: miter"/>
   </g>
   <g id="patch_7">
    <path d="M 199.015898 463.477032 
L 214.773035 463.477032 
L 214.773035 328.461917 
L 199.015898 328.461917 
z
" clip-path="url(#p3191fc542e)" style="fill: #1f77b4; opacity: 0.5; stroke: #000000; stroke-width: 0.5; stroke-linejoin: miter"/>
   </g>
   <g id="patch_8">
    <path d="M 214.773035 463.477032 
L 230.530172 463.477032 
L 230.530172 35.929169 
L 214.773035 35.929169 
z
" clip-path="url(#p3191fc542e)" style="fill: #1f77b4; opacity: 0.5; stroke: #000000; stroke-width: 0.5; stroke-linejoin: miter"/>
   </g>
   <g id="patch_9">
    <path d="M 230.530172 463.477032 
L 246.287309 463.477032 
L 246.287309 58.431688 
L 230.530172 58.431688 
z
" clip-path="url(#p3191fc542e)" style="fill: #1f77b4; opacity: 0.5; stroke: #000000; stroke-width: 0.5; stroke-linejoin: miter"/>
   </g>
   <g id="patch_10">
    <path d="M 246.287309 463.477032 
L 262.044446 463.477032 
L 262.044446 170.944284 
L 246.287309 170.944284 
z
" clip-path="url(#p3191fc542e)" style="fill: #1f77b4; opacity: 0.5; stroke: #000000; stroke-width: 0.5; stroke-linejoin: miter"/>
   </g>
   <g id="patch_11">
    <path d="M 262.044446 463.477032 
L 277.801583 463.477032 
L 277.801583 305.959398 
L 262.044446 305.959398 
z
" clip-path="url(#p3191fc542e)" style="fill: #1f77b4; opacity: 0.5; stroke: #000000; stroke-width: 0.5; stroke-linejoin: miter"/>
   </g>
   <g id="patch_12">
    <path d="M 277.801583 463.477032 
L 293.558721 463.477032 
L 293.558721 238.451841 
L 277.801583 238.451841 
z
" clip-path="url(#p3191fc542e)" style="fill: #1f77b4; opacity: 0.5; stroke: #000000; stroke-width: 0.5; stroke-linejoin: miter"/>
   </g>
   <g id="patch_13">
    <path d="M 293.558721 463.477032 
L 309.315858 463.477032 
L 309.315858 418.471994 
L 293.558721 418.471994 
z
" clip-path="url(#p3191fc542e)" style="fill: #1f77b4; opacity: 0.5; stroke: #000000; stroke-width: 0.5; stroke-linejoin: miter"/>
   </g>
   <g id="patch_14">
    <path d="M 309.315858 463.477032 
L 325.072995 463.477032 
L 325.072995 440.974513 
L 309.315858 440.974513 
z
" clip-path="url(#p3191fc542e)" style="fill: #1f77b4; opacity: 0.5; stroke: #000000; stroke-width: 0.5; stroke-linejoin: miter"/>
   </g>
   <g id="patch_15">
    <path d="M 325.072995 463.477032 
L 340.830132 463.477032 
L 340.830132 395.969475 
L 325.072995 395.969475 
z
" clip-path="url(#p3191fc542e)" style="fill: #1f77b4; opacity: 0.5; stroke: #000000; stroke-width: 0.5; stroke-linejoin: miter"/>
   </g>
   <g id="patch_16">
    <path d="M 340.830132 463.477032 
L 356.587269 463.477032 
L 356.587269 418.471994 
L 340.830132 418.471994 
z
" clip-path="url(#p3191fc542e)" style="fill: #1f77b4; opacity: 0.5; stroke: #000000; stroke-width: 0.5; stroke-linejoin: miter"/>
   </g>
   <g id="patch_17">
    <path d="M 356.587269 463.477032 
L 372.344406 463.477032 
L 372.344406 350.964437 
L 356.587269 350.964437 
z
" clip-path="url(#p3191fc542e)" style="fill: #1f77b4; opacity: 0.5; stroke: #000000; stroke-width: 0.5; stroke-linejoin: miter"/>
   </g>
   <g id="patch_18">
    <path d="M 372.344406 463.477032 
L 388.101544 463.477032 
L 388.101544 373.466956 
L 372.344406 373.466956 
z
" clip-path="url(#p3191fc542e)" style="fill: #1f77b4; opacity: 0.5; stroke: #000000; stroke-width: 0.5; stroke-linejoin: miter"/>
   </g>
   <g id="patch_19">
    <path d="M 388.101544 463.477032 
L 403.858681 463.477032 
L 403.858681 350.964437 
L 388.101544 350.964437 
z
" clip-path="url(#p3191fc542e)" style="fill: #1f77b4; opacity: 0.5; stroke: #000000; stroke-width: 0.5; stroke-linejoin: miter"/>
   </g>
   <g id="patch_20">
    <path d="M 403.858681 463.477032 
L 419.615818 463.477032 
L 419.615818 395.969475 
L 403.858681 395.969475 
z
" clip-path="url(#p3191fc542e)" style="fill: #1f77b4; opacity: 0.5; stroke: #000000; stroke-width: 0.5; stroke-linejoin: miter"/>
   </g>
   <g id="patch_21">
    <path d="M 419.615818 463.477032 
L 435.372955 463.477032 
L 435.372955 305.959398 
L 419.615818 305.959398 
z
" clip-path="url(#p3191fc542e)" style="fill: #1f77b4; opacity: 0.5; stroke: #000000; stroke-width: 0.5; stroke-linejoin: miter"/>
   </g>
   <g id="patch_22">
    <path d="M 435.372955 463.477032 
L 451.130092 463.477032 
L 451.130092 238.451841 
L 435.372955 238.451841 
z
" clip-path="url(#p3191fc542e)" style="fill: #1f77b4; opacity: 0.5; stroke: #000000; stroke-width: 0.5; stroke-linejoin: miter"/>
   </g>
   <g id="patch_23">
    <path d="M 451.130092 463.477032 
L 466.88723 463.477032 
L 466.88723 350.964437 
L 451.130092 350.964437 
z
" clip-path="url(#p3191fc542e)" style="fill: #1f77b4; opacity: 0.5; stroke: #000000; stroke-width: 0.5; stroke-linejoin: miter"/>
   </g>
   <g id="patch_24">
    <path d="M 466.88723 463.477032 
L 482.644367 463.477032 
L 482.644367 418.471994 
L 466.88723 418.471994 
z
" clip-path="url(#p3191fc542e)" style="fill: #1f77b4; opacity: 0.5; stroke: #000000; stroke-width: 0.5; stroke-linejoin: miter"/>
   </g>
   <g id="patch_25">
    <path d="M 482.644367 463.477032 
L 498.401504 463.477032 
L 498.401504 395.969475 
L 482.644367 395.969475 
z
" clip-path="url(#p3191fc542e)" style="fill: #1f77b4; opacity: 0.5; stroke: #000000; stroke-width: 0.5; stroke-linejoin: miter"/>
   </g>
   <g id="patch_26">
    <path d="M 498.401504 463.477032 
L 514.158641 463.477032 
L 514.158641 328.461917 
L 498.401504 328.461917 
z
" clip-path="url(#p3191fc542e)" style="fill: #1f77b4; opacity: 0.5; stroke: #000000; stroke-width: 0.5; stroke-linejoin: miter"/>
   </g>
   <g id="patch_27">
    <path d="M 514.158641 463.477032 
L 529.915778 463.477032 
L 529.915778 305.959398 
L 514.158641 305.959398 
z
" clip-path="url(#p3191fc542e)" style="fill: #1f77b4; opacity: 0.5; stroke: #000000; stroke-width: 0.5; stroke-linejoin: miter"/>
   </g>
   <g id="patch_28">
    <path d="M 529.915778 463.477032 
L 545.672915 463.477032 
L 545.672915 350.964437 
L 529.915778 350.964437 
z
" clip-path="url(#p3191fc542e)" style="fill: #1f77b4; opacity: 0.5; stroke: #000000; stroke-width: 0.5; stroke-linejoin: miter"/>
   </g>
   <g id="patch_29">
    <path d="M 545.672915 463.477032 
L 561.430053 463.477032 
L 561.430053 328.461917 
L 545.672915 328.461917 
z
" clip-path="url(#p3191fc542e)" style="fill: #1f77b4; opacity: 0.5; stroke: #000000; stroke-width: 0.5; stroke-linejoin: miter"/>
   </g>
   <g id="patch_30">
    <path d="M 561.430053 463.477032 
L 577.18719 463.477032 
L 577.18719 395.969475 
L 561.430053 395.969475 
z
" clip-path="url(#p3191fc542e)" style="fill: #1f77b4; opacity: 0.5; stroke: #000000; stroke-width: 0.5; stroke-linejoin: miter"/>
   </g>
   <g id="patch_31">
    <path d="M 577.18719 463.477032 
L 592.944327 463.477032 
L 592.944327 395.969475 
L 577.18719 395.969475 
z
" clip-path="url(#p3191fc542e)" style="fill: #1f77b4; opacity: 0.5; stroke: #000000; stroke-width: 0.5; stroke-linejoin: miter"/>
   </g>
   <g id="patch_32">
    <path d="M 592.944327 463.477032 
L 608.701464 463.477032 
L 608.701464 440.974513 
L 592.944327 440.974513 
z
" clip-path="url(#p3191fc542e)" style="fill: #1f77b4; opacity: 0.5; stroke: #000000; stroke-width: 0.5; stroke-linejoin: miter"/>
   </g>
   <g id="patch_33">
    <path d="M 608.701464 463.477032 
L 624.458601 463.477032 
L 624.458601 418.471994 
L 608.701464 418.471994 
z
" clip-path="url(#p3191fc542e)" style="fill: #1f77b4; opacity: 0.5; stroke: #000000; stroke-width: 0.5; stroke-linejoin: miter"/>
   </g>
   <g id="patch_34">
    <path d="M 624.458601 463.477032 
L 640.215739 463.477032 
L 640.215739 395.969475 
L 624.458601 395.969475 
z
" clip-path="url(#p3191fc542e)" style="fill: #1f77b4; opacity: 0.5; stroke: #000000; stroke-width: 0.5; stroke-linejoin: miter"/>
   </g>
   <g id="patch_35">
    <path d="M 640.215739 463.477032 
L 655.972876 463.477032 
L 655.972876 418.471994 
L 640.215739 418.471994 
z
" clip-path="url(#p3191fc542e)" style="fill: #1f77b4; opacity: 0.5; stroke: #000000; stroke-width: 0.5; stroke-linejoin: miter"/>
   </g>
   <g id="patch_36">
    <path d="M 655.972876 463.477032 
L 671.730013 463.477032 
L 671.730013 440.974513 
L 655.972876 440.974513 
z
" clip-path="url(#p3191fc542e)" style="fill: #1f77b4; opacity: 0.5; stroke: #000000; stroke-width: 0.5; stroke-linejoin: miter"/>
   </g>
   <g id="patch_37">
    <path d="M 671.730013 463.477032 
L 687.48715 463.477032 
L 687.48715 440.974513 
L 671.730013 440.974513 
z
" clip-path="url(#p3191fc542e)" style="fill: #1f77b4; opacity: 0.5; stroke: #000000; stroke-width: 0.5; stroke-linejoin: miter"/>
   </g>
   <g id="patch_38">
    <path d="M 687.48715 463.477032 
L 703.244287 463.477032 
L 703.244287 395.969475 
L 687.48715 395.969475 
z
" clip-path="url(#p3191fc542e)" style="fill: #1f77b4; opacity: 0.5; stroke: #000000; stroke-width: 0.5; stroke-linejoin: miter"/>
   </g>
   <g id="patch_39">
    <path d="M 703.244287 463.477032 
L 719.001424 463.477032 
L 719.001424 283.456879 
L 703.244287 283.456879 
z
" clip-path="url(#p3191fc542e)" style="fill: #1f77b4; opacity: 0.5; stroke: #000000; stroke-width: 0.5; stroke-linejoin: miter"/>
   </g>
   <g id="patch_40">
    <path d="M 719.001424 463.477032 
L 734.758562 463.477032 
L 734.758562 418.471994 
L 719.001424 418.471994 
z
" clip-path="url(#p3191fc542e)" style="fill: #1f77b4; opacity: 0.5; stroke: #000000; stroke-width: 0.5; stroke-linejoin: miter"/>
   </g>
   <g id="patch_41">
    <path d="M 734.758562 463.477032 
L 750.515699 463.477032 
L 750.515699 440.974513 
L 734.758562 440.974513 
z
" clip-path="url(#p3191fc542e)" style="fill: #1f77b4; opacity: 0.5; stroke: #000000; stroke-width: 0.5; stroke-linejoin: miter"/>
   </g>
   <g id="patch_42">
    <path d="M 750.515699 463.477032 
L 766.272836 463.477032 
L 766.272836 463.477032 
L 750.515699 463.477032 
z
" clip-path="url(#p3191fc542e)" style="fill: #1f77b4; opacity: 0.5; stroke: #000000; stroke-width: 0.5; stroke-linejoin: miter"/>
   </g>
   <g id="patch_43">
    <path d="M 766.272836 463.477032 
L 782.029973 463.477032 
L 782.029973 463.477032 
L 766.272836 463.477032 
z
" clip-path="url(#p3191fc542e)" style="fill: #1f77b4; opacity: 0.5; stroke: #000000; stroke-width: 0.5; stroke-linejoin: miter"/>
   </g>
   <g id="patch_44">
    <path d="M 782.029973 463.477032 
L 797.78711 463.477032 
L 797.78711 463.477032 
L 782.029973 463.477032 
z
" clip-path="url(#p3191fc542e)" style="fill: #1f77b4; opacity: 0.5; stroke: #000000; stroke-width: 0.5; stroke-linejoin: miter"/>
   </g>
   <g id="patch_45">
    <path d="M 797.78711 463.477032 
L 813.544247 463.477032 
L 813.544247 373.466956 
L 797.78711 373.466956 
z
" clip-path="url(#p3191fc542e)" style="fill: #1f77b4; opacity: 0.5; stroke: #000000; stroke-width: 0.5; stroke-linejoin: miter"/>
   </g>
   <g id="patch_46">
    <path d="M 813.544247 463.477032 
L 829.301385 463.477032 
L 829.301385 440.974513 
L 813.544247 440.974513 
z
" clip-path="url(#p3191fc542e)" style="fill: #1f77b4; opacity: 0.5; stroke: #000000; stroke-width: 0.5; stroke-linejoin: miter"/>
   </g>
   <g id="patch_47">
    <path d="M 829.301385 463.477032 
L 845.058522 463.477032 
L 845.058522 440.974513 
L 829.301385 440.974513 
z
" clip-path="url(#p3191fc542e)" style="fill: #1f77b4; opacity: 0.5; stroke: #000000; stroke-width: 0.5; stroke-linejoin: miter"/>
   </g>
   <g id="patch_48">
    <path d="M 845.058522 463.477032 
L 860.815659 463.477032 
L 860.815659 418.471994 
L 845.058522 418.471994 
z
" clip-path="url(#p3191fc542e)" style="fill: #1f77b4; opacity: 0.5; stroke: #000000; stroke-width: 0.5; stroke-linejoin: miter"/>
   </g>
   <g id="patch_49">
    <path d="M 860.815659 463.477032 
L 876.572796 463.477032 
L 876.572796 418.471994 
L 860.815659 418.471994 
z
" clip-path="url(#p3191fc542e)" style="fill: #1f77b4; opacity: 0.5; stroke: #000000; stroke-width: 0.5; stroke-linejoin: miter"/>
   </g>
   <g id="patch_50">
    <path d="M 876.572796 463.477032 
L 892.329933 463.477032 
L 892.329933 440.974513 
L 876.572796 440.974513 
z
" clip-path="url(#p3191fc542e)" style="fill: #1f77b4; opacity: 0.5; stroke: #000000; stroke-width: 0.5; stroke-linejoin: miter"/>
   </g>
   <g id="patch_51">
    <path d="M 892.329933 463.477032 
L 908.087071 463.477032 
L 908.087071 395.969475 
L 892.329933 395.969475 
z
" clip-path="url(#p3191fc542e)" style="fill: #1f77b4; opacity: 0.5; stroke: #000000; stroke-width: 0.5; stroke-linejoin: miter"/>
   </g>
   <g id="patch_52">
    <path d="M 908.087071 463.477032 
L 923.844208 463.477032 
L 923.844208 440.974513 
L 908.087071 440.974513 
z
" clip-path="url(#p3191fc542e)" style="fill: #1f77b4; opacity: 0.5; stroke: #000000; stroke-width: 0.5; stroke-linejoin: miter"/>
   </g>
   <g id="patch_53">
    <path d="M 923.844208 463.477032 
L 939.601345 463.477032 
L 939.601345 463.477032 
L 923.844208 463.477032 
z
" clip-path="url(#p3191fc542e)" style="fill: #1f77b4; opacity: 0.5; stroke: #000000; stroke-width: 0.5; stroke-linejoin: miter"/>
   </g>
   <g id="patch_54">
    <path d="M 939.601345 463.477032 
L 955.358482 463.477032 
L 955.358482 463.477032 
L 939.601345 463.477032 
z
" clip-path="url(#p3191fc542e)" style="fill: #1f77b4; opacity: 0.5; stroke: #000000; stroke-width: 0.5; stroke-linejoin: miter"/>
   </g>
   <g id="patch_55">
    <path d="M 955.358482 463.477032 
L 971.115619 463.477032 
L 971.115619 463.477032 
L 955.358482 463.477032 
z
" clip-path="url(#p3191fc542e)" style="fill: #1f77b4; opacity: 0.5; stroke: #000000; stroke-width: 0.5; stroke-linejoin: miter"/>
   </g>
   <g id="patch_56">
    <path d="M 971.115619 463.477032 
L 986.872756 463.477032 
L 986.872756 463.477032 
L 971.115619 463.477032 
z
" clip-path="url(#p3191fc542e)" style="fill: #1f77b4; opacity: 0.5; stroke: #000000; stroke-width: 0.5; stroke-linejoin: miter"/>
   </g>
   <g id="patch_57">
    <path d="M 986.872756 463.477032 
L 1002.629894 463.477032 
L 1002.629894 463.477032 
L 986.872756 463.477032 
z
" clip-path="url(#p3191fc542e)" style="fill: #1f77b4; opacity: 0.5; stroke: #000000; stroke-width: 0.5; stroke-linejoin: miter"/>
   </g>
   <g id="patch_58">
    <path d="M 1002.629894 463.477032 
L 1018.387031 463.477032 
L 1018.387031 463.477032 
L 1002.629894 463.477032 
z
" clip-path="url(#p3191fc542e)" style="fill: #1f77b4; opacity: 0.5; stroke: #000000; stroke-width: 0.5; stroke-linejoin: miter"/>
   </g>
   <g id="patch_59">
    <path d="M 1018.387031 463.477032 
L 1034.144168 463.477032 
L 1034.144168 463.477032 
L 1018.387031 463.477032 
z
" clip-path="url(#p3191fc542e)" style="fill: #1f77b4; opacity: 0.5; stroke: #000000; stroke-width: 0.5; stroke-linejoin: miter"/>
   </g>
   <g id="patch_60">
    <path d="M 1034.144168 463.477032 
L 1049.901305 463.477032 
L 1049.901305 463.477032 
L 1034.144168 463.477032 
z
" clip-path="url(#p3191fc542e)" style="fill: #1f77b4; opacity: 0.5; stroke: #000000; stroke-width: 0.5; stroke-linejoin: miter"/>
   </g>
   <g id="patch_61">
    <path d="M 1049.901305 463.477032 
L 1065.658442 463.477032 
L 1065.658442 463.477032 
L 1049.901305 463.477032 
z
" clip-path="url(#p3191fc542e)" style="fill: #1f77b4; opacity: 0.5; stroke: #000000; stroke-width: 0.5; stroke-linejoin: miter"/>
   </g>
   <g id="patch_62">
    <path d="M 1065.658442 463.477032 
L 1081.41558 463.477032 
L 1081.41558 463.477032 
L 1065.658442 463.477032 
z
" clip-path="url(#p3191fc542e)" style="fill: #1f77b4; opacity: 0.5; stroke: #000000; stroke-width: 0.5; stroke-linejoin: miter"/>
   </g>
   <g id="patch_63">
    <path d="M 1081.41558 463.477032 
L 1097.172717 463.477032 
L 1097.172717 463.477032 
L 1081.41558 463.477032 
z
" clip-path="url(#p3191fc542e)" style="fill: #1f77b4; opacity: 0.5; stroke: #000000; stroke-width: 0.5; stroke-linejoin: miter"/>
   </g>
   <g id="patch_64">
    <path d="M 1097.172717 463.477032 
L 1112.929854 463.477032 
L 1112.929854 463.477032 
L 1097.172717 463.477032 
z
" clip-path="url(#p3191fc542e)" style="fill: #1f77b4; opacity: 0.5; stroke: #000000; stroke-width: 0.5; stroke-linejoin: miter"/>
   </g>
   <g id="patch_65">
    <path d="M 1112.929854 463.477032 
L 1128.686991 463.477032 
L 1128.686991 463.477032 
L 1112.929854 463.477032 
z
" clip-path="url(#p3191fc542e)" style="fill: #1f77b4; opacity: 0.5; stroke: #000000; stroke-width: 0.5; stroke-linejoin: miter"/>
   </g>
   <g id="patch_66">
    <path d="M 1128.686991 463.477032 
L 1144.444128 463.477032 
L 1144.444128 463.477032 
L 1128.686991 463.477032 
z
" clip-path="url(#p3191fc542e)" style="fill: #1f77b4; opacity: 0.5; stroke: #000000; stroke-width: 0.5; stroke-linejoin: miter"/>
   </g>
   <g id="patch_67">
    <path d="M 1144.444128 463.477032 
L 1160.201265 463.477032 
L 1160.201265 463.477032 
L 1144.444128 463.477032 
z
" clip-path="url(#p3191fc542e)" style="fill: #1f77b4; opacity: 0.5; stroke: #000000; stroke-width: 0.5; stroke-linejoin: miter"/>
   </g>
   <g id="patch_68">
    <path d="M 1160.201265 463.477032 
L 1175.958403 463.477032 
L 1175.958403 463.477032 
L 1160.201265 463.477032 
z
" clip-path="url(#p3191fc542e)" style="fill: #1f77b4; opacity: 0.5; stroke: #000000; stroke-width: 0.5; stroke-linejoin: miter"/>
   </g>
   <g id="patch_69">
    <path d="M 1175.958403 463.477032 
L 1191.71554 463.477032 
L 1191.71554 463.477032 
L 1175.958403 463.477032 
z
" clip-path="url(#p3191fc542e)" style="fill: #1f77b4; opacity: 0.5; stroke: #000000; stroke-width: 0.5; stroke-linejoin: miter"/>
   </g>
   <g id="patch_70">
    <path d="M 1191.71554 463.477032 
L 1207.472677 463.477032 
L 1207.472677 463.477032 
L 1191.71554 463.477032 
z
" clip-path="url(#p3191fc542e)" style="fill: #1f77b4; opacity: 0.5; stroke: #000000; stroke-width: 0.5; stroke-linejoin: miter"/>
   </g>
   <g id="patch_71">
    <path d="M 1207.472677 463.477032 
L 1223.229814 463.477032 
L 1223.229814 463.477032 
L 1207.472677 463.477032 
z
" clip-path="url(#p3191fc542e)" style="fill: #1f77b4; opacity: 0.5; stroke: #000000; stroke-width: 0.5; stroke-linejoin: miter"/>
   </g>
   <g id="patch_72">
    <path d="M 1223.229814 463.477032 
L 1238.986951 463.477032 
L 1238.986951 463.477032 
L 1223.229814 463.477032 
z
" clip-path="url(#p3191fc542e)" style="fill: #1f77b4; opacity: 0.5; stroke: #000000; stroke-width: 0.5; stroke-linejoin: miter"/>
   </g>
   <g id="patch_73">
    <path d="M 1238.986951 463.477032 
L 1254.744088 463.477032 
L 1254.744088 463.477032 
L 1238.986951 463.477032 
z
" clip-path="url(#p3191fc542e)" style="fill: #1f77b4; opacity: 0.5; stroke: #000000; stroke-width: 0.5; stroke-linejoin: miter"/>
   </g>
   <g id="patch_74">
    <path d="M 1254.744088 463.477032 
L 1270.501226 463.477032 
L 1270.501226 463.477032 
L 1254.744088 463.477032 
z
" clip-path="url(#p3191fc542e)" style="fill: #1f77b4; opacity: 0.5; stroke: #000000; stroke-width: 0.5; stroke-linejoin: miter"/>
   </g>
   <g id="patch_75">
    <path d="M 1270.501226 463.477032 
L 1286.258363 463.477032 
L 1286.258363 463.477032 
L 1270.501226 463.477032 
z
" clip-path="url(#p3191fc542e)" style="fill: #1f77b4; opacity: 0.5; stroke: #000000; stroke-width: 0.5; stroke-linejoin: miter"/>
   </g>
   <g id="patch_76">
    <path d="M 1286.258363 463.477032 
L 1302.0155 463.477032 
L 1302.0155 463.477032 
L 1286.258363 463.477032 
z
" clip-path="url(#p3191fc542e)" style="fill: #1f77b4; opacity: 0.5; stroke: #000000; stroke-width: 0.5; stroke-linejoin: miter"/>
   </g>
   <g id="patch_77">
    <path d="M 1302.0155 463.477032 
L 1317.772637 463.477032 
L 1317.772637 463.477032 
L 1302.0155 463.477032 
z
" clip-path="url(#p3191fc542e)" style="fill: #1f77b4; opacity: 0.5; stroke: #000000; stroke-width: 0.5; stroke-linejoin: miter"/>
   </g>
   <g id="patch_78">
    <path d="M 1317.772637 463.477032 
L 1333.529774 463.477032 
L 1333.529774 463.477032 
L 1317.772637 463.477032 
z
" clip-path="url(#p3191fc542e)" style="fill: #1f77b4; opacity: 0.5; stroke: #000000; stroke-width: 0.5; stroke-linejoin: miter"/>
   </g>
   <g id="patch_79">
    <path d="M 1333.529774 463.477032 
L 1349.286912 463.477032 
L 1349.286912 463.477032 
L 1333.529774 463.477032 
z
" clip-path="url(#p3191fc542e)" style="fill: #1f77b4; opacity: 0.5; stroke: #000000; stroke-width: 0.5; stroke-linejoin: miter"/>
   </g>
   <g id="patch_80">
    <path d="M 1349.286912 463.477032 
L 1365.044049 463.477032 
L 1365.044049 463.477032 
L 1349.286912 463.477032 
z
" clip-path="url(#p3191fc542e)" style="fill: #1f77b4; opacity: 0.5; stroke: #000000; stroke-width: 0.5; stroke-linejoin: miter"/>
   </g>
   <g id="patch_81">
    <path d="M 1365.044049 463.477032 
L 1380.801186 463.477032 
L 1380.801186 463.477032 
L 1365.044049 463.477032 
z
" clip-path="url(#p3191fc542e)" style="fill: #1f77b4; opacity: 0.5; stroke: #000000; stroke-width: 0.5; stroke-linejoin: miter"/>
   </g>
   <g id="patch_82">
    <path d="M 1380.801186 463.477032 
L 1396.558323 463.477032 
L 1396.558323 463.477032 
L 1380.801186 463.477032 
z
" clip-path="url(#p3191fc542e)" style="fill: #1f77b4; opacity: 0.5; stroke: #000000; stroke-width: 0.5; stroke-linejoin: miter"/>
   </g>
   <g id="patch_83">
    <path d="M 1396.558323 463.477032 
L 1412.31546 463.477032 
L 1412.31546 463.477032 
L 1396.558323 463.477032 
z
" clip-path="url(#p3191fc542e)" style="fill: #1f77b4; opacity: 0.5; stroke: #000000; stroke-width: 0.5; stroke-linejoin: miter"/>
   </g>
   <g id="patch_84">
    <path d="M 1412.31546 463.477032 
L 1428.072597 463.477032 
L 1428.072597 463.477032 
L 1412.31546 463.477032 
z
" clip-path="url(#p3191fc542e)" style="fill: #1f77b4; opacity: 0.5; stroke: #000000; stroke-width: 0.5; stroke-linejoin: miter"/>
   </g>
   <g id="patch_85">
    <path d="M 1428.072597 463.477032 
L 1443.829735 463.477032 
L 1443.829735 463.477032 
L 1428.072597 463.477032 
z
" clip-path="url(#p3191fc542e)" style="fill: #1f77b4; opacity: 0.5; stroke: #000000; stroke-width: 0.5; stroke-linejoin: miter"/>
   </g>
   <g id="patch_86">
    <path d="M 1443.829735 463.477032 
L 1459.586872 463.477032 
L 1459.586872 463.477032 
L 1443.829735 463.477032 
z
" clip-path="url(#p3191fc542e)" style="fill: #1f77b4; opacity: 0.5; stroke: #000000; stroke-width: 0.5; stroke-linejoin: miter"/>
   </g>
   <g id="patch_87">
    <path d="M 1459.586872 463.477032 
L 1475.344009 463.477032 
L 1475.344009 463.477032 
L 1459.586872 463.477032 
z
" clip-path="url(#p3191fc542e)" style="fill: #1f77b4; opacity: 0.5; stroke: #000000; stroke-width: 0.5; stroke-linejoin: miter"/>
   </g>
   <g id="patch_88">
    <path d="M 1475.344009 463.477032 
L 1491.101146 463.477032 
L 1491.101146 463.477032 
L 1475.344009 463.477032 
z
" clip-path="url(#p3191fc542e)" style="fill: #1f77b4; opacity: 0.5; stroke: #000000; stroke-width: 0.5; stroke-linejoin: miter"/>
   </g>
   <g id="patch_89">
    <path d="M 1491.101146 463.477032 
L 1506.858283 463.477032 
L 1506.858283 463.477032 
L 1491.101146 463.477032 
z
" clip-path="url(#p3191fc542e)" style="fill: #1f77b4; opacity: 0.5; stroke: #000000; stroke-width: 0.5; stroke-linejoin: miter"/>
   </g>
   <g id="patch_90">
    <path d="M 1506.858283 463.477032 
L 1522.61542 463.477032 
L 1522.61542 463.477032 
L 1506.858283 463.477032 
z
" clip-path="url(#p3191fc542e)" style="fill: #1f77b4; opacity: 0.5; stroke: #000000; stroke-width: 0.5; stroke-linejoin: miter"/>
   </g>
   <g id="patch_91">
    <path d="M 1522.61542 463.477032 
L 1538.372558 463.477032 
L 1538.372558 463.477032 
L 1522.61542 463.477032 
z
" clip-path="url(#p3191fc542e)" style="fill: #1f77b4; opacity: 0.5; stroke: #000000; stroke-width: 0.5; stroke-linejoin: miter"/>
   </g>
   <g id="patch_92">
    <path d="M 1538.372558 463.477032 
L 1554.129695 463.477032 
L 1554.129695 463.477032 
L 1538.372558 463.477032 
z
" clip-path="url(#p3191fc542e)" style="fill: #1f77b4; opacity: 0.5; stroke: #000000; stroke-width: 0.5; stroke-linejoin: miter"/>
   </g>
   <g id="patch_93">
    <path d="M 1554.129695 463.477032 
L 1569.886832 463.477032 
L 1569.886832 463.477032 
L 1554.129695 463.477032 
z
" clip-path="url(#p3191fc542e)" style="fill: #1f77b4; opacity: 0.5; stroke: #000000; stroke-width: 0.5; stroke-linejoin: miter"/>
   </g>
   <g id="patch_94">
    <path d="M 1569.886832 463.477032 
L 1585.643969 463.477032 
L 1585.643969 463.477032 
L 1569.886832 463.477032 
z
" clip-path="url(#p3191fc542e)" style="fill: #1f77b4; opacity: 0.5; stroke: #000000; stroke-width: 0.5; stroke-linejoin: miter"/>
   </g>
   <g id="patch_95">
    <path d="M 1585.643969 463.477032 
L 1601.401106 463.477032 
L 1601.401106 463.477032 
L 1585.643969 463.477032 
z
" clip-path="url(#p3191fc542e)" style="fill: #1f77b4; opacity: 0.5; stroke: #000000; stroke-width: 0.5; stroke-linejoin: miter"/>
   </g>
   <g id="patch_96">
    <path d="M 1601.401106 463.477032 
L 1617.158244 463.477032 
L 1617.158244 463.477032 
L 1601.401106 463.477032 
z
" clip-path="url(#p3191fc542e)" style="fill: #1f77b4; opacity: 0.5; stroke: #000000; stroke-width: 0.5; stroke-linejoin: miter"/>
   </g>
   <g id="patch_97">
    <path d="M 1617.158244 463.477032 
L 1632.915381 463.477032 
L 1632.915381 463.477032 
L 1617.158244 463.477032 
z
" clip-path="url(#p3191fc542e)" style="fill: #1f77b4; opacity: 0.5; stroke: #000000; stroke-width: 0.5; stroke-linejoin: miter"/>
   </g>
   <g id="patch_98">
    <path d="M 1632.915381 463.477032 
L 1648.672518 463.477032 
L 1648.672518 463.477032 
L 1632.915381 463.477032 
z
" clip-path="url(#p3191fc542e)" style="fill: #1f77b4; opacity: 0.5; stroke: #000000; stroke-width: 0.5; stroke-linejoin: miter"/>
   </g>
   <g id="patch_99">
    <path d="M 1648.672518 463.477032 
L 1664.429655 463.477032 
L 1664.429655 463.477032 
L 1648.672518 463.477032 
z
" clip-path="url(#p3191fc542e)" style="fill: #1f77b4; opacity: 0.5; stroke: #000000; stroke-width: 0.5; stroke-linejoin: miter"/>
   </g>
   <g id="patch_100">
    <path d="M 1664.429655 463.477032 
L 1680.186792 463.477032 
L 1680.186792 463.477032 
L 1664.429655 463.477032 
z
" clip-path="url(#p3191fc542e)" style="fill: #1f77b4; opacity: 0.5; stroke: #000000; stroke-width: 0.5; stroke-linejoin: miter"/>
   </g>
   <g id="patch_101">
    <path d="M 1680.186792 463.477032 
L 1695.943929 463.477032 
L 1695.943929 463.477032 
L 1680.186792 463.477032 
z
" clip-path="url(#p3191fc542e)" style="fill: #1f77b4; opacity: 0.5; stroke: #000000; stroke-width: 0.5; stroke-linejoin: miter"/>
   </g>
   <g id="patch_102">
    <path d="M 1695.943929 463.477032 
L 1711.701067 463.477032 
L 1711.701067 463.477032 
L 1695.943929 463.477032 
z
" clip-path="url(#p3191fc542e)" style="fill: #1f77b4; opacity: 0.5; stroke: #000000; stroke-width: 0.5; stroke-linejoin: miter"/>
   </g>
   <g id="patch_103">
    <path d="M 1711.701067 463.477032 
L 1727.458204 463.477032 
L 1727.458204 463.477032 
L 1711.701067 463.477032 
z
" clip-path="url(#p3191fc542e)" style="fill: #1f77b4; opacity: 0.5; stroke: #000000; stroke-width: 0.5; stroke-linejoin: miter"/>
   </g>
   <g id="patch_104">
    <path d="M 1727.458204 463.477032 
L 1743.215341 463.477032 
L 1743.215341 463.477032 
L 1727.458204 463.477032 
z
" clip-path="url(#p3191fc542e)" style="fill: #1f77b4; opacity: 0.5; stroke: #000000; stroke-width: 0.5; stroke-linejoin: miter"/>
   </g>
   <g id="patch_105">
    <path d="M 1743.215341 463.477032 
L 1758.972478 463.477032 
L 1758.972478 463.477032 
L 1743.215341 463.477032 
z
" clip-path="url(#p3191fc542e)" style="fill: #1f77b4; opacity: 0.5; stroke: #000000; stroke-width: 0.5; stroke-linejoin: miter"/>
   </g>
   <g id="patch_106">
    <path d="M 1758.972478 463.477032 
L 1774.729615 463.477032 
L 1774.729615 463.477032 
L 1758.972478 463.477032 
z
" clip-path="url(#p3191fc542e)" style="fill: #1f77b4; opacity: 0.5; stroke: #000000; stroke-width: 0.5; stroke-linejoin: miter"/>
   </g>
   <g id="patch_107">
    <path d="M 1774.729615 463.477032 
L 1790.486753 463.477032 
L 1790.486753 463.477032 
L 1774.729615 463.477032 
z
" clip-path="url(#p3191fc542e)" style="fill: #1f77b4; opacity: 0.5; stroke: #000000; stroke-width: 0.5; stroke-linejoin: miter"/>
   </g>
   <g id="patch_108">
    <path d="M 1790.486753 463.477032 
L 1806.24389 463.477032 
L 1806.24389 463.477032 
L 1790.486753 463.477032 
z
" clip-path="url(#p3191fc542e)" style="fill: #1f77b4; opacity: 0.5; stroke: #000000; stroke-width: 0.5; stroke-linejoin: miter"/>
   </g>
   <g id="patch_109">
    <path d="M 1806.24389 463.477032 
L 1822.001027 463.477032 
L 1822.001027 463.477032 
L 1806.24389 463.477032 
z
" clip-path="url(#p3191fc542e)" style="fill: #1f77b4; opacity: 0.5; stroke: #000000; stroke-width: 0.5; stroke-linejoin: miter"/>
   </g>
   <g id="patch_110">
    <path d="M 1822.001027 463.477032 
L 1837.758164 463.477032 
L 1837.758164 463.477032 
L 1822.001027 463.477032 
z
" clip-path="url(#p3191fc542e)" style="fill: #1f77b4; opacity: 0.5; stroke: #000000; stroke-width: 0.5; stroke-linejoin: miter"/>
   </g>
   <g id="patch_111">
    <path d="M 1837.758164 463.477032 
L 1853.515301 463.477032 
L 1853.515301 463.477032 
L 1837.758164 463.477032 
z
" clip-path="url(#p3191fc542e)" style="fill: #1f77b4; opacity: 0.5; stroke: #000000; stroke-width: 0.5; stroke-linejoin: miter"/>
   </g>
   <g id="patch_112">
    <path d="M 1853.515301 463.477032 
L 1869.272438 463.477032 
L 1869.272438 463.477032 
L 1853.515301 463.477032 
z
" clip-path="url(#p3191fc542e)" style="fill: #1f77b4; opacity: 0.5; stroke: #000000; stroke-width: 0.5; stroke-linejoin: miter"/>
   </g>
   <g id="patch_113">
    <path d="M 1869.272438 463.477032 
L 1885.029576 463.477032 
L 1885.029576 463.477032 
L 1869.272438 463.477032 
z
" clip-path="url(#p3191fc542e)" style="fill: #1f77b4; opacity: 0.5; stroke: #000000; stroke-width: 0.5; stroke-linejoin: miter"/>
   </g>
   <g id="patch_114">
    <path d="M 1885.029576 463.477032 
L 1900.786713 463.477032 
L 1900.786713 463.477032 
L 1885.029576 463.477032 
z
" clip-path="url(#p3191fc542e)" style="fill: #1f77b4; opacity: 0.5; stroke: #000000; stroke-width: 0.5; stroke-linejoin: miter"/>
   </g>
   <g id="patch_115">
    <path d="M 1900.786713 463.477032 
L 1916.54385 463.477032 
L 1916.54385 463.477032 
L 1900.786713 463.477032 
z
" clip-path="url(#p3191fc542e)" style="fill: #1f77b4; opacity: 0.5; stroke: #000000; stroke-width: 0.5; stroke-linejoin: miter"/>
   </g>
   <g id="patch_116">
    <path d="M 1916.54385 463.477032 
L 1932.300987 463.477032 
L 1932.300987 463.477032 
L 1916.54385 463.477032 
z
" clip-path="url(#p3191fc542e)" style="fill: #1f77b4; opacity: 0.5; stroke: #000000; stroke-width: 0.5; stroke-linejoin: miter"/>
   </g>
   <g id="patch_117">
    <path d="M 1932.300987 463.477032 
L 1948.058124 463.477032 
L 1948.058124 463.477032 
L 1932.300987 463.477032 
z
" clip-path="url(#p3191fc542e)" style="fill: #1f77b4; opacity: 0.5; stroke: #000000; stroke-width: 0.5; stroke-linejoin: miter"/>
   </g>
   <g id="patch_118">
    <path d="M 1948.058124 463.477032 
L 1963.815261 463.477032 
L 1963.815261 463.477032 
L 1948.058124 463.477032 
z
" clip-path="url(#p3191fc542e)" style="fill: #1f77b4; opacity: 0.5; stroke: #000000; stroke-width: 0.5; stroke-linejoin: miter"/>
   </g>
   <g id="patch_119">
    <path d="M 1963.815261 463.477032 
L 1979.572399 463.477032 
L 1979.572399 463.477032 
L 1963.815261 463.477032 
z
" clip-path="url(#p3191fc542e)" style="fill: #1f77b4; opacity: 0.5; stroke: #000000; stroke-width: 0.5; stroke-linejoin: miter"/>
   </g>
   <g id="patch_120">
    <path d="M 1979.572399 463.477032 
L 1995.329536 463.477032 
L 1995.329536 463.477032 
L 1979.572399 463.477032 
z
" clip-path="url(#p3191fc542e)" style="fill: #1f77b4; opacity: 0.5; stroke: #000000; stroke-width: 0.5; stroke-linejoin: miter"/>
   </g>
   <g id="patch_121">
    <path d="M 1995.329536 463.477032 
L 2011.086673 463.477032 
L 2011.086673 463.477032 
L 1995.329536 463.477032 
z
" clip-path="url(#p3191fc542e)" style="fill: #1f77b4; opacity: 0.5; stroke: #000000; stroke-width: 0.5; stroke-linejoin: miter"/>
   </g>
   <g id="patch_122">
    <path d="M 2011.086673 463.477032 
L 2026.84381 463.477032 
L 2026.84381 463.477032 
L 2011.086673 463.477032 
z
" clip-path="url(#p3191fc542e)" style="fill: #1f77b4; opacity: 0.5; stroke: #000000; stroke-width: 0.5; stroke-linejoin: miter"/>
   </g>
   <g id="patch_123">
    <path d="M 2026.84381 463.477032 
L 2042.600947 463.477032 
L 2042.600947 463.477032 
L 2026.84381 463.477032 
z
" clip-path="url(#p3191fc542e)" style="fill: #1f77b4; opacity: 0.5; stroke: #000000; stroke-width: 0.5; stroke-linejoin: miter"/>
   </g>
   <g id="patch_124">
    <path d="M 2042.600947 463.477032 
L 2058.358085 463.477032 
L 2058.358085 463.477032 
L 2042.600947 463.477032 
z
" clip-path="url(#p3191fc542e)" style="fill: #1f77b4; opacity: 0.5; stroke: #000000; stroke-width: 0.5; stroke-linejoin: miter"/>
   </g>
   <g id="patch_125">
    <path d="M 2058.358085 463.477032 
L 2074.115222 463.477032 
L 2074.115222 463.477032 
L 2058.358085 463.477032 
z
" clip-path="url(#p3191fc542e)" style="fill: #1f77b4; opacity: 0.5; stroke: #000000; stroke-width: 0.5; stroke-linejoin: miter"/>
   </g>
   <g id="patch_126">
    <path d="M 2074.115222 463.477032 
L 2089.872359 463.477032 
L 2089.872359 463.477032 
L 2074.115222 463.477032 
z
" clip-path="url(#p3191fc542e)" style="fill: #1f77b4; opacity: 0.5; stroke: #000000; stroke-width: 0.5; stroke-linejoin: miter"/>
   </g>
   <g id="patch_127">
    <path d="M 2089.872359 463.477032 
L 2105.629496 463.477032 
L 2105.629496 463.477032 
L 2089.872359 463.477032 
z
" clip-path="url(#p3191fc542e)" style="fill: #1f77b4; opacity: 0.5; stroke: #000000; stroke-width: 0.5; stroke-linejoin: miter"/>
   </g>
   <g id="matplotlib.axis_1">
    <g id="xtick_1">
     <g id="line2d_1">
      <defs>
       <path id="m536c67b64c" d="M 0 0 
L 0 3.5 
" style="stroke: #000000; stroke-width: 0.8"/>
      </defs>
      <g>
       <use xlink:href="#m536c67b64c" x="63.691714" y="463.477032" style="stroke: #000000; stroke-width: 0.8"/>
      </g>
     </g>
     <g id="text_1">
      <!-- $\mathdefault{0}$ -->
      <g transform="translate(59.579571 482.930332) scale(0.18 -0.18)">
       <defs>
        <path id="CMR17-30" d="M 2688 2025 
C 2688 2416 2682 3080 2413 3591 
C 2176 4039 1798 4198 1466 4198 
C 1158 4198 768 4058 525 3597 
C 269 3118 243 2524 243 2025 
C 243 1661 250 1106 448 619 
C 723 -39 1216 -128 1466 -128 
C 1760 -128 2208 -7 2470 600 
C 2662 1042 2688 1559 2688 2025 
z
M 1466 -26 
C 1056 -26 813 325 723 812 
C 653 1188 653 1738 653 2096 
C 653 2588 653 2997 736 3387 
C 858 3929 1216 4096 1466 4096 
C 1728 4096 2067 3923 2189 3400 
C 2272 3036 2278 2607 2278 2096 
C 2278 1680 2278 1169 2202 792 
C 2067 95 1690 -26 1466 -26 
z
" transform="scale(0.015625)"/>
       </defs>
       <use xlink:href="#CMR17-30" transform="scale(0.996264)"/>
      </g>
     </g>
    </g>
    <g id="xtick_2">
     <g id="line2d_2">
      <g>
       <use xlink:href="#m536c67b64c" x="247.650073" y="463.477032" style="stroke: #000000; stroke-width: 0.8"/>
      </g>
     </g>
     <g id="text_2">
      <!-- $\mathdefault{2}$ -->
      <g transform="translate(243.53793 482.930332) scale(0.18 -0.18)">
       <defs>
        <path id="CMR17-32" d="M 2669 989 
L 2554 989 
C 2490 536 2438 459 2413 420 
C 2381 369 1920 369 1830 369 
L 602 369 
C 832 619 1280 1072 1824 1597 
C 2214 1967 2669 2402 2669 3035 
C 2669 3790 2067 4224 1395 4224 
C 691 4224 262 3604 262 3030 
C 262 2780 448 2748 525 2748 
C 589 2748 781 2787 781 3010 
C 781 3207 614 3264 525 3264 
C 486 3264 448 3258 422 3245 
C 544 3790 915 4058 1306 4058 
C 1862 4058 2227 3617 2227 3035 
C 2227 2479 1901 2000 1536 1584 
L 262 146 
L 262 0 
L 2515 0 
L 2669 989 
z
" transform="scale(0.015625)"/>
       </defs>
       <use xlink:href="#CMR17-32" transform="scale(0.996264)"/>
      </g>
     </g>
    </g>
    <g id="xtick_3">
     <g id="line2d_3">
      <g>
       <use xlink:href="#m536c67b64c" x="431.608431" y="463.477032" style="stroke: #000000; stroke-width: 0.8"/>
      </g>
     </g>
     <g id="text_3">
      <!-- $\mathdefault{4}$ -->
      <g transform="translate(427.496288 482.930332) scale(0.18 -0.18)">
       <defs>
        <path id="CMR17-34" d="M 2150 4122 
C 2150 4256 2144 4256 2029 4256 
L 128 1254 
L 128 1088 
L 1779 1088 
L 1779 457 
C 1779 224 1766 160 1318 160 
L 1197 160 
L 1197 0 
C 1402 0 1747 0 1965 0 
C 2182 0 2528 0 2733 0 
L 2733 160 
L 2611 160 
C 2163 160 2150 224 2150 457 
L 2150 1088 
L 2803 1088 
L 2803 1254 
L 2150 1254 
L 2150 4122 
z
M 1798 3703 
L 1798 1254 
L 256 1254 
L 1798 3703 
z
" transform="scale(0.015625)"/>
       </defs>
       <use xlink:href="#CMR17-34" transform="scale(0.996264)"/>
      </g>
     </g>
    </g>
    <g id="xtick_4">
     <g id="line2d_4">
      <g>
       <use xlink:href="#m536c67b64c" x="615.56679" y="463.477032" style="stroke: #000000; stroke-width: 0.8"/>
      </g>
     </g>
     <g id="text_4">
      <!-- $\mathdefault{6}$ -->
      <g transform="translate(611.454647 482.930332) scale(0.18 -0.18)">
       <defs>
        <path id="CMR17-36" d="M 678 2176 
C 678 3690 1395 4032 1811 4032 
C 1946 4032 2272 4009 2400 3776 
C 2298 3776 2106 3776 2106 3553 
C 2106 3381 2246 3323 2336 3323 
C 2394 3323 2566 3348 2566 3560 
C 2566 3954 2246 4179 1805 4179 
C 1043 4179 243 3390 243 1984 
C 243 253 966 -128 1478 -128 
C 2099 -128 2688 427 2688 1283 
C 2688 2081 2170 2662 1517 2662 
C 1126 2662 838 2407 678 1960 
L 678 2176 
z
M 1478 25 
C 691 25 691 1200 691 1436 
C 691 1896 909 2560 1504 2560 
C 1613 2560 1926 2560 2138 2120 
C 2253 1870 2253 1609 2253 1289 
C 2253 944 2253 690 2118 434 
C 1978 171 1773 25 1478 25 
z
" transform="scale(0.015625)"/>
       </defs>
       <use xlink:href="#CMR17-36" transform="scale(0.996264)"/>
      </g>
     </g>
    </g>
    <g id="xtick_5">
     <g id="line2d_5">
      <g>
       <use xlink:href="#m536c67b64c" x="799.525149" y="463.477032" style="stroke: #000000; stroke-width: 0.8"/>
      </g>
     </g>
     <g id="text_5">
      <!-- $\mathdefault{8}$ -->
      <g transform="translate(795.413006 482.930332) scale(0.18 -0.18)">
       <defs>
        <path id="CMR17-38" d="M 1741 2264 
C 2144 2467 2554 2773 2554 3263 
C 2554 3841 1990 4179 1472 4179 
C 890 4179 378 3759 378 3180 
C 378 3021 416 2747 666 2505 
C 730 2442 998 2251 1171 2130 
C 883 1983 211 1634 211 934 
C 211 279 838 -128 1459 -128 
C 2144 -128 2720 362 2720 1010 
C 2720 1590 2330 1857 2074 2029 
L 1741 2264 
z
M 902 2822 
C 851 2854 595 3051 595 3351 
C 595 3739 998 4032 1459 4032 
C 1965 4032 2336 3676 2336 3262 
C 2336 2669 1670 2331 1638 2331 
C 1632 2331 1626 2331 1574 2370 
L 902 2822 
z
M 2080 1519 
C 2176 1449 2483 1240 2483 851 
C 2483 381 2010 25 1472 25 
C 890 25 448 438 448 940 
C 448 1443 838 1862 1280 2060 
L 2080 1519 
z
" transform="scale(0.015625)"/>
       </defs>
       <use xlink:href="#CMR17-38" transform="scale(0.996264)"/>
      </g>
     </g>
    </g>
    <g id="text_6">
     <!-- Oil Drop Charge Magnitude (Coulombs) -->
     <g transform="translate(354.295474 503.851816) scale(0.18 -0.18)">
      <defs>
       <path id="CMSS17-4f" d="M 4096 2178 
C 4096 3503 3219 4497 2214 4497 
C 1210 4497 333 3497 333 2178 
C 333 847 1222 -128 2214 -128 
C 3206 -128 4096 847 4096 2178 
z
M 2214 273 
C 1510 273 870 1057 870 2261 
C 870 3433 1549 4096 2214 4096 
C 2880 4096 3558 3433 3558 2261 
C 3558 1051 2912 273 2214 273 
z
" transform="scale(0.015625)"/>
       <path id="CMSS17-69" d="M 979 4183 
L 442 4183 
L 442 3648 
L 979 3648 
L 979 4183 
z
M 947 2739 
L 474 2739 
L 474 0 
L 947 0 
L 947 2739 
z
" transform="scale(0.015625)"/>
       <path id="CMSS17-6c" d="M 947 4416 
L 474 4416 
L 474 0 
L 947 0 
L 947 4416 
z
" transform="scale(0.015625)"/>
       <path id="CMSS17-44" d="M 570 4416 
L 570 0 
L 2144 0 
C 3194 0 4000 980 4000 2170 
C 4000 3398 3194 4416 2144 4416 
L 570 4416 
z
M 1094 357 
L 1094 4059 
L 2003 4059 
C 2861 4059 3475 3277 3475 2170 
C 3475 1107 2867 357 2003 357 
L 1094 357 
z
" transform="scale(0.015625)"/>
       <path id="CMSS17-72" d="M 954 1363 
C 954 1965 1395 2368 1958 2368 
L 1958 2789 
C 1549 2789 1165 2585 934 2253 
L 934 2758 
L 480 2758 
L 480 0 
L 954 0 
L 954 1363 
z
" transform="scale(0.015625)"/>
       <path id="CMSS17-6f" d="M 2829 1356 
C 2829 2176 2221 2816 1504 2816 
C 768 2816 173 2157 173 1356 
C 173 544 787 -64 1498 -64 
C 2227 -64 2829 563 2829 1356 
z
M 1504 337 
C 1050 337 659 709 659 1408 
C 659 2151 1114 2427 1498 2427 
C 1914 2427 2342 2126 2342 1408 
C 2342 683 1926 337 1504 337 
z
" transform="scale(0.015625)"/>
       <path id="CMSS17-70" d="M 966 333 
C 1178 129 1466 -5 1773 -5 
C 2368 -5 2880 603 2880 1412 
C 2880 2159 2496 2816 1946 2816 
C 1626 2816 1242 2702 954 2472 
L 954 2765 
L 480 2765 
L 480 -1216 
L 966 -1216 
L 966 333 
z
M 966 2100 
C 1018 2176 1235 2415 1587 2415 
C 2035 2415 2394 1960 2394 1412 
C 2394 787 1958 384 1530 384 
C 1402 384 1267 415 1139 523 
C 966 674 966 768 966 857 
L 966 2100 
z
" transform="scale(0.015625)"/>
       <path id="CMSS17-43" d="M 3501 714 
C 3072 427 2874 344 2355 344 
C 1459 344 934 1303 934 2179 
C 934 3112 1472 4032 2381 4032 
C 2790 4032 3059 3918 3386 3715 
L 3475 4217 
C 3168 4370 2778 4440 2387 4440 
C 1158 4440 397 3316 397 2179 
C 397 927 1299 -64 2323 -64 
C 2874 -64 3066 -19 3539 280 
L 3501 714 
z
" transform="scale(0.015625)"/>
       <path id="CMSS17-68" d="M 2618 1891 
C 2618 2292 2522 2820 1798 2820 
C 1395 2820 1133 2623 947 2407 
L 947 4448 
L 474 4448 
L 474 32 
L 960 32 
L 960 1573 
C 960 1973 1114 2432 1549 2432 
C 2112 2432 2131 2056 2131 1839 
L 2131 32 
L 2618 32 
L 2618 1891 
z
" transform="scale(0.015625)"/>
       <path id="CMSS17-61" d="M 2406 1791 
C 2406 2392 1978 2808 1402 2808 
C 1120 2808 813 2757 461 2553 
L 499 2135 
C 659 2248 934 2432 1395 2432 
C 1722 2432 1920 2180 1920 1782 
L 1920 1536 
C 896 1536 256 1238 256 726 
C 256 461 416 -64 947 -64 
C 1043 -64 1562 -64 1933 217 
L 1933 -19 
L 2406 -19 
L 2406 1791 
z
M 1920 816 
C 1920 701 1920 548 1728 434 
C 1562 325 1350 325 1261 325 
C 941 325 723 511 723 744 
C 723 1211 1722 1211 1920 1211 
L 1920 816 
z
" transform="scale(0.015625)"/>
       <path id="CMSS17-67" d="M 2848 2808 
C 2483 2808 2170 2738 1914 2617 
C 1702 2777 1485 2808 1338 2808 
C 781 2808 358 2349 358 1814 
C 358 1468 550 1207 563 1195 
C 448 1035 384 863 384 672 
C 384 448 474 289 544 200 
C 211 -3 166 -314 166 -435 
C 166 -898 749 -1280 1498 -1280 
C 2253 -1280 2835 -898 2835 -428 
C 2835 448 1856 448 1587 448 
L 1069 448 
C 973 448 717 448 717 791 
C 717 921 774 1004 781 1010 
C 877 940 1075 832 1338 832 
C 1869 832 2310 1278 2310 1827 
C 2310 2132 2170 2355 2112 2432 
L 2131 2432 
C 2150 2432 2419 2432 2515 2432 
C 2720 2432 2739 2429 2918 2419 
L 2848 2808 
z
M 1338 1182 
C 1120 1182 813 1315 813 1823 
C 813 2375 1165 2464 1331 2464 
C 1549 2464 1856 2331 1856 1823 
C 1856 1271 1504 1182 1338 1182 
z
M 1581 -10 
C 1734 -10 2381 -10 2381 -442 
C 2381 -714 1984 -929 1504 -929 
C 1018 -929 621 -720 621 -435 
C 621 -403 621 -10 1062 -10 
L 1581 -10 
z
" transform="scale(0.015625)"/>
       <path id="CMSS17-65" d="M 2502 1377 
C 2502 1590 2490 2003 2285 2345 
C 2061 2713 1696 2816 1421 2816 
C 755 2816 192 2188 192 1375 
C 192 582 774 -64 1510 -64 
C 1798 -64 2150 19 2470 248 
C 2470 274 2458 414 2451 420 
C 2451 433 2432 630 2432 656 
C 2125 407 1773 325 1517 325 
C 1107 325 666 667 646 1377 
L 2502 1377 
z
M 698 1728 
C 781 2084 1062 2421 1421 2421 
C 1517 2421 1965 2421 2080 1728 
L 698 1728 
z
" transform="scale(0.015625)"/>
       <path id="CMSS17-4d" d="M 3194 2371 
L 2886 1473 
C 2835 1307 2662 791 2624 587 
L 2618 587 
C 2598 715 2560 849 2458 1174 
C 2400 1365 2336 1562 2272 1741 
L 1325 4416 
L 576 4416 
L 576 0 
L 1075 0 
L 1075 3900 
L 1082 3900 
C 1082 3894 1139 3613 1530 2499 
L 2374 96 
L 2848 96 
L 3610 2231 
C 3661 2378 3821 2843 3891 3066 
C 3955 3257 4115 3728 4154 3913 
L 4160 3913 
L 4160 0 
L 4666 0 
L 4666 4416 
L 3923 4416 
L 3194 2371 
z
" transform="scale(0.015625)"/>
       <path id="CMSS17-6e" d="M 2618 1877 
C 2618 2283 2522 2816 1798 2816 
C 1389 2816 1120 2606 941 2389 
L 941 2758 
L 474 2758 
L 474 0 
L 960 0 
L 960 1559 
C 960 1964 1114 2428 1549 2428 
C 2112 2428 2131 2048 2131 1829 
L 2131 0 
L 2618 0 
L 2618 1877 
z
" transform="scale(0.015625)"/>
       <path id="CMSS17-74" d="M 1069 2368 
L 1901 2368 
L 1901 2737 
L 1069 2737 
L 1069 3520 
L 614 3520 
L 614 2737 
L 109 2737 
L 109 2368 
L 602 2368 
L 602 749 
C 602 384 685 -64 1107 -64 
C 1427 -64 1722 25 2003 172 
L 1901 548 
C 1747 414 1562 337 1363 337 
C 1082 337 1069 696 1069 856 
L 1069 2368 
z
" transform="scale(0.015625)"/>
       <path id="CMSS17-75" d="M 2618 2739 
L 2131 2739 
L 2131 972 
C 2131 498 1786 306 1421 306 
C 998 306 960 447 960 709 
L 960 2739 
L 474 2739 
L 474 678 
C 474 179 646 -64 1088 -64 
C 1306 -64 1798 -13 2144 306 
L 2144 0 
L 2618 0 
L 2618 2739 
z
" transform="scale(0.015625)"/>
       <path id="CMSS17-64" d="M 2611 4416 
L 2138 4416 
L 2138 2438 
C 1939 2603 1613 2756 1254 2756 
C 672 2756 211 2131 211 1347 
C 211 562 666 -64 1235 -64 
C 1677 -64 1971 172 2125 306 
L 2125 -13 
L 2611 -13 
L 2611 4416 
z
M 2125 836 
C 2125 747 2125 653 1926 482 
C 1798 375 1645 325 1498 325 
C 1152 325 698 576 698 1340 
C 698 2134 1210 2368 1562 2368 
C 1798 2368 1990 2254 2125 2065 
L 2125 836 
z
" transform="scale(0.015625)"/>
       <path id="CMSS17-28" d="M 1613 4768 
C 1267 4417 474 3601 474 1588 
C 474 -433 1267 -1243 1613 -1600 
L 2003 -1600 
C 1216 -784 960 357 960 1581 
C 960 2798 1203 3946 2003 4768 
L 1613 4768 
z
" transform="scale(0.015625)"/>
       <path id="CMSS17-6d" d="M 4288 1877 
C 4288 2308 4179 2816 3462 2816 
C 2982 2816 2694 2516 2566 2331 
C 2451 2670 2182 2816 1798 2816 
C 1363 2816 1088 2568 941 2389 
L 941 2758 
L 474 2758 
L 474 0 
L 960 0 
L 960 1559 
C 960 1939 1101 2428 1555 2428 
C 2138 2428 2138 2016 2138 1829 
L 2138 0 
L 2624 0 
L 2624 1559 
C 2624 1939 2765 2428 3219 2428 
C 3802 2428 3802 2016 3802 1829 
L 3802 0 
L 4288 0 
L 4288 1877 
z
" transform="scale(0.015625)"/>
       <path id="CMSS17-62" d="M 954 4416 
L 480 4416 
L 480 -13 
L 966 -13 
L 966 274 
C 1210 38 1504 -64 1766 -64 
C 2381 -64 2880 549 2880 1352 
C 2880 2086 2496 2756 1926 2756 
C 1523 2756 1165 2591 954 2419 
L 954 4416 
z
M 966 2046 
C 1107 2222 1306 2368 1587 2368 
C 1965 2368 2394 2097 2394 1352 
C 2394 558 1882 325 1530 325 
C 1402 325 1267 356 1139 464 
C 966 615 966 709 966 797 
L 966 2046 
z
" transform="scale(0.015625)"/>
       <path id="CMSS17-73" d="M 2061 2627 
C 1683 2807 1389 2807 1197 2807 
C 742 2807 198 2648 198 2003 
C 198 1359 902 1218 1094 1179 
C 1389 1122 1715 1058 1715 740 
C 1715 337 1254 337 1171 337 
C 915 337 563 407 243 638 
L 166 210 
C 531 0 883 -64 1178 -64 
C 1965 -64 2163 416 2163 781 
C 2163 1094 1984 1305 1862 1401 
C 1651 1568 1574 1587 1050 1696 
C 960 1709 646 1779 646 2066 
C 646 2432 1050 2432 1139 2432 
C 1555 2432 1811 2303 1984 2208 
L 2061 2627 
z
" transform="scale(0.015625)"/>
       <path id="CMSS17-29" d="M 723 -1600 
C 1069 -1249 1862 -433 1862 1581 
C 1862 3601 1069 4411 723 4768 
L 333 4768 
C 1120 3952 1376 2811 1376 1588 
C 1376 370 1133 -778 333 -1600 
L 723 -1600 
z
" transform="scale(0.015625)"/>
      </defs>
      <use xlink:href="#CMSS17-4f" transform="scale(0.996264)"/>
      <use xlink:href="#CMSS17-69" transform="translate(69.024255 0) scale(0.996264)"/>
      <use xlink:href="#CMSS17-6c" transform="translate(91.204978 0) scale(0.996264)"/>
      <use xlink:href="#CMSS17-44" transform="translate(144.614814 0) scale(0.996264)"/>
      <use xlink:href="#CMSS17-72" transform="translate(212.157656 0) scale(0.996264)"/>
      <use xlink:href="#CMSS17-6f" transform="translate(244.067428 0) scale(0.996264)"/>
      <use xlink:href="#CMSS17-70" transform="translate(290.911052 0) scale(0.996264)"/>
      <use xlink:href="#CMSS17-43" transform="translate(370.345108 0) scale(0.996264)"/>
      <use xlink:href="#CMSS17-68" transform="translate(430.200879 0) scale(0.996264)"/>
      <use xlink:href="#CMSS17-61" transform="translate(478.405823 0) scale(0.996264)"/>
      <use xlink:href="#CMSS17-72" transform="translate(520.725289 0) scale(0.996264)"/>
      <use xlink:href="#CMSS17-67" transform="translate(552.635062 0) scale(0.996264)"/>
      <use xlink:href="#CMSS17-65" transform="translate(599.478685 0) scale(0.996264)"/>
      <use xlink:href="#CMSS17-4d" transform="translate(672.34662 0) scale(0.996264)"/>
      <use xlink:href="#CMSS17-61" transform="translate(754.02265 0) scale(0.996264)"/>
      <use xlink:href="#CMSS17-67" transform="translate(798.944571 0) scale(0.996264)"/>
      <use xlink:href="#CMSS17-6e" transform="translate(845.788194 0) scale(0.996264)"/>
      <use xlink:href="#CMSS17-69" transform="translate(893.993137 0) scale(0.996264)"/>
      <use xlink:href="#CMSS17-74" transform="translate(916.17386 0) scale(0.996264)"/>
      <use xlink:href="#CMSS17-75" transform="translate(950.005427 0) scale(0.996264)"/>
      <use xlink:href="#CMSS17-64" transform="translate(998.21037 0) scale(0.996264)"/>
      <use xlink:href="#CMSS17-65" transform="translate(1046.415313 0) scale(0.996264)"/>
      <use xlink:href="#CMSS17-28" transform="translate(1119.283248 0) scale(0.996264)"/>
      <use xlink:href="#CMSS17-43" transform="translate(1155.717162 0) scale(0.996264)"/>
      <use xlink:href="#CMSS17-6f" transform="translate(1215.572934 0) scale(0.996264)"/>
      <use xlink:href="#CMSS17-75" transform="translate(1262.416557 0) scale(0.996264)"/>
      <use xlink:href="#CMSS17-6c" transform="translate(1310.621501 0) scale(0.996264)"/>
      <use xlink:href="#CMSS17-6f" transform="translate(1332.802224 0) scale(0.996264)"/>
      <use xlink:href="#CMSS17-6d" transform="translate(1379.645847 0) scale(0.996264)"/>
      <use xlink:href="#CMSS17-62" transform="translate(1453.875102 0) scale(0.996264)"/>
      <use xlink:href="#CMSS17-73" transform="translate(1502.080045 0) scale(0.996264)"/>
      <use xlink:href="#CMSS17-29" transform="translate(1537.993587 0) scale(0.996264)"/>
     </g>
    </g>
    <g id="text_7">
     <!-- $\times\mathdefault{10^{19}}\mathdefault{}$ -->
     <g transform="translate(875.845093 502.022012) scale(0.18 -0.18)">
      <defs>
       <path id="CMSY10-2" d="M 2490 1785 
L 1210 3059 
C 1133 3136 1120 3148 1069 3148 
C 1005 3148 941 3091 941 3020 
C 941 2976 954 2963 1024 2892 
L 2304 1606 
L 1024 320 
C 954 249 941 236 941 192 
C 941 121 1005 64 1069 64 
C 1120 64 1133 76 1210 153 
L 2483 1427 
L 3808 102 
C 3821 96 3866 64 3904 64 
C 3981 64 4032 121 4032 192 
C 4032 204 4032 230 4013 262 
C 4006 275 2989 1280 2669 1606 
L 3840 2777 
C 3872 2816 3968 2899 4000 2937 
C 4006 2950 4032 2976 4032 3020 
C 4032 3091 3981 3148 3904 3148 
C 3853 3148 3827 3123 3757 3052 
L 2490 1785 
z
" transform="scale(0.015625)"/>
       <path id="CMR17-31" d="M 1702 4058 
C 1702 4192 1696 4192 1606 4192 
C 1357 3916 979 3827 621 3827 
C 602 3827 570 3827 563 3808 
C 557 3795 557 3782 557 3648 
C 755 3648 1088 3686 1344 3839 
L 1344 461 
C 1344 236 1331 160 781 160 
L 589 160 
L 589 0 
C 896 0 1216 0 1523 0 
C 1830 0 2150 0 2458 0 
L 2458 160 
L 2266 160 
C 1715 160 1702 230 1702 458 
L 1702 4058 
z
" transform="scale(0.015625)"/>
       <path id="CMSY10-0" d="M 4218 1472 
C 4326 1472 4442 1472 4442 1600 
C 4442 1728 4326 1728 4218 1728 
L 755 1728 
C 646 1728 531 1728 531 1600 
C 531 1472 646 1472 755 1472 
L 4218 1472 
z
" transform="scale(0.015625)"/>
       <path id="CMR17-39" d="M 2253 1864 
C 2253 464 1670 31 1190 31 
C 1043 31 685 31 538 294 
C 704 268 826 357 826 518 
C 826 692 685 749 595 749 
C 538 749 365 723 365 506 
C 365 71 742 -128 1203 -128 
C 1939 -128 2688 674 2688 2073 
C 2688 3817 1971 4179 1485 4179 
C 851 4179 243 3628 243 2778 
C 243 1991 762 1408 1414 1408 
C 1952 1408 2189 1903 2253 2112 
L 2253 1864 
z
M 1427 1510 
C 1254 1510 1011 1542 813 1922 
C 678 2169 678 2461 678 2771 
C 678 3146 678 3405 858 3684 
C 947 3817 1114 4032 1485 4032 
C 2240 4032 2240 2885 2240 2632 
C 2240 2182 2035 1510 1427 1510 
z
" transform="scale(0.015625)"/>
      </defs>
      <use xlink:href="#CMSY10-2" transform="scale(0.996264)"/>
      <use xlink:href="#CMR17-31" transform="translate(77.487468 0) scale(0.996264)"/>
      <use xlink:href="#CMR17-30" transform="translate(123.177945 0) scale(0.996264)"/>
      <use xlink:href="#CMSY10-0" transform="translate(168.868422 36.153639) scale(0.697382)"/>
      <use xlink:href="#CMR17-31" transform="translate(223.109415 36.153639) scale(0.697382)"/>
      <use xlink:href="#CMR17-39" transform="translate(255.092597 36.153639) scale(0.697382)"/>
     </g>
    </g>
   </g>
   <g id="matplotlib.axis_2">
    <g id="ytick_1">
     <g id="line2d_6">
      <defs>
       <path id="m9d5e081f22" d="M 0 0 
L -3.5 0 
" style="stroke: #000000; stroke-width: 0.8"/>
      </defs>
      <g>
       <use xlink:href="#m9d5e081f22" x="63.691714" y="463.477032" style="stroke: #000000; stroke-width: 0.8"/>
      </g>
     </g>
     <g id="text_8">
      <!-- $\mathdefault{0.0}$ -->
      <g transform="translate(35.36565 469.703682) scale(0.18 -0.18)">
       <defs>
        <path id="CMMI12-3a" d="M 1178 307 
C 1178 492 1024 619 870 619 
C 685 619 557 466 557 313 
C 557 128 710 0 864 0 
C 1050 0 1178 153 1178 307 
z
" transform="scale(0.015625)"/>
       </defs>
       <use xlink:href="#CMR17-30" transform="scale(0.996264)"/>
       <use xlink:href="#CMMI12-3a" transform="translate(45.690477 0) scale(0.996264)"/>
       <use xlink:href="#CMR17-30" transform="translate(72.787654 0) scale(0.996264)"/>
      </g>
     </g>
    </g>
    <g id="ytick_2">
     <g id="line2d_7">
      <g>
       <use xlink:href="#m9d5e081f22" x="63.691714" y="407.220734" style="stroke: #000000; stroke-width: 0.8"/>
      </g>
     </g>
     <g id="text_9">
      <!-- $\mathdefault{2.5}$ -->
      <g transform="translate(35.36565 413.447384) scale(0.18 -0.18)">
       <defs>
        <path id="CMR17-35" d="M 730 3692 
C 794 3666 1056 3584 1325 3584 
C 1920 3584 2246 3911 2432 4100 
C 2432 4157 2432 4192 2394 4192 
C 2387 4192 2374 4192 2323 4163 
C 2099 4058 1837 3973 1517 3973 
C 1325 3973 1037 3999 723 4139 
C 653 4171 640 4171 634 4171 
C 602 4171 595 4164 595 4037 
L 595 2203 
C 595 2089 595 2057 659 2057 
C 691 2057 704 2070 736 2114 
C 941 2401 1222 2522 1542 2522 
C 1766 2522 2246 2382 2246 1289 
C 2246 1085 2246 715 2054 421 
C 1894 159 1645 25 1370 25 
C 947 25 518 320 403 814 
C 429 807 480 795 506 795 
C 589 795 749 840 749 1038 
C 749 1210 627 1280 506 1280 
C 358 1280 262 1190 262 1011 
C 262 454 704 -128 1382 -128 
C 2042 -128 2669 440 2669 1264 
C 2669 2030 2170 2624 1549 2624 
C 1222 2624 947 2503 730 2274 
L 730 3692 
z
" transform="scale(0.015625)"/>
       </defs>
       <use xlink:href="#CMR17-32" transform="scale(0.996264)"/>
       <use xlink:href="#CMMI12-3a" transform="translate(45.690477 0) scale(0.996264)"/>
       <use xlink:href="#CMR17-35" transform="translate(72.787654 0) scale(0.996264)"/>
      </g>
     </g>
    </g>
    <g id="ytick_3">
     <g id="line2d_8">
      <g>
       <use xlink:href="#m9d5e081f22" x="63.691714" y="350.964437" style="stroke: #000000; stroke-width: 0.8"/>
      </g>
     </g>
     <g id="text_10">
      <!-- $\mathdefault{5.0}$ -->
      <g transform="translate(35.36565 357.191087) scale(0.18 -0.18)">
       <use xlink:href="#CMR17-35" transform="scale(0.996264)"/>
       <use xlink:href="#CMMI12-3a" transform="translate(45.690477 0) scale(0.996264)"/>
       <use xlink:href="#CMR17-30" transform="translate(72.787654 0) scale(0.996264)"/>
      </g>
     </g>
    </g>
    <g id="ytick_4">
     <g id="line2d_9">
      <g>
       <use xlink:href="#m9d5e081f22" x="63.691714" y="294.708139" style="stroke: #000000; stroke-width: 0.8"/>
      </g>
     </g>
     <g id="text_11">
      <!-- $\mathdefault{7.5}$ -->
      <g transform="translate(35.36565 300.934789) scale(0.18 -0.18)">
       <defs>
        <path id="CMR17-37" d="M 2886 3941 
L 2886 4081 
L 1382 4081 
C 634 4081 621 4165 595 4288 
L 480 4288 
L 294 3094 
L 410 3094 
C 429 3215 474 3540 550 3661 
C 589 3712 1062 3712 1171 3712 
L 2579 3712 
L 1869 2661 
C 1395 1954 1069 999 1069 165 
C 1069 89 1069 -128 1299 -128 
C 1530 -128 1530 89 1530 171 
L 1530 465 
C 1530 1508 1709 2196 2003 2636 
L 2886 3941 
z
" transform="scale(0.015625)"/>
       </defs>
       <use xlink:href="#CMR17-37" transform="scale(0.996264)"/>
       <use xlink:href="#CMMI12-3a" transform="translate(45.690477 0) scale(0.996264)"/>
       <use xlink:href="#CMR17-35" transform="translate(72.787654 0) scale(0.996264)"/>
      </g>
     </g>
    </g>
    <g id="ytick_5">
     <g id="line2d_10">
      <g>
       <use xlink:href="#m9d5e081f22" x="63.691714" y="238.451841" style="stroke: #000000; stroke-width: 0.8"/>
      </g>
     </g>
     <g id="text_12">
      <!-- $\mathdefault{10.0}$ -->
      <g transform="translate(27.141364 244.678491) scale(0.18 -0.18)">
       <use xlink:href="#CMR17-31" transform="scale(0.996264)"/>
       <use xlink:href="#CMR17-30" transform="translate(45.690477 0) scale(0.996264)"/>
       <use xlink:href="#CMMI12-3a" transform="translate(91.380954 0) scale(0.996264)"/>
       <use xlink:href="#CMR17-30" transform="translate(118.478131 0) scale(0.996264)"/>
      </g>
     </g>
    </g>
    <g id="ytick_6">
     <g id="line2d_11">
      <g>
       <use xlink:href="#m9d5e081f22" x="63.691714" y="182.195543" style="stroke: #000000; stroke-width: 0.8"/>
      </g>
     </g>
     <g id="text_13">
      <!-- $\mathdefault{12.5}$ -->
      <g transform="translate(27.141364 188.422193) scale(0.18 -0.18)">
       <use xlink:href="#CMR17-31" transform="scale(0.996264)"/>
       <use xlink:href="#CMR17-32" transform="translate(45.690477 0) scale(0.996264)"/>
       <use xlink:href="#CMMI12-3a" transform="translate(91.380954 0) scale(0.996264)"/>
       <use xlink:href="#CMR17-35" transform="translate(118.478131 0) scale(0.996264)"/>
      </g>
     </g>
    </g>
    <g id="ytick_7">
     <g id="line2d_12">
      <g>
       <use xlink:href="#m9d5e081f22" x="63.691714" y="125.939246" style="stroke: #000000; stroke-width: 0.8"/>
      </g>
     </g>
     <g id="text_14">
      <!-- $\mathdefault{15.0}$ -->
      <g transform="translate(27.141364 132.165896) scale(0.18 -0.18)">
       <use xlink:href="#CMR17-31" transform="scale(0.996264)"/>
       <use xlink:href="#CMR17-35" transform="translate(45.690477 0) scale(0.996264)"/>
       <use xlink:href="#CMMI12-3a" transform="translate(91.380954 0) scale(0.996264)"/>
       <use xlink:href="#CMR17-30" transform="translate(118.478131 0) scale(0.996264)"/>
      </g>
     </g>
    </g>
    <g id="ytick_8">
     <g id="line2d_13">
      <g>
       <use xlink:href="#m9d5e081f22" x="63.691714" y="69.682948" style="stroke: #000000; stroke-width: 0.8"/>
      </g>
     </g>
     <g id="text_15">
      <!-- $\mathdefault{17.5}$ -->
      <g transform="translate(27.141364 75.909598) scale(0.18 -0.18)">
       <use xlink:href="#CMR17-31" transform="scale(0.996264)"/>
       <use xlink:href="#CMR17-37" transform="translate(45.690477 0) scale(0.996264)"/>
       <use xlink:href="#CMMI12-3a" transform="translate(91.380954 0) scale(0.996264)"/>
       <use xlink:href="#CMR17-35" transform="translate(118.478131 0) scale(0.996264)"/>
      </g>
     </g>
    </g>
    <g id="ytick_9">
     <g id="line2d_14">
      <g>
       <use xlink:href="#m9d5e081f22" x="63.691714" y="13.42665" style="stroke: #000000; stroke-width: 0.8"/>
      </g>
     </g>
     <g id="text_16">
      <!-- $\mathdefault{20.0}$ -->
      <g transform="translate(27.141364 19.6533) scale(0.18 -0.18)">
       <use xlink:href="#CMR17-32" transform="scale(0.996264)"/>
       <use xlink:href="#CMR17-30" transform="translate(45.690477 0) scale(0.996264)"/>
       <use xlink:href="#CMMI12-3a" transform="translate(91.380954 0) scale(0.996264)"/>
       <use xlink:href="#CMR17-30" transform="translate(118.478131 0) scale(0.996264)"/>
      </g>
     </g>
    </g>
    <g id="text_17">
     <!-- Counts -->
     <g transform="translate(19.6533 263.008732) rotate(-90) scale(0.18 -0.18)">
      <use xlink:href="#CMSS17-43" transform="scale(0.996264)"/>
      <use xlink:href="#CMSS17-6f" transform="translate(59.855772 0) scale(0.996264)"/>
      <use xlink:href="#CMSS17-75" transform="translate(106.699395 0) scale(0.996264)"/>
      <use xlink:href="#CMSS17-6e" transform="translate(154.904338 0) scale(0.996264)"/>
      <use xlink:href="#CMSS17-74" transform="translate(203.109281 0) scale(0.996264)"/>
      <use xlink:href="#CMSS17-73" transform="translate(236.940848 0) scale(0.996264)"/>
     </g>
    </g>
   </g>
   <g id="LineCollection_1">
    <path d="M 321.233416 463.477032 
L 321.233416 -1 
" clip-path="url(#p3191fc542e)" style="fill: none; stroke: #000000; stroke-opacity: 0.5; stroke-width: 3"/>
    <path d="M 468.400103 463.477032 
L 468.400103 -1 
" clip-path="url(#p3191fc542e)" style="fill: none; stroke: #000000; stroke-opacity: 0.5; stroke-width: 3"/>
    <path d="M 606.368872 463.477032 
L 606.368872 -1 
" clip-path="url(#p3191fc542e)" style="fill: none; stroke: #000000; stroke-opacity: 0.5; stroke-width: 3"/>
    <path d="M 744.337641 463.477032 
L 744.337641 -1 
" clip-path="url(#p3191fc542e)" style="fill: none; stroke: #000000; stroke-opacity: 0.5; stroke-width: 3"/>
   </g>
   <g id="LineCollection_2">
    <path d="M 241.951503 463.477032 
L 241.951503 -1 
" clip-path="url(#p3191fc542e)" style="fill: none; stroke-dasharray: 11.1,4.8; stroke-dashoffset: 0; stroke: #ff0000; stroke-width: 3"/>
    <path d="M 413.571498 463.477032 
L 413.571498 -1 
" clip-path="url(#p3191fc542e)" style="fill: none; stroke-dasharray: 11.1,4.8; stroke-dashoffset: 0; stroke: #ff0000; stroke-width: 3"/>
    <path d="M 528.936936 463.477032 
L 528.936936 -1 
" clip-path="url(#p3191fc542e)" style="fill: none; stroke-dasharray: 11.1,4.8; stroke-dashoffset: 0; stroke: #ff0000; stroke-width: 3"/>
    <path d="M 684.991111 463.477032 
L 684.991111 -1 
" clip-path="url(#p3191fc542e)" style="fill: none; stroke-dasharray: 11.1,4.8; stroke-dashoffset: 0; stroke: #ff0000; stroke-width: 3"/>
    <path d="M 830.031607 463.477032 
L 830.031607 -1 
" clip-path="url(#p3191fc542e)" style="fill: none; stroke-dasharray: 11.1,4.8; stroke-dashoffset: 0; stroke: #ff0000; stroke-width: 3"/>
   </g>
   <g id="patch_128">
    <path d="M 63.691714 463.477032 
L 63.691714 13.42665 
" style="fill: none; stroke: #000000; stroke-width: 0.8; stroke-linejoin: miter; stroke-linecap: square"/>
   </g>
   <g id="patch_129">
    <path d="M 928.296 463.477032 
L 928.296 13.42665 
" style="fill: none; stroke: #000000; stroke-width: 0.8; stroke-linejoin: miter; stroke-linecap: square"/>
   </g>
   <g id="patch_130">
    <path d="M 63.691714 463.477032 
L 928.296 463.477032 
" style="fill: none; stroke: #000000; stroke-width: 0.8; stroke-linejoin: miter; stroke-linecap: square"/>
   </g>
   <g id="patch_131">
    <path d="M 63.691714 13.42665 
L 928.296 13.42665 
" style="fill: none; stroke: #000000; stroke-width: 0.8; stroke-linejoin: miter; stroke-linecap: square"/>
   </g>
  </g>
 </g>
 <defs>
  <clipPath id="p3191fc542e">
   <rect x="63.691714" y="13.42665" width="864.604286" height="450.050382"/>
  </clipPath>
 </defs>
</svg>
