<?xml version="1.0" encoding="utf-8" standalone="no"?>
<!DOCTYPE svg PUBLIC "-//W3C//DTD SVG 1.1//EN"
  "http://www.w3.org/Graphics/SVG/1.1/DTD/svg11.dtd">
<svg xmlns:xlink="http://www.w3.org/1999/xlink" width="479.88pt" height="199.62pt" viewBox="0 0 479.88 199.62" xmlns="http://www.w3.org/2000/svg" version="1.1">
 <metadata>
  <rdf:RDF xmlns:dc="http://purl.org/dc/elements/1.1/" xmlns:cc="http://creativecommons.org/ns#" xmlns:rdf="http://www.w3.org/1999/02/22-rdf-syntax-ns#">
   <cc:Work>
    <dc:type rdf:resource="http://purl.org/dc/dcmitype/StillImage"/>
    <dc:date>2024-02-22T08:06:19.179723</dc:date>
    <dc:format>image/svg+xml</dc:format>
    <dc:creator>
     <cc:Agent>
      <dc:title>Matplotlib v3.7.1, https://matplotlib.org/</dc:title>
     </cc:Agent>
    </dc:creator>
   </cc:Work>
  </rdf:RDF>
 </metadata>
 <defs>
  <style type="text/css">*{stroke-linejoin: round; stroke-linecap: butt}</style>
 </defs>
 <g id="figure_1">
  <g id="patch_1">
   <path d="M 0 199.62 
L 479.88 199.62 
L 479.88 -0 
L 0 -0 
z
" style="fill: #ffffff"/>
  </g>
  <g id="axes_1">
   <g id="patch_2">
    <path d="M 47.997839 144.989155 
L 253.188919 144.989155 
L 253.188919 7.2 
L 47.997839 7.2 
z
" style="fill: #ffffff"/>
   </g>
   <g id="matplotlib.axis_1">
    <g id="xtick_1">
     <g id="line2d_1">
      <defs>
       <path id="m0ead4dfc3d" d="M 0 0 
L 0 3.5 
" style="stroke: #000000; stroke-width: 0.8"/>
      </defs>
      <g>
       <use xlink:href="#m0ead4dfc3d" x="88.414264" y="144.989155" style="stroke: #000000; stroke-width: 0.8"/>
      </g>
     </g>
     <g id="text_1">
      <!-- $\mathdefault{−2}$ -->
      <g transform="translate(82.049224 158.907654) scale(0.1 -0.1)">
       <defs>
        <path id="CMSY10-0" d="M 4218 1472 
C 4326 1472 4442 1472 4442 1600 
C 4442 1728 4326 1728 4218 1728 
L 755 1728 
C 646 1728 531 1728 531 1600 
C 531 1472 646 1472 755 1472 
L 4218 1472 
z
" transform="scale(0.015625)"/>
        <path id="CMR17-32" d="M 2669 989 
L 2554 989 
C 2490 536 2438 459 2413 420 
C 2381 369 1920 369 1830 369 
L 602 369 
C 832 619 1280 1072 1824 1597 
C 2214 1967 2669 2402 2669 3035 
C 2669 3790 2067 4224 1395 4224 
C 691 4224 262 3604 262 3030 
C 262 2780 448 2748 525 2748 
C 589 2748 781 2787 781 3010 
C 781 3207 614 3264 525 3264 
C 486 3264 448 3258 422 3245 
C 544 3790 915 4058 1306 4058 
C 1862 4058 2227 3617 2227 3035 
C 2227 2479 1901 2000 1536 1584 
L 262 146 
L 262 0 
L 2515 0 
L 2669 989 
z
" transform="scale(0.015625)"/>
       </defs>
       <use xlink:href="#CMSY10-0" transform="scale(0.996264)"/>
       <use xlink:href="#CMR17-32" transform="translate(77.487468 0) scale(0.996264)"/>
      </g>
     </g>
    </g>
    <g id="xtick_2">
     <g id="line2d_2">
      <g>
       <use xlink:href="#m0ead4dfc3d" x="150.593379" y="144.989155" style="stroke: #000000; stroke-width: 0.8"/>
      </g>
     </g>
     <g id="text_2">
      <!-- $\mathdefault{−1}$ -->
      <g transform="translate(144.228339 158.907654) scale(0.1 -0.1)">
       <defs>
        <path id="CMR17-31" d="M 1702 4058 
C 1702 4192 1696 4192 1606 4192 
C 1357 3916 979 3827 621 3827 
C 602 3827 570 3827 563 3808 
C 557 3795 557 3782 557 3648 
C 755 3648 1088 3686 1344 3839 
L 1344 461 
C 1344 236 1331 160 781 160 
L 589 160 
L 589 0 
C 896 0 1216 0 1523 0 
C 1830 0 2150 0 2458 0 
L 2458 160 
L 2266 160 
C 1715 160 1702 230 1702 458 
L 1702 4058 
z
" transform="scale(0.015625)"/>
       </defs>
       <use xlink:href="#CMSY10-0" transform="scale(0.996264)"/>
       <use xlink:href="#CMR17-31" transform="translate(77.487468 0) scale(0.996264)"/>
      </g>
     </g>
    </g>
    <g id="xtick_3">
     <g id="line2d_3">
      <g>
       <use xlink:href="#m0ead4dfc3d" x="212.772494" y="144.989155" style="stroke: #000000; stroke-width: 0.8"/>
      </g>
     </g>
     <g id="text_3">
      <!-- $\mathdefault{0}$ -->
      <g transform="translate(210.281827 158.907654) scale(0.1 -0.1)">
       <defs>
        <path id="CMR17-30" d="M 2688 2025 
C 2688 2416 2682 3080 2413 3591 
C 2176 4039 1798 4198 1466 4198 
C 1158 4198 768 4058 525 3597 
C 269 3118 243 2524 243 2025 
C 243 1661 250 1106 448 619 
C 723 -39 1216 -128 1466 -128 
C 1760 -128 2208 -7 2470 600 
C 2662 1042 2688 1559 2688 2025 
z
M 1466 -26 
C 1056 -26 813 325 723 812 
C 653 1188 653 1738 653 2096 
C 653 2588 653 2997 736 3387 
C 858 3929 1216 4096 1466 4096 
C 1728 4096 2067 3923 2189 3400 
C 2272 3036 2278 2607 2278 2096 
C 2278 1680 2278 1169 2202 792 
C 2067 95 1690 -26 1466 -26 
z
" transform="scale(0.015625)"/>
       </defs>
       <use xlink:href="#CMR17-30" transform="scale(0.996264)"/>
      </g>
     </g>
    </g>
   </g>
   <g id="matplotlib.axis_2">
    <g id="ytick_1">
     <g id="line2d_4">
      <defs>
       <path id="mae6a70ee09" d="M 0 0 
L -3.5 0 
" style="stroke: #000000; stroke-width: 0.8"/>
      </defs>
      <g>
       <use xlink:href="#mae6a70ee09" x="47.997839" y="133.274209" style="stroke: #000000; stroke-width: 0.8"/>
      </g>
     </g>
     <g id="text_4">
      <!-- $\mathdefault{0}$ -->
      <g transform="translate(36.016503 136.733459) scale(0.1 -0.1)">
       <use xlink:href="#CMR17-30" transform="scale(0.996264)"/>
      </g>
     </g>
    </g>
    <g id="ytick_2">
     <g id="line2d_5">
      <g>
       <use xlink:href="#mae6a70ee09" x="47.997839" y="105.385094" style="stroke: #000000; stroke-width: 0.8"/>
      </g>
     </g>
     <g id="text_5">
      <!-- $\mathdefault{20}$ -->
      <g transform="translate(31.035168 108.844344) scale(0.1 -0.1)">
       <use xlink:href="#CMR17-32" transform="scale(0.996264)"/>
       <use xlink:href="#CMR17-30" transform="translate(45.690477 0) scale(0.996264)"/>
      </g>
     </g>
    </g>
    <g id="ytick_3">
     <g id="line2d_6">
      <g>
       <use xlink:href="#mae6a70ee09" x="47.997839" y="77.49598" style="stroke: #000000; stroke-width: 0.8"/>
      </g>
     </g>
     <g id="text_6">
      <!-- $\mathdefault{40}$ -->
      <g transform="translate(31.035168 80.955229) scale(0.1 -0.1)">
       <defs>
        <path id="CMR17-34" d="M 2150 4122 
C 2150 4256 2144 4256 2029 4256 
L 128 1254 
L 128 1088 
L 1779 1088 
L 1779 457 
C 1779 224 1766 160 1318 160 
L 1197 160 
L 1197 0 
C 1402 0 1747 0 1965 0 
C 2182 0 2528 0 2733 0 
L 2733 160 
L 2611 160 
C 2163 160 2150 224 2150 457 
L 2150 1088 
L 2803 1088 
L 2803 1254 
L 2150 1254 
L 2150 4122 
z
M 1798 3703 
L 1798 1254 
L 256 1254 
L 1798 3703 
z
" transform="scale(0.015625)"/>
       </defs>
       <use xlink:href="#CMR17-34" transform="scale(0.996264)"/>
       <use xlink:href="#CMR17-30" transform="translate(45.690477 0) scale(0.996264)"/>
      </g>
     </g>
    </g>
    <g id="ytick_4">
     <g id="line2d_7">
      <g>
       <use xlink:href="#mae6a70ee09" x="47.997839" y="49.606865" style="stroke: #000000; stroke-width: 0.8"/>
      </g>
     </g>
     <g id="text_7">
      <!-- $\mathdefault{60}$ -->
      <g transform="translate(31.035168 53.066114) scale(0.1 -0.1)">
       <defs>
        <path id="CMR17-36" d="M 678 2176 
C 678 3690 1395 4032 1811 4032 
C 1946 4032 2272 4009 2400 3776 
C 2298 3776 2106 3776 2106 3553 
C 2106 3381 2246 3323 2336 3323 
C 2394 3323 2566 3348 2566 3560 
C 2566 3954 2246 4179 1805 4179 
C 1043 4179 243 3390 243 1984 
C 243 253 966 -128 1478 -128 
C 2099 -128 2688 427 2688 1283 
C 2688 2081 2170 2662 1517 2662 
C 1126 2662 838 2407 678 1960 
L 678 2176 
z
M 1478 25 
C 691 25 691 1200 691 1436 
C 691 1896 909 2560 1504 2560 
C 1613 2560 1926 2560 2138 2120 
C 2253 1870 2253 1609 2253 1289 
C 2253 944 2253 690 2118 434 
C 1978 171 1773 25 1478 25 
z
" transform="scale(0.015625)"/>
       </defs>
       <use xlink:href="#CMR17-36" transform="scale(0.996264)"/>
       <use xlink:href="#CMR17-30" transform="translate(45.690477 0) scale(0.996264)"/>
      </g>
     </g>
    </g>
    <g id="ytick_5">
     <g id="line2d_8">
      <g>
       <use xlink:href="#mae6a70ee09" x="47.997839" y="21.71775" style="stroke: #000000; stroke-width: 0.8"/>
      </g>
     </g>
     <g id="text_8">
      <!-- $\mathdefault{80}$ -->
      <g transform="translate(31.035168 25.176999) scale(0.1 -0.1)">
       <defs>
        <path id="CMR17-38" d="M 1741 2264 
C 2144 2467 2554 2773 2554 3263 
C 2554 3841 1990 4179 1472 4179 
C 890 4179 378 3759 378 3180 
C 378 3021 416 2747 666 2505 
C 730 2442 998 2251 1171 2130 
C 883 1983 211 1634 211 934 
C 211 279 838 -128 1459 -128 
C 2144 -128 2720 362 2720 1010 
C 2720 1590 2330 1857 2074 2029 
L 1741 2264 
z
M 902 2822 
C 851 2854 595 3051 595 3351 
C 595 3739 998 4032 1459 4032 
C 1965 4032 2336 3676 2336 3262 
C 2336 2669 1670 2331 1638 2331 
C 1632 2331 1626 2331 1574 2370 
L 902 2822 
z
M 2080 1519 
C 2176 1449 2483 1240 2483 851 
C 2483 381 2010 25 1472 25 
C 890 25 448 438 448 940 
C 448 1443 838 1862 1280 2060 
L 2080 1519 
z
" transform="scale(0.015625)"/>
       </defs>
       <use xlink:href="#CMR17-38" transform="scale(0.996264)"/>
       <use xlink:href="#CMR17-30" transform="translate(45.690477 0) scale(0.996264)"/>
      </g>
     </g>
    </g>
   </g>
   <g id="line2d_9">
    <path d="M 57.324706 134.852497 
L 58.568288 134.853025 
L 59.190079 135.121115 
L 59.811871 134.900277 
L 62.299035 134.864744 
L 62.920826 134.927573 
L 63.542617 134.861402 
L 65.407991 134.965266 
L 67.895156 134.710053 
L 68.516947 134.814154 
L 72.247694 134.770561 
L 74.734858 134.946196 
L 75.978441 134.836604 
L 77.222023 134.879623 
L 77.843814 134.895111 
L 78.465605 134.655011 
L 79.087396 134.835555 
L 82.196352 134.848863 
L 82.818143 134.991972 
L 84.061726 134.850276 
L 84.683517 134.975554 
L 85.305308 134.798894 
L 85.927099 134.919067 
L 94.632175 134.817059 
L 95.875757 135.142657 
L 97.741131 134.876743 
L 102.093669 134.943485 
L 103.337251 134.852091 
L 103.959042 134.949253 
L 105.202625 134.896911 
L 107.067998 134.828093 
L 108.311581 134.896263 
L 110.798745 134.980891 
L 112.042327 134.904827 
L 112.664119 134.832943 
L 113.907701 134.923111 
L 114.529492 134.865289 
L 115.151283 134.956346 
L 115.773074 134.863844 
L 117.016657 134.912708 
L 119.503821 134.836301 
L 120.747404 134.947187 
L 121.990986 134.921293 
L 123.856359 134.974668 
L 124.478151 134.86423 
L 125.721733 135.012552 
L 126.965315 134.855713 
L 127.587106 134.952807 
L 128.208897 134.869156 
L 129.45248 134.922336 
L 131.317853 134.853741 
L 131.939644 135.006622 
L 132.561436 135.026456 
L 133.183227 134.900358 
L 134.426809 134.974406 
L 135.670391 134.890158 
L 136.292182 134.869825 
L 136.913974 135.199437 
L 138.157556 134.883661 
L 138.779347 134.966223 
L 141.266512 134.937301 
L 143.753676 134.950861 
L 144.375467 134.796325 
L 144.997259 134.948892 
L 147.484423 134.95456 
L 149.349797 134.744099 
L 149.971588 134.887511 
L 151.21517 134.811069 
L 151.836961 134.964842 
L 152.458752 134.831888 
L 153.702335 134.873139 
L 155.567708 134.916017 
L 156.811291 134.869794 
L 161.78562 134.93007 
L 162.407411 134.868587 
L 163.029202 134.948203 
L 164.272784 134.86571 
L 166.138158 134.980495 
L 166.759949 135.08219 
L 168.625322 134.850331 
L 169.247114 134.911176 
L 169.868905 134.787247 
L 172.97786 134.878956 
L 174.843234 134.717482 
L 176.086816 134.704328 
L 176.708607 134.602172 
L 177.95219 134.643676 
L 178.573981 134.614472 
L 179.817563 134.363538 
L 180.439354 134.310305 
L 181.682937 134.054761 
L 182.926519 133.919276 
L 183.54831 133.848252 
L 184.170101 133.54214 
L 185.413684 133.198484 
L 186.035475 132.88578 
L 186.657266 132.786621 
L 189.766222 131.215438 
L 191.009804 130.258275 
L 192.875177 128.764366 
L 196.605924 124.821413 
L 197.849507 123.090622 
L 199.093089 121.330154 
L 200.958462 118.29954 
L 204.067418 112.544147 
L 207.176374 105.816976 
L 210.28533 98.355499 
L 214.637868 87.006512 
L 217.125032 80.229294 
L 227.073691 52.776379 
L 228.939064 47.961676 
L 231.426229 41.354001 
L 238.265932 25.07644 
L 243.862052 13.463143 
L 243.862052 13.463143 
" clip-path="url(#p95b291f578)" style="fill: none; stroke: #1f77b4; stroke-width: 1.5; stroke-linecap: square"/>
   </g>
   <g id="line2d_10">
    <path d="M 57.324706 135.132074 
L 57.946497 136.374589 
L 58.568288 135.254264 
L 59.190079 135.791911 
L 59.811871 135.38182 
L 60.433662 135.485085 
L 61.055453 135.365728 
L 61.677244 135.710002 
L 62.299035 135.218172 
L 62.920826 135.515392 
L 63.542617 135.339424 
L 64.164409 134.913675 
L 65.407991 134.810421 
L 66.651573 134.905799 
L 70.38232 134.879119 
L 71.004111 134.938792 
L 71.625902 134.814173 
L 74.734858 134.905252 
L 75.356649 134.950981 
L 75.978441 134.862936 
L 76.600232 134.928446 
L 77.222023 134.810808 
L 80.95277 134.874631 
L 93.388593 134.962819 
L 94.010384 135.101407 
L 94.632175 134.930187 
L 95.253966 134.887005 
L 95.875757 135.12508 
L 97.11934 134.812898 
L 98.984713 134.917743 
L 99.606504 134.80436 
L 105.202625 134.886502 
L 106.446207 134.894611 
L 107.689789 134.944465 
L 108.311581 134.828921 
L 109.555163 134.939648 
L 112.664119 134.874553 
L 113.28591 134.967441 
L 118.260239 134.8508 
L 119.503821 134.90767 
L 120.125612 134.795732 
L 120.747404 134.986568 
L 121.369195 134.863726 
L 125.099942 134.870132 
L 125.721733 134.966518 
L 127.587106 134.869356 
L 129.45248 134.873507 
L 130.074271 134.96991 
L 130.696062 134.825124 
L 132.561436 134.924033 
L 133.183227 134.769233 
L 133.805018 134.891706 
L 136.292182 134.844123 
L 136.913974 135.032253 
L 137.535765 135.006733 
L 138.157556 134.837245 
L 140.644721 134.844058 
L 141.266512 134.919401 
L 142.510094 134.782895 
L 143.753676 134.84041 
L 145.61905 134.832637 
L 146.240841 134.905728 
L 146.862632 134.823456 
L 148.106214 134.951051 
L 148.728006 134.953428 
L 149.349797 134.842416 
L 150.593379 134.906088 
L 153.702335 134.952306 
L 154.324126 134.864193 
L 155.567708 134.863167 
L 156.189499 134.78591 
L 156.811291 134.928837 
L 168.003531 134.802146 
L 168.625322 134.746703 
L 169.247114 134.906561 
L 170.490696 134.825295 
L 171.112487 134.966279 
L 171.734278 134.853331 
L 173.599652 134.879125 
L 174.221443 134.718216 
L 176.086816 134.806124 
L 176.708607 134.545901 
L 177.330399 134.820778 
L 177.95219 134.653652 
L 179.195772 134.560569 
L 179.817563 134.455 
L 180.439354 134.463859 
L 181.682937 134.240334 
L 182.926519 134.232366 
L 183.54831 134.093495 
L 184.170101 133.792964 
L 186.657266 133.257865 
L 190.388013 131.60321 
L 192.253386 130.576201 
L 193.496969 129.77103 
L 194.11876 129.18807 
L 194.740551 128.839252 
L 195.984133 127.718537 
L 196.605924 127.188771 
L 200.958462 122.230074 
L 205.932792 114.759021 
L 207.176374 112.561331 
L 208.419956 110.370655 
L 212.150703 103.500752 
L 214.016077 99.536101 
L 218.990406 89.060768 
L 220.855779 85.024098 
L 221.47757 83.873574 
L 222.721153 81.132418 
L 225.208317 75.737115 
L 225.830109 74.632404 
L 226.4519 73.072008 
L 233.291602 59.755374 
L 235.156976 56.457872 
L 236.400558 54.089212 
L 238.887723 49.810711 
L 240.753096 46.895815 
L 243.240261 42.878346 
L 243.862052 41.992871 
L 243.862052 41.992871 
" clip-path="url(#p95b291f578)" style="fill: none; stroke: #ff7f0e; stroke-width: 1.5; stroke-linecap: square"/>
   </g>
   <g id="line2d_11">
    <path d="M 57.324706 135.275265 
L 57.946497 136.419541 
L 58.568288 135.356947 
L 59.190079 135.784035 
L 59.811871 135.440456 
L 60.433662 135.510697 
L 61.055453 135.295305 
L 61.677244 135.756041 
L 62.299035 135.224091 
L 62.920826 135.026982 
L 64.7862 134.841537 
L 66.029782 135.019244 
L 66.651573 134.851589 
L 67.895156 134.886426 
L 69.138738 134.844716 
L 69.760529 134.893329 
L 70.38232 135.065363 
L 71.625902 134.803854 
L 72.869485 134.873517 
L 74.113067 134.929181 
L 74.734858 134.869287 
L 75.356649 135.173606 
L 75.978441 135.265432 
L 76.600232 135.051944 
L 77.843814 134.906293 
L 84.061726 134.968269 
L 84.683517 134.844427 
L 86.54889 134.95767 
L 90.279637 134.902468 
L 90.901428 134.934094 
L 91.523219 134.833306 
L 94.632175 134.927239 
L 95.875757 134.592817 
L 96.497549 134.869238 
L 97.11934 134.783865 
L 98.362922 134.777939 
L 101.471878 134.810466 
L 102.093669 134.904792 
L 103.337251 134.827699 
L 107.689789 134.8751 
L 109.555163 134.80949 
L 112.664119 134.832646 
L 113.907701 134.878182 
L 115.773074 134.927057 
L 117.638448 134.862968 
L 118.260239 134.86693 
L 118.88203 134.758154 
L 119.503821 134.845438 
L 120.125612 134.809782 
L 120.747404 134.988113 
L 121.990986 134.838285 
L 124.478151 134.900098 
L 127.587106 134.919303 
L 128.830689 134.99472 
L 130.696062 134.854888 
L 135.0486 134.759683 
L 136.913974 134.821117 
L 157.433082 134.857075 
L 158.676664 134.834337 
L 164.894575 134.893244 
L 165.516367 134.781537 
L 166.759949 134.905982 
L 168.003531 134.818272 
L 169.247114 134.858346 
L 169.868905 134.936872 
L 170.490696 134.84917 
L 172.97786 134.929661 
L 174.843234 134.739857 
L 175.465025 134.868147 
L 176.086816 134.849066 
L 176.708607 134.596553 
L 177.330399 134.742683 
L 180.439354 134.46527 
L 182.926519 134.274688 
L 183.54831 134.060163 
L 184.170101 133.997499 
L 184.791892 134.05597 
L 189.14443 132.893701 
L 193.496969 130.984695 
L 194.11876 130.510813 
L 195.362342 129.83401 
L 197.227715 128.472233 
L 198.471298 127.525355 
L 200.958462 125.198014 
L 202.823836 123.38133 
L 204.067418 121.943367 
L 205.311 120.427572 
L 208.419956 116.297443 
L 211.528912 111.823892 
L 213.394285 108.931484 
L 218.368615 100.947992 
L 220.855779 96.502899 
L 221.47757 95.907797 
L 232.04802 79.394275 
L 233.291602 77.639864 
L 233.913394 76.957348 
L 234.535185 75.891988 
L 240.131305 68.525971 
L 240.753096 67.849042 
L 241.374887 66.974025 
L 243.862052 64.157346 
L 243.862052 64.157346 
" clip-path="url(#p95b291f578)" style="fill: none; stroke: #2ca02c; stroke-width: 1.5; stroke-linecap: square"/>
   </g>
   <g id="line2d_12">
    <path d="M 57.324706 135.060317 
L 57.946497 134.888035 
L 61.677244 134.836889 
L 67.273364 134.831455 
L 67.895156 134.793949 
L 69.138738 134.838081 
L 69.760529 134.825178 
L 70.38232 134.97549 
L 71.625902 134.68861 
L 72.247694 134.837662 
L 72.869485 134.736281 
L 73.491276 134.895874 
L 74.734858 134.809254 
L 75.978441 135.189034 
L 77.222023 134.863276 
L 78.465605 134.807687 
L 79.087396 134.790432 
L 79.709187 135.014857 
L 80.95277 134.824099 
L 81.574561 134.906501 
L 83.439934 134.866526 
L 84.683517 134.874665 
L 85.927099 134.81721 
L 89.657846 134.875258 
L 90.279637 134.791466 
L 91.523219 134.835557 
L 95.875757 134.636524 
L 96.497549 134.939287 
L 97.741131 134.702858 
L 98.362922 134.841261 
L 99.606504 134.752547 
L 100.228296 134.84142 
L 100.850087 134.775867 
L 102.093669 134.810838 
L 105.824416 134.84313 
L 108.311581 134.827104 
L 110.798745 134.818757 
L 111.420536 134.757083 
L 112.664119 134.84517 
L 115.151283 134.819817 
L 115.773074 134.871062 
L 117.016657 134.82905 
L 118.260239 134.821326 
L 118.88203 134.670999 
L 119.503821 134.814246 
L 120.747404 134.789154 
L 121.369195 134.850306 
L 122.612777 134.737381 
L 123.234568 134.839794 
L 125.721733 134.80612 
L 128.830689 134.924338 
L 129.45248 134.802634 
L 130.074271 134.881743 
L 131.317853 134.752813 
L 133.183227 134.80633 
L 134.426809 134.823319 
L 136.292182 134.821204 
L 138.779347 134.901526 
L 140.644721 134.878927 
L 141.266512 134.930766 
L 142.510094 134.841147 
L 144.375467 134.882589 
L 148.106214 134.834297 
L 149.349797 134.861897 
L 151.836961 134.800322 
L 156.189499 134.799185 
L 156.811291 134.900863 
L 158.054873 134.784298 
L 159.298455 134.792089 
L 159.920246 134.77198 
L 160.542037 134.876632 
L 163.029202 134.770054 
L 163.650993 134.860674 
L 164.894575 134.790034 
L 166.138158 134.780752 
L 170.490696 134.640984 
L 171.112487 134.550733 
L 171.734278 134.89234 
L 174.843234 134.730647 
L 175.465025 134.786655 
L 176.708607 134.723531 
L 182.304728 134.477821 
L 183.54831 134.261243 
L 184.170101 134.166409 
L 184.791892 134.250231 
L 185.413684 134.197947 
L 186.035475 133.96562 
L 187.279057 133.822477 
L 192.253386 132.528443 
L 193.496969 132.090046 
L 194.740551 131.584058 
L 195.362342 131.367336 
L 200.958462 128.215378 
L 205.932792 124.268726 
L 209.663539 120.890384 
L 210.907121 119.632568 
L 219.612197 110.196685 
L 220.233988 109.163922 
L 220.855779 108.424651 
L 221.47757 108.122315 
L 224.586526 104.681463 
L 230.804438 97.914033 
L 238.887723 90.053872 
L 239.509514 89.662332 
L 240.753096 88.530071 
L 241.996679 87.540277 
L 242.61847 86.881215 
L 243.240261 86.524011 
L 243.862052 85.977603 
L 243.862052 85.977603 
" clip-path="url(#p95b291f578)" style="fill: none; stroke: #d62728; stroke-width: 1.5; stroke-linecap: square"/>
   </g>
   <g id="patch_3">
    <path d="M 47.997839 144.989155 
L 47.997839 7.2 
" style="fill: none; stroke: #000000; stroke-width: 0.8; stroke-linejoin: miter; stroke-linecap: square"/>
   </g>
   <g id="patch_4">
    <path d="M 253.188919 144.989155 
L 253.188919 7.2 
" style="fill: none; stroke: #000000; stroke-width: 0.8; stroke-linejoin: miter; stroke-linecap: square"/>
   </g>
   <g id="patch_5">
    <path d="M 47.997839 144.989155 
L 253.188919 144.989155 
" style="fill: none; stroke: #000000; stroke-width: 0.8; stroke-linejoin: miter; stroke-linecap: square"/>
   </g>
   <g id="patch_6">
    <path d="M 47.997839 7.2 
L 253.188919 7.2 
" style="fill: none; stroke: #000000; stroke-width: 0.8; stroke-linejoin: miter; stroke-linecap: square"/>
   </g>
  </g>
  <g id="axes_2">
   <g id="patch_7">
    <path d="M 267.488919 144.989155 
L 472.68 144.989155 
L 472.68 7.2 
L 267.488919 7.2 
z
" style="fill: #ffffff"/>
   </g>
   <g id="matplotlib.axis_3">
    <g id="xtick_4">
     <g id="line2d_13">
      <g>
       <use xlink:href="#m0ead4dfc3d" x="307.905344" y="144.989155" style="stroke: #000000; stroke-width: 0.8"/>
      </g>
     </g>
     <g id="text_9">
      <!-- $\mathdefault{−2}$ -->
      <g transform="translate(301.540305 158.907654) scale(0.1 -0.1)">
       <use xlink:href="#CMSY10-0" transform="scale(0.996264)"/>
       <use xlink:href="#CMR17-32" transform="translate(77.487468 0) scale(0.996264)"/>
      </g>
     </g>
    </g>
    <g id="xtick_5">
     <g id="line2d_14">
      <g>
       <use xlink:href="#m0ead4dfc3d" x="370.08446" y="144.989155" style="stroke: #000000; stroke-width: 0.8"/>
      </g>
     </g>
     <g id="text_10">
      <!-- $\mathdefault{−1}$ -->
      <g transform="translate(363.71942 158.907654) scale(0.1 -0.1)">
       <use xlink:href="#CMSY10-0" transform="scale(0.996264)"/>
       <use xlink:href="#CMR17-31" transform="translate(77.487468 0) scale(0.996264)"/>
      </g>
     </g>
    </g>
    <g id="xtick_6">
     <g id="line2d_15">
      <g>
       <use xlink:href="#m0ead4dfc3d" x="432.263575" y="144.989155" style="stroke: #000000; stroke-width: 0.8"/>
      </g>
     </g>
     <g id="text_11">
      <!-- $\mathdefault{0}$ -->
      <g transform="translate(429.772907 158.907654) scale(0.1 -0.1)">
       <use xlink:href="#CMR17-30" transform="scale(0.996264)"/>
      </g>
     </g>
    </g>
   </g>
   <g id="matplotlib.axis_4">
    <g id="ytick_6">
     <g id="line2d_16">
      <g>
       <use xlink:href="#mae6a70ee09" x="267.488919" y="133.274209" style="stroke: #000000; stroke-width: 0.8"/>
      </g>
     </g>
    </g>
    <g id="ytick_7">
     <g id="line2d_17">
      <g>
       <use xlink:href="#mae6a70ee09" x="267.488919" y="105.385094" style="stroke: #000000; stroke-width: 0.8"/>
      </g>
     </g>
    </g>
    <g id="ytick_8">
     <g id="line2d_18">
      <g>
       <use xlink:href="#mae6a70ee09" x="267.488919" y="77.49598" style="stroke: #000000; stroke-width: 0.8"/>
      </g>
     </g>
    </g>
    <g id="ytick_9">
     <g id="line2d_19">
      <g>
       <use xlink:href="#mae6a70ee09" x="267.488919" y="49.606865" style="stroke: #000000; stroke-width: 0.8"/>
      </g>
     </g>
    </g>
    <g id="ytick_10">
     <g id="line2d_20">
      <g>
       <use xlink:href="#mae6a70ee09" x="267.488919" y="21.71775" style="stroke: #000000; stroke-width: 0.8"/>
      </g>
     </g>
    </g>
   </g>
   <g id="line2d_21">
    <path d="M 276.815787 134.852497 
L 278.059369 134.853025 
L 278.68116 135.121115 
L 279.302951 134.900277 
L 281.790116 134.864744 
L 282.411907 134.927573 
L 283.033698 134.861402 
L 284.899072 134.965266 
L 287.386236 134.710053 
L 288.008027 134.814154 
L 291.738774 134.770561 
L 294.225939 134.946196 
L 295.469521 134.836604 
L 296.713104 134.879623 
L 297.334895 134.895111 
L 297.956686 134.655011 
L 298.578477 134.835555 
L 301.687433 134.848863 
L 302.309224 134.991972 
L 303.552806 134.850276 
L 304.174597 134.975554 
L 304.796389 134.798894 
L 305.41818 134.919067 
L 314.123256 134.817059 
L 315.366838 135.142657 
L 317.232212 134.876743 
L 321.58475 134.943485 
L 322.828332 134.852091 
L 323.450123 134.949253 
L 324.693705 134.896911 
L 326.559079 134.828093 
L 327.802661 134.896263 
L 330.289826 134.980891 
L 331.533408 134.904827 
L 332.155199 134.832943 
L 333.398782 134.923111 
L 334.020573 134.865289 
L 334.642364 134.956346 
L 335.264155 134.863844 
L 336.507737 134.912708 
L 338.994902 134.836301 
L 340.238484 134.947187 
L 341.482067 134.921293 
L 343.34744 134.974668 
L 343.969231 134.86423 
L 345.212814 135.012552 
L 346.456396 134.855713 
L 347.078187 134.952807 
L 347.699978 134.869156 
L 348.94356 134.922336 
L 350.808934 134.853741 
L 351.430725 135.006622 
L 352.052516 135.026456 
L 352.674307 134.900358 
L 353.91789 134.974406 
L 355.161472 134.890158 
L 355.783263 134.869825 
L 356.405054 135.199437 
L 357.648637 134.883661 
L 358.270428 134.966223 
L 360.757592 134.937301 
L 363.244757 134.950861 
L 363.866548 134.796325 
L 364.488339 134.948892 
L 366.975504 134.95456 
L 368.840877 134.744099 
L 369.462669 134.887511 
L 370.706251 134.811069 
L 371.328042 134.964842 
L 371.949833 134.831888 
L 373.193415 134.873139 
L 375.058789 134.916017 
L 376.302371 134.869794 
L 381.2767 134.93007 
L 381.898492 134.868587 
L 382.520283 134.948203 
L 383.763865 134.86571 
L 385.629238 134.980495 
L 386.25103 135.08219 
L 388.116403 134.850331 
L 388.738194 134.911176 
L 389.359985 134.787247 
L 392.468941 134.878956 
L 394.334315 134.717482 
L 395.577897 134.704328 
L 396.199688 134.602172 
L 397.44327 134.643676 
L 398.065062 134.614472 
L 399.308644 134.363538 
L 399.930435 134.310305 
L 401.174017 134.054761 
L 402.4176 133.919276 
L 403.039391 133.848252 
L 403.661182 133.54214 
L 404.904764 133.198484 
L 405.526555 132.88578 
L 406.148347 132.786621 
L 409.257302 131.215438 
L 410.500885 130.258275 
L 412.366258 128.764366 
L 416.097005 124.821413 
L 417.340587 123.090622 
L 418.58417 121.330154 
L 420.449543 118.29954 
L 423.558499 112.544147 
L 426.667455 105.816976 
L 429.77641 98.355499 
L 434.128948 87.006512 
L 436.616113 80.229294 
L 446.564772 52.776379 
L 448.430145 47.961676 
L 450.91731 41.354001 
L 457.757012 25.07644 
L 463.353133 13.463143 
L 463.353133 13.463143 
" clip-path="url(#p0045f93393)" style="fill: none; stroke: #1f77b4; stroke-width: 1.5; stroke-linecap: square"/>
   </g>
   <g id="line2d_22">
    <path d="M 276.815787 135.710813 
L 277.437578 137.340381 
L 278.059369 135.871066 
L 278.68116 136.576194 
L 279.302951 136.038356 
L 279.924742 136.17379 
L 280.546534 136.017252 
L 281.168325 136.46877 
L 281.790116 135.823731 
L 282.411907 136.213537 
L 283.033698 135.982755 
L 283.655489 135.424381 
L 284.899072 135.288963 
L 285.520863 135.412474 
L 287.386236 135.361024 
L 288.629819 135.310573 
L 289.25161 135.285114 
L 290.495192 135.457322 
L 291.116983 135.293883 
L 294.225939 135.413334 
L 294.84773 135.473309 
L 295.469521 135.357837 
L 296.091312 135.443753 
L 296.713104 135.28947 
L 299.200268 135.357141 
L 311.636091 135.332846 
L 313.501465 135.670593 
L 314.123256 135.446037 
L 314.745047 135.389404 
L 315.366838 135.70164 
L 316.61042 135.292212 
L 318.475794 135.429716 
L 319.097585 135.281014 
L 324.693705 135.388743 
L 325.937288 135.399378 
L 327.18087 135.464763 
L 327.802661 135.313226 
L 329.046244 135.458445 
L 330.289826 135.4697 
L 330.911617 135.504444 
L 331.533408 135.366967 
L 332.155199 135.373072 
L 332.77699 135.494896 
L 336.507737 135.403227 
L 339.616693 135.269698 
L 340.238484 135.519981 
L 340.860275 135.358873 
L 344.591022 135.367274 
L 345.212814 135.493685 
L 346.456396 135.387696 
L 348.94356 135.371701 
L 349.565352 135.498134 
L 350.187143 135.308245 
L 352.052516 135.437966 
L 352.674307 135.234944 
L 353.296099 135.395568 
L 355.783263 135.333163 
L 356.405054 135.579897 
L 357.026845 135.546428 
L 357.648637 135.324143 
L 359.51401 135.310099 
L 361.379384 135.275515 
L 362.001175 135.252862 
L 363.244757 135.328293 
L 363.866548 135.302968 
L 364.488339 135.411209 
L 365.11013 135.3181 
L 365.731922 135.413959 
L 366.353713 135.306059 
L 366.975504 135.449454 
L 368.219086 135.476517 
L 368.840877 135.330924 
L 370.08446 135.41443 
L 373.193415 135.475046 
L 373.815207 135.359485 
L 374.436998 135.425443 
L 375.68058 135.256817 
L 376.302371 135.444266 
L 387.494612 135.27811 
L 388.116403 135.205396 
L 388.738194 135.415051 
L 389.981777 135.30847 
L 390.603568 135.493372 
L 391.225359 135.34524 
L 392.468941 135.514613 
L 393.712523 135.168035 
L 395.577897 135.283327 
L 396.199688 134.942042 
L 396.821479 135.302546 
L 397.44327 135.083359 
L 398.686853 134.961279 
L 399.308644 134.822825 
L 399.930435 134.834444 
L 401.174017 134.541289 
L 402.4176 134.530839 
L 403.039391 134.348709 
L 403.661182 133.95456 
L 404.904764 133.529595 
L 406.770138 132.917346 
L 407.391929 132.536344 
L 408.01372 132.344752 
L 410.500885 130.681632 
L 412.988049 128.679762 
L 413.60984 127.915206 
L 414.231632 127.457729 
L 414.853423 126.622366 
L 416.097005 125.29311 
L 417.340587 123.597547 
L 418.58417 121.788574 
L 421.693125 116.594436 
L 424.18029 111.785685 
L 429.154619 100.360196 
L 431.019993 95.532956 
L 431.641784 94.226092 
L 433.507157 89.026421 
L 438.481487 75.287942 
L 440.34686 69.993817 
L 440.968651 68.484897 
L 442.212233 64.88985 
L 444.699398 57.813869 
L 445.321189 56.365032 
L 445.94298 54.31856 
L 452.782683 36.853693 
L 453.404474 35.486611 
L 454.026265 33.836516 
L 454.648057 32.528993 
L 455.891639 29.422478 
L 458.378803 23.81119 
L 459.000595 22.609094 
L 459.622386 21.15474 
L 460.865968 18.635483 
L 462.731342 14.719341 
L 463.353133 13.558034 
L 463.353133 13.558034 
" clip-path="url(#p0045f93393)" style="fill: none; stroke: #ff7f0e; stroke-width: 1.5; stroke-linecap: square"/>
   </g>
   <g id="line2d_23">
    <path d="M 276.815787 136.742639 
L 277.437578 138.726012 
L 278.059369 136.884218 
L 278.68116 137.624488 
L 279.302951 137.028963 
L 279.924742 137.150711 
L 280.546534 136.777373 
L 281.168325 137.575967 
L 281.790116 136.653937 
L 282.411907 136.31229 
L 284.27728 135.990858 
L 284.899072 136.204366 
L 285.520863 136.298877 
L 286.142654 136.00828 
L 286.764445 136.123978 
L 288.629819 135.996368 
L 289.25161 136.080629 
L 289.873401 136.378815 
L 291.116983 135.925541 
L 291.738774 136.08001 
L 292.360565 136.046288 
L 293.604148 136.142771 
L 294.225939 136.038956 
L 294.84773 136.566432 
L 295.469521 136.725595 
L 296.091312 136.355556 
L 297.334895 136.103098 
L 299.822059 136.111666 
L 300.44385 136.006081 
L 301.687433 136.084956 
L 302.309224 136.003933 
L 303.552806 136.210523 
L 304.174597 135.995866 
L 304.796389 136.085975 
L 305.41818 135.998572 
L 306.039971 136.192151 
L 309.148927 135.906335 
L 309.770718 136.09647 
L 310.392509 136.151286 
L 311.0143 135.976591 
L 312.257882 136.132545 
L 312.879674 135.939204 
L 313.501465 136.165569 
L 314.123256 136.139404 
L 315.366838 135.559752 
L 315.988629 136.038871 
L 316.61042 135.890894 
L 317.232212 135.979094 
L 318.475794 135.876959 
L 319.719376 135.867528 
L 321.58475 136.100497 
L 322.206541 135.960054 
L 329.046244 135.93531 
L 330.911617 135.968926 
L 333.398782 136.054374 
L 334.020573 136.107369 
L 334.642364 136.02148 
L 335.264155 136.139089 
L 335.885946 136.057363 
L 337.129529 136.028003 
L 337.75132 136.034872 
L 338.373111 135.84633 
L 338.994902 135.99762 
L 339.616693 135.935816 
L 340.238484 136.244917 
L 340.860275 136.036017 
L 341.482067 135.985221 
L 342.725649 136.063063 
L 343.34744 135.991077 
L 343.969231 136.092361 
L 346.456396 136.06559 
L 348.321769 136.256369 
L 348.94356 136.111949 
L 350.187143 136.013999 
L 352.674307 135.832246 
L 353.296099 135.983444 
L 354.539681 135.84898 
L 355.783263 136.066528 
L 356.405054 135.955463 
L 357.026845 135.960408 
L 357.648637 136.131304 
L 359.51401 135.984459 
L 365.11013 135.955228 
L 365.731922 136.031843 
L 366.975504 135.959391 
L 367.597295 136.043088 
L 370.08446 135.968129 
L 370.706251 135.964685 
L 371.328042 136.08126 
L 373.815207 135.974519 
L 374.436998 136.122105 
L 375.058789 136.04416 
L 376.302371 136.175692 
L 377.545953 135.902759 
L 379.411327 136.03053 
L 380.033118 136.091268 
L 381.2767 135.988459 
L 381.898492 136.101213 
L 382.520283 135.968462 
L 387.494612 135.950532 
L 388.116403 135.889081 
L 389.359985 136.156101 
L 389.981777 136.004087 
L 392.468941 136.143603 
L 393.712523 135.798574 
L 394.334315 135.814616 
L 394.956106 136.03698 
L 395.577897 136.003908 
L 396.199688 135.566227 
L 396.821479 135.819514 
L 398.065062 135.566138 
L 398.686853 135.574549 
L 399.308644 135.367183 
L 401.174017 135.197132 
L 401.795808 135.034046 
L 402.4176 135.008339 
L 403.039391 134.636502 
L 403.661182 134.527887 
L 404.282973 134.629234 
L 407.391929 133.237572 
L 408.01372 132.84329 
L 408.635511 132.614674 
L 412.988049 129.305795 
L 413.60984 128.484415 
L 414.853423 127.311314 
L 416.097005 125.734128 
L 417.962378 123.309722 
L 419.827752 120.368243 
L 423.558499 113.634467 
L 424.18029 112.442226 
L 429.154619 100.801352 
L 431.641784 94.52536 
L 432.885366 91.080976 
L 437.859695 77.243195 
L 440.34686 69.538518 
L 440.968651 68.507027 
L 451.539101 39.88415 
L 452.782683 36.84323 
L 453.404474 35.660224 
L 454.026265 33.813637 
L 455.269848 30.789789 
L 456.51343 27.952776 
L 457.757012 25.069985 
L 460.244177 19.872802 
L 460.865968 18.356137 
L 461.487759 17.202482 
L 462.10955 15.773369 
L 463.353133 13.473988 
L 463.353133 13.473988 
" clip-path="url(#p0045f93393)" style="fill: none; stroke: #2ca02c; stroke-width: 1.5; stroke-linecap: square"/>
   </g>
   <g id="line2d_24">
    <path d="M 276.815787 137.797837 
L 277.437578 137.361503 
L 279.302951 137.134091 
L 279.924742 137.364854 
L 280.546534 137.102327 
L 281.790116 137.254634 
L 282.411907 137.220833 
L 283.033698 137.31168 
L 284.27728 137.124459 
L 289.25161 137.202308 
L 289.873401 137.582997 
L 290.495192 137.329538 
L 291.116983 136.856425 
L 291.738774 137.233925 
L 292.360565 136.97716 
L 292.982357 137.381358 
L 294.225939 137.161976 
L 294.84773 137.758432 
L 295.469521 138.123834 
L 296.091312 137.565406 
L 296.713104 137.298796 
L 297.334895 137.336354 
L 297.956686 137.158009 
L 298.578477 137.114308 
L 299.200268 137.682703 
L 300.44385 137.199574 
L 301.065642 137.408271 
L 301.687433 137.285487 
L 302.309224 137.400725 
L 302.931015 137.307028 
L 304.174597 137.327642 
L 305.41818 137.182126 
L 306.661762 137.245575 
L 307.905344 137.174593 
L 308.527135 137.13812 
L 309.148927 137.329142 
L 309.770718 137.116925 
L 310.392509 137.303211 
L 312.879674 137.037568 
L 313.501465 137.158086 
L 314.123256 137.103318 
L 315.366838 136.724508 
L 315.988629 137.491308 
L 317.232212 136.892509 
L 317.854003 137.24304 
L 319.097585 137.018355 
L 319.719376 137.243442 
L 320.341167 137.077418 
L 320.962959 137.244096 
L 321.58475 137.165989 
L 322.206541 137.215612 
L 323.450123 137.131036 
L 324.071914 137.494887 
L 324.693705 137.200298 
L 325.315497 137.247774 
L 327.18087 137.108921 
L 328.424452 137.267964 
L 329.046244 137.090743 
L 329.668035 137.215937 
L 330.289826 137.186045 
L 330.911617 137.029844 
L 331.533408 137.208727 
L 332.155199 137.25294 
L 332.77699 137.174151 
L 333.398782 137.224792 
L 334.020573 137.128433 
L 335.264155 137.318515 
L 335.885946 137.156502 
L 337.129529 137.316169 
L 337.75132 137.192552 
L 338.373111 136.811821 
L 338.994902 137.174619 
L 339.616693 137.059939 
L 340.860275 137.265947 
L 342.103858 136.979946 
L 342.725649 137.239324 
L 343.969231 137.001858 
L 344.591022 137.228326 
L 345.212814 137.154039 
L 345.834605 137.223835 
L 346.456396 137.097408 
L 347.078187 137.095744 
L 348.321769 137.453448 
L 348.94356 137.145212 
L 349.565352 137.345567 
L 350.187143 137.089849 
L 352.052516 136.830821 
L 352.674307 137.154571 
L 353.296099 137.23375 
L 355.783263 137.192242 
L 357.648637 137.327856 
L 358.270428 137.395671 
L 358.892219 137.306603 
L 359.51401 137.452037 
L 360.135801 137.338436 
L 360.757592 137.469728 
L 362.001175 137.242752 
L 362.622966 137.357953 
L 363.244757 137.268169 
L 363.866548 137.34771 
L 365.11013 137.3165 
L 366.353713 137.390588 
L 366.975504 137.250072 
L 367.597295 137.225402 
L 368.219086 137.355967 
L 371.328042 137.139354 
L 375.68058 137.136475 
L 376.302371 137.393991 
L 376.924162 137.138678 
L 377.545953 137.098771 
L 378.167745 137.218928 
L 379.411327 137.067574 
L 380.033118 137.332623 
L 380.654909 137.195232 
L 381.2767 137.225622 
L 381.898492 137.067403 
L 382.520283 137.062696 
L 383.142074 137.292207 
L 383.763865 137.088849 
L 386.25103 137.078015 
L 389.359985 137.011954 
L 390.603568 136.507229 
L 391.225359 137.372407 
L 393.090732 137.040196 
L 394.956106 137.104741 
L 395.577897 136.888799 
L 396.199688 136.944868 
L 398.686853 136.717824 
L 399.308644 136.421988 
L 399.930435 136.609359 
L 400.552226 136.551744 
L 401.174017 136.325118 
L 401.795808 136.322565 
L 402.4176 135.947111 
L 403.661182 135.533861 
L 404.282973 135.746153 
L 404.904764 135.613735 
L 405.526555 135.025328 
L 406.148347 134.952585 
L 408.01372 133.988122 
L 409.879093 132.947894 
L 412.988049 130.27511 
L 414.231632 128.993607 
L 414.853423 128.444722 
L 417.962378 124.203341 
L 418.58417 123.457466 
L 419.205961 122.52067 
L 419.827752 121.370538 
L 420.449543 120.461841 
L 421.693125 118.138937 
L 422.936708 115.835535 
L 423.558499 114.302038 
L 424.18029 113.388498 
L 426.045663 109.095388 
L 427.289246 106.677107 
L 427.911037 104.881599 
L 429.77641 100.440234 
L 431.019993 97.006572 
L 431.641784 95.693027 
L 432.885366 92.182899 
L 433.507157 90.519455 
L 434.128948 88.34531 
L 435.372531 85.289712 
L 435.994322 83.437471 
L 436.616113 81.218874 
L 437.237904 80.005175 
L 437.859695 78.412942 
L 438.481487 76.314448 
L 439.103278 74.826367 
L 439.725069 72.210716 
L 440.34686 70.338382 
L 440.968651 69.572665 
L 442.834025 64.547462 
L 443.455816 62.493535 
L 444.699398 59.106874 
L 445.94298 55.614454 
L 448.430145 48.596598 
L 454.026265 34.622415 
L 454.648057 32.755048 
L 457.757012 25.497472 
L 458.378803 23.81119 
L 459.000595 22.819547 
L 460.244177 19.9519 
L 461.487759 17.445075 
L 462.10955 15.775886 
L 462.731342 14.871206 
L 463.353133 13.487332 
L 463.353133 13.487332 
" clip-path="url(#p0045f93393)" style="fill: none; stroke: #d62728; stroke-width: 1.5; stroke-linecap: square"/>
   </g>
   <g id="patch_8">
    <path d="M 267.488919 144.989155 
L 267.488919 7.2 
" style="fill: none; stroke: #000000; stroke-width: 0.8; stroke-linejoin: miter; stroke-linecap: square"/>
   </g>
   <g id="patch_9">
    <path d="M 472.68 144.989155 
L 472.68 7.2 
" style="fill: none; stroke: #000000; stroke-width: 0.8; stroke-linejoin: miter; stroke-linecap: square"/>
   </g>
   <g id="patch_10">
    <path d="M 267.488919 144.989155 
L 472.68 144.989155 
" style="fill: none; stroke: #000000; stroke-width: 0.8; stroke-linejoin: miter; stroke-linecap: square"/>
   </g>
   <g id="patch_11">
    <path d="M 267.488919 7.2 
L 472.68 7.2 
" style="fill: none; stroke: #000000; stroke-width: 0.8; stroke-linejoin: miter; stroke-linecap: square"/>
   </g>
   <g id="legend_1">
    <g id="patch_12">
     <path d="M 274.488919 70.948713 
L 337.068764 70.948713 
Q 339.068764 70.948713 339.068764 68.948713 
L 339.068764 14.2 
Q 339.068764 12.2 337.068764 12.2 
L 274.488919 12.2 
Q 272.488919 12.2 272.488919 14.2 
L 272.488919 68.948713 
Q 272.488919 70.948713 274.488919 70.948713 
z
" style="fill: #ffffff; opacity: 0.8; stroke: #cccccc; stroke-linejoin: miter"/>
    </g>
    <g id="line2d_25">
     <path d="M 276.488919 19.7 
L 286.488919 19.7 
L 296.488919 19.7 
" style="fill: none; stroke: #1f77b4; stroke-width: 1.5; stroke-linecap: square"/>
    </g>
    <g id="text_12">
     <!-- OD 0.1 -->
     <g transform="translate(304.488919 23.2) scale(0.1 -0.1)">
      <defs>
       <path id="CMSS17-4f" d="M 4096 2178 
C 4096 3503 3219 4497 2214 4497 
C 1210 4497 333 3497 333 2178 
C 333 847 1222 -128 2214 -128 
C 3206 -128 4096 847 4096 2178 
z
M 2214 273 
C 1510 273 870 1057 870 2261 
C 870 3433 1549 4096 2214 4096 
C 2880 4096 3558 3433 3558 2261 
C 3558 1051 2912 273 2214 273 
z
" transform="scale(0.015625)"/>
       <path id="CMSS17-44" d="M 570 4416 
L 570 0 
L 2144 0 
C 3194 0 4000 980 4000 2170 
C 4000 3398 3194 4416 2144 4416 
L 570 4416 
z
M 1094 357 
L 1094 4059 
L 2003 4059 
C 2861 4059 3475 3277 3475 2170 
C 3475 1107 2867 357 2003 357 
L 1094 357 
z
" transform="scale(0.015625)"/>
       <path id="CMSS17-30" d="M 2758 2044 
C 2758 2405 2752 3077 2490 3596 
C 2227 4096 1805 4229 1504 4229 
C 1069 4229 698 3975 506 3570 
C 301 3146 243 2709 243 2044 
C 243 1589 262 1031 493 543 
C 755 5 1197 -128 1498 -128 
C 1894 -128 2278 81 2496 518 
C 2720 974 2758 1474 2758 2044 
z
M 1498 261 
C 1011 261 864 811 819 995 
C 742 1310 730 1614 730 2114 
C 730 2506 730 2948 851 3297 
C 998 3701 1254 3840 1498 3840 
C 1971 3840 2125 3372 2176 3208 
C 2272 2873 2272 2481 2272 2114 
C 2272 1526 2272 261 1498 261 
z
" transform="scale(0.015625)"/>
       <path id="CMSS17-2e" d="M 1088 510 
L 576 510 
L 576 0 
L 1088 0 
L 1088 510 
z
" transform="scale(0.015625)"/>
       <path id="CMSS17-31" d="M 1818 4288 
L 1696 4288 
C 1350 3940 947 3890 538 3890 
L 538 3520 
C 723 3520 1024 3520 1325 3667 
L 1325 369 
L 570 369 
L 570 0 
L 2573 0 
L 2573 369 
L 1818 369 
L 1818 4288 
z
" transform="scale(0.015625)"/>
      </defs>
      <use xlink:href="#CMSS17-4f" transform="scale(0.996264)"/>
      <use xlink:href="#CMSS17-44" transform="translate(69.024255 0) scale(0.996264)"/>
      <use xlink:href="#CMSS17-30" transform="translate(167.79621 0) scale(0.996264)"/>
      <use xlink:href="#CMSS17-2e" transform="translate(214.639833 0) scale(0.996264)"/>
      <use xlink:href="#CMSS17-31" transform="translate(240.664038 0) scale(0.996264)"/>
     </g>
    </g>
    <g id="line2d_26">
     <path d="M 276.488919 33.637178 
L 286.488919 33.637178 
L 296.488919 33.637178 
" style="fill: none; stroke: #ff7f0e; stroke-width: 1.5; stroke-linecap: square"/>
    </g>
    <g id="text_13">
     <!-- OD 0.3 -->
     <g transform="translate(304.488919 37.137178) scale(0.1 -0.1)">
      <defs>
       <path id="CMSS17-33" d="M 1005 2025 
L 1440 2025 
C 2042 2025 2214 1507 2214 1146 
C 2214 653 1933 267 1472 267 
C 1114 267 608 444 320 912 
C 275 691 275 678 250 526 
C 550 88 1037 -128 1485 -128 
C 2214 -128 2752 473 2752 1138 
C 2752 1638 2400 2057 1920 2215 
C 2304 2424 2586 2816 2586 3273 
C 2586 3805 2093 4229 1491 4229 
C 941 4229 512 3892 333 3530 
C 378 3468 493 3284 550 3189 
C 691 3562 1056 3840 1485 3840 
C 1843 3840 2080 3607 2080 3271 
C 2080 2923 1856 2543 1478 2455 
C 1453 2455 1056 2417 1005 2411 
L 1005 2025 
z
" transform="scale(0.015625)"/>
      </defs>
      <use xlink:href="#CMSS17-4f" transform="scale(0.996264)"/>
      <use xlink:href="#CMSS17-44" transform="translate(69.024255 0) scale(0.996264)"/>
      <use xlink:href="#CMSS17-30" transform="translate(167.79621 0) scale(0.996264)"/>
      <use xlink:href="#CMSS17-2e" transform="translate(214.639833 0) scale(0.996264)"/>
      <use xlink:href="#CMSS17-33" transform="translate(240.664038 0) scale(0.996264)"/>
     </g>
    </g>
    <g id="line2d_27">
     <path d="M 276.488919 47.574357 
L 286.488919 47.574357 
L 296.488919 47.574357 
" style="fill: none; stroke: #2ca02c; stroke-width: 1.5; stroke-linecap: square"/>
    </g>
    <g id="text_14">
     <!-- OD 0.5 -->
     <g transform="translate(304.488919 51.074357) scale(0.1 -0.1)">
      <defs>
       <path id="CMSS17-35" d="M 934 3752 
L 2502 3752 
L 2502 4160 
L 467 4160 
L 467 1781 
L 896 1781 
C 1011 2046 1248 2240 1555 2240 
C 1843 2240 2163 1989 2163 1266 
C 2163 493 1709 267 1376 267 
C 966 267 589 512 422 851 
L 218 499 
C 512 49 992 -128 1376 -128 
C 2118 -128 2701 497 2701 1253 
C 2701 2030 2182 2629 1562 2629 
C 1338 2629 1120 2553 934 2399 
L 934 3752 
z
" transform="scale(0.015625)"/>
      </defs>
      <use xlink:href="#CMSS17-4f" transform="scale(0.996264)"/>
      <use xlink:href="#CMSS17-44" transform="translate(69.024255 0) scale(0.996264)"/>
      <use xlink:href="#CMSS17-30" transform="translate(167.79621 0) scale(0.996264)"/>
      <use xlink:href="#CMSS17-2e" transform="translate(214.639833 0) scale(0.996264)"/>
      <use xlink:href="#CMSS17-35" transform="translate(240.664038 0) scale(0.996264)"/>
     </g>
    </g>
    <g id="line2d_28">
     <path d="M 276.488919 61.511535 
L 286.488919 61.511535 
L 296.488919 61.511535 
" style="fill: none; stroke: #d62728; stroke-width: 1.5; stroke-linecap: square"/>
    </g>
    <g id="text_15">
     <!-- OD 0.9 -->
     <g transform="translate(304.488919 65.011535) scale(0.1 -0.1)">
      <defs>
       <path id="CMSS17-39" d="M 435 174 
C 614 21 845 -128 1235 -128 
C 2010 -128 2752 721 2752 2095 
C 2752 3932 1952 4229 1523 4229 
C 1094 4229 819 4041 582 3741 
C 301 3397 250 3090 250 2733 
C 250 2307 326 2045 506 1745 
C 749 1357 973 1275 1222 1275 
C 1600 1275 1978 1459 2234 1776 
C 2189 902 1798 267 1235 267 
C 1005 267 819 339 634 516 
L 435 174 
z
M 2214 2746 
C 2221 2703 2221 2622 2221 2596 
C 2221 2074 1914 1664 1466 1664 
C 1171 1664 1018 1813 902 2006 
C 762 2249 755 2485 755 2733 
C 755 2976 755 3244 934 3511 
C 1069 3703 1235 3840 1523 3840 
C 2112 3840 2208 3000 2214 2746 
z
" transform="scale(0.015625)"/>
      </defs>
      <use xlink:href="#CMSS17-4f" transform="scale(0.996264)"/>
      <use xlink:href="#CMSS17-44" transform="translate(69.024255 0) scale(0.996264)"/>
      <use xlink:href="#CMSS17-30" transform="translate(167.79621 0) scale(0.996264)"/>
      <use xlink:href="#CMSS17-2e" transform="translate(214.639833 0) scale(0.996264)"/>
      <use xlink:href="#CMSS17-39" transform="translate(240.664038 0) scale(0.996264)"/>
     </g>
    </g>
   </g>
  </g>
  <g id="text_16">
   <!-- Applied Voltage (V) -->
   <g transform="translate(191.476857 189.431208) scale(0.12 -0.12)">
    <defs>
     <path id="CMSS17-41" d="M 2272 4416 
L 1722 4416 
L 166 0 
L 653 0 
L 1101 1280 
L 2816 1280 
L 3270 0 
L 3827 0 
L 2272 4416 
z
M 2694 1637 
L 1222 1637 
C 1530 2528 1914 3638 1958 3925 
L 1965 3925 
C 2010 3663 2138 3281 2246 2956 
L 2694 1637 
z
" transform="scale(0.015625)"/>
     <path id="CMSS17-70" d="M 966 333 
C 1178 129 1466 -5 1773 -5 
C 2368 -5 2880 603 2880 1412 
C 2880 2159 2496 2816 1946 2816 
C 1626 2816 1242 2702 954 2472 
L 954 2765 
L 480 2765 
L 480 -1216 
L 966 -1216 
L 966 333 
z
M 966 2100 
C 1018 2176 1235 2415 1587 2415 
C 2035 2415 2394 1960 2394 1412 
C 2394 787 1958 384 1530 384 
C 1402 384 1267 415 1139 523 
C 966 674 966 768 966 857 
L 966 2100 
z
" transform="scale(0.015625)"/>
     <path id="CMSS17-6c" d="M 947 4416 
L 474 4416 
L 474 0 
L 947 0 
L 947 4416 
z
" transform="scale(0.015625)"/>
     <path id="CMSS17-69" d="M 979 4183 
L 442 4183 
L 442 3648 
L 979 3648 
L 979 4183 
z
M 947 2739 
L 474 2739 
L 474 0 
L 947 0 
L 947 2739 
z
" transform="scale(0.015625)"/>
     <path id="CMSS17-65" d="M 2502 1377 
C 2502 1590 2490 2003 2285 2345 
C 2061 2713 1696 2816 1421 2816 
C 755 2816 192 2188 192 1375 
C 192 582 774 -64 1510 -64 
C 1798 -64 2150 19 2470 248 
C 2470 274 2458 414 2451 420 
C 2451 433 2432 630 2432 656 
C 2125 407 1773 325 1517 325 
C 1107 325 666 667 646 1377 
L 2502 1377 
z
M 698 1728 
C 781 2084 1062 2421 1421 2421 
C 1517 2421 1965 2421 2080 1728 
L 698 1728 
z
" transform="scale(0.015625)"/>
     <path id="CMSS17-64" d="M 2611 4416 
L 2138 4416 
L 2138 2438 
C 1939 2603 1613 2756 1254 2756 
C 672 2756 211 2131 211 1347 
C 211 562 666 -64 1235 -64 
C 1677 -64 1971 172 2125 306 
L 2125 -13 
L 2611 -13 
L 2611 4416 
z
M 2125 836 
C 2125 747 2125 653 1926 482 
C 1798 375 1645 325 1498 325 
C 1152 325 698 576 698 1340 
C 698 2134 1210 2368 1562 2368 
C 1798 2368 1990 2254 2125 2065 
L 2125 836 
z
" transform="scale(0.015625)"/>
     <path id="CMSS17-56" d="M 3910 4416 
L 3411 4416 
L 2304 1362 
C 2272 1273 2074 688 2035 484 
L 2029 484 
C 1978 726 1773 1292 1664 1604 
L 922 3672 
L 646 4416 
L 83 4416 
L 1715 0 
L 2278 0 
L 3910 4416 
z
" transform="scale(0.015625)"/>
     <path id="CMSS17-6f" d="M 2829 1356 
C 2829 2176 2221 2816 1504 2816 
C 768 2816 173 2157 173 1356 
C 173 544 787 -64 1498 -64 
C 2227 -64 2829 563 2829 1356 
z
M 1504 337 
C 1050 337 659 709 659 1408 
C 659 2151 1114 2427 1498 2427 
C 1914 2427 2342 2126 2342 1408 
C 2342 683 1926 337 1504 337 
z
" transform="scale(0.015625)"/>
     <path id="CMSS17-74" d="M 1069 2368 
L 1901 2368 
L 1901 2737 
L 1069 2737 
L 1069 3520 
L 614 3520 
L 614 2737 
L 109 2737 
L 109 2368 
L 602 2368 
L 602 749 
C 602 384 685 -64 1107 -64 
C 1427 -64 1722 25 2003 172 
L 1901 548 
C 1747 414 1562 337 1363 337 
C 1082 337 1069 696 1069 856 
L 1069 2368 
z
" transform="scale(0.015625)"/>
     <path id="CMSS17-61" d="M 2406 1791 
C 2406 2392 1978 2808 1402 2808 
C 1120 2808 813 2757 461 2553 
L 499 2135 
C 659 2248 934 2432 1395 2432 
C 1722 2432 1920 2180 1920 1782 
L 1920 1536 
C 896 1536 256 1238 256 726 
C 256 461 416 -64 947 -64 
C 1043 -64 1562 -64 1933 217 
L 1933 -19 
L 2406 -19 
L 2406 1791 
z
M 1920 816 
C 1920 701 1920 548 1728 434 
C 1562 325 1350 325 1261 325 
C 941 325 723 511 723 744 
C 723 1211 1722 1211 1920 1211 
L 1920 816 
z
" transform="scale(0.015625)"/>
     <path id="CMSS17-67" d="M 2848 2808 
C 2483 2808 2170 2738 1914 2617 
C 1702 2777 1485 2808 1338 2808 
C 781 2808 358 2349 358 1814 
C 358 1468 550 1207 563 1195 
C 448 1035 384 863 384 672 
C 384 448 474 289 544 200 
C 211 -3 166 -314 166 -435 
C 166 -898 749 -1280 1498 -1280 
C 2253 -1280 2835 -898 2835 -428 
C 2835 448 1856 448 1587 448 
L 1069 448 
C 973 448 717 448 717 791 
C 717 921 774 1004 781 1010 
C 877 940 1075 832 1338 832 
C 1869 832 2310 1278 2310 1827 
C 2310 2132 2170 2355 2112 2432 
L 2131 2432 
C 2150 2432 2419 2432 2515 2432 
C 2720 2432 2739 2429 2918 2419 
L 2848 2808 
z
M 1338 1182 
C 1120 1182 813 1315 813 1823 
C 813 2375 1165 2464 1331 2464 
C 1549 2464 1856 2331 1856 1823 
C 1856 1271 1504 1182 1338 1182 
z
M 1581 -10 
C 1734 -10 2381 -10 2381 -442 
C 2381 -714 1984 -929 1504 -929 
C 1018 -929 621 -720 621 -435 
C 621 -403 621 -10 1062 -10 
L 1581 -10 
z
" transform="scale(0.015625)"/>
     <path id="CMSS17-28" d="M 1613 4768 
C 1267 4417 474 3601 474 1588 
C 474 -433 1267 -1243 1613 -1600 
L 2003 -1600 
C 1216 -784 960 357 960 1581 
C 960 2798 1203 3946 2003 4768 
L 1613 4768 
z
" transform="scale(0.015625)"/>
     <path id="CMSS17-29" d="M 723 -1600 
C 1069 -1249 1862 -433 1862 1581 
C 1862 3601 1069 4411 723 4768 
L 333 4768 
C 1120 3952 1376 2811 1376 1588 
C 1376 370 1133 -778 333 -1600 
L 723 -1600 
z
" transform="scale(0.015625)"/>
    </defs>
    <use xlink:href="#CMSS17-41" transform="scale(0.996264)"/>
    <use xlink:href="#CMSS17-70" transform="translate(62.217855 0) scale(0.996264)"/>
    <use xlink:href="#CMSS17-70" transform="translate(110.422798 0) scale(0.996264)"/>
    <use xlink:href="#CMSS17-6c" transform="translate(158.627741 0) scale(0.996264)"/>
    <use xlink:href="#CMSS17-69" transform="translate(180.808464 0) scale(0.996264)"/>
    <use xlink:href="#CMSS17-65" transform="translate(202.989187 0) scale(0.996264)"/>
    <use xlink:href="#CMSS17-64" transform="translate(244.628009 0) scale(0.996264)"/>
    <use xlink:href="#CMSS17-56" transform="translate(324.062065 0) scale(0.996264)"/>
    <use xlink:href="#CMSS17-6f" transform="translate(383.677466 0) scale(0.996264)"/>
    <use xlink:href="#CMSS17-6c" transform="translate(430.52109 0) scale(0.996264)"/>
    <use xlink:href="#CMSS17-74" transform="translate(452.701813 0) scale(0.996264)"/>
    <use xlink:href="#CMSS17-61" transform="translate(486.533379 0) scale(0.996264)"/>
    <use xlink:href="#CMSS17-67" transform="translate(531.4553 0) scale(0.996264)"/>
    <use xlink:href="#CMSS17-65" transform="translate(578.298924 0) scale(0.996264)"/>
    <use xlink:href="#CMSS17-28" transform="translate(651.166858 0) scale(0.996264)"/>
    <use xlink:href="#CMSS17-56" transform="translate(687.600773 0) scale(0.996264)"/>
    <use xlink:href="#CMSS17-29" transform="translate(749.818628 0) scale(0.996264)"/>
   </g>
  </g>
  <g id="text_17">
   <!-- Photocurrent (nA) -->
   <g transform="translate(16.166376 140.926655) rotate(-90) scale(0.12 -0.12)">
    <defs>
     <path id="CMSS17-50" d="M 2106 1856 
C 2874 1856 3501 2453 3501 3158 
C 3501 3850 2899 4453 2067 4453 
L 570 4453 
L 570 0 
L 1107 0 
L 1107 1856 
L 2106 1856 
z
M 1926 4096 
C 2669 4096 2995 3627 2995 3157 
C 2995 2720 2694 2226 1926 2226 
L 1094 2226 
L 1094 4096 
L 1926 4096 
z
" transform="scale(0.015625)"/>
     <path id="CMSS17-68" d="M 2618 1891 
C 2618 2292 2522 2820 1798 2820 
C 1395 2820 1133 2623 947 2407 
L 947 4448 
L 474 4448 
L 474 32 
L 960 32 
L 960 1573 
C 960 1973 1114 2432 1549 2432 
C 2112 2432 2131 2056 2131 1839 
L 2131 32 
L 2618 32 
L 2618 1891 
z
" transform="scale(0.015625)"/>
     <path id="CMSS17-63" d="M 2464 2541 
C 2464 2585 2170 2714 2093 2739 
C 1882 2816 1613 2816 1542 2816 
C 710 2816 211 2093 211 1363 
C 211 595 768 -64 1517 -64 
C 1946 -64 2253 76 2502 242 
L 2464 664 
C 2189 453 1869 337 1523 337 
C 1024 337 698 774 698 1369 
C 698 1831 909 2414 1549 2414 
C 1901 2414 2099 2343 2394 2145 
L 2464 2541 
z
" transform="scale(0.015625)"/>
     <path id="CMSS17-75" d="M 2618 2739 
L 2131 2739 
L 2131 972 
C 2131 498 1786 306 1421 306 
C 998 306 960 447 960 709 
L 960 2739 
L 474 2739 
L 474 678 
C 474 179 646 -64 1088 -64 
C 1306 -64 1798 -13 2144 306 
L 2144 0 
L 2618 0 
L 2618 2739 
z
" transform="scale(0.015625)"/>
     <path id="CMSS17-72" d="M 954 1363 
C 954 1965 1395 2368 1958 2368 
L 1958 2789 
C 1549 2789 1165 2585 934 2253 
L 934 2758 
L 480 2758 
L 480 0 
L 954 0 
L 954 1363 
z
" transform="scale(0.015625)"/>
     <path id="CMSS17-6e" d="M 2618 1877 
C 2618 2283 2522 2816 1798 2816 
C 1389 2816 1120 2606 941 2389 
L 941 2758 
L 474 2758 
L 474 0 
L 960 0 
L 960 1559 
C 960 1964 1114 2428 1549 2428 
C 2112 2428 2131 2048 2131 1829 
L 2131 0 
L 2618 0 
L 2618 1877 
z
" transform="scale(0.015625)"/>
    </defs>
    <use xlink:href="#CMSS17-50" transform="scale(0.996264)"/>
    <use xlink:href="#CMSS17-68" transform="translate(59.735586 0) scale(0.996264)"/>
    <use xlink:href="#CMSS17-6f" transform="translate(107.940529 0) scale(0.996264)"/>
    <use xlink:href="#CMSS17-74" transform="translate(154.784153 0) scale(0.996264)"/>
    <use xlink:href="#CMSS17-6f" transform="translate(188.61572 0) scale(0.996264)"/>
    <use xlink:href="#CMSS17-63" transform="translate(238.061782 0) scale(0.996264)"/>
    <use xlink:href="#CMSS17-75" transform="translate(279.700604 0) scale(0.996264)"/>
    <use xlink:href="#CMSS17-72" transform="translate(327.905547 0) scale(0.996264)"/>
    <use xlink:href="#CMSS17-72" transform="translate(359.81532 0) scale(0.996264)"/>
    <use xlink:href="#CMSS17-65" transform="translate(391.725092 0) scale(0.996264)"/>
    <use xlink:href="#CMSS17-6e" transform="translate(433.363914 0) scale(0.996264)"/>
    <use xlink:href="#CMSS17-74" transform="translate(481.568857 0) scale(0.996264)"/>
    <use xlink:href="#CMSS17-28" transform="translate(546.629537 0) scale(0.996264)"/>
    <use xlink:href="#CMSS17-6e" transform="translate(583.063451 0) scale(0.996264)"/>
    <use xlink:href="#CMSS17-41" transform="translate(631.268394 0) scale(0.996264)"/>
    <use xlink:href="#CMSS17-29" transform="translate(693.486249 0) scale(0.996264)"/>
   </g>
  </g>
 </g>
 <defs>
  <clipPath id="p95b291f578">
   <rect x="47.997839" y="7.2" width="205.191081" height="137.789155"/>
  </clipPath>
  <clipPath id="p0045f93393">
   <rect x="267.488919" y="7.2" width="205.191081" height="137.789155"/>
  </clipPath>
 </defs>
</svg>
