<?xml version="1.0" encoding="utf-8" standalone="no"?>
<!DOCTYPE svg PUBLIC "-//W3C//DTD SVG 1.1//EN"
  "http://www.w3.org/Graphics/SVG/1.1/DTD/svg11.dtd">
<svg xmlns:xlink="http://www.w3.org/1999/xlink" width="442.08pt" height="186.66pt" viewBox="0 0 442.08 186.66" xmlns="http://www.w3.org/2000/svg" version="1.1">
 <metadata>
  <rdf:RDF xmlns:dc="http://purl.org/dc/elements/1.1/" xmlns:cc="http://creativecommons.org/ns#" xmlns:rdf="http://www.w3.org/1999/02/22-rdf-syntax-ns#">
   <cc:Work>
    <dc:type rdf:resource="http://purl.org/dc/dcmitype/StillImage"/>
    <dc:date>2024-02-24T13:42:25.340592</dc:date>
    <dc:format>image/svg+xml</dc:format>
    <dc:creator>
     <cc:Agent>
      <dc:title>Matplotlib v3.7.2, https://matplotlib.org/</dc:title>
     </cc:Agent>
    </dc:creator>
   </cc:Work>
  </rdf:RDF>
 </metadata>
 <defs>
  <style type="text/css">*{stroke-linejoin: round; stroke-linecap: butt}</style>
 </defs>
 <g id="figure_1">
  <g id="patch_1">
   <path d="M 0 186.66 
L 442.08 186.66 
L 442.08 0 
L 0 0 
z
" style="fill: #ffffff"/>
  </g>
  <g id="axes_1">
   <g id="patch_2">
    <path d="M 58.23 159.66 
L 229.434545 159.66 
L 229.434545 7.2 
L 58.23 7.2 
z
" style="fill: #ffffff"/>
   </g>
   <g id="matplotlib.axis_1">
    <g id="xtick_1">
     <g id="line2d_1">
      <defs>
       <path id="m19b627caa0" d="M 0 0 
L 0 3.5 
" style="stroke: #000000; stroke-width: 0.8"/>
      </defs>
      <g>
       <use xlink:href="#m19b627caa0" x="91.952107" y="159.66" style="stroke: #000000; stroke-width: 0.8"/>
      </g>
     </g>
     <g id="text_1">
      <!-- −2 -->
      <g transform="translate(84.581014 174.258438) scale(0.1 -0.1)">
       <defs>
        <path id="DejaVuSans-2212" d="M 678 2272 
L 4684 2272 
L 4684 1741 
L 678 1741 
L 678 2272 
z
" transform="scale(0.015625)"/>
        <path id="DejaVuSans-32" d="M 1228 531 
L 3431 531 
L 3431 0 
L 469 0 
L 469 531 
Q 828 903 1448 1529 
Q 2069 2156 2228 2338 
Q 2531 2678 2651 2914 
Q 2772 3150 2772 3378 
Q 2772 3750 2511 3984 
Q 2250 4219 1831 4219 
Q 1534 4219 1204 4116 
Q 875 4013 500 3803 
L 500 4441 
Q 881 4594 1212 4672 
Q 1544 4750 1819 4750 
Q 2544 4750 2975 4387 
Q 3406 4025 3406 3419 
Q 3406 3131 3298 2873 
Q 3191 2616 2906 2266 
Q 2828 2175 2409 1742 
Q 1991 1309 1228 531 
z
" transform="scale(0.015625)"/>
       </defs>
       <use xlink:href="#DejaVuSans-2212"/>
       <use xlink:href="#DejaVuSans-32" x="83.789062"/>
      </g>
     </g>
    </g>
    <g id="xtick_2">
     <g id="line2d_2">
      <g>
       <use xlink:href="#m19b627caa0" x="143.832273" y="159.66" style="stroke: #000000; stroke-width: 0.8"/>
      </g>
     </g>
     <g id="text_2">
      <!-- −1 -->
      <g transform="translate(136.461179 174.258438) scale(0.1 -0.1)">
       <defs>
        <path id="DejaVuSans-31" d="M 794 531 
L 1825 531 
L 1825 4091 
L 703 3866 
L 703 4441 
L 1819 4666 
L 2450 4666 
L 2450 531 
L 3481 531 
L 3481 0 
L 794 0 
L 794 531 
z
" transform="scale(0.015625)"/>
       </defs>
       <use xlink:href="#DejaVuSans-2212"/>
       <use xlink:href="#DejaVuSans-31" x="83.789062"/>
      </g>
     </g>
    </g>
    <g id="xtick_3">
     <g id="line2d_3">
      <g>
       <use xlink:href="#m19b627caa0" x="195.712438" y="159.66" style="stroke: #000000; stroke-width: 0.8"/>
      </g>
     </g>
     <g id="text_3">
      <!-- 0 -->
      <g transform="translate(192.531188 174.258438) scale(0.1 -0.1)">
       <defs>
        <path id="DejaVuSans-30" d="M 2034 4250 
Q 1547 4250 1301 3770 
Q 1056 3291 1056 2328 
Q 1056 1369 1301 889 
Q 1547 409 2034 409 
Q 2525 409 2770 889 
Q 3016 1369 3016 2328 
Q 3016 3291 2770 3770 
Q 2525 4250 2034 4250 
z
M 2034 4750 
Q 2819 4750 3233 4129 
Q 3647 3509 3647 2328 
Q 3647 1150 3233 529 
Q 2819 -91 2034 -91 
Q 1250 -91 836 529 
Q 422 1150 422 2328 
Q 422 3509 836 4129 
Q 1250 4750 2034 4750 
z
" transform="scale(0.015625)"/>
       </defs>
       <use xlink:href="#DejaVuSans-30"/>
      </g>
     </g>
    </g>
   </g>
   <g id="matplotlib.axis_2">
    <g id="ytick_1">
     <g id="line2d_4">
      <defs>
       <path id="mf578215461" d="M 0 0 
L -3.5 0 
" style="stroke: #000000; stroke-width: 0.8"/>
      </defs>
      <g>
       <use xlink:href="#mf578215461" x="58.23" y="146.697727" style="stroke: #000000; stroke-width: 0.8"/>
      </g>
     </g>
     <g id="text_4">
      <!-- 0 -->
      <g transform="translate(44.8675 150.496946) scale(0.1 -0.1)">
       <use xlink:href="#DejaVuSans-30"/>
      </g>
     </g>
    </g>
    <g id="ytick_2">
     <g id="line2d_5">
      <g>
       <use xlink:href="#mf578215461" x="58.23" y="115.83917" style="stroke: #000000; stroke-width: 0.8"/>
      </g>
     </g>
     <g id="text_5">
      <!-- 20 -->
      <g transform="translate(38.505 119.638389) scale(0.1 -0.1)">
       <use xlink:href="#DejaVuSans-32"/>
       <use xlink:href="#DejaVuSans-30" x="63.623047"/>
      </g>
     </g>
    </g>
    <g id="ytick_3">
     <g id="line2d_6">
      <g>
       <use xlink:href="#mf578215461" x="58.23" y="84.980614" style="stroke: #000000; stroke-width: 0.8"/>
      </g>
     </g>
     <g id="text_6">
      <!-- 40 -->
      <g transform="translate(38.505 88.779832) scale(0.1 -0.1)">
       <defs>
        <path id="DejaVuSans-34" d="M 2419 4116 
L 825 1625 
L 2419 1625 
L 2419 4116 
z
M 2253 4666 
L 3047 4666 
L 3047 1625 
L 3713 1625 
L 3713 1100 
L 3047 1100 
L 3047 0 
L 2419 0 
L 2419 1100 
L 313 1100 
L 313 1709 
L 2253 4666 
z
" transform="scale(0.015625)"/>
       </defs>
       <use xlink:href="#DejaVuSans-34"/>
       <use xlink:href="#DejaVuSans-30" x="63.623047"/>
      </g>
     </g>
    </g>
    <g id="ytick_4">
     <g id="line2d_7">
      <g>
       <use xlink:href="#mf578215461" x="58.23" y="54.122057" style="stroke: #000000; stroke-width: 0.8"/>
      </g>
     </g>
     <g id="text_7">
      <!-- 60 -->
      <g transform="translate(38.505 57.921276) scale(0.1 -0.1)">
       <defs>
        <path id="DejaVuSans-36" d="M 2113 2584 
Q 1688 2584 1439 2293 
Q 1191 2003 1191 1497 
Q 1191 994 1439 701 
Q 1688 409 2113 409 
Q 2538 409 2786 701 
Q 3034 994 3034 1497 
Q 3034 2003 2786 2293 
Q 2538 2584 2113 2584 
z
M 3366 4563 
L 3366 3988 
Q 3128 4100 2886 4159 
Q 2644 4219 2406 4219 
Q 1781 4219 1451 3797 
Q 1122 3375 1075 2522 
Q 1259 2794 1537 2939 
Q 1816 3084 2150 3084 
Q 2853 3084 3261 2657 
Q 3669 2231 3669 1497 
Q 3669 778 3244 343 
Q 2819 -91 2113 -91 
Q 1303 -91 875 529 
Q 447 1150 447 2328 
Q 447 3434 972 4092 
Q 1497 4750 2381 4750 
Q 2619 4750 2861 4703 
Q 3103 4656 3366 4563 
z
" transform="scale(0.015625)"/>
       </defs>
       <use xlink:href="#DejaVuSans-36"/>
       <use xlink:href="#DejaVuSans-30" x="63.623047"/>
      </g>
     </g>
    </g>
    <g id="ytick_5">
     <g id="line2d_8">
      <g>
       <use xlink:href="#mf578215461" x="58.23" y="23.2635" style="stroke: #000000; stroke-width: 0.8"/>
      </g>
     </g>
     <g id="text_8">
      <!-- 80 -->
      <g transform="translate(38.505 27.062719) scale(0.1 -0.1)">
       <defs>
        <path id="DejaVuSans-38" d="M 2034 2216 
Q 1584 2216 1326 1975 
Q 1069 1734 1069 1313 
Q 1069 891 1326 650 
Q 1584 409 2034 409 
Q 2484 409 2743 651 
Q 3003 894 3003 1313 
Q 3003 1734 2745 1975 
Q 2488 2216 2034 2216 
z
M 1403 2484 
Q 997 2584 770 2862 
Q 544 3141 544 3541 
Q 544 4100 942 4425 
Q 1341 4750 2034 4750 
Q 2731 4750 3128 4425 
Q 3525 4100 3525 3541 
Q 3525 3141 3298 2862 
Q 3072 2584 2669 2484 
Q 3125 2378 3379 2068 
Q 3634 1759 3634 1313 
Q 3634 634 3220 271 
Q 2806 -91 2034 -91 
Q 1263 -91 848 271 
Q 434 634 434 1313 
Q 434 1759 690 2068 
Q 947 2378 1403 2484 
z
M 1172 3481 
Q 1172 3119 1398 2916 
Q 1625 2713 2034 2713 
Q 2441 2713 2670 2916 
Q 2900 3119 2900 3481 
Q 2900 3844 2670 4047 
Q 2441 4250 2034 4250 
Q 1625 4250 1398 4047 
Q 1172 3844 1172 3481 
z
" transform="scale(0.015625)"/>
       </defs>
       <use xlink:href="#DejaVuSans-38"/>
       <use xlink:href="#DejaVuSans-30" x="63.623047"/>
      </g>
     </g>
    </g>
   </g>
   <g id="line2d_9">
    <path d="M 66.012025 148.44406 
L 67.049628 148.444644 
L 67.56843 148.741279 
L 68.087231 148.496928 
L 70.162438 148.457611 
L 70.68124 148.52713 
L 71.200041 148.453913 
L 72.756446 148.568836 
L 74.831653 148.28645 
L 75.350455 148.401634 
L 76.388058 148.389964 
L 76.90686 148.472403 
L 78.982066 148.417949 
L 81.057273 148.483806 
L 81.576074 148.426474 
L 82.094876 148.507362 
L 83.132479 148.491211 
L 83.651281 148.225547 
L 84.170083 148.425314 
L 86.764091 148.440039 
L 87.282893 148.598385 
L 88.320496 148.441603 
L 88.839298 148.580219 
L 89.358099 148.384749 
L 89.876901 148.517718 
L 97.140124 148.404849 
L 98.177727 148.765114 
L 99.734132 148.470887 
L 102.32814 148.575389 
L 102.846942 148.459226 
L 103.365744 148.544735 
L 104.403347 148.44361 
L 104.922149 148.551118 
L 105.44095 148.463593 
L 106.478554 148.455067 
L 107.516157 148.417058 
L 108.55376 148.492486 
L 110.628967 148.586124 
L 111.147769 148.485373 
L 114.260579 148.558966 
L 114.77938 148.456616 
L 115.816983 148.510682 
L 117.89219 148.42614 
L 118.929793 148.548831 
L 119.967397 148.520181 
L 121.005 148.556918 
L 121.523802 148.579239 
L 122.042603 148.457042 
L 123.080207 148.621156 
L 124.11781 148.447618 
L 124.636612 148.55505 
L 125.155413 148.462492 
L 125.674215 148.550939 
L 127.749421 148.445436 
L 128.268223 148.614595 
L 128.787025 148.636541 
L 129.305826 148.497017 
L 129.824628 148.59924 
L 131.899835 148.463233 
L 132.418636 148.827939 
L 133.45624 148.478542 
L 133.975041 148.569894 
L 135.531446 148.571891 
L 137.606653 148.51931 
L 138.125455 148.552897 
L 138.644256 148.381908 
L 139.163058 148.550718 
L 140.200661 148.522703 
L 140.719463 148.46495 
L 141.238264 148.55699 
L 142.794669 148.32412 
L 143.313471 148.482802 
L 144.351074 148.398221 
L 144.869876 148.568367 
L 145.388678 148.421257 
L 146.426281 148.4669 
L 147.982686 148.514343 
L 149.020289 148.463198 
L 153.170702 148.529892 
L 153.689504 148.461863 
L 154.208306 148.549956 
L 155.245909 148.45868 
L 156.802314 148.585686 
L 157.321116 148.698209 
L 158.877521 148.441663 
L 159.396322 148.508987 
L 159.915124 148.371863 
L 162.509132 148.473336 
L 164.065537 148.29467 
L 165.10314 148.280115 
L 165.621942 148.167082 
L 166.659545 148.213005 
L 167.178347 148.180691 
L 168.21595 147.90304 
L 168.734752 147.844139 
L 169.772355 147.561387 
L 170.809959 147.411476 
L 171.32876 147.33289 
L 171.847562 146.994185 
L 172.885165 146.613939 
L 173.403967 146.267941 
L 173.922769 146.158223 
L 176.516777 144.419752 
L 177.55438 143.360677 
L 179.110785 141.707707 
L 182.223595 137.344935 
L 183.261198 135.429861 
L 184.817603 132.407452 
L 185.855207 130.128658 
L 188.449215 123.760469 
L 191.043223 116.317036 
L 194.156033 106.308269 
L 195.712438 101.081914 
L 197.787645 93.539733 
L 205.569669 65.250455 
L 207.644876 57.629039 
L 209.720083 50.40105 
L 212.314091 41.515776 
L 216.983306 26.979801 
L 221.652521 14.13 
L 221.652521 14.13 
" clip-path="url(#p33eadc6c3c)" style="fill: none; stroke: #1f77b4; stroke-width: 1.5; stroke-linecap: square"/>
   </g>
   <g id="line2d_10">
    <path d="M 66.012025 148.753404 
L 66.530826 150.128213 
L 67.049628 148.888604 
L 67.56843 149.483496 
L 68.087231 149.029741 
L 68.606033 149.144002 
L 69.124835 149.011936 
L 69.643636 149.392866 
L 70.162438 148.848669 
L 70.68124 149.177535 
L 71.200041 148.982832 
L 71.718843 148.511751 
L 72.756446 148.397504 
L 73.79405 148.503038 
L 76.90686 148.473516 
L 77.425661 148.539543 
L 77.944463 148.401655 
L 80.538471 148.502432 
L 81.057273 148.55303 
L 81.576074 148.455611 
L 82.094876 148.528095 
L 82.613678 148.397932 
L 85.207686 148.454396 
L 88.839298 148.478047 
L 89.358099 148.386654 
L 91.433306 148.497714 
L 92.470909 148.448902 
L 96.102521 148.566128 
L 96.621322 148.719472 
L 97.140124 148.530022 
L 97.658926 148.482242 
L 98.177727 148.745665 
L 99.215331 148.400245 
L 100.771736 148.516253 
L 101.290537 148.390798 
L 105.959752 148.481685 
L 106.997355 148.490657 
L 108.034959 148.54582 
L 108.55376 148.417974 
L 109.591364 148.54049 
L 110.628967 148.549986 
L 111.147769 148.579298 
L 111.66657 148.463313 
L 117.89219 148.505107 
L 118.410992 148.381251 
L 118.929793 148.592406 
L 119.448595 148.456485 
L 122.561405 148.463572 
L 123.080207 148.570221 
L 124.636612 148.462713 
L 126.193017 148.467307 
L 126.711818 148.573974 
L 127.23062 148.413772 
L 128.787025 148.523212 
L 129.305826 148.35193 
L 129.824628 148.487443 
L 131.899835 148.434794 
L 132.418636 148.642955 
L 132.937438 148.614718 
L 133.45624 148.427184 
L 135.531446 148.434723 
L 136.050248 148.518088 
L 137.087851 148.367047 
L 138.125455 148.430686 
L 138.644256 148.40932 
L 139.163058 148.500639 
L 139.68186 148.422086 
L 140.200661 148.502959 
L 140.719463 148.411927 
L 141.757066 148.553108 
L 142.275868 148.555737 
L 142.794669 148.432905 
L 143.832273 148.503357 
L 146.426281 148.554496 
L 146.945083 148.457001 
L 147.463884 148.512647 
L 148.501488 148.370384 
L 149.020289 148.528528 
L 158.358719 148.388348 
L 158.877521 148.327002 
L 159.396322 148.50388 
L 160.433926 148.413962 
L 160.952727 148.569957 
L 161.471529 148.444983 
L 163.027934 148.473523 
L 163.546736 148.295481 
L 165.10314 148.39275 
L 165.621942 148.104819 
L 166.140744 148.408964 
L 166.659545 148.224043 
L 167.697149 148.121049 
L 168.21595 148.00424 
L 168.734752 148.014043 
L 169.772355 147.766718 
L 170.809959 147.757901 
L 171.32876 147.604245 
L 171.847562 147.271715 
L 173.922769 146.679643 
L 176.516777 145.208969 
L 179.110785 143.32809 
L 180.66719 141.790566 
L 181.704793 140.550525 
L 182.223595 139.964352 
L 185.855207 134.477688 
L 190.00562 126.211168 
L 191.562025 122.670015 
L 197.268843 107.944914 
L 198.306446 104.976588 
L 199.862851 100.776234 
L 202.45686 93.310274 
L 202.975661 92.037251 
L 204.532066 87.500796 
L 206.088471 83.034478 
L 206.607273 81.812144 
L 207.644876 78.725929 
L 210.757686 70.528914 
L 213.870496 62.805624 
L 214.389298 61.702513 
L 215.426901 59.081654 
L 217.502107 54.347607 
L 219.058512 51.122353 
L 221.133719 46.677132 
L 221.652521 45.697378 
L 221.652521 45.697378 
" clip-path="url(#p33eadc6c3c)" style="fill: none; stroke: #ff7f0e; stroke-width: 1.5; stroke-linecap: square"/>
   </g>
   <g id="line2d_11">
    <path d="M 66.012025 148.911842 
L 66.530826 150.177953 
L 67.049628 149.00222 
L 67.56843 149.474782 
L 68.087231 149.094621 
L 68.606033 149.17234 
L 69.124835 148.934015 
L 69.643636 149.443807 
L 70.162438 148.855218 
L 70.68124 148.637123 
L 72.237645 148.431933 
L 73.275248 148.628561 
L 73.79405 148.443055 
L 74.831653 148.481601 
L 75.869256 148.43545 
L 76.388058 148.48924 
L 76.90686 148.67959 
L 77.944463 148.390238 
L 78.463264 148.488845 
L 80.538471 148.462637 
L 81.057273 148.799358 
L 81.576074 148.900962 
L 82.094876 148.664743 
L 83.132479 148.503583 
L 88.320496 148.572159 
L 88.839298 148.43513 
L 89.358099 148.492652 
L 89.876901 148.436858 
L 90.395702 148.560431 
L 93.508512 148.499352 
L 94.027314 148.534344 
L 94.546116 148.422826 
L 97.140124 148.52676 
L 98.177727 148.156731 
L 98.696529 148.462583 
L 99.215331 148.36812 
L 99.734132 148.424424 
L 100.771736 148.359224 
L 102.846942 148.397553 
L 103.365744 148.501923 
L 104.403347 148.416621 
L 107.516157 148.482681 
L 112.185372 148.422096 
L 113.222975 148.47248 
L 114.77938 148.526559 
L 116.335785 148.455645 
L 116.854587 148.46003 
L 117.373388 148.339672 
L 117.89219 148.43625 
L 118.410992 148.396797 
L 118.929793 148.594115 
L 119.967397 148.428335 
L 121.005 148.478027 
L 122.042603 148.496729 
L 124.636612 148.517979 
L 125.674215 148.601426 
L 126.711818 148.502973 
L 128.268223 148.418411 
L 136.050248 148.486669 
L 136.56905 148.367929 
L 137.606653 148.415499 
L 146.945083 148.421503 
L 147.463884 148.515717 
L 148.501488 148.512514 
L 149.020289 148.549925 
L 150.057893 148.375694 
L 152.133099 148.496031 
L 153.170702 148.430402 
L 153.689504 148.50238 
L 154.727107 148.421905 
L 155.764711 148.489146 
L 156.283512 148.365544 
L 156.802314 148.491991 
L 157.839917 148.408688 
L 159.396322 148.450532 
L 159.915124 148.537419 
L 160.433926 148.440378 
L 162.509132 148.52944 
L 163.546736 148.309187 
L 164.065537 148.319427 
L 164.584339 148.461376 
L 165.10314 148.440264 
L 165.621942 148.160865 
L 166.140744 148.322554 
L 168.21595 148.033802 
L 169.772355 147.925248 
L 171.847562 147.498028 
L 172.366364 147.562724 
L 174.960372 146.674339 
L 178.591983 144.798429 
L 181.185992 142.891239 
L 182.742397 141.384469 
L 183.78 140.336774 
L 185.855207 137.761634 
L 187.411612 135.751522 
L 188.449215 134.160455 
L 189.486818 132.483268 
L 192.080826 127.913391 
L 194.674835 122.963526 
L 196.23124 119.763155 
L 200.900455 109.746426 
L 201.938058 107.341547 
L 202.45686 106.01126 
L 202.975661 105.352795 
L 212.314091 86.045172 
L 214.389298 82.293075 
L 215.945702 79.464487 
L 216.983306 77.624222 
L 219.058512 74.306536 
L 220.096116 72.601904 
L 221.133719 70.969209 
L 221.652521 70.221773 
L 221.652521 70.221773 
" clip-path="url(#p33eadc6c3c)" style="fill: none; stroke: #2ca02c; stroke-width: 1.5; stroke-linecap: square"/>
   </g>
   <g id="line2d_12">
    <path d="M 66.012025 148.674007 
L 66.530826 148.483382 
L 69.643636 148.42679 
L 74.312851 148.420778 
L 74.831653 148.379278 
L 75.350455 148.464948 
L 76.388058 148.413832 
L 76.90686 148.580148 
L 77.944463 148.262724 
L 78.463264 148.427645 
L 78.982066 148.31547 
L 79.500868 148.492056 
L 80.538471 148.396212 
L 81.576074 148.816429 
L 82.094876 148.572463 
L 82.613678 148.455986 
L 83.651281 148.394479 
L 84.170083 148.375387 
L 84.688884 148.623707 
L 85.726488 148.412638 
L 86.245289 148.503814 
L 87.282893 148.500517 
L 89.876901 148.405016 
L 91.952107 148.401725 
L 93.508512 148.376531 
L 94.027314 148.457915 
L 98.177727 148.205092 
L 98.696529 148.540091 
L 99.734132 148.278488 
L 100.252934 148.431628 
L 101.290537 148.333468 
L 101.809339 148.431803 
L 102.32814 148.359271 
L 103.365744 148.397966 
L 106.478554 148.433696 
L 108.55376 148.415963 
L 110.110165 148.419787 
L 114.260579 148.4079 
L 114.77938 148.464601 
L 115.816983 148.418117 
L 116.854587 148.409571 
L 117.373388 148.243237 
L 117.89219 148.401736 
L 118.929793 148.373972 
L 119.448595 148.441635 
L 120.486198 148.316687 
L 121.005 148.430004 
L 123.080207 148.392745 
L 124.11781 148.368004 
L 125.155413 148.445481 
L 125.674215 148.52355 
L 126.193017 148.388888 
L 126.711818 148.47642 
L 127.749421 148.333762 
L 128.787025 148.251538 
L 129.824628 148.427569 
L 132.418636 148.444317 
L 133.975041 148.498309 
L 135.531446 148.473304 
L 136.050248 148.530663 
L 137.087851 148.431502 
L 138.644256 148.477356 
L 140.200661 148.487941 
L 142.794669 148.454461 
L 144.869876 148.386329 
L 148.501488 148.385072 
L 149.020289 148.497575 
L 150.057893 148.368599 
L 151.095496 148.37722 
L 151.614298 148.35497 
L 152.133099 148.470764 
L 153.689504 148.354895 
L 159.915124 148.330671 
L 160.952727 148.110167 
L 161.471529 148.488145 
L 163.546736 148.340379 
L 166.140744 148.274966 
L 167.178347 148.261719 
L 169.772355 148.030606 
L 170.291157 148.029491 
L 171.32876 147.789853 
L 171.847562 147.684922 
L 172.366364 147.777668 
L 172.885165 147.719818 
L 173.403967 147.462755 
L 174.44157 147.304371 
L 178.591983 145.872556 
L 179.629587 145.387482 
L 180.66719 144.82762 
L 181.185992 144.587823 
L 185.855207 141.100267 
L 190.00562 136.733402 
L 193.11843 132.995357 
L 194.156033 131.603617 
L 201.419256 121.163066 
L 201.938058 120.020342 
L 202.45686 119.202358 
L 202.975661 118.867832 
L 206.088471 114.295543 
L 208.163678 111.162143 
L 209.201281 109.703819 
L 217.502107 98.875584 
L 218.020909 98.442356 
L 219.058512 97.189539 
L 220.096116 96.094359 
L 220.614917 95.365125 
L 221.133719 94.969888 
L 221.652521 94.365302 
L 221.652521 94.365302 
" clip-path="url(#p33eadc6c3c)" style="fill: none; stroke: #d62728; stroke-width: 1.5; stroke-linecap: square"/>
   </g>
   <g id="patch_3">
    <path d="M 58.23 159.66 
L 58.23 7.2 
" style="fill: none; stroke: #000000; stroke-width: 0.8; stroke-linejoin: miter; stroke-linecap: square"/>
   </g>
   <g id="patch_4">
    <path d="M 229.434545 159.66 
L 229.434545 7.2 
" style="fill: none; stroke: #000000; stroke-width: 0.8; stroke-linejoin: miter; stroke-linecap: square"/>
   </g>
   <g id="patch_5">
    <path d="M 58.23 159.66 
L 229.434545 159.66 
" style="fill: none; stroke: #000000; stroke-width: 0.8; stroke-linejoin: miter; stroke-linecap: square"/>
   </g>
   <g id="patch_6">
    <path d="M 58.23 7.2 
L 229.434545 7.2 
" style="fill: none; stroke: #000000; stroke-width: 0.8; stroke-linejoin: miter; stroke-linecap: square"/>
   </g>
  </g>
  <g id="axes_2">
   <g id="patch_7">
    <path d="M 263.675455 159.66 
L 434.88 159.66 
L 434.88 7.2 
L 263.675455 7.2 
z
" style="fill: #ffffff"/>
   </g>
   <g id="matplotlib.axis_3">
    <g id="xtick_4">
     <g id="line2d_13">
      <g>
       <use xlink:href="#m19b627caa0" x="297.397562" y="159.66" style="stroke: #000000; stroke-width: 0.8"/>
      </g>
     </g>
     <g id="text_9">
      <!-- −2 -->
      <g transform="translate(290.026468 174.258438) scale(0.1 -0.1)">
       <use xlink:href="#DejaVuSans-2212"/>
       <use xlink:href="#DejaVuSans-32" x="83.789062"/>
      </g>
     </g>
    </g>
    <g id="xtick_5">
     <g id="line2d_14">
      <g>
       <use xlink:href="#m19b627caa0" x="349.277727" y="159.66" style="stroke: #000000; stroke-width: 0.8"/>
      </g>
     </g>
     <g id="text_10">
      <!-- −1 -->
      <g transform="translate(341.906634 174.258438) scale(0.1 -0.1)">
       <use xlink:href="#DejaVuSans-2212"/>
       <use xlink:href="#DejaVuSans-31" x="83.789062"/>
      </g>
     </g>
    </g>
    <g id="xtick_6">
     <g id="line2d_15">
      <g>
       <use xlink:href="#m19b627caa0" x="401.157893" y="159.66" style="stroke: #000000; stroke-width: 0.8"/>
      </g>
     </g>
     <g id="text_11">
      <!-- 0 -->
      <g transform="translate(397.976643 174.258438) scale(0.1 -0.1)">
       <use xlink:href="#DejaVuSans-30"/>
      </g>
     </g>
    </g>
   </g>
   <g id="matplotlib.axis_4">
    <g id="ytick_6">
     <g id="line2d_16">
      <g>
       <use xlink:href="#mf578215461" x="263.675455" y="146.697727" style="stroke: #000000; stroke-width: 0.8"/>
      </g>
     </g>
    </g>
    <g id="ytick_7">
     <g id="line2d_17">
      <g>
       <use xlink:href="#mf578215461" x="263.675455" y="115.83917" style="stroke: #000000; stroke-width: 0.8"/>
      </g>
     </g>
    </g>
    <g id="ytick_8">
     <g id="line2d_18">
      <g>
       <use xlink:href="#mf578215461" x="263.675455" y="84.980614" style="stroke: #000000; stroke-width: 0.8"/>
      </g>
     </g>
    </g>
    <g id="ytick_9">
     <g id="line2d_19">
      <g>
       <use xlink:href="#mf578215461" x="263.675455" y="54.122057" style="stroke: #000000; stroke-width: 0.8"/>
      </g>
     </g>
    </g>
    <g id="ytick_10">
     <g id="line2d_20">
      <g>
       <use xlink:href="#mf578215461" x="263.675455" y="23.2635" style="stroke: #000000; stroke-width: 0.8"/>
      </g>
     </g>
    </g>
   </g>
   <g id="line2d_21">
    <path d="M 271.457479 148.44406 
L 272.495083 148.444644 
L 273.013884 148.741279 
L 273.532686 148.496928 
L 275.607893 148.457611 
L 276.126694 148.52713 
L 276.645496 148.453913 
L 278.201901 148.568836 
L 280.277107 148.28645 
L 280.795909 148.401634 
L 281.833512 148.389964 
L 282.352314 148.472403 
L 284.427521 148.417949 
L 286.502727 148.483806 
L 287.021529 148.426474 
L 287.540331 148.507362 
L 288.577934 148.491211 
L 289.096736 148.225547 
L 289.615537 148.425314 
L 292.209545 148.440039 
L 292.728347 148.598385 
L 293.76595 148.441603 
L 294.284752 148.580219 
L 294.803554 148.384749 
L 295.322355 148.517718 
L 302.585579 148.404849 
L 303.623182 148.765114 
L 305.179587 148.470887 
L 307.773595 148.575389 
L 308.292397 148.459226 
L 308.811198 148.544735 
L 309.848802 148.44361 
L 310.367603 148.551118 
L 310.886405 148.463593 
L 311.924008 148.455067 
L 312.961612 148.417058 
L 313.999215 148.492486 
L 316.074421 148.586124 
L 316.593223 148.485373 
L 319.706033 148.558966 
L 320.224835 148.456616 
L 321.262438 148.510682 
L 323.337645 148.42614 
L 324.375248 148.548831 
L 325.412851 148.520181 
L 326.450455 148.556918 
L 326.969256 148.579239 
L 327.488058 148.457042 
L 328.525661 148.621156 
L 329.563264 148.447618 
L 330.082066 148.55505 
L 330.600868 148.462492 
L 331.119669 148.550939 
L 333.194876 148.445436 
L 333.713678 148.614595 
L 334.232479 148.636541 
L 334.751281 148.497017 
L 335.270083 148.59924 
L 337.345289 148.463233 
L 337.864091 148.827939 
L 338.901694 148.478542 
L 339.420496 148.569894 
L 340.976901 148.571891 
L 343.052107 148.51931 
L 343.570909 148.552897 
L 344.089711 148.381908 
L 344.608512 148.550718 
L 345.646116 148.522703 
L 346.164917 148.46495 
L 346.683719 148.55699 
L 348.240124 148.32412 
L 348.758926 148.482802 
L 349.796529 148.398221 
L 350.315331 148.568367 
L 350.834132 148.421257 
L 351.871736 148.4669 
L 353.42814 148.514343 
L 354.465744 148.463198 
L 358.616157 148.529892 
L 359.134959 148.461863 
L 359.65376 148.549956 
L 360.691364 148.45868 
L 362.247769 148.585686 
L 362.76657 148.698209 
L 364.322975 148.441663 
L 364.841777 148.508987 
L 365.360579 148.371863 
L 367.954587 148.473336 
L 369.510992 148.29467 
L 370.548595 148.280115 
L 371.067397 148.167082 
L 372.105 148.213005 
L 372.623802 148.180691 
L 373.661405 147.90304 
L 374.180207 147.844139 
L 375.21781 147.561387 
L 376.255413 147.411476 
L 376.774215 147.33289 
L 377.293017 146.994185 
L 378.33062 146.613939 
L 378.849421 146.267941 
L 379.368223 146.158223 
L 381.962231 144.419752 
L 382.999835 143.360677 
L 384.55624 141.707707 
L 387.66905 137.344935 
L 388.706653 135.429861 
L 390.263058 132.407452 
L 391.300661 130.128658 
L 393.894669 123.760469 
L 396.488678 116.317036 
L 399.601488 106.308269 
L 401.157893 101.081914 
L 403.233099 93.539733 
L 411.015124 65.250455 
L 413.090331 57.629039 
L 415.165537 50.40105 
L 417.759545 41.515776 
L 422.42876 26.979801 
L 427.097975 14.13 
L 427.097975 14.13 
" clip-path="url(#p704744b984)" style="fill: none; stroke: #1f77b4; stroke-width: 1.5; stroke-linecap: square"/>
   </g>
   <g id="line2d_22">
    <path d="M 271.457479 149.393763 
L 271.976281 151.196836 
L 272.495083 149.571079 
L 273.013884 150.351284 
L 273.532686 149.756181 
L 274.051488 149.906035 
L 274.570289 149.73283 
L 275.089091 150.232422 
L 275.607893 149.518704 
L 276.126694 149.950014 
L 276.645496 149.69466 
L 277.164298 149.076834 
L 278.201901 148.926998 
L 278.720702 149.063659 
L 280.277107 149.006732 
L 281.314711 148.950909 
L 281.833512 148.922739 
L 282.871116 149.113283 
L 283.389917 148.932442 
L 285.465124 149.019263 
L 286.502727 149.130972 
L 287.021529 149.003205 
L 287.540331 149.098269 
L 288.059132 148.927559 
L 290.134339 149.002435 
L 293.247149 149.048192 
L 293.76595 149.1112 
L 295.322355 148.963395 
L 296.359959 149.058363 
L 301.547975 149.14815 
L 302.066777 149.349261 
L 302.585579 149.100796 
L 303.10438 149.038133 
L 303.623182 149.383614 
L 304.660785 148.930593 
L 306.21719 149.082737 
L 306.735992 148.918203 
L 309.848802 148.961967 
L 313.480413 149.121516 
L 313.999215 148.953844 
L 315.036818 149.114525 
L 316.074421 149.126979 
L 316.593223 149.165421 
L 317.112025 149.013307 
L 317.630826 149.020063 
L 318.149628 149.154857 
L 320.743636 149.079753 
L 322.300041 148.985594 
L 322.818843 149.094339 
L 323.337645 149.06812 
L 323.856446 148.905682 
L 324.375248 149.182613 
L 324.89405 149.004351 
L 328.00686 149.013646 
L 328.525661 149.153518 
L 329.563264 149.036243 
L 331.638471 149.018545 
L 332.157273 149.15844 
L 332.676074 148.948333 
L 334.232479 149.091865 
L 334.751281 148.867227 
L 335.270083 149.044954 
L 337.345289 148.975903 
L 337.864091 149.248909 
L 338.382893 149.211876 
L 338.901694 148.965924 
L 340.458099 148.950384 
L 341.495702 149.085144 
L 342.014504 148.912118 
L 342.533306 148.887054 
L 343.052107 148.986708 
L 344.089711 148.942494 
L 344.608512 149.06226 
L 345.127314 148.959237 
L 345.646116 149.065302 
L 346.164917 148.945914 
L 346.683719 149.104577 
L 347.721322 149.134521 
L 348.240124 148.973426 
L 349.277727 149.065824 
L 351.871736 149.132893 
L 352.390537 149.005028 
L 352.909339 149.078009 
L 353.946942 148.891429 
L 354.465744 149.098837 
L 360.172562 148.982257 
L 361.210165 148.93236 
L 362.76657 149.002355 
L 364.322975 148.834533 
L 364.841777 149.066511 
L 365.87938 148.948582 
L 366.398182 149.153171 
L 366.916983 148.989267 
L 367.954587 149.176674 
L 368.99219 148.793194 
L 370.548595 148.920762 
L 371.067397 148.543139 
L 371.586198 148.942027 
L 372.105 148.699503 
L 373.142603 148.564425 
L 373.661405 148.411229 
L 374.180207 148.424085 
L 375.21781 148.099717 
L 376.255413 148.088154 
L 376.774215 147.886632 
L 377.293017 147.450516 
L 377.811818 147.276532 
L 378.849421 146.795256 
L 379.368223 146.674009 
L 381.962231 144.74521 
L 384.55624 142.278422 
L 385.075041 141.614095 
L 385.593843 140.768133 
L 386.112645 140.261948 
L 387.150248 138.635624 
L 387.66905 137.866855 
L 391.300661 130.671052 
L 395.451074 119.829448 
L 397.007479 115.185199 
L 402.714298 95.873115 
L 403.751901 91.980133 
L 405.308306 86.471337 
L 407.902314 76.679673 
L 408.421116 75.010093 
L 409.977521 69.060498 
L 411.533926 63.202887 
L 412.052727 61.599787 
L 413.090331 57.552192 
L 416.20314 46.801744 
L 419.31595 36.67259 
L 419.834752 35.225851 
L 420.872355 31.788575 
L 422.947562 25.579836 
L 424.503967 21.349891 
L 426.579174 15.519949 
L 427.097975 14.234994 
L 427.097975 14.234994 
" clip-path="url(#p704744b984)" style="fill: none; stroke: #ff7f0e; stroke-width: 1.5; stroke-linecap: square"/>
   </g>
   <g id="line2d_23">
    <path d="M 271.457479 150.535451 
L 271.976281 152.73 
L 272.495083 150.692104 
L 273.013884 151.511194 
L 273.532686 150.852261 
L 274.051488 150.986973 
L 274.570289 150.573883 
L 275.089091 151.457506 
L 275.607893 150.437305 
L 276.126694 150.059281 
L 277.683099 149.703626 
L 278.201901 149.939867 
L 278.720702 150.044441 
L 279.239504 149.722903 
L 279.758306 149.85092 
L 281.314711 149.709722 
L 281.833512 149.802955 
L 282.352314 150.13289 
L 283.389917 149.631355 
L 283.908719 149.80227 
L 284.427521 149.764958 
L 285.465124 149.871713 
L 285.983926 149.756845 
L 286.502727 150.340483 
L 287.021529 150.516592 
L 287.540331 150.107155 
L 288.577934 149.827817 
L 289.615537 149.815141 
L 290.134339 149.974897 
L 291.171942 149.720469 
L 292.209545 149.807742 
L 292.728347 149.718093 
L 293.76595 149.946679 
L 294.284752 149.709167 
L 294.803554 149.80887 
L 295.322355 149.712162 
L 295.841157 149.926351 
L 298.435165 149.610103 
L 298.953967 149.820483 
L 299.472769 149.881135 
L 299.99157 149.687839 
L 301.029174 149.860399 
L 301.547975 149.646472 
L 302.066777 149.896939 
L 302.585579 149.867988 
L 303.623182 149.226618 
L 304.141983 149.756751 
L 304.660785 149.593019 
L 305.179587 149.690609 
L 306.21719 149.577599 
L 307.254793 149.567165 
L 308.811198 149.824939 
L 309.33 149.669542 
L 315.036818 149.642164 
L 316.593223 149.679358 
L 317.630826 149.686574 
L 318.149628 149.808678 
L 319.706033 149.737509 
L 320.224835 149.86764 
L 320.743636 149.777211 
L 321.78124 149.744726 
L 322.300041 149.752326 
L 322.818843 149.54371 
L 323.337645 149.711107 
L 323.856446 149.642723 
L 324.375248 149.984735 
L 324.89405 149.753593 
L 325.412851 149.697388 
L 326.450455 149.783519 
L 326.969256 149.703868 
L 327.488058 149.815936 
L 329.563264 149.786314 
L 331.119669 149.997407 
L 331.638471 149.83761 
L 332.676074 149.729231 
L 334.751281 149.528126 
L 335.270083 149.695423 
L 336.307686 149.546642 
L 337.345289 149.787352 
L 337.864091 149.664463 
L 338.382893 149.669934 
L 338.901694 149.859026 
L 340.458099 149.696546 
L 340.976901 149.686844 
L 341.495702 149.798498 
L 342.014504 149.592686 
L 342.533306 149.729723 
L 344.089711 149.667499 
L 346.683719 149.668809 
L 347.202521 149.761417 
L 348.240124 149.743374 
L 352.390537 149.685547 
L 352.909339 149.848847 
L 353.42814 149.762603 
L 354.465744 149.90814 
L 355.503347 149.606147 
L 357.059752 149.747522 
L 357.578554 149.814727 
L 358.616157 149.700971 
L 359.134959 149.825731 
L 359.65376 149.678846 
L 361.210165 149.802792 
L 361.728967 149.588554 
L 362.247769 149.807724 
L 362.76657 149.827221 
L 363.285372 149.663335 
L 364.841777 149.735862 
L 365.360579 149.886463 
L 365.87938 149.718263 
L 367.954587 149.872634 
L 368.99219 149.490869 
L 369.510992 149.508618 
L 370.029793 149.754659 
L 370.548595 149.718065 
L 371.067397 149.233783 
L 371.586198 149.514038 
L 372.623802 149.233685 
L 373.142603 149.242991 
L 373.661405 149.013546 
L 375.21781 148.825389 
L 375.736612 148.644939 
L 376.255413 148.616495 
L 376.774215 148.205067 
L 377.293017 148.084888 
L 377.811818 148.197026 
L 380.405826 146.657188 
L 380.924628 146.220926 
L 381.44343 145.967968 
L 385.075041 142.306783 
L 385.593843 141.397949 
L 386.631446 140.099943 
L 387.66905 138.354829 
L 389.225455 135.67229 
L 390.78186 132.417622 
L 393.894669 124.966879 
L 394.932273 122.059813 
L 397.526281 114.138848 
L 400.120289 105.55925 
L 401.676694 100.012048 
L 406.345909 82.650057 
L 407.383512 78.481681 
L 407.902314 76.175896 
L 408.421116 75.034579 
L 417.759545 41.568687 
L 419.834752 35.065179 
L 421.391157 30.16239 
L 422.42876 26.972658 
L 424.503967 21.222116 
L 425.022769 19.543966 
L 425.54157 18.267478 
L 426.579174 15.437528 
L 427.097975 14.141999 
L 427.097975 14.141999 
" clip-path="url(#p704744b984)" style="fill: none; stroke: #2ca02c; stroke-width: 1.5; stroke-linecap: square"/>
   </g>
   <g id="line2d_24">
    <path d="M 271.457479 151.703 
L 271.976281 151.220208 
L 273.532686 150.968582 
L 274.051488 151.223916 
L 274.570289 150.933437 
L 275.089091 151.076881 
L 276.645496 151.165079 
L 277.683099 150.957925 
L 281.833512 151.044062 
L 282.352314 151.465285 
L 282.871116 151.184839 
L 283.389917 150.661353 
L 283.908719 151.079046 
L 284.427521 150.794942 
L 284.946322 151.242176 
L 285.983926 150.999436 
L 286.502727 151.659399 
L 287.021529 152.063707 
L 287.540331 151.445821 
L 288.059132 151.150824 
L 288.577934 151.192381 
L 289.096736 150.995047 
L 289.615537 150.946693 
L 290.134339 151.575606 
L 291.171942 151.041038 
L 291.690744 151.271955 
L 292.209545 151.136098 
L 292.728347 151.263606 
L 293.247149 151.159932 
L 293.76595 151.228568 
L 297.916364 150.97304 
L 298.435165 151.184402 
L 298.953967 150.949589 
L 299.472769 151.155709 
L 300.510372 151.000303 
L 301.029174 151.020561 
L 301.547975 150.861783 
L 302.066777 150.995132 
L 302.585579 150.934533 
L 303.623182 150.51539 
L 304.141983 151.363834 
L 305.179587 150.701279 
L 305.698388 151.089132 
L 306.735992 150.840524 
L 307.254793 151.089576 
L 307.773595 150.905875 
L 308.292397 151.0903 
L 308.811198 151.003877 
L 309.33 151.058783 
L 310.367603 150.965202 
L 310.886405 151.367793 
L 311.405207 151.041838 
L 311.924008 151.094369 
L 313.480413 150.940732 
L 314.518017 151.116709 
L 315.036818 150.920619 
L 315.55562 151.059143 
L 316.074421 151.026069 
L 316.593223 150.853236 
L 317.112025 151.051165 
L 317.630826 151.100085 
L 318.149628 151.012908 
L 318.66843 151.068941 
L 319.187231 150.962323 
L 320.224835 151.172643 
L 320.743636 150.993379 
L 321.78124 151.170047 
L 322.300041 151.033268 
L 322.818843 150.611999 
L 323.337645 151.013426 
L 323.856446 150.886535 
L 324.375248 150.94311 
L 324.89405 151.114478 
L 325.931653 150.798026 
L 326.450455 151.085019 
L 326.969256 151.014459 
L 327.488058 150.82227 
L 328.00686 151.072851 
L 328.525661 150.990654 
L 329.044463 151.067882 
L 329.563264 150.927994 
L 330.082066 150.926153 
L 331.119669 151.321942 
L 331.638471 150.980887 
L 332.157273 151.202575 
L 332.676074 150.91963 
L 334.232479 150.633023 
L 334.751281 150.991243 
L 335.270083 151.078852 
L 336.826488 150.899055 
L 338.382893 151.247216 
L 338.901694 151.182979 
L 339.420496 151.258013 
L 339.939298 151.159462 
L 340.458099 151.320381 
L 340.976901 151.194685 
L 341.495702 151.339956 
L 342.014504 151.15064 
L 342.533306 151.088813 
L 343.052107 151.216279 
L 343.570909 151.116936 
L 344.089711 151.204946 
L 345.127314 151.170413 
L 346.164917 151.252389 
L 346.683719 151.096912 
L 347.202521 151.069616 
L 347.721322 151.214083 
L 350.315331 150.974406 
L 353.946942 150.97122 
L 354.465744 151.256155 
L 354.984545 150.973658 
L 355.503347 150.929501 
L 356.022149 151.062452 
L 357.059752 150.894983 
L 357.578554 151.188252 
L 358.097355 151.036233 
L 358.616157 151.069859 
L 359.134959 150.894794 
L 359.65376 150.889586 
L 360.172562 151.143534 
L 360.691364 150.918524 
L 362.247769 150.919564 
L 363.804174 150.917043 
L 364.322975 151.049139 
L 365.360579 150.833441 
L 366.398182 150.274976 
L 366.916983 151.232273 
L 368.473388 150.86469 
L 370.029793 150.936108 
L 370.548595 150.697173 
L 371.067397 150.759212 
L 373.142603 150.507994 
L 373.661405 150.18066 
L 374.180207 150.38798 
L 374.699008 150.324231 
L 375.21781 150.073475 
L 375.736612 150.070651 
L 376.255413 149.655221 
L 377.293017 149.197971 
L 377.811818 149.432866 
L 378.33062 149.286349 
L 378.849421 148.635293 
L 379.368223 148.554804 
L 380.924628 147.487652 
L 382.481033 146.336668 
L 385.075041 143.379304 
L 386.112645 141.961355 
L 386.631446 141.354029 
L 389.225455 136.661055 
L 389.744256 135.835764 
L 391.300661 132.521185 
L 395.451074 121.461341 
L 396.488678 118.644999 
L 397.007479 117.268748 
L 397.526281 115.282066 
L 399.082686 110.367815 
L 400.120289 106.568561 
L 400.639091 105.115158 
L 401.676694 101.231296 
L 402.195496 99.390739 
L 402.714298 96.985106 
L 404.270702 91.554714 
L 404.789504 89.099896 
L 405.308306 87.756971 
L 405.827107 85.995208 
L 406.345909 83.673281 
L 406.864711 82.026759 
L 407.383512 79.132611 
L 407.902314 77.060924 
L 408.421116 76.213679 
L 409.977521 70.653427 
L 411.015124 66.571257 
L 416.20314 47.606646 
L 422.947562 25.579836 
L 423.466364 24.48261 
L 424.503967 21.309635 
L 425.54157 18.5359 
L 426.060372 16.688988 
L 426.579174 15.687983 
L 427.097975 14.156764 
L 427.097975 14.156764 
" clip-path="url(#p704744b984)" style="fill: none; stroke: #d62728; stroke-width: 1.5; stroke-linecap: square"/>
   </g>
   <g id="patch_8">
    <path d="M 263.675455 159.66 
L 263.675455 7.2 
" style="fill: none; stroke: #000000; stroke-width: 0.8; stroke-linejoin: miter; stroke-linecap: square"/>
   </g>
   <g id="patch_9">
    <path d="M 434.88 159.66 
L 434.88 7.2 
" style="fill: none; stroke: #000000; stroke-width: 0.8; stroke-linejoin: miter; stroke-linecap: square"/>
   </g>
   <g id="patch_10">
    <path d="M 263.675455 159.66 
L 434.88 159.66 
" style="fill: none; stroke: #000000; stroke-width: 0.8; stroke-linejoin: miter; stroke-linecap: square"/>
   </g>
   <g id="patch_11">
    <path d="M 263.675455 7.2 
L 434.88 7.2 
" style="fill: none; stroke: #000000; stroke-width: 0.8; stroke-linejoin: miter; stroke-linecap: square"/>
   </g>
   <g id="legend_1">
    <g id="patch_12">
     <path d="M 270.675455 73.9125 
L 337.32858 73.9125 
Q 339.32858 73.9125 339.32858 71.9125 
L 339.32858 14.2 
Q 339.32858 12.2 337.32858 12.2 
L 270.675455 12.2 
Q 268.675455 12.2 268.675455 14.2 
L 268.675455 71.9125 
Q 268.675455 73.9125 270.675455 73.9125 
z
" style="fill: #ffffff; opacity: 0.8; stroke: #cccccc; stroke-linejoin: miter"/>
    </g>
    <g id="line2d_25">
     <path d="M 272.675455 20.298438 
L 282.675455 20.298438 
L 292.675455 20.298438 
" style="fill: none; stroke: #1f77b4; stroke-width: 1.5; stroke-linecap: square"/>
    </g>
    <g id="text_12">
     <!-- OD 0.1 -->
     <g transform="translate(300.675455 23.798438) scale(0.1 -0.1)">
      <defs>
       <path id="DejaVuSans-4f" d="M 2522 4238 
Q 1834 4238 1429 3725 
Q 1025 3213 1025 2328 
Q 1025 1447 1429 934 
Q 1834 422 2522 422 
Q 3209 422 3611 934 
Q 4013 1447 4013 2328 
Q 4013 3213 3611 3725 
Q 3209 4238 2522 4238 
z
M 2522 4750 
Q 3503 4750 4090 4092 
Q 4678 3434 4678 2328 
Q 4678 1225 4090 567 
Q 3503 -91 2522 -91 
Q 1538 -91 948 565 
Q 359 1222 359 2328 
Q 359 3434 948 4092 
Q 1538 4750 2522 4750 
z
" transform="scale(0.015625)"/>
       <path id="DejaVuSans-44" d="M 1259 4147 
L 1259 519 
L 2022 519 
Q 2988 519 3436 956 
Q 3884 1394 3884 2338 
Q 3884 3275 3436 3711 
Q 2988 4147 2022 4147 
L 1259 4147 
z
M 628 4666 
L 1925 4666 
Q 3281 4666 3915 4102 
Q 4550 3538 4550 2338 
Q 4550 1131 3912 565 
Q 3275 0 1925 0 
L 628 0 
L 628 4666 
z
" transform="scale(0.015625)"/>
       <path id="DejaVuSans-20" transform="scale(0.015625)"/>
       <path id="DejaVuSans-2e" d="M 684 794 
L 1344 794 
L 1344 0 
L 684 0 
L 684 794 
z
" transform="scale(0.015625)"/>
      </defs>
      <use xlink:href="#DejaVuSans-4f"/>
      <use xlink:href="#DejaVuSans-44" x="78.710938"/>
      <use xlink:href="#DejaVuSans-20" x="155.712891"/>
      <use xlink:href="#DejaVuSans-30" x="187.5"/>
      <use xlink:href="#DejaVuSans-2e" x="251.123047"/>
      <use xlink:href="#DejaVuSans-31" x="282.910156"/>
     </g>
    </g>
    <g id="line2d_26">
     <path d="M 272.675455 34.976563 
L 282.675455 34.976563 
L 292.675455 34.976563 
" style="fill: none; stroke: #ff7f0e; stroke-width: 1.5; stroke-linecap: square"/>
    </g>
    <g id="text_13">
     <!-- OD 0.3 -->
     <g transform="translate(300.675455 38.476563) scale(0.1 -0.1)">
      <defs>
       <path id="DejaVuSans-33" d="M 2597 2516 
Q 3050 2419 3304 2112 
Q 3559 1806 3559 1356 
Q 3559 666 3084 287 
Q 2609 -91 1734 -91 
Q 1441 -91 1130 -33 
Q 819 25 488 141 
L 488 750 
Q 750 597 1062 519 
Q 1375 441 1716 441 
Q 2309 441 2620 675 
Q 2931 909 2931 1356 
Q 2931 1769 2642 2001 
Q 2353 2234 1838 2234 
L 1294 2234 
L 1294 2753 
L 1863 2753 
Q 2328 2753 2575 2939 
Q 2822 3125 2822 3475 
Q 2822 3834 2567 4026 
Q 2313 4219 1838 4219 
Q 1578 4219 1281 4162 
Q 984 4106 628 3988 
L 628 4550 
Q 988 4650 1302 4700 
Q 1616 4750 1894 4750 
Q 2613 4750 3031 4423 
Q 3450 4097 3450 3541 
Q 3450 3153 3228 2886 
Q 3006 2619 2597 2516 
z
" transform="scale(0.015625)"/>
      </defs>
      <use xlink:href="#DejaVuSans-4f"/>
      <use xlink:href="#DejaVuSans-44" x="78.710938"/>
      <use xlink:href="#DejaVuSans-20" x="155.712891"/>
      <use xlink:href="#DejaVuSans-30" x="187.5"/>
      <use xlink:href="#DejaVuSans-2e" x="251.123047"/>
      <use xlink:href="#DejaVuSans-33" x="282.910156"/>
     </g>
    </g>
    <g id="line2d_27">
     <path d="M 272.675455 49.654688 
L 282.675455 49.654688 
L 292.675455 49.654688 
" style="fill: none; stroke: #2ca02c; stroke-width: 1.5; stroke-linecap: square"/>
    </g>
    <g id="text_14">
     <!-- OD 0.5 -->
     <g transform="translate(300.675455 53.154688) scale(0.1 -0.1)">
      <defs>
       <path id="DejaVuSans-35" d="M 691 4666 
L 3169 4666 
L 3169 4134 
L 1269 4134 
L 1269 2991 
Q 1406 3038 1543 3061 
Q 1681 3084 1819 3084 
Q 2600 3084 3056 2656 
Q 3513 2228 3513 1497 
Q 3513 744 3044 326 
Q 2575 -91 1722 -91 
Q 1428 -91 1123 -41 
Q 819 9 494 109 
L 494 744 
Q 775 591 1075 516 
Q 1375 441 1709 441 
Q 2250 441 2565 725 
Q 2881 1009 2881 1497 
Q 2881 1984 2565 2268 
Q 2250 2553 1709 2553 
Q 1456 2553 1204 2497 
Q 953 2441 691 2322 
L 691 4666 
z
" transform="scale(0.015625)"/>
      </defs>
      <use xlink:href="#DejaVuSans-4f"/>
      <use xlink:href="#DejaVuSans-44" x="78.710938"/>
      <use xlink:href="#DejaVuSans-20" x="155.712891"/>
      <use xlink:href="#DejaVuSans-30" x="187.5"/>
      <use xlink:href="#DejaVuSans-2e" x="251.123047"/>
      <use xlink:href="#DejaVuSans-35" x="282.910156"/>
     </g>
    </g>
    <g id="line2d_28">
     <path d="M 272.675455 64.332813 
L 282.675455 64.332813 
L 292.675455 64.332813 
" style="fill: none; stroke: #d62728; stroke-width: 1.5; stroke-linecap: square"/>
    </g>
    <g id="text_15">
     <!-- OD 0.9 -->
     <g transform="translate(300.675455 67.832813) scale(0.1 -0.1)">
      <defs>
       <path id="DejaVuSans-39" d="M 703 97 
L 703 672 
Q 941 559 1184 500 
Q 1428 441 1663 441 
Q 2288 441 2617 861 
Q 2947 1281 2994 2138 
Q 2813 1869 2534 1725 
Q 2256 1581 1919 1581 
Q 1219 1581 811 2004 
Q 403 2428 403 3163 
Q 403 3881 828 4315 
Q 1253 4750 1959 4750 
Q 2769 4750 3195 4129 
Q 3622 3509 3622 2328 
Q 3622 1225 3098 567 
Q 2575 -91 1691 -91 
Q 1453 -91 1209 -44 
Q 966 3 703 97 
z
M 1959 2075 
Q 2384 2075 2632 2365 
Q 2881 2656 2881 3163 
Q 2881 3666 2632 3958 
Q 2384 4250 1959 4250 
Q 1534 4250 1286 3958 
Q 1038 3666 1038 3163 
Q 1038 2656 1286 2365 
Q 1534 2075 1959 2075 
z
" transform="scale(0.015625)"/>
      </defs>
      <use xlink:href="#DejaVuSans-4f"/>
      <use xlink:href="#DejaVuSans-44" x="78.710938"/>
      <use xlink:href="#DejaVuSans-20" x="155.712891"/>
      <use xlink:href="#DejaVuSans-30" x="187.5"/>
      <use xlink:href="#DejaVuSans-2e" x="251.123047"/>
      <use xlink:href="#DejaVuSans-39" x="282.910156"/>
     </g>
    </g>
   </g>
  </g>
  <g id="text_16">
   <!-- Applied Voltage (V) -->
   <g transform="translate(182.815313 176.964375) scale(0.12 -0.12)">
    <defs>
     <path id="DejaVuSans-41" d="M 2188 4044 
L 1331 1722 
L 3047 1722 
L 2188 4044 
z
M 1831 4666 
L 2547 4666 
L 4325 0 
L 3669 0 
L 3244 1197 
L 1141 1197 
L 716 0 
L 50 0 
L 1831 4666 
z
" transform="scale(0.015625)"/>
     <path id="DejaVuSans-70" d="M 1159 525 
L 1159 -1331 
L 581 -1331 
L 581 3500 
L 1159 3500 
L 1159 2969 
Q 1341 3281 1617 3432 
Q 1894 3584 2278 3584 
Q 2916 3584 3314 3078 
Q 3713 2572 3713 1747 
Q 3713 922 3314 415 
Q 2916 -91 2278 -91 
Q 1894 -91 1617 61 
Q 1341 213 1159 525 
z
M 3116 1747 
Q 3116 2381 2855 2742 
Q 2594 3103 2138 3103 
Q 1681 3103 1420 2742 
Q 1159 2381 1159 1747 
Q 1159 1113 1420 752 
Q 1681 391 2138 391 
Q 2594 391 2855 752 
Q 3116 1113 3116 1747 
z
" transform="scale(0.015625)"/>
     <path id="DejaVuSans-6c" d="M 603 4863 
L 1178 4863 
L 1178 0 
L 603 0 
L 603 4863 
z
" transform="scale(0.015625)"/>
     <path id="DejaVuSans-69" d="M 603 3500 
L 1178 3500 
L 1178 0 
L 603 0 
L 603 3500 
z
M 603 4863 
L 1178 4863 
L 1178 4134 
L 603 4134 
L 603 4863 
z
" transform="scale(0.015625)"/>
     <path id="DejaVuSans-65" d="M 3597 1894 
L 3597 1613 
L 953 1613 
Q 991 1019 1311 708 
Q 1631 397 2203 397 
Q 2534 397 2845 478 
Q 3156 559 3463 722 
L 3463 178 
Q 3153 47 2828 -22 
Q 2503 -91 2169 -91 
Q 1331 -91 842 396 
Q 353 884 353 1716 
Q 353 2575 817 3079 
Q 1281 3584 2069 3584 
Q 2775 3584 3186 3129 
Q 3597 2675 3597 1894 
z
M 3022 2063 
Q 3016 2534 2758 2815 
Q 2500 3097 2075 3097 
Q 1594 3097 1305 2825 
Q 1016 2553 972 2059 
L 3022 2063 
z
" transform="scale(0.015625)"/>
     <path id="DejaVuSans-64" d="M 2906 2969 
L 2906 4863 
L 3481 4863 
L 3481 0 
L 2906 0 
L 2906 525 
Q 2725 213 2448 61 
Q 2172 -91 1784 -91 
Q 1150 -91 751 415 
Q 353 922 353 1747 
Q 353 2572 751 3078 
Q 1150 3584 1784 3584 
Q 2172 3584 2448 3432 
Q 2725 3281 2906 2969 
z
M 947 1747 
Q 947 1113 1208 752 
Q 1469 391 1925 391 
Q 2381 391 2643 752 
Q 2906 1113 2906 1747 
Q 2906 2381 2643 2742 
Q 2381 3103 1925 3103 
Q 1469 3103 1208 2742 
Q 947 2381 947 1747 
z
" transform="scale(0.015625)"/>
     <path id="DejaVuSans-56" d="M 1831 0 
L 50 4666 
L 709 4666 
L 2188 738 
L 3669 4666 
L 4325 4666 
L 2547 0 
L 1831 0 
z
" transform="scale(0.015625)"/>
     <path id="DejaVuSans-6f" d="M 1959 3097 
Q 1497 3097 1228 2736 
Q 959 2375 959 1747 
Q 959 1119 1226 758 
Q 1494 397 1959 397 
Q 2419 397 2687 759 
Q 2956 1122 2956 1747 
Q 2956 2369 2687 2733 
Q 2419 3097 1959 3097 
z
M 1959 3584 
Q 2709 3584 3137 3096 
Q 3566 2609 3566 1747 
Q 3566 888 3137 398 
Q 2709 -91 1959 -91 
Q 1206 -91 779 398 
Q 353 888 353 1747 
Q 353 2609 779 3096 
Q 1206 3584 1959 3584 
z
" transform="scale(0.015625)"/>
     <path id="DejaVuSans-74" d="M 1172 4494 
L 1172 3500 
L 2356 3500 
L 2356 3053 
L 1172 3053 
L 1172 1153 
Q 1172 725 1289 603 
Q 1406 481 1766 481 
L 2356 481 
L 2356 0 
L 1766 0 
Q 1100 0 847 248 
Q 594 497 594 1153 
L 594 3053 
L 172 3053 
L 172 3500 
L 594 3500 
L 594 4494 
L 1172 4494 
z
" transform="scale(0.015625)"/>
     <path id="DejaVuSans-61" d="M 2194 1759 
Q 1497 1759 1228 1600 
Q 959 1441 959 1056 
Q 959 750 1161 570 
Q 1363 391 1709 391 
Q 2188 391 2477 730 
Q 2766 1069 2766 1631 
L 2766 1759 
L 2194 1759 
z
M 3341 1997 
L 3341 0 
L 2766 0 
L 2766 531 
Q 2569 213 2275 61 
Q 1981 -91 1556 -91 
Q 1019 -91 701 211 
Q 384 513 384 1019 
Q 384 1609 779 1909 
Q 1175 2209 1959 2209 
L 2766 2209 
L 2766 2266 
Q 2766 2663 2505 2880 
Q 2244 3097 1772 3097 
Q 1472 3097 1187 3025 
Q 903 2953 641 2809 
L 641 3341 
Q 956 3463 1253 3523 
Q 1550 3584 1831 3584 
Q 2591 3584 2966 3190 
Q 3341 2797 3341 1997 
z
" transform="scale(0.015625)"/>
     <path id="DejaVuSans-67" d="M 2906 1791 
Q 2906 2416 2648 2759 
Q 2391 3103 1925 3103 
Q 1463 3103 1205 2759 
Q 947 2416 947 1791 
Q 947 1169 1205 825 
Q 1463 481 1925 481 
Q 2391 481 2648 825 
Q 2906 1169 2906 1791 
z
M 3481 434 
Q 3481 -459 3084 -895 
Q 2688 -1331 1869 -1331 
Q 1566 -1331 1297 -1286 
Q 1028 -1241 775 -1147 
L 775 -588 
Q 1028 -725 1275 -790 
Q 1522 -856 1778 -856 
Q 2344 -856 2625 -561 
Q 2906 -266 2906 331 
L 2906 616 
Q 2728 306 2450 153 
Q 2172 0 1784 0 
Q 1141 0 747 490 
Q 353 981 353 1791 
Q 353 2603 747 3093 
Q 1141 3584 1784 3584 
Q 2172 3584 2450 3431 
Q 2728 3278 2906 2969 
L 2906 3500 
L 3481 3500 
L 3481 434 
z
" transform="scale(0.015625)"/>
     <path id="DejaVuSans-28" d="M 1984 4856 
Q 1566 4138 1362 3434 
Q 1159 2731 1159 2009 
Q 1159 1288 1364 580 
Q 1569 -128 1984 -844 
L 1484 -844 
Q 1016 -109 783 600 
Q 550 1309 550 2009 
Q 550 2706 781 3412 
Q 1013 4119 1484 4856 
L 1984 4856 
z
" transform="scale(0.015625)"/>
     <path id="DejaVuSans-29" d="M 513 4856 
L 1013 4856 
Q 1481 4119 1714 3412 
Q 1947 2706 1947 2009 
Q 1947 1309 1714 600 
Q 1481 -109 1013 -844 
L 513 -844 
Q 928 -128 1133 580 
Q 1338 1288 1338 2009 
Q 1338 2731 1133 3434 
Q 928 4138 513 4856 
z
" transform="scale(0.015625)"/>
    </defs>
    <use xlink:href="#DejaVuSans-41"/>
    <use xlink:href="#DejaVuSans-70" x="68.408203"/>
    <use xlink:href="#DejaVuSans-70" x="131.884766"/>
    <use xlink:href="#DejaVuSans-6c" x="195.361328"/>
    <use xlink:href="#DejaVuSans-69" x="223.144531"/>
    <use xlink:href="#DejaVuSans-65" x="250.927734"/>
    <use xlink:href="#DejaVuSans-64" x="312.451172"/>
    <use xlink:href="#DejaVuSans-20" x="375.927734"/>
    <use xlink:href="#DejaVuSans-56" x="407.714844"/>
    <use xlink:href="#DejaVuSans-6f" x="468.373047"/>
    <use xlink:href="#DejaVuSans-6c" x="529.554688"/>
    <use xlink:href="#DejaVuSans-74" x="557.337891"/>
    <use xlink:href="#DejaVuSans-61" x="596.546875"/>
    <use xlink:href="#DejaVuSans-67" x="657.826172"/>
    <use xlink:href="#DejaVuSans-65" x="721.302734"/>
    <use xlink:href="#DejaVuSans-20" x="782.826172"/>
    <use xlink:href="#DejaVuSans-28" x="814.613281"/>
    <use xlink:href="#DejaVuSans-56" x="853.626953"/>
    <use xlink:href="#DejaVuSans-29" x="922.035156"/>
   </g>
  </g>
  <g id="text_17">
   <!-- Photocurrent (nA) -->
   <g transform="translate(16.318125 135.691875) rotate(-90) scale(0.12 -0.12)">
    <defs>
     <path id="DejaVuSans-50" d="M 1259 4147 
L 1259 2394 
L 2053 2394 
Q 2494 2394 2734 2622 
Q 2975 2850 2975 3272 
Q 2975 3691 2734 3919 
Q 2494 4147 2053 4147 
L 1259 4147 
z
M 628 4666 
L 2053 4666 
Q 2838 4666 3239 4311 
Q 3641 3956 3641 3272 
Q 3641 2581 3239 2228 
Q 2838 1875 2053 1875 
L 1259 1875 
L 1259 0 
L 628 0 
L 628 4666 
z
" transform="scale(0.015625)"/>
     <path id="DejaVuSans-68" d="M 3513 2113 
L 3513 0 
L 2938 0 
L 2938 2094 
Q 2938 2591 2744 2837 
Q 2550 3084 2163 3084 
Q 1697 3084 1428 2787 
Q 1159 2491 1159 1978 
L 1159 0 
L 581 0 
L 581 4863 
L 1159 4863 
L 1159 2956 
Q 1366 3272 1645 3428 
Q 1925 3584 2291 3584 
Q 2894 3584 3203 3211 
Q 3513 2838 3513 2113 
z
" transform="scale(0.015625)"/>
     <path id="DejaVuSans-63" d="M 3122 3366 
L 3122 2828 
Q 2878 2963 2633 3030 
Q 2388 3097 2138 3097 
Q 1578 3097 1268 2742 
Q 959 2388 959 1747 
Q 959 1106 1268 751 
Q 1578 397 2138 397 
Q 2388 397 2633 464 
Q 2878 531 3122 666 
L 3122 134 
Q 2881 22 2623 -34 
Q 2366 -91 2075 -91 
Q 1284 -91 818 406 
Q 353 903 353 1747 
Q 353 2603 823 3093 
Q 1294 3584 2113 3584 
Q 2378 3584 2631 3529 
Q 2884 3475 3122 3366 
z
" transform="scale(0.015625)"/>
     <path id="DejaVuSans-75" d="M 544 1381 
L 544 3500 
L 1119 3500 
L 1119 1403 
Q 1119 906 1312 657 
Q 1506 409 1894 409 
Q 2359 409 2629 706 
Q 2900 1003 2900 1516 
L 2900 3500 
L 3475 3500 
L 3475 0 
L 2900 0 
L 2900 538 
Q 2691 219 2414 64 
Q 2138 -91 1772 -91 
Q 1169 -91 856 284 
Q 544 659 544 1381 
z
M 1991 3584 
L 1991 3584 
z
" transform="scale(0.015625)"/>
     <path id="DejaVuSans-72" d="M 2631 2963 
Q 2534 3019 2420 3045 
Q 2306 3072 2169 3072 
Q 1681 3072 1420 2755 
Q 1159 2438 1159 1844 
L 1159 0 
L 581 0 
L 581 3500 
L 1159 3500 
L 1159 2956 
Q 1341 3275 1631 3429 
Q 1922 3584 2338 3584 
Q 2397 3584 2469 3576 
Q 2541 3569 2628 3553 
L 2631 2963 
z
" transform="scale(0.015625)"/>
     <path id="DejaVuSans-6e" d="M 3513 2113 
L 3513 0 
L 2938 0 
L 2938 2094 
Q 2938 2591 2744 2837 
Q 2550 3084 2163 3084 
Q 1697 3084 1428 2787 
Q 1159 2491 1159 1978 
L 1159 0 
L 581 0 
L 581 3500 
L 1159 3500 
L 1159 2956 
Q 1366 3272 1645 3428 
Q 1925 3584 2291 3584 
Q 2894 3584 3203 3211 
Q 3513 2838 3513 2113 
z
" transform="scale(0.015625)"/>
    </defs>
    <use xlink:href="#DejaVuSans-50"/>
    <use xlink:href="#DejaVuSans-68" x="60.302734"/>
    <use xlink:href="#DejaVuSans-6f" x="123.681641"/>
    <use xlink:href="#DejaVuSans-74" x="184.863281"/>
    <use xlink:href="#DejaVuSans-6f" x="224.072266"/>
    <use xlink:href="#DejaVuSans-63" x="285.253906"/>
    <use xlink:href="#DejaVuSans-75" x="340.234375"/>
    <use xlink:href="#DejaVuSans-72" x="403.613281"/>
    <use xlink:href="#DejaVuSans-72" x="442.976562"/>
    <use xlink:href="#DejaVuSans-65" x="481.839844"/>
    <use xlink:href="#DejaVuSans-6e" x="543.363281"/>
    <use xlink:href="#DejaVuSans-74" x="606.742188"/>
    <use xlink:href="#DejaVuSans-20" x="645.951172"/>
    <use xlink:href="#DejaVuSans-28" x="677.738281"/>
    <use xlink:href="#DejaVuSans-6e" x="716.751953"/>
    <use xlink:href="#DejaVuSans-41" x="780.130859"/>
    <use xlink:href="#DejaVuSans-29" x="848.539062"/>
   </g>
  </g>
 </g>
 <defs>
  <clipPath id="p33eadc6c3c">
   <rect x="58.23" y="7.2" width="171.204545" height="152.46"/>
  </clipPath>
  <clipPath id="p704744b984">
   <rect x="263.675455" y="7.2" width="171.204545" height="152.46"/>
  </clipPath>
 </defs>
</svg>
