<?xml version="1.0" encoding="utf-8" standalone="no"?>
<!DOCTYPE svg PUBLIC "-//W3C//DTD SVG 1.1//EN"
  "http://www.w3.org/Graphics/SVG/1.1/DTD/svg11.dtd">
<svg xmlns:xlink="http://www.w3.org/1999/xlink" width="235.8pt" height="190.8pt" viewBox="0 0 235.8 190.8" xmlns="http://www.w3.org/2000/svg" version="1.1">
 <metadata>
  <rdf:RDF xmlns:dc="http://purl.org/dc/elements/1.1/" xmlns:cc="http://creativecommons.org/ns#" xmlns:rdf="http://www.w3.org/1999/02/22-rdf-syntax-ns#">
   <cc:Work>
    <dc:type rdf:resource="http://purl.org/dc/dcmitype/StillImage"/>
    <dc:date>2024-02-22T07:39:07.711877</dc:date>
    <dc:format>image/svg+xml</dc:format>
    <dc:creator>
     <cc:Agent>
      <dc:title>Matplotlib v3.7.1, https://matplotlib.org/</dc:title>
     </cc:Agent>
    </dc:creator>
   </cc:Work>
  </rdf:RDF>
 </metadata>
 <defs>
  <style type="text/css">*{stroke-linejoin: round; stroke-linecap: butt}</style>
 </defs>
 <g id="figure_1">
  <g id="patch_1">
   <path d="M 0 190.8 
L 235.8 190.8 
L 235.8 0 
L 0 0 
z
" style="fill: #ffffff"/>
  </g>
  <g id="axes_1">
   <g id="patch_2">
    <path d="M 38.125311 153.781683 
L 228.6 153.781683 
L 228.6 7.2 
L 38.125311 7.2 
z
" style="fill: #ffffff"/>
   </g>
   <g id="matplotlib.axis_1">
    <g id="xtick_1">
     <g id="line2d_1">
      <defs>
       <path id="mb40d221011" d="M 0 0 
L 0 3.5 
" style="stroke: #000000; stroke-width: 0.8"/>
      </defs>
      <g>
       <use xlink:href="#mb40d221011" x="75.643052" y="153.781683" style="stroke: #000000; stroke-width: 0.8"/>
      </g>
     </g>
     <g id="text_1">
      <!-- $\mathdefault{−2}$ -->
      <g transform="translate(69.278013 167.700182) scale(0.1 -0.1)">
       <defs>
        <path id="CMSY10-0" d="M 4218 1472 
C 4326 1472 4442 1472 4442 1600 
C 4442 1728 4326 1728 4218 1728 
L 755 1728 
C 646 1728 531 1728 531 1600 
C 531 1472 646 1472 755 1472 
L 4218 1472 
z
" transform="scale(0.015625)"/>
        <path id="CMR17-32" d="M 2669 989 
L 2554 989 
C 2490 536 2438 459 2413 420 
C 2381 369 1920 369 1830 369 
L 602 369 
C 832 619 1280 1072 1824 1597 
C 2214 1967 2669 2402 2669 3035 
C 2669 3790 2067 4224 1395 4224 
C 691 4224 262 3604 262 3030 
C 262 2780 448 2748 525 2748 
C 589 2748 781 2787 781 3010 
C 781 3207 614 3264 525 3264 
C 486 3264 448 3258 422 3245 
C 544 3790 915 4058 1306 4058 
C 1862 4058 2227 3617 2227 3035 
C 2227 2479 1901 2000 1536 1584 
L 262 146 
L 262 0 
L 2515 0 
L 2669 989 
z
" transform="scale(0.015625)"/>
       </defs>
       <use xlink:href="#CMSY10-0" transform="scale(0.996264)"/>
       <use xlink:href="#CMR17-32" transform="translate(77.487468 0) scale(0.996264)"/>
      </g>
     </g>
    </g>
    <g id="xtick_2">
     <g id="line2d_2">
      <g>
       <use xlink:href="#mb40d221011" x="133.362655" y="153.781683" style="stroke: #000000; stroke-width: 0.8"/>
      </g>
     </g>
     <g id="text_2">
      <!-- $\mathdefault{−1}$ -->
      <g transform="translate(126.997616 167.700182) scale(0.1 -0.1)">
       <defs>
        <path id="CMR17-31" d="M 1702 4058 
C 1702 4192 1696 4192 1606 4192 
C 1357 3916 979 3827 621 3827 
C 602 3827 570 3827 563 3808 
C 557 3795 557 3782 557 3648 
C 755 3648 1088 3686 1344 3839 
L 1344 461 
C 1344 236 1331 160 781 160 
L 589 160 
L 589 0 
C 896 0 1216 0 1523 0 
C 1830 0 2150 0 2458 0 
L 2458 160 
L 2266 160 
C 1715 160 1702 230 1702 458 
L 1702 4058 
z
" transform="scale(0.015625)"/>
       </defs>
       <use xlink:href="#CMSY10-0" transform="scale(0.996264)"/>
       <use xlink:href="#CMR17-31" transform="translate(77.487468 0) scale(0.996264)"/>
      </g>
     </g>
    </g>
    <g id="xtick_3">
     <g id="line2d_3">
      <g>
       <use xlink:href="#mb40d221011" x="191.082258" y="153.781683" style="stroke: #000000; stroke-width: 0.8"/>
      </g>
     </g>
     <g id="text_3">
      <!-- $\mathdefault{0}$ -->
      <g transform="translate(188.591591 167.700182) scale(0.1 -0.1)">
       <defs>
        <path id="CMR17-30" d="M 2688 2025 
C 2688 2416 2682 3080 2413 3591 
C 2176 4039 1798 4198 1466 4198 
C 1158 4198 768 4058 525 3597 
C 269 3118 243 2524 243 2025 
C 243 1661 250 1106 448 619 
C 723 -39 1216 -128 1466 -128 
C 1760 -128 2208 -7 2470 600 
C 2662 1042 2688 1559 2688 2025 
z
M 1466 -26 
C 1056 -26 813 325 723 812 
C 653 1188 653 1738 653 2096 
C 653 2588 653 2997 736 3387 
C 858 3929 1216 4096 1466 4096 
C 1728 4096 2067 3923 2189 3400 
C 2272 3036 2278 2607 2278 2096 
C 2278 1680 2278 1169 2202 792 
C 2067 95 1690 -26 1466 -26 
z
" transform="scale(0.015625)"/>
       </defs>
       <use xlink:href="#CMR17-30" transform="scale(0.996264)"/>
      </g>
     </g>
    </g>
    <g id="text_4">
     <!-- Applied Voltage (V) -->
     <g transform="translate(91.450323 181.10934) scale(0.1 -0.1)">
      <defs>
       <path id="CMSS17-41" d="M 2272 4416 
L 1722 4416 
L 166 0 
L 653 0 
L 1101 1280 
L 2816 1280 
L 3270 0 
L 3827 0 
L 2272 4416 
z
M 2694 1637 
L 1222 1637 
C 1530 2528 1914 3638 1958 3925 
L 1965 3925 
C 2010 3663 2138 3281 2246 2956 
L 2694 1637 
z
" transform="scale(0.015625)"/>
       <path id="CMSS17-70" d="M 966 333 
C 1178 129 1466 -5 1773 -5 
C 2368 -5 2880 603 2880 1412 
C 2880 2159 2496 2816 1946 2816 
C 1626 2816 1242 2702 954 2472 
L 954 2765 
L 480 2765 
L 480 -1216 
L 966 -1216 
L 966 333 
z
M 966 2100 
C 1018 2176 1235 2415 1587 2415 
C 2035 2415 2394 1960 2394 1412 
C 2394 787 1958 384 1530 384 
C 1402 384 1267 415 1139 523 
C 966 674 966 768 966 857 
L 966 2100 
z
" transform="scale(0.015625)"/>
       <path id="CMSS17-6c" d="M 947 4416 
L 474 4416 
L 474 0 
L 947 0 
L 947 4416 
z
" transform="scale(0.015625)"/>
       <path id="CMSS17-69" d="M 979 4183 
L 442 4183 
L 442 3648 
L 979 3648 
L 979 4183 
z
M 947 2739 
L 474 2739 
L 474 0 
L 947 0 
L 947 2739 
z
" transform="scale(0.015625)"/>
       <path id="CMSS17-65" d="M 2502 1377 
C 2502 1590 2490 2003 2285 2345 
C 2061 2713 1696 2816 1421 2816 
C 755 2816 192 2188 192 1375 
C 192 582 774 -64 1510 -64 
C 1798 -64 2150 19 2470 248 
C 2470 274 2458 414 2451 420 
C 2451 433 2432 630 2432 656 
C 2125 407 1773 325 1517 325 
C 1107 325 666 667 646 1377 
L 2502 1377 
z
M 698 1728 
C 781 2084 1062 2421 1421 2421 
C 1517 2421 1965 2421 2080 1728 
L 698 1728 
z
" transform="scale(0.015625)"/>
       <path id="CMSS17-64" d="M 2611 4416 
L 2138 4416 
L 2138 2438 
C 1939 2603 1613 2756 1254 2756 
C 672 2756 211 2131 211 1347 
C 211 562 666 -64 1235 -64 
C 1677 -64 1971 172 2125 306 
L 2125 -13 
L 2611 -13 
L 2611 4416 
z
M 2125 836 
C 2125 747 2125 653 1926 482 
C 1798 375 1645 325 1498 325 
C 1152 325 698 576 698 1340 
C 698 2134 1210 2368 1562 2368 
C 1798 2368 1990 2254 2125 2065 
L 2125 836 
z
" transform="scale(0.015625)"/>
       <path id="CMSS17-56" d="M 3910 4416 
L 3411 4416 
L 2304 1362 
C 2272 1273 2074 688 2035 484 
L 2029 484 
C 1978 726 1773 1292 1664 1604 
L 922 3672 
L 646 4416 
L 83 4416 
L 1715 0 
L 2278 0 
L 3910 4416 
z
" transform="scale(0.015625)"/>
       <path id="CMSS17-6f" d="M 2829 1356 
C 2829 2176 2221 2816 1504 2816 
C 768 2816 173 2157 173 1356 
C 173 544 787 -64 1498 -64 
C 2227 -64 2829 563 2829 1356 
z
M 1504 337 
C 1050 337 659 709 659 1408 
C 659 2151 1114 2427 1498 2427 
C 1914 2427 2342 2126 2342 1408 
C 2342 683 1926 337 1504 337 
z
" transform="scale(0.015625)"/>
       <path id="CMSS17-74" d="M 1069 2368 
L 1901 2368 
L 1901 2737 
L 1069 2737 
L 1069 3520 
L 614 3520 
L 614 2737 
L 109 2737 
L 109 2368 
L 602 2368 
L 602 749 
C 602 384 685 -64 1107 -64 
C 1427 -64 1722 25 2003 172 
L 1901 548 
C 1747 414 1562 337 1363 337 
C 1082 337 1069 696 1069 856 
L 1069 2368 
z
" transform="scale(0.015625)"/>
       <path id="CMSS17-61" d="M 2406 1791 
C 2406 2392 1978 2808 1402 2808 
C 1120 2808 813 2757 461 2553 
L 499 2135 
C 659 2248 934 2432 1395 2432 
C 1722 2432 1920 2180 1920 1782 
L 1920 1536 
C 896 1536 256 1238 256 726 
C 256 461 416 -64 947 -64 
C 1043 -64 1562 -64 1933 217 
L 1933 -19 
L 2406 -19 
L 2406 1791 
z
M 1920 816 
C 1920 701 1920 548 1728 434 
C 1562 325 1350 325 1261 325 
C 941 325 723 511 723 744 
C 723 1211 1722 1211 1920 1211 
L 1920 816 
z
" transform="scale(0.015625)"/>
       <path id="CMSS17-67" d="M 2848 2808 
C 2483 2808 2170 2738 1914 2617 
C 1702 2777 1485 2808 1338 2808 
C 781 2808 358 2349 358 1814 
C 358 1468 550 1207 563 1195 
C 448 1035 384 863 384 672 
C 384 448 474 289 544 200 
C 211 -3 166 -314 166 -435 
C 166 -898 749 -1280 1498 -1280 
C 2253 -1280 2835 -898 2835 -428 
C 2835 448 1856 448 1587 448 
L 1069 448 
C 973 448 717 448 717 791 
C 717 921 774 1004 781 1010 
C 877 940 1075 832 1338 832 
C 1869 832 2310 1278 2310 1827 
C 2310 2132 2170 2355 2112 2432 
L 2131 2432 
C 2150 2432 2419 2432 2515 2432 
C 2720 2432 2739 2429 2918 2419 
L 2848 2808 
z
M 1338 1182 
C 1120 1182 813 1315 813 1823 
C 813 2375 1165 2464 1331 2464 
C 1549 2464 1856 2331 1856 1823 
C 1856 1271 1504 1182 1338 1182 
z
M 1581 -10 
C 1734 -10 2381 -10 2381 -442 
C 2381 -714 1984 -929 1504 -929 
C 1018 -929 621 -720 621 -435 
C 621 -403 621 -10 1062 -10 
L 1581 -10 
z
" transform="scale(0.015625)"/>
       <path id="CMSS17-28" d="M 1613 4768 
C 1267 4417 474 3601 474 1588 
C 474 -433 1267 -1243 1613 -1600 
L 2003 -1600 
C 1216 -784 960 357 960 1581 
C 960 2798 1203 3946 2003 4768 
L 1613 4768 
z
" transform="scale(0.015625)"/>
       <path id="CMSS17-29" d="M 723 -1600 
C 1069 -1249 1862 -433 1862 1581 
C 1862 3601 1069 4411 723 4768 
L 333 4768 
C 1120 3952 1376 2811 1376 1588 
C 1376 370 1133 -778 333 -1600 
L 723 -1600 
z
" transform="scale(0.015625)"/>
      </defs>
      <use xlink:href="#CMSS17-41" transform="scale(0.996264)"/>
      <use xlink:href="#CMSS17-70" transform="translate(62.217855 0) scale(0.996264)"/>
      <use xlink:href="#CMSS17-70" transform="translate(110.422798 0) scale(0.996264)"/>
      <use xlink:href="#CMSS17-6c" transform="translate(158.627741 0) scale(0.996264)"/>
      <use xlink:href="#CMSS17-69" transform="translate(180.808464 0) scale(0.996264)"/>
      <use xlink:href="#CMSS17-65" transform="translate(202.989187 0) scale(0.996264)"/>
      <use xlink:href="#CMSS17-64" transform="translate(244.628009 0) scale(0.996264)"/>
      <use xlink:href="#CMSS17-56" transform="translate(324.062065 0) scale(0.996264)"/>
      <use xlink:href="#CMSS17-6f" transform="translate(383.677466 0) scale(0.996264)"/>
      <use xlink:href="#CMSS17-6c" transform="translate(430.52109 0) scale(0.996264)"/>
      <use xlink:href="#CMSS17-74" transform="translate(452.701813 0) scale(0.996264)"/>
      <use xlink:href="#CMSS17-61" transform="translate(486.533379 0) scale(0.996264)"/>
      <use xlink:href="#CMSS17-67" transform="translate(531.4553 0) scale(0.996264)"/>
      <use xlink:href="#CMSS17-65" transform="translate(578.298924 0) scale(0.996264)"/>
      <use xlink:href="#CMSS17-28" transform="translate(651.166858 0) scale(0.996264)"/>
      <use xlink:href="#CMSS17-56" transform="translate(687.600773 0) scale(0.996264)"/>
      <use xlink:href="#CMSS17-29" transform="translate(749.818628 0) scale(0.996264)"/>
     </g>
    </g>
   </g>
   <g id="matplotlib.axis_2">
    <g id="ytick_1">
     <g id="line2d_4">
      <defs>
       <path id="m6ce091e6af" d="M 0 0 
L -3.5 0 
" style="stroke: #000000; stroke-width: 0.8"/>
      </defs>
      <g>
       <use xlink:href="#m6ce091e6af" x="38.125311" y="143.710073" style="stroke: #000000; stroke-width: 0.8"/>
      </g>
     </g>
     <g id="text_5">
      <!-- $\mathdefault{0}$ -->
      <g transform="translate(26.143975 147.169322) scale(0.1 -0.1)">
       <use xlink:href="#CMR17-30" transform="scale(0.996264)"/>
      </g>
     </g>
    </g>
    <g id="ytick_2">
     <g id="line2d_5">
      <g>
       <use xlink:href="#m6ce091e6af" x="38.125311" y="113.484773" style="stroke: #000000; stroke-width: 0.8"/>
      </g>
     </g>
     <g id="text_6">
      <!-- $\mathdefault{20}$ -->
      <g transform="translate(21.16264 116.944022) scale(0.1 -0.1)">
       <use xlink:href="#CMR17-32" transform="scale(0.996264)"/>
       <use xlink:href="#CMR17-30" transform="translate(45.690477 0) scale(0.996264)"/>
      </g>
     </g>
    </g>
    <g id="ytick_3">
     <g id="line2d_6">
      <g>
       <use xlink:href="#m6ce091e6af" x="38.125311" y="83.259473" style="stroke: #000000; stroke-width: 0.8"/>
      </g>
     </g>
     <g id="text_7">
      <!-- $\mathdefault{40}$ -->
      <g transform="translate(21.16264 86.718722) scale(0.1 -0.1)">
       <defs>
        <path id="CMR17-34" d="M 2150 4122 
C 2150 4256 2144 4256 2029 4256 
L 128 1254 
L 128 1088 
L 1779 1088 
L 1779 457 
C 1779 224 1766 160 1318 160 
L 1197 160 
L 1197 0 
C 1402 0 1747 0 1965 0 
C 2182 0 2528 0 2733 0 
L 2733 160 
L 2611 160 
C 2163 160 2150 224 2150 457 
L 2150 1088 
L 2803 1088 
L 2803 1254 
L 2150 1254 
L 2150 4122 
z
M 1798 3703 
L 1798 1254 
L 256 1254 
L 1798 3703 
z
" transform="scale(0.015625)"/>
       </defs>
       <use xlink:href="#CMR17-34" transform="scale(0.996264)"/>
       <use xlink:href="#CMR17-30" transform="translate(45.690477 0) scale(0.996264)"/>
      </g>
     </g>
    </g>
    <g id="ytick_4">
     <g id="line2d_7">
      <g>
       <use xlink:href="#m6ce091e6af" x="38.125311" y="53.034173" style="stroke: #000000; stroke-width: 0.8"/>
      </g>
     </g>
     <g id="text_8">
      <!-- $\mathdefault{60}$ -->
      <g transform="translate(21.16264 56.493422) scale(0.1 -0.1)">
       <defs>
        <path id="CMR17-36" d="M 678 2176 
C 678 3690 1395 4032 1811 4032 
C 1946 4032 2272 4009 2400 3776 
C 2298 3776 2106 3776 2106 3553 
C 2106 3381 2246 3323 2336 3323 
C 2394 3323 2566 3348 2566 3560 
C 2566 3954 2246 4179 1805 4179 
C 1043 4179 243 3390 243 1984 
C 243 253 966 -128 1478 -128 
C 2099 -128 2688 427 2688 1283 
C 2688 2081 2170 2662 1517 2662 
C 1126 2662 838 2407 678 1960 
L 678 2176 
z
M 1478 25 
C 691 25 691 1200 691 1436 
C 691 1896 909 2560 1504 2560 
C 1613 2560 1926 2560 2138 2120 
C 2253 1870 2253 1609 2253 1289 
C 2253 944 2253 690 2118 434 
C 1978 171 1773 25 1478 25 
z
" transform="scale(0.015625)"/>
       </defs>
       <use xlink:href="#CMR17-36" transform="scale(0.996264)"/>
       <use xlink:href="#CMR17-30" transform="translate(45.690477 0) scale(0.996264)"/>
      </g>
     </g>
    </g>
    <g id="ytick_5">
     <g id="line2d_8">
      <g>
       <use xlink:href="#m6ce091e6af" x="38.125311" y="22.808873" style="stroke: #000000; stroke-width: 0.8"/>
      </g>
     </g>
     <g id="text_9">
      <!-- $\mathdefault{80}$ -->
      <g transform="translate(21.16264 26.268122) scale(0.1 -0.1)">
       <defs>
        <path id="CMR17-38" d="M 1741 2264 
C 2144 2467 2554 2773 2554 3263 
C 2554 3841 1990 4179 1472 4179 
C 890 4179 378 3759 378 3180 
C 378 3021 416 2747 666 2505 
C 730 2442 998 2251 1171 2130 
C 883 1983 211 1634 211 934 
C 211 279 838 -128 1459 -128 
C 2144 -128 2720 362 2720 1010 
C 2720 1590 2330 1857 2074 2029 
L 1741 2264 
z
M 902 2822 
C 851 2854 595 3051 595 3351 
C 595 3739 998 4032 1459 4032 
C 1965 4032 2336 3676 2336 3262 
C 2336 2669 1670 2331 1638 2331 
C 1632 2331 1626 2331 1574 2370 
L 902 2822 
z
M 2080 1519 
C 2176 1449 2483 1240 2483 851 
C 2483 381 2010 25 1472 25 
C 890 25 448 438 448 940 
C 448 1443 838 1862 1280 2060 
L 2080 1519 
z
" transform="scale(0.015625)"/>
       </defs>
       <use xlink:href="#CMR17-38" transform="scale(0.996264)"/>
       <use xlink:href="#CMR17-30" transform="translate(45.690477 0) scale(0.996264)"/>
      </g>
     </g>
    </g>
    <g id="text_10">
     <!-- Photocurrent (nA) -->
     <g transform="translate(14.67198 119.372889) rotate(-90) scale(0.1 -0.1)">
      <defs>
       <path id="CMSS17-50" d="M 2106 1856 
C 2874 1856 3501 2453 3501 3158 
C 3501 3850 2899 4453 2067 4453 
L 570 4453 
L 570 0 
L 1107 0 
L 1107 1856 
L 2106 1856 
z
M 1926 4096 
C 2669 4096 2995 3627 2995 3157 
C 2995 2720 2694 2226 1926 2226 
L 1094 2226 
L 1094 4096 
L 1926 4096 
z
" transform="scale(0.015625)"/>
       <path id="CMSS17-68" d="M 2618 1891 
C 2618 2292 2522 2820 1798 2820 
C 1395 2820 1133 2623 947 2407 
L 947 4448 
L 474 4448 
L 474 32 
L 960 32 
L 960 1573 
C 960 1973 1114 2432 1549 2432 
C 2112 2432 2131 2056 2131 1839 
L 2131 32 
L 2618 32 
L 2618 1891 
z
" transform="scale(0.015625)"/>
       <path id="CMSS17-63" d="M 2464 2541 
C 2464 2585 2170 2714 2093 2739 
C 1882 2816 1613 2816 1542 2816 
C 710 2816 211 2093 211 1363 
C 211 595 768 -64 1517 -64 
C 1946 -64 2253 76 2502 242 
L 2464 664 
C 2189 453 1869 337 1523 337 
C 1024 337 698 774 698 1369 
C 698 1831 909 2414 1549 2414 
C 1901 2414 2099 2343 2394 2145 
L 2464 2541 
z
" transform="scale(0.015625)"/>
       <path id="CMSS17-75" d="M 2618 2739 
L 2131 2739 
L 2131 972 
C 2131 498 1786 306 1421 306 
C 998 306 960 447 960 709 
L 960 2739 
L 474 2739 
L 474 678 
C 474 179 646 -64 1088 -64 
C 1306 -64 1798 -13 2144 306 
L 2144 0 
L 2618 0 
L 2618 2739 
z
" transform="scale(0.015625)"/>
       <path id="CMSS17-72" d="M 954 1363 
C 954 1965 1395 2368 1958 2368 
L 1958 2789 
C 1549 2789 1165 2585 934 2253 
L 934 2758 
L 480 2758 
L 480 0 
L 954 0 
L 954 1363 
z
" transform="scale(0.015625)"/>
       <path id="CMSS17-6e" d="M 2618 1877 
C 2618 2283 2522 2816 1798 2816 
C 1389 2816 1120 2606 941 2389 
L 941 2758 
L 474 2758 
L 474 0 
L 960 0 
L 960 1559 
C 960 1964 1114 2428 1549 2428 
C 2112 2428 2131 2048 2131 1829 
L 2131 0 
L 2618 0 
L 2618 1877 
z
" transform="scale(0.015625)"/>
      </defs>
      <use xlink:href="#CMSS17-50" transform="scale(0.996264)"/>
      <use xlink:href="#CMSS17-68" transform="translate(59.735586 0) scale(0.996264)"/>
      <use xlink:href="#CMSS17-6f" transform="translate(107.940529 0) scale(0.996264)"/>
      <use xlink:href="#CMSS17-74" transform="translate(154.784153 0) scale(0.996264)"/>
      <use xlink:href="#CMSS17-6f" transform="translate(188.61572 0) scale(0.996264)"/>
      <use xlink:href="#CMSS17-63" transform="translate(238.061782 0) scale(0.996264)"/>
      <use xlink:href="#CMSS17-75" transform="translate(279.700604 0) scale(0.996264)"/>
      <use xlink:href="#CMSS17-72" transform="translate(327.905547 0) scale(0.996264)"/>
      <use xlink:href="#CMSS17-72" transform="translate(359.81532 0) scale(0.996264)"/>
      <use xlink:href="#CMSS17-65" transform="translate(391.725092 0) scale(0.996264)"/>
      <use xlink:href="#CMSS17-6e" transform="translate(433.363914 0) scale(0.996264)"/>
      <use xlink:href="#CMSS17-74" transform="translate(481.568857 0) scale(0.996264)"/>
      <use xlink:href="#CMSS17-28" transform="translate(546.629537 0) scale(0.996264)"/>
      <use xlink:href="#CMSS17-6e" transform="translate(583.063451 0) scale(0.996264)"/>
      <use xlink:href="#CMSS17-41" transform="translate(631.268394 0) scale(0.996264)"/>
      <use xlink:href="#CMSS17-29" transform="translate(693.486249 0) scale(0.996264)"/>
     </g>
    </g>
   </g>
   <g id="line2d_9">
    <path d="M 46.783251 145.420569 
L 47.937643 145.421141 
L 48.514839 145.711688 
L 49.092035 145.472351 
L 51.400819 145.433841 
L 51.978015 145.501934 
L 52.555211 145.430219 
L 54.286799 145.542784 
L 56.595584 145.266193 
L 57.17278 145.379013 
L 58.327172 145.367583 
L 58.904368 145.44833 
L 61.213152 145.394993 
L 63.521936 145.459499 
L 64.099132 145.403344 
L 65.253524 145.449967 
L 65.83072 145.466752 
L 66.407916 145.20654 
L 66.985112 145.402207 
L 69.871092 145.41663 
L 70.448288 145.571727 
L 71.60268 145.418162 
L 72.179876 145.553934 
L 72.757072 145.362475 
L 73.334268 145.492715 
L 81.415013 145.382162 
L 82.569405 145.735034 
L 84.300993 145.446845 
L 87.186973 145.549202 
L 87.764169 145.435423 
L 88.341365 145.519178 
L 89.495757 145.420128 
L 90.072953 145.525429 
L 90.650149 145.439701 
L 91.804541 145.43135 
L 92.958933 145.39412 
L 94.113325 145.468001 
L 96.422109 145.559718 
L 96.999306 145.461034 
L 100.462482 145.533117 
L 101.039678 145.432866 
L 102.19407 145.485823 
L 104.502854 145.403016 
L 105.657246 145.52319 
L 106.811638 145.495127 
L 108.543226 145.552973 
L 109.120422 145.433284 
L 110.274814 145.594031 
L 111.429206 145.424053 
L 112.006402 145.529281 
L 112.583598 145.438623 
L 113.160794 145.525255 
L 115.469578 145.421917 
L 116.046774 145.587604 
L 116.62397 145.6091 
L 117.201167 145.472438 
L 117.778363 145.572564 
L 120.087147 145.439348 
L 120.664343 145.79657 
L 121.818735 145.454343 
L 122.395931 145.54382 
L 124.704715 145.512476 
L 127.013499 145.527172 
L 127.590695 145.359692 
L 128.167891 145.525038 
L 129.322283 145.497598 
L 129.899479 145.44103 
L 130.476675 145.531181 
L 132.208263 145.30309 
L 132.785459 145.458515 
L 133.939851 145.375671 
L 134.517047 145.542324 
L 135.094243 145.398233 
L 136.248635 145.44294 
L 137.980224 145.489409 
L 139.134616 145.439314 
L 143.752184 145.504639 
L 144.32938 145.438007 
L 144.906576 145.524291 
L 146.060968 145.434889 
L 147.792556 145.559289 
L 148.369752 145.669502 
L 150.10134 145.418221 
L 150.678536 145.484163 
L 151.255732 145.349853 
L 154.141712 145.449244 
L 155.8733 145.274244 
L 157.027692 145.259988 
L 157.604888 145.149275 
L 158.759281 145.194255 
L 159.336477 145.162605 
L 160.490869 144.890651 
L 161.068065 144.832959 
L 162.222457 144.556009 
L 163.376849 144.409174 
L 163.954045 144.332201 
L 164.531241 144.000447 
L 165.685633 143.628004 
L 166.262829 143.289106 
L 166.840025 143.18164 
L 169.726005 141.478844 
L 170.880397 140.441503 
L 172.611985 138.822454 
L 176.075161 134.549212 
L 177.229553 132.673438 
L 178.961142 129.713052 
L 180.115534 127.481022 
L 183.001514 121.243516 
L 185.887494 113.952832 
L 188.773474 105.86633 
L 192.813846 93.566673 
L 195.12263 86.221749 
L 204.357767 56.469187 
L 206.666551 49.389526 
L 209.552531 40.686589 
L 214.747295 26.448911 
L 219.94206 13.862804 
L 219.94206 13.862804 
" clip-path="url(#p8d19006674)" style="fill: none; stroke: #1f77b4; stroke-width: 1.5; stroke-linecap: square"/>
   </g>
   <g id="line2d_10">
    <path d="M 46.783251 145.723565 
L 47.360447 147.070161 
L 47.937643 145.85599 
L 48.514839 146.438674 
L 49.092035 145.994231 
L 49.669231 146.106147 
L 50.246427 145.976791 
L 50.823623 146.349904 
L 51.400819 145.816874 
L 51.978015 146.138992 
L 52.555211 145.948284 
L 53.132407 145.486871 
L 54.286799 145.374968 
L 55.441191 145.478336 
L 58.904368 145.44942 
L 59.481564 145.514092 
L 60.05876 145.379034 
L 62.94474 145.477742 
L 63.521936 145.527303 
L 64.099132 145.431882 
L 64.676328 145.502879 
L 65.253524 145.375387 
L 68.139504 145.430692 
L 72.179876 145.453858 
L 72.757072 145.36434 
L 75.065856 145.473121 
L 76.220248 145.425311 
L 80.260621 145.540132 
L 80.837817 145.690329 
L 81.415013 145.504767 
L 81.992209 145.457967 
L 82.569405 145.715985 
L 83.723797 145.377653 
L 85.455385 145.49128 
L 86.032581 145.3684 
L 91.227345 145.457422 
L 92.381737 145.46621 
L 93.536129 145.520241 
L 94.113325 145.395018 
L 95.267717 145.51502 
L 98.153698 145.444472 
L 98.730894 145.545141 
L 103.348462 145.41873 
L 104.502854 145.480363 
L 105.08005 145.359049 
L 105.657246 145.565871 
L 106.234442 145.432738 
L 109.697618 145.43968 
L 110.274814 145.544141 
L 112.006402 145.438839 
L 113.73799 145.443339 
L 114.315186 145.547817 
L 114.892382 145.390902 
L 116.62397 145.498097 
L 117.201167 145.330329 
L 117.778363 145.463062 
L 120.087147 145.411493 
L 120.664343 145.615382 
L 121.241539 145.587725 
L 121.818735 145.404039 
L 124.127519 145.411423 
L 124.704715 145.493077 
L 125.859107 145.345136 
L 127.013499 145.407469 
L 128.745087 145.399045 
L 129.322283 145.478258 
L 129.899479 145.389095 
L 131.053871 145.527379 
L 131.631067 145.529954 
L 132.208263 145.409643 
L 133.362655 145.478648 
L 136.248635 145.528738 
L 136.825831 145.433244 
L 137.980224 145.432133 
L 138.55742 145.348404 
L 139.134616 145.503303 
L 149.524144 145.366 
L 150.10134 145.305913 
L 150.678536 145.479161 
L 151.832928 145.391088 
L 152.410124 145.543882 
L 152.98732 145.421473 
L 154.718908 145.449427 
L 155.296104 145.275039 
L 157.027692 145.370311 
L 157.604888 145.088289 
L 158.182085 145.386192 
L 158.759281 145.205067 
L 159.913673 145.104186 
L 160.490869 144.989774 
L 161.068065 144.999376 
L 162.222457 144.757126 
L 163.376849 144.748491 
L 163.954045 144.597987 
L 164.531241 144.272281 
L 166.840025 143.692359 
L 169.726005 142.251866 
L 172.611985 140.409585 
L 174.343573 138.903613 
L 175.497965 137.689019 
L 176.075161 137.114875 
L 180.115534 131.740804 
L 184.733102 123.643924 
L 186.46469 120.17544 
L 189.927866 112.522515 
L 190.505062 111.442585 
L 192.23665 107.145827 
L 196.854218 95.793008 
L 198.585807 91.418198 
L 199.163003 90.171299 
L 200.317395 87.200524 
L 202.626179 81.353274 
L 203.203375 80.156025 
L 203.780571 78.464919 
L 210.129727 64.032792 
L 211.861315 60.459068 
L 213.015707 57.891993 
L 215.324491 53.255095 
L 217.056079 50.096027 
L 219.364864 45.742027 
L 219.94206 44.782379 
L 219.94206 44.782379 
" clip-path="url(#p8d19006674)" style="fill: none; stroke: #ff7f0e; stroke-width: 1.5; stroke-linecap: square"/>
   </g>
   <g id="line2d_11">
    <path d="M 46.783251 145.878751 
L 47.360447 147.118879 
L 47.937643 145.967275 
L 48.514839 146.430138 
L 49.092035 146.057779 
L 49.669231 146.133903 
L 50.246427 145.900469 
L 50.823623 146.399799 
L 51.400819 145.823289 
L 51.978015 145.60967 
L 53.709603 145.408691 
L 54.863995 145.601284 
L 55.441191 145.419584 
L 56.595584 145.457339 
L 57.749976 145.412136 
L 58.327172 145.464821 
L 58.904368 145.651266 
L 60.05876 145.367851 
L 60.635956 145.464434 
L 62.94474 145.438765 
L 63.521936 145.768575 
L 64.099132 145.868094 
L 64.676328 145.636723 
L 65.83072 145.47887 
L 71.60268 145.546039 
L 72.179876 145.411822 
L 73.911464 145.534552 
L 77.374641 145.474726 
L 77.951837 145.509 
L 78.529033 145.39977 
L 81.415013 145.501571 
L 82.569405 145.139136 
L 83.146601 145.438712 
L 83.723797 145.346187 
L 84.300993 145.401335 
L 86.032581 145.32673 
L 87.764169 145.375016 
L 88.341365 145.477244 
L 89.495757 145.393693 
L 92.958933 145.458396 
L 98.153698 145.399055 
L 99.30809 145.448405 
L 101.039678 145.501374 
L 102.771266 145.431916 
L 103.348462 145.436211 
L 103.925658 145.318323 
L 104.502854 145.412919 
L 105.08005 145.374275 
L 105.657246 145.567544 
L 106.811638 145.405166 
L 107.96603 145.453838 
L 109.120422 145.472157 
L 112.006402 145.492971 
L 113.160794 145.574705 
L 114.315186 145.478272 
L 116.046774 145.395446 
L 124.704715 145.462303 
L 125.281911 145.345999 
L 126.436303 145.392593 
L 138.55742 145.487618 
L 139.134616 145.524261 
L 140.289008 145.353606 
L 142.597792 145.471473 
L 143.752184 145.407191 
L 144.32938 145.477691 
L 145.483772 145.398868 
L 146.638164 145.464729 
L 147.21536 145.343664 
L 148.369752 145.478533 
L 149.524144 145.383477 
L 150.10134 145.345053 
L 151.255732 145.512011 
L 151.832928 145.416962 
L 154.141712 145.504197 
L 155.296104 145.288463 
L 155.8733 145.298493 
L 156.450496 145.437529 
L 157.027692 145.41685 
L 157.604888 145.143185 
L 158.182085 145.301556 
L 160.490869 145.01873 
L 162.222457 144.912403 
L 164.531241 144.49395 
L 165.108437 144.557319 
L 167.994417 143.687164 
L 172.034789 141.84975 
L 174.920769 139.981698 
L 176.652357 138.50585 
L 177.806749 137.479654 
L 180.115534 134.957359 
L 181.847122 132.988497 
L 183.001514 131.430081 
L 184.155906 129.787312 
L 187.041886 125.311215 
L 189.927866 120.462928 
L 191.659454 117.328232 
L 196.854218 107.517059 
L 198.00861 105.161531 
L 198.585807 103.858544 
L 199.163003 103.213591 
L 209.552531 84.302185 
L 211.861315 80.627086 
L 213.592903 77.856544 
L 214.747295 76.054043 
L 217.056079 72.804441 
L 217.633275 71.856127 
L 219.94206 68.803503 
L 219.94206 68.803503 
" clip-path="url(#p8d19006674)" style="fill: none; stroke: #2ca02c; stroke-width: 1.5; stroke-linecap: square"/>
   </g>
   <g id="line2d_12">
    <path d="M 46.783251 145.645797 
L 47.360447 145.459083 
L 50.823623 145.403653 
L 56.018387 145.397764 
L 56.595584 145.357116 
L 57.17278 145.441028 
L 58.327172 145.390961 
L 58.904368 145.553864 
L 60.05876 145.242953 
L 60.635956 145.404491 
L 61.213152 145.294617 
L 61.790348 145.467579 
L 62.94474 145.373703 
L 64.099132 145.785296 
L 64.676328 145.546336 
L 65.253524 145.43225 
L 66.407916 145.372005 
L 66.985112 145.353305 
L 67.562308 145.596529 
L 68.7167 145.389792 
L 69.293896 145.479096 
L 70.448288 145.475867 
L 73.334268 145.382325 
L 75.643052 145.379102 
L 77.374641 145.354425 
L 78.529033 145.402209 
L 82.569405 145.186504 
L 83.146601 145.514629 
L 84.300993 145.258394 
L 84.878189 145.408391 
L 86.032581 145.312246 
L 86.609777 145.408563 
L 87.186973 145.337519 
L 88.341365 145.37542 
L 91.804541 145.410417 
L 94.113325 145.393048 
L 95.844913 145.396794 
L 100.462482 145.385151 
L 101.039678 145.440688 
L 102.19407 145.395158 
L 103.348462 145.386787 
L 103.925658 145.223866 
L 104.502854 145.379113 
L 105.657246 145.351919 
L 106.234442 145.418193 
L 107.388834 145.29581 
L 107.96603 145.406801 
L 110.274814 145.370306 
L 111.429206 145.346073 
L 112.583598 145.421961 
L 113.160794 145.498428 
L 113.73799 145.366529 
L 114.315186 145.452264 
L 115.469578 145.312534 
L 116.62397 145.231997 
L 117.778363 145.404416 
L 120.664343 145.42082 
L 122.395931 145.473704 
L 124.127519 145.449213 
L 124.704715 145.505394 
L 125.859107 145.408268 
L 127.590695 145.453181 
L 129.322283 145.463549 
L 132.208263 145.430756 
L 134.517047 145.364023 
L 138.55742 145.362791 
L 139.134616 145.472985 
L 140.289008 145.346656 
L 141.4434 145.3551 
L 142.020596 145.333307 
L 142.597792 145.446725 
L 144.32938 145.333234 
L 151.255732 145.309506 
L 152.410124 145.093527 
L 152.98732 145.463749 
L 155.296104 145.319015 
L 158.182085 145.254945 
L 159.913673 145.183644 
L 160.490869 145.057052 
L 161.645261 145.112576 
L 164.531241 144.677009 
L 165.108437 144.767852 
L 165.685633 144.711189 
L 166.262829 144.459401 
L 167.417221 144.304267 
L 172.034789 142.901835 
L 173.189181 142.426715 
L 174.343573 141.878342 
L 174.920769 141.643467 
L 180.115534 138.227479 
L 184.733102 133.950228 
L 188.196278 130.288892 
L 189.35067 128.925713 
L 197.431414 118.699415 
L 198.00861 117.580141 
L 198.585807 116.778943 
L 199.163003 116.451282 
L 202.048983 112.7222 
L 207.820943 105.387883 
L 215.324491 96.869301 
L 215.901687 96.444963 
L 217.056079 95.217856 
L 218.210471 94.14515 
L 218.787668 93.430881 
L 219.364864 93.043755 
L 219.94206 92.451576 
L 219.94206 92.451576 
" clip-path="url(#p8d19006674)" style="fill: none; stroke: #d62728; stroke-width: 1.5; stroke-linecap: square"/>
   </g>
   <g id="patch_3">
    <path d="M 38.125311 153.781683 
L 38.125311 7.2 
" style="fill: none; stroke: #000000; stroke-width: 0.8; stroke-linejoin: miter; stroke-linecap: square"/>
   </g>
   <g id="patch_4">
    <path d="M 228.6 153.781683 
L 228.6 7.2 
" style="fill: none; stroke: #000000; stroke-width: 0.8; stroke-linejoin: miter; stroke-linecap: square"/>
   </g>
   <g id="patch_5">
    <path d="M 38.125311 153.781683 
L 228.6 153.781683 
" style="fill: none; stroke: #000000; stroke-width: 0.8; stroke-linejoin: miter; stroke-linecap: square"/>
   </g>
   <g id="patch_6">
    <path d="M 38.125311 7.2 
L 228.6 7.2 
" style="fill: none; stroke: #000000; stroke-width: 0.8; stroke-linejoin: miter; stroke-linecap: square"/>
   </g>
   <g id="legend_1">
    <g id="patch_7">
     <path d="M 45.125311 70.948713 
L 107.705155 70.948713 
Q 109.705155 70.948713 109.705155 68.948713 
L 109.705155 14.2 
Q 109.705155 12.2 107.705155 12.2 
L 45.125311 12.2 
Q 43.125311 12.2 43.125311 14.2 
L 43.125311 68.948713 
Q 43.125311 70.948713 45.125311 70.948713 
z
" style="fill: #ffffff; opacity: 0.8; stroke: #cccccc; stroke-linejoin: miter"/>
    </g>
    <g id="line2d_13">
     <path d="M 47.125311 19.7 
L 57.125311 19.7 
L 67.125311 19.7 
" style="fill: none; stroke: #1f77b4; stroke-width: 1.5; stroke-linecap: square"/>
    </g>
    <g id="text_11">
     <!-- OD 0.1 -->
     <g transform="translate(75.125311 23.2) scale(0.1 -0.1)">
      <defs>
       <path id="CMSS17-4f" d="M 4096 2178 
C 4096 3503 3219 4497 2214 4497 
C 1210 4497 333 3497 333 2178 
C 333 847 1222 -128 2214 -128 
C 3206 -128 4096 847 4096 2178 
z
M 2214 273 
C 1510 273 870 1057 870 2261 
C 870 3433 1549 4096 2214 4096 
C 2880 4096 3558 3433 3558 2261 
C 3558 1051 2912 273 2214 273 
z
" transform="scale(0.015625)"/>
       <path id="CMSS17-44" d="M 570 4416 
L 570 0 
L 2144 0 
C 3194 0 4000 980 4000 2170 
C 4000 3398 3194 4416 2144 4416 
L 570 4416 
z
M 1094 357 
L 1094 4059 
L 2003 4059 
C 2861 4059 3475 3277 3475 2170 
C 3475 1107 2867 357 2003 357 
L 1094 357 
z
" transform="scale(0.015625)"/>
       <path id="CMSS17-30" d="M 2758 2044 
C 2758 2405 2752 3077 2490 3596 
C 2227 4096 1805 4229 1504 4229 
C 1069 4229 698 3975 506 3570 
C 301 3146 243 2709 243 2044 
C 243 1589 262 1031 493 543 
C 755 5 1197 -128 1498 -128 
C 1894 -128 2278 81 2496 518 
C 2720 974 2758 1474 2758 2044 
z
M 1498 261 
C 1011 261 864 811 819 995 
C 742 1310 730 1614 730 2114 
C 730 2506 730 2948 851 3297 
C 998 3701 1254 3840 1498 3840 
C 1971 3840 2125 3372 2176 3208 
C 2272 2873 2272 2481 2272 2114 
C 2272 1526 2272 261 1498 261 
z
" transform="scale(0.015625)"/>
       <path id="CMSS17-2e" d="M 1088 510 
L 576 510 
L 576 0 
L 1088 0 
L 1088 510 
z
" transform="scale(0.015625)"/>
       <path id="CMSS17-31" d="M 1818 4288 
L 1696 4288 
C 1350 3940 947 3890 538 3890 
L 538 3520 
C 723 3520 1024 3520 1325 3667 
L 1325 369 
L 570 369 
L 570 0 
L 2573 0 
L 2573 369 
L 1818 369 
L 1818 4288 
z
" transform="scale(0.015625)"/>
      </defs>
      <use xlink:href="#CMSS17-4f" transform="scale(0.996264)"/>
      <use xlink:href="#CMSS17-44" transform="translate(69.024255 0) scale(0.996264)"/>
      <use xlink:href="#CMSS17-30" transform="translate(167.79621 0) scale(0.996264)"/>
      <use xlink:href="#CMSS17-2e" transform="translate(214.639833 0) scale(0.996264)"/>
      <use xlink:href="#CMSS17-31" transform="translate(240.664038 0) scale(0.996264)"/>
     </g>
    </g>
    <g id="line2d_14">
     <path d="M 47.125311 33.637178 
L 57.125311 33.637178 
L 67.125311 33.637178 
" style="fill: none; stroke: #ff7f0e; stroke-width: 1.5; stroke-linecap: square"/>
    </g>
    <g id="text_12">
     <!-- OD 0.3 -->
     <g transform="translate(75.125311 37.137178) scale(0.1 -0.1)">
      <defs>
       <path id="CMSS17-33" d="M 1005 2025 
L 1440 2025 
C 2042 2025 2214 1507 2214 1146 
C 2214 653 1933 267 1472 267 
C 1114 267 608 444 320 912 
C 275 691 275 678 250 526 
C 550 88 1037 -128 1485 -128 
C 2214 -128 2752 473 2752 1138 
C 2752 1638 2400 2057 1920 2215 
C 2304 2424 2586 2816 2586 3273 
C 2586 3805 2093 4229 1491 4229 
C 941 4229 512 3892 333 3530 
C 378 3468 493 3284 550 3189 
C 691 3562 1056 3840 1485 3840 
C 1843 3840 2080 3607 2080 3271 
C 2080 2923 1856 2543 1478 2455 
C 1453 2455 1056 2417 1005 2411 
L 1005 2025 
z
" transform="scale(0.015625)"/>
      </defs>
      <use xlink:href="#CMSS17-4f" transform="scale(0.996264)"/>
      <use xlink:href="#CMSS17-44" transform="translate(69.024255 0) scale(0.996264)"/>
      <use xlink:href="#CMSS17-30" transform="translate(167.79621 0) scale(0.996264)"/>
      <use xlink:href="#CMSS17-2e" transform="translate(214.639833 0) scale(0.996264)"/>
      <use xlink:href="#CMSS17-33" transform="translate(240.664038 0) scale(0.996264)"/>
     </g>
    </g>
    <g id="line2d_15">
     <path d="M 47.125311 47.574357 
L 57.125311 47.574357 
L 67.125311 47.574357 
" style="fill: none; stroke: #2ca02c; stroke-width: 1.5; stroke-linecap: square"/>
    </g>
    <g id="text_13">
     <!-- OD 0.5 -->
     <g transform="translate(75.125311 51.074357) scale(0.1 -0.1)">
      <defs>
       <path id="CMSS17-35" d="M 934 3752 
L 2502 3752 
L 2502 4160 
L 467 4160 
L 467 1781 
L 896 1781 
C 1011 2046 1248 2240 1555 2240 
C 1843 2240 2163 1989 2163 1266 
C 2163 493 1709 267 1376 267 
C 966 267 589 512 422 851 
L 218 499 
C 512 49 992 -128 1376 -128 
C 2118 -128 2701 497 2701 1253 
C 2701 2030 2182 2629 1562 2629 
C 1338 2629 1120 2553 934 2399 
L 934 3752 
z
" transform="scale(0.015625)"/>
      </defs>
      <use xlink:href="#CMSS17-4f" transform="scale(0.996264)"/>
      <use xlink:href="#CMSS17-44" transform="translate(69.024255 0) scale(0.996264)"/>
      <use xlink:href="#CMSS17-30" transform="translate(167.79621 0) scale(0.996264)"/>
      <use xlink:href="#CMSS17-2e" transform="translate(214.639833 0) scale(0.996264)"/>
      <use xlink:href="#CMSS17-35" transform="translate(240.664038 0) scale(0.996264)"/>
     </g>
    </g>
    <g id="line2d_16">
     <path d="M 47.125311 61.511535 
L 57.125311 61.511535 
L 67.125311 61.511535 
" style="fill: none; stroke: #d62728; stroke-width: 1.5; stroke-linecap: square"/>
    </g>
    <g id="text_14">
     <!-- OD 0.9 -->
     <g transform="translate(75.125311 65.011535) scale(0.1 -0.1)">
      <defs>
       <path id="CMSS17-39" d="M 435 174 
C 614 21 845 -128 1235 -128 
C 2010 -128 2752 721 2752 2095 
C 2752 3932 1952 4229 1523 4229 
C 1094 4229 819 4041 582 3741 
C 301 3397 250 3090 250 2733 
C 250 2307 326 2045 506 1745 
C 749 1357 973 1275 1222 1275 
C 1600 1275 1978 1459 2234 1776 
C 2189 902 1798 267 1235 267 
C 1005 267 819 339 634 516 
L 435 174 
z
M 2214 2746 
C 2221 2703 2221 2622 2221 2596 
C 2221 2074 1914 1664 1466 1664 
C 1171 1664 1018 1813 902 2006 
C 762 2249 755 2485 755 2733 
C 755 2976 755 3244 934 3511 
C 1069 3703 1235 3840 1523 3840 
C 2112 3840 2208 3000 2214 2746 
z
" transform="scale(0.015625)"/>
      </defs>
      <use xlink:href="#CMSS17-4f" transform="scale(0.996264)"/>
      <use xlink:href="#CMSS17-44" transform="translate(69.024255 0) scale(0.996264)"/>
      <use xlink:href="#CMSS17-30" transform="translate(167.79621 0) scale(0.996264)"/>
      <use xlink:href="#CMSS17-2e" transform="translate(214.639833 0) scale(0.996264)"/>
      <use xlink:href="#CMSS17-39" transform="translate(240.664038 0) scale(0.996264)"/>
     </g>
    </g>
   </g>
  </g>
 </g>
 <defs>
  <clipPath id="p8d19006674">
   <rect x="38.125311" y="7.2" width="190.474689" height="146.581683"/>
  </clipPath>
 </defs>
</svg>
