<?xml version="1.0" encoding="utf-8" standalone="no"?>
<!DOCTYPE svg PUBLIC "-//W3C//DTD SVG 1.1//EN"
  "http://www.w3.org/Graphics/SVG/1.1/DTD/svg11.dtd">
<svg xmlns:xlink="http://www.w3.org/1999/xlink" width="478.8pt" height="190.8pt" viewBox="0 0 478.8 190.8" xmlns="http://www.w3.org/2000/svg" version="1.1">
 <metadata>
  <rdf:RDF xmlns:dc="http://purl.org/dc/elements/1.1/" xmlns:cc="http://creativecommons.org/ns#" xmlns:rdf="http://www.w3.org/1999/02/22-rdf-syntax-ns#">
   <cc:Work>
    <dc:type rdf:resource="http://purl.org/dc/dcmitype/StillImage"/>
    <dc:date>2024-03-03T11:23:03.207311</dc:date>
    <dc:format>image/svg+xml</dc:format>
    <dc:creator>
     <cc:Agent>
      <dc:title>Matplotlib v3.7.1, https://matplotlib.org/</dc:title>
     </cc:Agent>
    </dc:creator>
   </cc:Work>
  </rdf:RDF>
 </metadata>
 <defs>
  <style type="text/css">*{stroke-linejoin: round; stroke-linecap: butt}</style>
 </defs>
 <g id="figure_1">
  <g id="patch_1">
   <path d="M 0 190.8 
L 478.8 190.8 
L 478.8 0 
L 0 0 
z
" style="fill: #ffffff"/>
  </g>
  <g id="axes_1">
   <g id="patch_2">
    <path d="M 38.125311 153.781683 
L 471.6 153.781683 
L 471.6 7.2 
L 38.125311 7.2 
z
" style="fill: #ffffff"/>
   </g>
   <g id="matplotlib.axis_1">
    <g id="xtick_1">
     <g id="line2d_1">
      <defs>
       <path id="m63e7dfbe82" d="M 0 0 
L 0 3.5 
" style="stroke: #000000; stroke-width: 0.8"/>
      </defs>
      <g>
       <use xlink:href="#m63e7dfbe82" x="57.828706" y="153.781683" style="stroke: #000000; stroke-width: 0.8"/>
      </g>
     </g>
     <g id="text_1">
      <!-- $\mathdefault{3000}$ -->
      <g transform="translate(47.866035 167.700182) scale(0.1 -0.1)">
       <defs>
        <path id="CMR17-33" d="M 1414 2157 
C 1984 2157 2234 1662 2234 1090 
C 2234 320 1824 25 1453 25 
C 1114 25 563 194 390 693 
C 422 680 454 680 486 680 
C 640 680 755 782 755 948 
C 755 1133 614 1216 486 1216 
C 378 1216 211 1165 211 926 
C 211 335 787 -128 1466 -128 
C 2176 -128 2720 430 2720 1085 
C 2720 1707 2208 2157 1600 2227 
C 2086 2328 2554 2756 2554 3329 
C 2554 3820 2048 4179 1472 4179 
C 890 4179 378 3829 378 3329 
C 378 3110 544 3072 627 3072 
C 762 3072 877 3155 877 3321 
C 877 3486 762 3569 627 3569 
C 602 3569 570 3569 544 3557 
C 730 3959 1235 4032 1459 4032 
C 1683 4032 2106 3925 2106 3320 
C 2106 3143 2080 2828 1862 2550 
C 1670 2304 1453 2304 1242 2284 
C 1210 2284 1062 2269 1037 2269 
C 992 2263 966 2257 966 2208 
C 966 2163 973 2157 1101 2157 
L 1414 2157 
z
" transform="scale(0.015625)"/>
        <path id="CMR17-30" d="M 2688 2025 
C 2688 2416 2682 3080 2413 3591 
C 2176 4039 1798 4198 1466 4198 
C 1158 4198 768 4058 525 3597 
C 269 3118 243 2524 243 2025 
C 243 1661 250 1106 448 619 
C 723 -39 1216 -128 1466 -128 
C 1760 -128 2208 -7 2470 600 
C 2662 1042 2688 1559 2688 2025 
z
M 1466 -26 
C 1056 -26 813 325 723 812 
C 653 1188 653 1738 653 2096 
C 653 2588 653 2997 736 3387 
C 858 3929 1216 4096 1466 4096 
C 1728 4096 2067 3923 2189 3400 
C 2272 3036 2278 2607 2278 2096 
C 2278 1680 2278 1169 2202 792 
C 2067 95 1690 -26 1466 -26 
z
" transform="scale(0.015625)"/>
       </defs>
       <use xlink:href="#CMR17-33" transform="scale(0.996264)"/>
       <use xlink:href="#CMR17-30" transform="translate(45.690477 0) scale(0.996264)"/>
       <use xlink:href="#CMR17-30" transform="translate(91.380954 0) scale(0.996264)"/>
       <use xlink:href="#CMR17-30" transform="translate(137.071431 0) scale(0.996264)"/>
      </g>
     </g>
    </g>
    <g id="xtick_2">
     <g id="line2d_2">
      <g>
       <use xlink:href="#m63e7dfbe82" x="109.679745" y="153.781683" style="stroke: #000000; stroke-width: 0.8"/>
      </g>
     </g>
     <g id="text_2">
      <!-- $\mathdefault{3250}$ -->
      <g transform="translate(99.717074 167.700182) scale(0.1 -0.1)">
       <defs>
        <path id="CMR17-32" d="M 2669 989 
L 2554 989 
C 2490 536 2438 459 2413 420 
C 2381 369 1920 369 1830 369 
L 602 369 
C 832 619 1280 1072 1824 1597 
C 2214 1967 2669 2402 2669 3035 
C 2669 3790 2067 4224 1395 4224 
C 691 4224 262 3604 262 3030 
C 262 2780 448 2748 525 2748 
C 589 2748 781 2787 781 3010 
C 781 3207 614 3264 525 3264 
C 486 3264 448 3258 422 3245 
C 544 3790 915 4058 1306 4058 
C 1862 4058 2227 3617 2227 3035 
C 2227 2479 1901 2000 1536 1584 
L 262 146 
L 262 0 
L 2515 0 
L 2669 989 
z
" transform="scale(0.015625)"/>
        <path id="CMR17-35" d="M 730 3692 
C 794 3666 1056 3584 1325 3584 
C 1920 3584 2246 3911 2432 4100 
C 2432 4157 2432 4192 2394 4192 
C 2387 4192 2374 4192 2323 4163 
C 2099 4058 1837 3973 1517 3973 
C 1325 3973 1037 3999 723 4139 
C 653 4171 640 4171 634 4171 
C 602 4171 595 4164 595 4037 
L 595 2203 
C 595 2089 595 2057 659 2057 
C 691 2057 704 2070 736 2114 
C 941 2401 1222 2522 1542 2522 
C 1766 2522 2246 2382 2246 1289 
C 2246 1085 2246 715 2054 421 
C 1894 159 1645 25 1370 25 
C 947 25 518 320 403 814 
C 429 807 480 795 506 795 
C 589 795 749 840 749 1038 
C 749 1210 627 1280 506 1280 
C 358 1280 262 1190 262 1011 
C 262 454 704 -128 1382 -128 
C 2042 -128 2669 440 2669 1264 
C 2669 2030 2170 2624 1549 2624 
C 1222 2624 947 2503 730 2274 
L 730 3692 
z
" transform="scale(0.015625)"/>
       </defs>
       <use xlink:href="#CMR17-33" transform="scale(0.996264)"/>
       <use xlink:href="#CMR17-32" transform="translate(45.690477 0) scale(0.996264)"/>
       <use xlink:href="#CMR17-35" transform="translate(91.380954 0) scale(0.996264)"/>
       <use xlink:href="#CMR17-30" transform="translate(137.071431 0) scale(0.996264)"/>
      </g>
     </g>
    </g>
    <g id="xtick_3">
     <g id="line2d_3">
      <g>
       <use xlink:href="#m63e7dfbe82" x="161.530784" y="153.781683" style="stroke: #000000; stroke-width: 0.8"/>
      </g>
     </g>
     <g id="text_3">
      <!-- $\mathdefault{3500}$ -->
      <g transform="translate(151.568114 167.700182) scale(0.1 -0.1)">
       <use xlink:href="#CMR17-33" transform="scale(0.996264)"/>
       <use xlink:href="#CMR17-35" transform="translate(45.690477 0) scale(0.996264)"/>
       <use xlink:href="#CMR17-30" transform="translate(91.380954 0) scale(0.996264)"/>
       <use xlink:href="#CMR17-30" transform="translate(137.071431 0) scale(0.996264)"/>
      </g>
     </g>
    </g>
    <g id="xtick_4">
     <g id="line2d_4">
      <g>
       <use xlink:href="#m63e7dfbe82" x="213.381824" y="153.781683" style="stroke: #000000; stroke-width: 0.8"/>
      </g>
     </g>
     <g id="text_4">
      <!-- $\mathdefault{3750}$ -->
      <g transform="translate(203.419153 167.700182) scale(0.1 -0.1)">
       <defs>
        <path id="CMR17-37" d="M 2886 3941 
L 2886 4081 
L 1382 4081 
C 634 4081 621 4165 595 4288 
L 480 4288 
L 294 3094 
L 410 3094 
C 429 3215 474 3540 550 3661 
C 589 3712 1062 3712 1171 3712 
L 2579 3712 
L 1869 2661 
C 1395 1954 1069 999 1069 165 
C 1069 89 1069 -128 1299 -128 
C 1530 -128 1530 89 1530 171 
L 1530 465 
C 1530 1508 1709 2196 2003 2636 
L 2886 3941 
z
" transform="scale(0.015625)"/>
       </defs>
       <use xlink:href="#CMR17-33" transform="scale(0.996264)"/>
       <use xlink:href="#CMR17-37" transform="translate(45.690477 0) scale(0.996264)"/>
       <use xlink:href="#CMR17-35" transform="translate(91.380954 0) scale(0.996264)"/>
       <use xlink:href="#CMR17-30" transform="translate(137.071431 0) scale(0.996264)"/>
      </g>
     </g>
    </g>
    <g id="xtick_5">
     <g id="line2d_5">
      <g>
       <use xlink:href="#m63e7dfbe82" x="265.232863" y="153.781683" style="stroke: #000000; stroke-width: 0.8"/>
      </g>
     </g>
     <g id="text_5">
      <!-- $\mathdefault{4000}$ -->
      <g transform="translate(255.270193 167.700182) scale(0.1 -0.1)">
       <defs>
        <path id="CMR17-34" d="M 2150 4122 
C 2150 4256 2144 4256 2029 4256 
L 128 1254 
L 128 1088 
L 1779 1088 
L 1779 457 
C 1779 224 1766 160 1318 160 
L 1197 160 
L 1197 0 
C 1402 0 1747 0 1965 0 
C 2182 0 2528 0 2733 0 
L 2733 160 
L 2611 160 
C 2163 160 2150 224 2150 457 
L 2150 1088 
L 2803 1088 
L 2803 1254 
L 2150 1254 
L 2150 4122 
z
M 1798 3703 
L 1798 1254 
L 256 1254 
L 1798 3703 
z
" transform="scale(0.015625)"/>
       </defs>
       <use xlink:href="#CMR17-34" transform="scale(0.996264)"/>
       <use xlink:href="#CMR17-30" transform="translate(45.690477 0) scale(0.996264)"/>
       <use xlink:href="#CMR17-30" transform="translate(91.380954 0) scale(0.996264)"/>
       <use xlink:href="#CMR17-30" transform="translate(137.071431 0) scale(0.996264)"/>
      </g>
     </g>
    </g>
    <g id="xtick_6">
     <g id="line2d_6">
      <g>
       <use xlink:href="#m63e7dfbe82" x="317.083903" y="153.781683" style="stroke: #000000; stroke-width: 0.8"/>
      </g>
     </g>
     <g id="text_6">
      <!-- $\mathdefault{4250}$ -->
      <g transform="translate(307.121232 167.700182) scale(0.1 -0.1)">
       <use xlink:href="#CMR17-34" transform="scale(0.996264)"/>
       <use xlink:href="#CMR17-32" transform="translate(45.690477 0) scale(0.996264)"/>
       <use xlink:href="#CMR17-35" transform="translate(91.380954 0) scale(0.996264)"/>
       <use xlink:href="#CMR17-30" transform="translate(137.071431 0) scale(0.996264)"/>
      </g>
     </g>
    </g>
    <g id="xtick_7">
     <g id="line2d_7">
      <g>
       <use xlink:href="#m63e7dfbe82" x="368.934942" y="153.781683" style="stroke: #000000; stroke-width: 0.8"/>
      </g>
     </g>
     <g id="text_7">
      <!-- $\mathdefault{4500}$ -->
      <g transform="translate(358.972271 167.700182) scale(0.1 -0.1)">
       <use xlink:href="#CMR17-34" transform="scale(0.996264)"/>
       <use xlink:href="#CMR17-35" transform="translate(45.690477 0) scale(0.996264)"/>
       <use xlink:href="#CMR17-30" transform="translate(91.380954 0) scale(0.996264)"/>
       <use xlink:href="#CMR17-30" transform="translate(137.071431 0) scale(0.996264)"/>
      </g>
     </g>
    </g>
    <g id="xtick_8">
     <g id="line2d_8">
      <g>
       <use xlink:href="#m63e7dfbe82" x="420.785981" y="153.781683" style="stroke: #000000; stroke-width: 0.8"/>
      </g>
     </g>
     <g id="text_8">
      <!-- $\mathdefault{4750}$ -->
      <g transform="translate(410.823311 167.700182) scale(0.1 -0.1)">
       <use xlink:href="#CMR17-34" transform="scale(0.996264)"/>
       <use xlink:href="#CMR17-37" transform="translate(45.690477 0) scale(0.996264)"/>
       <use xlink:href="#CMR17-35" transform="translate(91.380954 0) scale(0.996264)"/>
       <use xlink:href="#CMR17-30" transform="translate(137.071431 0) scale(0.996264)"/>
      </g>
     </g>
    </g>
    <g id="text_9">
     <!-- Accelerating Voltage, $V_A$ (V) -->
     <g transform="translate(193.875985 181.10934) scale(0.1 -0.1)">
      <defs>
       <path id="CMSS17-41" d="M 2272 4416 
L 1722 4416 
L 166 0 
L 653 0 
L 1101 1280 
L 2816 1280 
L 3270 0 
L 3827 0 
L 2272 4416 
z
M 2694 1637 
L 1222 1637 
C 1530 2528 1914 3638 1958 3925 
L 1965 3925 
C 2010 3663 2138 3281 2246 2956 
L 2694 1637 
z
" transform="scale(0.015625)"/>
       <path id="CMSS17-63" d="M 2464 2541 
C 2464 2585 2170 2714 2093 2739 
C 1882 2816 1613 2816 1542 2816 
C 710 2816 211 2093 211 1363 
C 211 595 768 -64 1517 -64 
C 1946 -64 2253 76 2502 242 
L 2464 664 
C 2189 453 1869 337 1523 337 
C 1024 337 698 774 698 1369 
C 698 1831 909 2414 1549 2414 
C 1901 2414 2099 2343 2394 2145 
L 2464 2541 
z
" transform="scale(0.015625)"/>
       <path id="CMSS17-65" d="M 2502 1377 
C 2502 1590 2490 2003 2285 2345 
C 2061 2713 1696 2816 1421 2816 
C 755 2816 192 2188 192 1375 
C 192 582 774 -64 1510 -64 
C 1798 -64 2150 19 2470 248 
C 2470 274 2458 414 2451 420 
C 2451 433 2432 630 2432 656 
C 2125 407 1773 325 1517 325 
C 1107 325 666 667 646 1377 
L 2502 1377 
z
M 698 1728 
C 781 2084 1062 2421 1421 2421 
C 1517 2421 1965 2421 2080 1728 
L 698 1728 
z
" transform="scale(0.015625)"/>
       <path id="CMSS17-6c" d="M 947 4416 
L 474 4416 
L 474 0 
L 947 0 
L 947 4416 
z
" transform="scale(0.015625)"/>
       <path id="CMSS17-72" d="M 954 1363 
C 954 1965 1395 2368 1958 2368 
L 1958 2789 
C 1549 2789 1165 2585 934 2253 
L 934 2758 
L 480 2758 
L 480 0 
L 954 0 
L 954 1363 
z
" transform="scale(0.015625)"/>
       <path id="CMSS17-61" d="M 2406 1791 
C 2406 2392 1978 2808 1402 2808 
C 1120 2808 813 2757 461 2553 
L 499 2135 
C 659 2248 934 2432 1395 2432 
C 1722 2432 1920 2180 1920 1782 
L 1920 1536 
C 896 1536 256 1238 256 726 
C 256 461 416 -64 947 -64 
C 1043 -64 1562 -64 1933 217 
L 1933 -19 
L 2406 -19 
L 2406 1791 
z
M 1920 816 
C 1920 701 1920 548 1728 434 
C 1562 325 1350 325 1261 325 
C 941 325 723 511 723 744 
C 723 1211 1722 1211 1920 1211 
L 1920 816 
z
" transform="scale(0.015625)"/>
       <path id="CMSS17-74" d="M 1069 2368 
L 1901 2368 
L 1901 2737 
L 1069 2737 
L 1069 3520 
L 614 3520 
L 614 2737 
L 109 2737 
L 109 2368 
L 602 2368 
L 602 749 
C 602 384 685 -64 1107 -64 
C 1427 -64 1722 25 2003 172 
L 1901 548 
C 1747 414 1562 337 1363 337 
C 1082 337 1069 696 1069 856 
L 1069 2368 
z
" transform="scale(0.015625)"/>
       <path id="CMSS17-69" d="M 979 4183 
L 442 4183 
L 442 3648 
L 979 3648 
L 979 4183 
z
M 947 2739 
L 474 2739 
L 474 0 
L 947 0 
L 947 2739 
z
" transform="scale(0.015625)"/>
       <path id="CMSS17-6e" d="M 2618 1877 
C 2618 2283 2522 2816 1798 2816 
C 1389 2816 1120 2606 941 2389 
L 941 2758 
L 474 2758 
L 474 0 
L 960 0 
L 960 1559 
C 960 1964 1114 2428 1549 2428 
C 2112 2428 2131 2048 2131 1829 
L 2131 0 
L 2618 0 
L 2618 1877 
z
" transform="scale(0.015625)"/>
       <path id="CMSS17-67" d="M 2848 2808 
C 2483 2808 2170 2738 1914 2617 
C 1702 2777 1485 2808 1338 2808 
C 781 2808 358 2349 358 1814 
C 358 1468 550 1207 563 1195 
C 448 1035 384 863 384 672 
C 384 448 474 289 544 200 
C 211 -3 166 -314 166 -435 
C 166 -898 749 -1280 1498 -1280 
C 2253 -1280 2835 -898 2835 -428 
C 2835 448 1856 448 1587 448 
L 1069 448 
C 973 448 717 448 717 791 
C 717 921 774 1004 781 1010 
C 877 940 1075 832 1338 832 
C 1869 832 2310 1278 2310 1827 
C 2310 2132 2170 2355 2112 2432 
L 2131 2432 
C 2150 2432 2419 2432 2515 2432 
C 2720 2432 2739 2429 2918 2419 
L 2848 2808 
z
M 1338 1182 
C 1120 1182 813 1315 813 1823 
C 813 2375 1165 2464 1331 2464 
C 1549 2464 1856 2331 1856 1823 
C 1856 1271 1504 1182 1338 1182 
z
M 1581 -10 
C 1734 -10 2381 -10 2381 -442 
C 2381 -714 1984 -929 1504 -929 
C 1018 -929 621 -720 621 -435 
C 621 -403 621 -10 1062 -10 
L 1581 -10 
z
" transform="scale(0.015625)"/>
       <path id="CMSS17-56" d="M 3910 4416 
L 3411 4416 
L 2304 1362 
C 2272 1273 2074 688 2035 484 
L 2029 484 
C 1978 726 1773 1292 1664 1604 
L 922 3672 
L 646 4416 
L 83 4416 
L 1715 0 
L 2278 0 
L 3910 4416 
z
" transform="scale(0.015625)"/>
       <path id="CMSS17-6f" d="M 2829 1356 
C 2829 2176 2221 2816 1504 2816 
C 768 2816 173 2157 173 1356 
C 173 544 787 -64 1498 -64 
C 2227 -64 2829 563 2829 1356 
z
M 1504 337 
C 1050 337 659 709 659 1408 
C 659 2151 1114 2427 1498 2427 
C 1914 2427 2342 2126 2342 1408 
C 2342 683 1926 337 1504 337 
z
" transform="scale(0.015625)"/>
       <path id="CMSS17-2c" d="M 1088 6 
L 1088 510 
L 576 510 
L 576 0 
L 736 0 
L 570 -800 
L 826 -800 
L 1088 6 
z
" transform="scale(0.015625)"/>
       <path id="CMMI12-56" d="M 3962 3640 
C 4179 3984 4378 4136 4704 4162 
C 4768 4168 4819 4168 4819 4282 
C 4819 4308 4806 4346 4749 4346 
C 4634 4346 4358 4346 4243 4346 
C 4058 4346 3866 4346 3686 4346 
C 3635 4346 3571 4346 3571 4226 
C 3571 4168 3629 4162 3654 4162 
C 3891 4143 3917 4029 3917 3952 
C 3917 3857 3827 3710 3821 3704 
L 1811 540 
L 1363 3969 
C 1363 4160 1696 4160 1766 4160 
C 1862 4160 1920 4160 1920 4282 
C 1920 4346 1850 4346 1830 4346 
C 1722 4346 1594 4346 1485 4346 
L 1126 4346 
C 659 4346 467 4346 461 4346 
C 422 4346 346 4346 346 4230 
C 346 4160 390 4160 493 4160 
C 819 4160 838 4102 858 3944 
L 1370 24 
C 1389 -109 1389 -128 1478 -128 
C 1555 -128 1587 -109 1651 -8 
L 3962 3640 
z
" transform="scale(0.015625)"/>
       <path id="CMMI12-41" d="M 1088 691 
C 864 314 646 186 339 186 
C 269 180 218 180 218 58 
C 218 24 250 0 294 0 
C 410 0 698 0 813 0 
C 998 0 1203 0 1382 0 
C 1421 0 1498 0 1498 122 
C 1498 180 1446 186 1408 186 
C 1261 186 1139 236 1139 388 
C 1139 476 1178 546 1261 685 
L 1747 1479 
L 3379 1479 
C 3386 1423 3386 1373 3392 1316 
C 3411 1152 3488 495 3488 376 
C 3488 186 3162 186 3059 186 
C 2989 186 2918 186 2918 70 
C 2918 0 2976 0 3014 0 
C 3123 0 3251 0 3360 0 
L 3725 0 
C 4115 0 4397 0 4403 0 
C 4448 0 4518 0 4518 122 
C 4518 186 4461 186 4365 186 
C 4013 186 4006 244 3987 434 
L 3597 4404 
C 3584 4531 3558 4544 3488 4544 
C 3424 4544 3386 4531 3328 4435 
L 1088 691 
z
M 1856 1664 
L 3142 3819 
L 3360 1664 
L 1856 1664 
z
" transform="scale(0.015625)"/>
       <path id="CMSS17-28" d="M 1613 4768 
C 1267 4417 474 3601 474 1588 
C 474 -433 1267 -1243 1613 -1600 
L 2003 -1600 
C 1216 -784 960 357 960 1581 
C 960 2798 1203 3946 2003 4768 
L 1613 4768 
z
" transform="scale(0.015625)"/>
       <path id="CMSS17-29" d="M 723 -1600 
C 1069 -1249 1862 -433 1862 1581 
C 1862 3601 1069 4411 723 4768 
L 333 4768 
C 1120 3952 1376 2811 1376 1588 
C 1376 370 1133 -778 333 -1600 
L 723 -1600 
z
" transform="scale(0.015625)"/>
      </defs>
      <use xlink:href="#CMSS17-41" transform="scale(0.996264)"/>
      <use xlink:href="#CMSS17-63" transform="translate(62.217855 0) scale(0.996264)"/>
      <use xlink:href="#CMSS17-63" transform="translate(103.856677 0) scale(0.996264)"/>
      <use xlink:href="#CMSS17-65" transform="translate(145.495499 0) scale(0.996264)"/>
      <use xlink:href="#CMSS17-6c" transform="translate(187.134321 0) scale(0.996264)"/>
      <use xlink:href="#CMSS17-65" transform="translate(209.315044 0) scale(0.996264)"/>
      <use xlink:href="#CMSS17-72" transform="translate(250.953866 0) scale(0.996264)"/>
      <use xlink:href="#CMSS17-61" transform="translate(282.863639 0) scale(0.996264)"/>
      <use xlink:href="#CMSS17-74" transform="translate(327.785559 0) scale(0.996264)"/>
      <use xlink:href="#CMSS17-69" transform="translate(361.617126 0) scale(0.996264)"/>
      <use xlink:href="#CMSS17-6e" transform="translate(383.797849 0) scale(0.996264)"/>
      <use xlink:href="#CMSS17-67" transform="translate(432.002792 0) scale(0.996264)"/>
      <use xlink:href="#CMSS17-56" transform="translate(510.075529 0) scale(0.996264)"/>
      <use xlink:href="#CMSS17-6f" transform="translate(569.69093 0) scale(0.996264)"/>
      <use xlink:href="#CMSS17-6c" transform="translate(616.534553 0) scale(0.996264)"/>
      <use xlink:href="#CMSS17-74" transform="translate(638.715276 0) scale(0.996264)"/>
      <use xlink:href="#CMSS17-61" transform="translate(672.546843 0) scale(0.996264)"/>
      <use xlink:href="#CMSS17-67" transform="translate(717.468763 0) scale(0.996264)"/>
      <use xlink:href="#CMSS17-65" transform="translate(764.312387 0) scale(0.996264)"/>
      <use xlink:href="#CMSS17-2c" transform="translate(805.951209 0) scale(0.996264)"/>
      <use xlink:href="#CMMI12-56" transform="translate(863.204527 0) scale(0.996264)"/>
      <use xlink:href="#CMMI12-41" transform="translate(920.074106 -14.943915) scale(0.697382)"/>
      <use xlink:href="#CMSS17-28" transform="translate(1002.990647 0) scale(0.996264)"/>
      <use xlink:href="#CMSS17-56" transform="translate(1039.424561 0) scale(0.996264)"/>
      <use xlink:href="#CMSS17-29" transform="translate(1101.642416 0) scale(0.996264)"/>
     </g>
    </g>
   </g>
   <g id="matplotlib.axis_2">
    <g id="ytick_1">
     <g id="line2d_9">
      <defs>
       <path id="m45fa867ddd" d="M 0 0 
L -3.5 0 
" style="stroke: #000000; stroke-width: 0.8"/>
      </defs>
      <g>
       <use xlink:href="#m45fa867ddd" x="38.125311" y="133.727214" style="stroke: #000000; stroke-width: 0.8"/>
      </g>
     </g>
     <g id="text_10">
      <!-- $\mathdefault{5}$ -->
      <g transform="translate(26.143975 137.186463) scale(0.1 -0.1)">
       <use xlink:href="#CMR17-35" transform="scale(0.996264)"/>
      </g>
     </g>
    </g>
    <g id="ytick_2">
     <g id="line2d_10">
      <g>
       <use xlink:href="#m45fa867ddd" x="38.125311" y="103.701059" style="stroke: #000000; stroke-width: 0.8"/>
      </g>
     </g>
     <g id="text_11">
      <!-- $\mathdefault{10}$ -->
      <g transform="translate(21.16264 107.160309) scale(0.1 -0.1)">
       <defs>
        <path id="CMR17-31" d="M 1702 4058 
C 1702 4192 1696 4192 1606 4192 
C 1357 3916 979 3827 621 3827 
C 602 3827 570 3827 563 3808 
C 557 3795 557 3782 557 3648 
C 755 3648 1088 3686 1344 3839 
L 1344 461 
C 1344 236 1331 160 781 160 
L 589 160 
L 589 0 
C 896 0 1216 0 1523 0 
C 1830 0 2150 0 2458 0 
L 2458 160 
L 2266 160 
C 1715 160 1702 230 1702 458 
L 1702 4058 
z
" transform="scale(0.015625)"/>
       </defs>
       <use xlink:href="#CMR17-31" transform="scale(0.996264)"/>
       <use xlink:href="#CMR17-30" transform="translate(45.690477 0) scale(0.996264)"/>
      </g>
     </g>
    </g>
    <g id="ytick_3">
     <g id="line2d_11">
      <g>
       <use xlink:href="#m45fa867ddd" x="38.125311" y="73.674904" style="stroke: #000000; stroke-width: 0.8"/>
      </g>
     </g>
     <g id="text_12">
      <!-- $\mathdefault{15}$ -->
      <g transform="translate(21.16264 77.134154) scale(0.1 -0.1)">
       <use xlink:href="#CMR17-31" transform="scale(0.996264)"/>
       <use xlink:href="#CMR17-35" transform="translate(45.690477 0) scale(0.996264)"/>
      </g>
     </g>
    </g>
    <g id="ytick_4">
     <g id="line2d_12">
      <g>
       <use xlink:href="#m45fa867ddd" x="38.125311" y="43.648749" style="stroke: #000000; stroke-width: 0.8"/>
      </g>
     </g>
     <g id="text_13">
      <!-- $\mathdefault{20}$ -->
      <g transform="translate(21.16264 47.107999) scale(0.1 -0.1)">
       <use xlink:href="#CMR17-32" transform="scale(0.996264)"/>
       <use xlink:href="#CMR17-30" transform="translate(45.690477 0) scale(0.996264)"/>
      </g>
     </g>
    </g>
    <g id="ytick_5">
     <g id="line2d_13">
      <g>
       <use xlink:href="#m45fa867ddd" x="38.125311" y="13.622595" style="stroke: #000000; stroke-width: 0.8"/>
      </g>
     </g>
     <g id="text_14">
      <!-- $\mathdefault{25}$ -->
      <g transform="translate(21.16264 17.081844) scale(0.1 -0.1)">
       <use xlink:href="#CMR17-32" transform="scale(0.996264)"/>
       <use xlink:href="#CMR17-35" transform="translate(45.690477 0) scale(0.996264)"/>
      </g>
     </g>
    </g>
    <g id="text_15">
     <!-- Radius (mm) -->
     <g transform="translate(14.67198 107.798206) rotate(-90) scale(0.1 -0.1)">
      <defs>
       <path id="CMSS17-52" d="M 2522 2109 
L 2534 2115 
C 3533 2459 3539 3147 3539 3268 
C 3539 3873 2925 4453 2003 4453 
L 570 4453 
L 570 32 
L 1094 32 
L 1094 2048 
L 2035 2048 
L 3168 32 
L 3706 32 
L 2522 2109 
z
M 1094 2437 
L 1094 4096 
L 1933 4096 
C 2746 4096 3034 3637 3034 3267 
C 3034 2922 2778 2437 1933 2437 
L 1094 2437 
z
" transform="scale(0.015625)"/>
       <path id="CMSS17-64" d="M 2611 4416 
L 2138 4416 
L 2138 2438 
C 1939 2603 1613 2756 1254 2756 
C 672 2756 211 2131 211 1347 
C 211 562 666 -64 1235 -64 
C 1677 -64 1971 172 2125 306 
L 2125 -13 
L 2611 -13 
L 2611 4416 
z
M 2125 836 
C 2125 747 2125 653 1926 482 
C 1798 375 1645 325 1498 325 
C 1152 325 698 576 698 1340 
C 698 2134 1210 2368 1562 2368 
C 1798 2368 1990 2254 2125 2065 
L 2125 836 
z
" transform="scale(0.015625)"/>
       <path id="CMSS17-75" d="M 2618 2739 
L 2131 2739 
L 2131 972 
C 2131 498 1786 306 1421 306 
C 998 306 960 447 960 709 
L 960 2739 
L 474 2739 
L 474 678 
C 474 179 646 -64 1088 -64 
C 1306 -64 1798 -13 2144 306 
L 2144 0 
L 2618 0 
L 2618 2739 
z
" transform="scale(0.015625)"/>
       <path id="CMSS17-73" d="M 2061 2627 
C 1683 2807 1389 2807 1197 2807 
C 742 2807 198 2648 198 2003 
C 198 1359 902 1218 1094 1179 
C 1389 1122 1715 1058 1715 740 
C 1715 337 1254 337 1171 337 
C 915 337 563 407 243 638 
L 166 210 
C 531 0 883 -64 1178 -64 
C 1965 -64 2163 416 2163 781 
C 2163 1094 1984 1305 1862 1401 
C 1651 1568 1574 1587 1050 1696 
C 960 1709 646 1779 646 2066 
C 646 2432 1050 2432 1139 2432 
C 1555 2432 1811 2303 1984 2208 
L 2061 2627 
z
" transform="scale(0.015625)"/>
       <path id="CMSS17-6d" d="M 4288 1877 
C 4288 2308 4179 2816 3462 2816 
C 2982 2816 2694 2516 2566 2331 
C 2451 2670 2182 2816 1798 2816 
C 1363 2816 1088 2568 941 2389 
L 941 2758 
L 474 2758 
L 474 0 
L 960 0 
L 960 1559 
C 960 1939 1101 2428 1555 2428 
C 2138 2428 2138 2016 2138 1829 
L 2138 0 
L 2624 0 
L 2624 1559 
C 2624 1939 2765 2428 3219 2428 
C 3802 2428 3802 2016 3802 1829 
L 3802 0 
L 4288 0 
L 4288 1877 
z
" transform="scale(0.015625)"/>
      </defs>
      <use xlink:href="#CMSS17-52" transform="scale(0.996264)"/>
      <use xlink:href="#CMSS17-61" transform="translate(60.416155 0) scale(0.996264)"/>
      <use xlink:href="#CMSS17-64" transform="translate(105.338075 0) scale(0.996264)"/>
      <use xlink:href="#CMSS17-69" transform="translate(153.543019 0) scale(0.996264)"/>
      <use xlink:href="#CMSS17-75" transform="translate(175.723742 0) scale(0.996264)"/>
      <use xlink:href="#CMSS17-73" transform="translate(223.928685 0) scale(0.996264)"/>
      <use xlink:href="#CMSS17-28" transform="translate(291.07134 0) scale(0.996264)"/>
      <use xlink:href="#CMSS17-6d" transform="translate(327.505254 0) scale(0.996264)"/>
      <use xlink:href="#CMSS17-6d" transform="translate(401.734508 0) scale(0.996264)"/>
      <use xlink:href="#CMSS17-29" transform="translate(475.963763 0) scale(0.996264)"/>
     </g>
    </g>
   </g>
   <g id="line2d_14">
    <path d="M 57.828706 143.395636 
L 78.569121 144.836892 
L 99.309537 143.515741 
L 120.049953 144.476578 
L 140.790369 145.437415 
L 161.530784 144.656735 
L 182.2712 143.816002 
L 203.011616 145.617572 
L 223.752032 144.176316 
L 244.492447 145.617572 
L 265.232863 145.617572 
L 285.973279 144.716787 
L 306.713695 145.497467 
L 327.45411 145.31731 
L 348.194526 145.257258 
L 368.934942 145.017049 
L 389.675358 145.437415 
L 410.415774 144.176316 
L 431.156189 147.118879 
" clip-path="url(#pecd6a5f037)" style="fill: none; stroke: #1f77b4; stroke-width: 1.5; stroke-linecap: square"/>
    <defs>
     <path id="mc63ea10e80" d="M 0 3 
C 0.795609 3 1.55874 2.683901 2.12132 2.12132 
C 2.683901 1.55874 3 0.795609 3 0 
C 3 -0.795609 2.683901 -1.55874 2.12132 -2.12132 
C 1.55874 -2.683901 0.795609 -3 0 -3 
C -0.795609 -3 -1.55874 -2.683901 -2.12132 -2.12132 
C -2.683901 -1.55874 -3 -0.795609 -3 0 
C -3 0.795609 -2.683901 1.55874 -2.12132 2.12132 
C -1.55874 2.683901 -0.795609 3 0 3 
z
" style="stroke: #1f77b4"/>
    </defs>
    <g clip-path="url(#pecd6a5f037)">
     <use xlink:href="#mc63ea10e80" x="57.828706" y="143.395636" style="fill: #1f77b4; stroke: #1f77b4"/>
     <use xlink:href="#mc63ea10e80" x="78.569121" y="144.836892" style="fill: #1f77b4; stroke: #1f77b4"/>
     <use xlink:href="#mc63ea10e80" x="99.309537" y="143.515741" style="fill: #1f77b4; stroke: #1f77b4"/>
     <use xlink:href="#mc63ea10e80" x="120.049953" y="144.476578" style="fill: #1f77b4; stroke: #1f77b4"/>
     <use xlink:href="#mc63ea10e80" x="140.790369" y="145.437415" style="fill: #1f77b4; stroke: #1f77b4"/>
     <use xlink:href="#mc63ea10e80" x="161.530784" y="144.656735" style="fill: #1f77b4; stroke: #1f77b4"/>
     <use xlink:href="#mc63ea10e80" x="182.2712" y="143.816002" style="fill: #1f77b4; stroke: #1f77b4"/>
     <use xlink:href="#mc63ea10e80" x="203.011616" y="145.617572" style="fill: #1f77b4; stroke: #1f77b4"/>
     <use xlink:href="#mc63ea10e80" x="223.752032" y="144.176316" style="fill: #1f77b4; stroke: #1f77b4"/>
     <use xlink:href="#mc63ea10e80" x="244.492447" y="145.617572" style="fill: #1f77b4; stroke: #1f77b4"/>
     <use xlink:href="#mc63ea10e80" x="265.232863" y="145.617572" style="fill: #1f77b4; stroke: #1f77b4"/>
     <use xlink:href="#mc63ea10e80" x="285.973279" y="144.716787" style="fill: #1f77b4; stroke: #1f77b4"/>
     <use xlink:href="#mc63ea10e80" x="306.713695" y="145.497467" style="fill: #1f77b4; stroke: #1f77b4"/>
     <use xlink:href="#mc63ea10e80" x="327.45411" y="145.31731" style="fill: #1f77b4; stroke: #1f77b4"/>
     <use xlink:href="#mc63ea10e80" x="348.194526" y="145.257258" style="fill: #1f77b4; stroke: #1f77b4"/>
     <use xlink:href="#mc63ea10e80" x="368.934942" y="145.017049" style="fill: #1f77b4; stroke: #1f77b4"/>
     <use xlink:href="#mc63ea10e80" x="389.675358" y="145.437415" style="fill: #1f77b4; stroke: #1f77b4"/>
     <use xlink:href="#mc63ea10e80" x="410.415774" y="144.176316" style="fill: #1f77b4; stroke: #1f77b4"/>
     <use xlink:href="#mc63ea10e80" x="431.156189" y="147.118879" style="fill: #1f77b4; stroke: #1f77b4"/>
    </g>
   </g>
   <g id="line2d_15">
    <path d="M 57.828706 124.659316 
L 78.569121 125.860362 
L 99.309537 125.199786 
L 120.049953 122.317275 
L 140.790369 126.761146 
L 161.530784 124.299002 
L 182.2712 124.599263 
L 203.011616 122.077066 
L 223.752032 124.539211 
L 244.492447 123.037903 
L 265.232863 121.956962 
L 285.973279 122.497432 
L 306.713695 127.241565 
L 327.45411 127.421722 
L 348.194526 125.199786 
L 368.934942 121.836857 
L 389.675358 120.996125 
L 410.415774 125.439996 
L 431.156189 117.813352 
L 451.896605 124.899525 
" clip-path="url(#pecd6a5f037)" style="fill: none; stroke: #ff7f0e; stroke-width: 1.5; stroke-linecap: square"/>
    <defs>
     <path id="mc0d7744732" d="M 0 3 
C 0.795609 3 1.55874 2.683901 2.12132 2.12132 
C 2.683901 1.55874 3 0.795609 3 0 
C 3 -0.795609 2.683901 -1.55874 2.12132 -2.12132 
C 1.55874 -2.683901 0.795609 -3 0 -3 
C -0.795609 -3 -1.55874 -2.683901 -2.12132 -2.12132 
C -2.683901 -1.55874 -3 -0.795609 -3 0 
C -3 0.795609 -2.683901 1.55874 -2.12132 2.12132 
C -1.55874 2.683901 -0.795609 3 0 3 
z
" style="stroke: #ff7f0e"/>
    </defs>
    <g clip-path="url(#pecd6a5f037)">
     <use xlink:href="#mc0d7744732" x="57.828706" y="124.659316" style="fill: #ff7f0e; stroke: #ff7f0e"/>
     <use xlink:href="#mc0d7744732" x="78.569121" y="125.860362" style="fill: #ff7f0e; stroke: #ff7f0e"/>
     <use xlink:href="#mc0d7744732" x="99.309537" y="125.199786" style="fill: #ff7f0e; stroke: #ff7f0e"/>
     <use xlink:href="#mc0d7744732" x="120.049953" y="122.317275" style="fill: #ff7f0e; stroke: #ff7f0e"/>
     <use xlink:href="#mc0d7744732" x="140.790369" y="126.761146" style="fill: #ff7f0e; stroke: #ff7f0e"/>
     <use xlink:href="#mc0d7744732" x="161.530784" y="124.299002" style="fill: #ff7f0e; stroke: #ff7f0e"/>
     <use xlink:href="#mc0d7744732" x="182.2712" y="124.599263" style="fill: #ff7f0e; stroke: #ff7f0e"/>
     <use xlink:href="#mc0d7744732" x="203.011616" y="122.077066" style="fill: #ff7f0e; stroke: #ff7f0e"/>
     <use xlink:href="#mc0d7744732" x="223.752032" y="124.539211" style="fill: #ff7f0e; stroke: #ff7f0e"/>
     <use xlink:href="#mc0d7744732" x="244.492447" y="123.037903" style="fill: #ff7f0e; stroke: #ff7f0e"/>
     <use xlink:href="#mc0d7744732" x="265.232863" y="121.956962" style="fill: #ff7f0e; stroke: #ff7f0e"/>
     <use xlink:href="#mc0d7744732" x="285.973279" y="122.497432" style="fill: #ff7f0e; stroke: #ff7f0e"/>
     <use xlink:href="#mc0d7744732" x="306.713695" y="127.241565" style="fill: #ff7f0e; stroke: #ff7f0e"/>
     <use xlink:href="#mc0d7744732" x="327.45411" y="127.421722" style="fill: #ff7f0e; stroke: #ff7f0e"/>
     <use xlink:href="#mc0d7744732" x="348.194526" y="125.199786" style="fill: #ff7f0e; stroke: #ff7f0e"/>
     <use xlink:href="#mc0d7744732" x="368.934942" y="121.836857" style="fill: #ff7f0e; stroke: #ff7f0e"/>
     <use xlink:href="#mc0d7744732" x="389.675358" y="120.996125" style="fill: #ff7f0e; stroke: #ff7f0e"/>
     <use xlink:href="#mc0d7744732" x="410.415774" y="125.439996" style="fill: #ff7f0e; stroke: #ff7f0e"/>
     <use xlink:href="#mc0d7744732" x="431.156189" y="117.813352" style="fill: #ff7f0e; stroke: #ff7f0e"/>
     <use xlink:href="#mc0d7744732" x="451.896605" y="124.899525" style="fill: #ff7f0e; stroke: #ff7f0e"/>
    </g>
   </g>
   <g id="line2d_16">
    <path d="M 57.828706 107.124041 
L 78.569121 105.502629 
L 99.309537 106.763727 
L 120.049953 104.361635 
L 140.790369 105.682786 
L 161.530784 108.685401 
L 182.2712 106.283309 
L 203.011616 104.962158 
L 223.752032 105.862943 
L 244.492447 106.403413 
L 265.232863 107.003936 
L 285.973279 103.46085 
L 306.713695 108.265035 
L 327.45411 108.625349 
L 348.194526 105.682786 
" clip-path="url(#pecd6a5f037)" style="fill: none; stroke: #2ca02c; stroke-width: 1.5; stroke-linecap: square"/>
    <defs>
     <path id="m2614e37138" d="M 0 3 
C 0.795609 3 1.55874 2.683901 2.12132 2.12132 
C 2.683901 1.55874 3 0.795609 3 0 
C 3 -0.795609 2.683901 -1.55874 2.12132 -2.12132 
C 1.55874 -2.683901 0.795609 -3 0 -3 
C -0.795609 -3 -1.55874 -2.683901 -2.12132 -2.12132 
C -2.683901 -1.55874 -3 -0.795609 -3 0 
C -3 0.795609 -2.683901 1.55874 -2.12132 2.12132 
C -1.55874 2.683901 -0.795609 3 0 3 
z
" style="stroke: #2ca02c"/>
    </defs>
    <g clip-path="url(#pecd6a5f037)">
     <use xlink:href="#m2614e37138" x="57.828706" y="107.124041" style="fill: #2ca02c; stroke: #2ca02c"/>
     <use xlink:href="#m2614e37138" x="78.569121" y="105.502629" style="fill: #2ca02c; stroke: #2ca02c"/>
     <use xlink:href="#m2614e37138" x="99.309537" y="106.763727" style="fill: #2ca02c; stroke: #2ca02c"/>
     <use xlink:href="#m2614e37138" x="120.049953" y="104.361635" style="fill: #2ca02c; stroke: #2ca02c"/>
     <use xlink:href="#m2614e37138" x="140.790369" y="105.682786" style="fill: #2ca02c; stroke: #2ca02c"/>
     <use xlink:href="#m2614e37138" x="161.530784" y="108.685401" style="fill: #2ca02c; stroke: #2ca02c"/>
     <use xlink:href="#m2614e37138" x="182.2712" y="106.283309" style="fill: #2ca02c; stroke: #2ca02c"/>
     <use xlink:href="#m2614e37138" x="203.011616" y="104.962158" style="fill: #2ca02c; stroke: #2ca02c"/>
     <use xlink:href="#m2614e37138" x="223.752032" y="105.862943" style="fill: #2ca02c; stroke: #2ca02c"/>
     <use xlink:href="#m2614e37138" x="244.492447" y="106.403413" style="fill: #2ca02c; stroke: #2ca02c"/>
     <use xlink:href="#m2614e37138" x="265.232863" y="107.003936" style="fill: #2ca02c; stroke: #2ca02c"/>
     <use xlink:href="#m2614e37138" x="285.973279" y="103.46085" style="fill: #2ca02c; stroke: #2ca02c"/>
     <use xlink:href="#m2614e37138" x="306.713695" y="108.265035" style="fill: #2ca02c; stroke: #2ca02c"/>
     <use xlink:href="#m2614e37138" x="327.45411" y="108.625349" style="fill: #2ca02c; stroke: #2ca02c"/>
     <use xlink:href="#m2614e37138" x="348.194526" y="105.682786" style="fill: #2ca02c; stroke: #2ca02c"/>
    </g>
   </g>
   <g id="line2d_17">
    <path d="M 57.828706 91.75065 
L 78.569121 84.304163 
M 120.049953 88.327668 
M 161.530784 79.01956 
L 182.2712 82.742803 
L 203.011616 82.082228 
L 223.752032 79.439926 
L 244.492447 80.220606 
L 265.232863 84.003902 
L 285.973279 81.962123 
L 306.713695 83.943849 
L 327.45411 89.708871 
L 348.194526 82.92296 
L 368.934942 88.748034 
L 389.675358 90.129237 
L 410.415774 89.288505 
L 431.156189 92.411225 
L 451.896605 86.04568 
" clip-path="url(#pecd6a5f037)" style="fill: none; stroke: #d62728; stroke-width: 1.5; stroke-linecap: square"/>
    <defs>
     <path id="m4b258e27f0" d="M 0 3 
C 0.795609 3 1.55874 2.683901 2.12132 2.12132 
C 2.683901 1.55874 3 0.795609 3 0 
C 3 -0.795609 2.683901 -1.55874 2.12132 -2.12132 
C 1.55874 -2.683901 0.795609 -3 0 -3 
C -0.795609 -3 -1.55874 -2.683901 -2.12132 -2.12132 
C -2.683901 -1.55874 -3 -0.795609 -3 0 
C -3 0.795609 -2.683901 1.55874 -2.12132 2.12132 
C -1.55874 2.683901 -0.795609 3 0 3 
z
" style="stroke: #d62728"/>
    </defs>
    <g clip-path="url(#pecd6a5f037)">
     <use xlink:href="#m4b258e27f0" x="57.828706" y="91.75065" style="fill: #d62728; stroke: #d62728"/>
     <use xlink:href="#m4b258e27f0" x="78.569121" y="84.304163" style="fill: #d62728; stroke: #d62728"/>
     <use xlink:href="#m4b258e27f0" x="120.049953" y="88.327668" style="fill: #d62728; stroke: #d62728"/>
     <use xlink:href="#m4b258e27f0" x="161.530784" y="79.01956" style="fill: #d62728; stroke: #d62728"/>
     <use xlink:href="#m4b258e27f0" x="182.2712" y="82.742803" style="fill: #d62728; stroke: #d62728"/>
     <use xlink:href="#m4b258e27f0" x="203.011616" y="82.082228" style="fill: #d62728; stroke: #d62728"/>
     <use xlink:href="#m4b258e27f0" x="223.752032" y="79.439926" style="fill: #d62728; stroke: #d62728"/>
     <use xlink:href="#m4b258e27f0" x="244.492447" y="80.220606" style="fill: #d62728; stroke: #d62728"/>
     <use xlink:href="#m4b258e27f0" x="265.232863" y="84.003902" style="fill: #d62728; stroke: #d62728"/>
     <use xlink:href="#m4b258e27f0" x="285.973279" y="81.962123" style="fill: #d62728; stroke: #d62728"/>
     <use xlink:href="#m4b258e27f0" x="306.713695" y="83.943849" style="fill: #d62728; stroke: #d62728"/>
     <use xlink:href="#m4b258e27f0" x="327.45411" y="89.708871" style="fill: #d62728; stroke: #d62728"/>
     <use xlink:href="#m4b258e27f0" x="348.194526" y="82.92296" style="fill: #d62728; stroke: #d62728"/>
     <use xlink:href="#m4b258e27f0" x="368.934942" y="88.748034" style="fill: #d62728; stroke: #d62728"/>
     <use xlink:href="#m4b258e27f0" x="389.675358" y="90.129237" style="fill: #d62728; stroke: #d62728"/>
     <use xlink:href="#m4b258e27f0" x="410.415774" y="89.288505" style="fill: #d62728; stroke: #d62728"/>
     <use xlink:href="#m4b258e27f0" x="431.156189" y="92.411225" style="fill: #d62728; stroke: #d62728"/>
     <use xlink:href="#m4b258e27f0" x="451.896605" y="86.04568" style="fill: #d62728; stroke: #d62728"/>
    </g>
   </g>
   <g id="line2d_18">
    <path d="M 57.828706 67.369412 
L 78.569121 67.30936 
L 99.309537 65.687947 
L 120.049953 68.450353 
L 140.790369 73.134434 
M 223.752032 62.565227 
" clip-path="url(#pecd6a5f037)" style="fill: none; stroke: #9467bd; stroke-width: 1.5; stroke-linecap: square"/>
    <defs>
     <path id="m67e1a98bd2" d="M 0 3 
C 0.795609 3 1.55874 2.683901 2.12132 2.12132 
C 2.683901 1.55874 3 0.795609 3 0 
C 3 -0.795609 2.683901 -1.55874 2.12132 -2.12132 
C 1.55874 -2.683901 0.795609 -3 0 -3 
C -0.795609 -3 -1.55874 -2.683901 -2.12132 -2.12132 
C -2.683901 -1.55874 -3 -0.795609 -3 0 
C -3 0.795609 -2.683901 1.55874 -2.12132 2.12132 
C -1.55874 2.683901 -0.795609 3 0 3 
z
" style="stroke: #9467bd"/>
    </defs>
    <g clip-path="url(#pecd6a5f037)">
     <use xlink:href="#m67e1a98bd2" x="57.828706" y="67.369412" style="fill: #9467bd; stroke: #9467bd"/>
     <use xlink:href="#m67e1a98bd2" x="78.569121" y="67.30936" style="fill: #9467bd; stroke: #9467bd"/>
     <use xlink:href="#m67e1a98bd2" x="99.309537" y="65.687947" style="fill: #9467bd; stroke: #9467bd"/>
     <use xlink:href="#m67e1a98bd2" x="120.049953" y="68.450353" style="fill: #9467bd; stroke: #9467bd"/>
     <use xlink:href="#m67e1a98bd2" x="140.790369" y="73.134434" style="fill: #9467bd; stroke: #9467bd"/>
     <use xlink:href="#m67e1a98bd2" x="223.752032" y="62.565227" style="fill: #9467bd; stroke: #9467bd"/>
    </g>
   </g>
   <g id="line2d_19">
    <path d="M 57.828706 14.343222 
M 99.309537 20.408506 
L 120.049953 13.862804 
L 140.790369 20.888924 
L 161.530784 18.666989 
L 182.2712 18.546884 
L 203.011616 22.990755 
L 223.752032 24.852376 
L 244.492447 22.810598 
L 265.232863 22.450284 
L 285.973279 27.314521 
L 306.713695 36.202263 
L 327.45411 29.596509 
L 348.194526 31.458131 
L 368.934942 42.868069 
L 389.675358 39.024722 
L 410.415774 43.648749 
L 431.156189 42.147442 
L 451.896605 39.324983 
" clip-path="url(#pecd6a5f037)" style="fill: none; stroke: #8c564b; stroke-width: 1.5; stroke-linecap: square"/>
    <defs>
     <path id="m77f1ca8d3a" d="M 0 3 
C 0.795609 3 1.55874 2.683901 2.12132 2.12132 
C 2.683901 1.55874 3 0.795609 3 0 
C 3 -0.795609 2.683901 -1.55874 2.12132 -2.12132 
C 1.55874 -2.683901 0.795609 -3 0 -3 
C -0.795609 -3 -1.55874 -2.683901 -2.12132 -2.12132 
C -2.683901 -1.55874 -3 -0.795609 -3 0 
C -3 0.795609 -2.683901 1.55874 -2.12132 2.12132 
C -1.55874 2.683901 -0.795609 3 0 3 
z
" style="stroke: #8c564b"/>
    </defs>
    <g clip-path="url(#pecd6a5f037)">
     <use xlink:href="#m77f1ca8d3a" x="57.828706" y="14.343222" style="fill: #8c564b; stroke: #8c564b"/>
     <use xlink:href="#m77f1ca8d3a" x="99.309537" y="20.408506" style="fill: #8c564b; stroke: #8c564b"/>
     <use xlink:href="#m77f1ca8d3a" x="120.049953" y="13.862804" style="fill: #8c564b; stroke: #8c564b"/>
     <use xlink:href="#m77f1ca8d3a" x="140.790369" y="20.888924" style="fill: #8c564b; stroke: #8c564b"/>
     <use xlink:href="#m77f1ca8d3a" x="161.530784" y="18.666989" style="fill: #8c564b; stroke: #8c564b"/>
     <use xlink:href="#m77f1ca8d3a" x="182.2712" y="18.546884" style="fill: #8c564b; stroke: #8c564b"/>
     <use xlink:href="#m77f1ca8d3a" x="203.011616" y="22.990755" style="fill: #8c564b; stroke: #8c564b"/>
     <use xlink:href="#m77f1ca8d3a" x="223.752032" y="24.852376" style="fill: #8c564b; stroke: #8c564b"/>
     <use xlink:href="#m77f1ca8d3a" x="244.492447" y="22.810598" style="fill: #8c564b; stroke: #8c564b"/>
     <use xlink:href="#m77f1ca8d3a" x="265.232863" y="22.450284" style="fill: #8c564b; stroke: #8c564b"/>
     <use xlink:href="#m77f1ca8d3a" x="285.973279" y="27.314521" style="fill: #8c564b; stroke: #8c564b"/>
     <use xlink:href="#m77f1ca8d3a" x="306.713695" y="36.202263" style="fill: #8c564b; stroke: #8c564b"/>
     <use xlink:href="#m77f1ca8d3a" x="327.45411" y="29.596509" style="fill: #8c564b; stroke: #8c564b"/>
     <use xlink:href="#m77f1ca8d3a" x="348.194526" y="31.458131" style="fill: #8c564b; stroke: #8c564b"/>
     <use xlink:href="#m77f1ca8d3a" x="368.934942" y="42.868069" style="fill: #8c564b; stroke: #8c564b"/>
     <use xlink:href="#m77f1ca8d3a" x="389.675358" y="39.024722" style="fill: #8c564b; stroke: #8c564b"/>
     <use xlink:href="#m77f1ca8d3a" x="410.415774" y="43.648749" style="fill: #8c564b; stroke: #8c564b"/>
     <use xlink:href="#m77f1ca8d3a" x="431.156189" y="42.147442" style="fill: #8c564b; stroke: #8c564b"/>
     <use xlink:href="#m77f1ca8d3a" x="451.896605" y="39.324983" style="fill: #8c564b; stroke: #8c564b"/>
    </g>
   </g>
   <g id="patch_3">
    <path d="M 38.125311 153.781683 
L 38.125311 7.2 
" style="fill: none; stroke: #000000; stroke-width: 0.8; stroke-linejoin: miter; stroke-linecap: square"/>
   </g>
   <g id="patch_4">
    <path d="M 471.6 153.781683 
L 471.6 7.2 
" style="fill: none; stroke: #000000; stroke-width: 0.8; stroke-linejoin: miter; stroke-linecap: square"/>
   </g>
   <g id="patch_5">
    <path d="M 38.125311 153.781683 
L 471.6 153.781683 
" style="fill: none; stroke: #000000; stroke-width: 0.8; stroke-linejoin: miter; stroke-linecap: square"/>
   </g>
   <g id="patch_6">
    <path d="M 38.125311 7.2 
L 471.6 7.2 
" style="fill: none; stroke: #000000; stroke-width: 0.8; stroke-linejoin: miter; stroke-linecap: square"/>
   </g>
  </g>
 </g>
 <defs>
  <clipPath id="pecd6a5f037">
   <rect x="38.125311" y="7.2" width="433.474689" height="146.581683"/>
  </clipPath>
 </defs>
</svg>
