<?xml version="1.0" encoding="utf-8" standalone="no"?>
<!DOCTYPE svg PUBLIC "-//W3C//DTD SVG 1.1//EN"
  "http://www.w3.org/Graphics/SVG/1.1/DTD/svg11.dtd">
<svg xmlns:xlink="http://www.w3.org/1999/xlink" width="478.8pt" height="172.8pt" viewBox="0 0 478.8 172.8" xmlns="http://www.w3.org/2000/svg" version="1.1">
 <metadata>
  <rdf:RDF xmlns:dc="http://purl.org/dc/elements/1.1/" xmlns:cc="http://creativecommons.org/ns#" xmlns:rdf="http://www.w3.org/1999/02/22-rdf-syntax-ns#">
   <cc:Work>
    <dc:type rdf:resource="http://purl.org/dc/dcmitype/StillImage"/>
    <dc:date>2024-04-18T09:44:22.974398</dc:date>
    <dc:format>image/svg+xml</dc:format>
    <dc:creator>
     <cc:Agent>
      <dc:title>Matplotlib v3.7.1, https://matplotlib.org/</dc:title>
     </cc:Agent>
    </dc:creator>
   </cc:Work>
  </rdf:RDF>
 </metadata>
 <defs>
  <style type="text/css">*{stroke-linejoin: round; stroke-linecap: butt}</style>
 </defs>
 <g id="figure_1">
  <g id="patch_1">
   <path d="M 0 172.8 
L 478.8 172.8 
L 478.8 0 
L 0 0 
z
" style="fill: #ffffff"/>
  </g>
  <g id="axes_1">
   <g id="patch_2">
    <path d="M 37.018347 135.781683 
L 471.6 135.781683 
L 471.6 10.659249 
L 37.018347 10.659249 
z
" style="fill: #ffffff"/>
   </g>
   <g id="patch_3">
    <path d="M 124.980893 135.781683 
L 131.874324 135.781683 
L 131.874324 123.26944 
L 124.980893 123.26944 
z
" clip-path="url(#p2618c33d62)" style="fill: #1f77b4; stroke: #000000; stroke-linejoin: miter"/>
   </g>
   <g id="patch_4">
    <path d="M 131.874324 135.781683 
L 138.767754 135.781683 
L 138.767754 135.781683 
L 131.874324 135.781683 
z
" clip-path="url(#p2618c33d62)" style="fill: #1f77b4; stroke: #000000; stroke-linejoin: miter"/>
   </g>
   <g id="patch_5">
    <path d="M 138.767754 135.781683 
L 145.661185 135.781683 
L 145.661185 117.013318 
L 138.767754 117.013318 
z
" clip-path="url(#p2618c33d62)" style="fill: #1f77b4; stroke: #000000; stroke-linejoin: miter"/>
   </g>
   <g id="patch_6">
    <path d="M 145.661185 135.781683 
L 152.554616 135.781683 
L 152.554616 104.501075 
L 145.661185 104.501075 
z
" clip-path="url(#p2618c33d62)" style="fill: #1f77b4; stroke: #000000; stroke-linejoin: miter"/>
   </g>
   <g id="patch_7">
    <path d="M 152.554616 135.781683 
L 159.448047 135.781683 
L 159.448047 98.244953 
L 152.554616 98.244953 
z
" clip-path="url(#p2618c33d62)" style="fill: #1f77b4; stroke: #000000; stroke-linejoin: miter"/>
   </g>
   <g id="patch_8">
    <path d="M 159.448047 135.781683 
L 166.341477 135.781683 
L 166.341477 16.915371 
L 159.448047 16.915371 
z
" clip-path="url(#p2618c33d62)" style="fill: #1f77b4; stroke: #000000; stroke-linejoin: miter"/>
   </g>
   <g id="patch_9">
    <path d="M 166.341477 135.781683 
L 173.234908 135.781683 
L 173.234908 23.171493 
L 166.341477 23.171493 
z
" clip-path="url(#p2618c33d62)" style="fill: #1f77b4; stroke: #000000; stroke-linejoin: miter"/>
   </g>
   <g id="patch_10">
    <path d="M 173.234908 135.781683 
L 180.128339 135.781683 
L 180.128339 54.452101 
L 173.234908 54.452101 
z
" clip-path="url(#p2618c33d62)" style="fill: #1f77b4; stroke: #000000; stroke-linejoin: miter"/>
   </g>
   <g id="patch_11">
    <path d="M 180.128339 135.781683 
L 187.02177 135.781683 
L 187.02177 91.988831 
L 180.128339 91.988831 
z
" clip-path="url(#p2618c33d62)" style="fill: #1f77b4; stroke: #000000; stroke-linejoin: miter"/>
   </g>
   <g id="patch_12">
    <path d="M 187.02177 135.781683 
L 193.9152 135.781683 
L 193.9152 73.220466 
L 187.02177 73.220466 
z
" clip-path="url(#p2618c33d62)" style="fill: #1f77b4; stroke: #000000; stroke-linejoin: miter"/>
   </g>
   <g id="patch_13">
    <path d="M 193.9152 135.781683 
L 200.808631 135.781683 
L 200.808631 123.26944 
L 193.9152 123.26944 
z
" clip-path="url(#p2618c33d62)" style="fill: #1f77b4; stroke: #000000; stroke-linejoin: miter"/>
   </g>
   <g id="patch_14">
    <path d="M 200.808631 135.781683 
L 207.702062 135.781683 
L 207.702062 129.525561 
L 200.808631 129.525561 
z
" clip-path="url(#p2618c33d62)" style="fill: #1f77b4; stroke: #000000; stroke-linejoin: miter"/>
   </g>
   <g id="patch_15">
    <path d="M 207.702062 135.781683 
L 214.595493 135.781683 
L 214.595493 117.013318 
L 207.702062 117.013318 
z
" clip-path="url(#p2618c33d62)" style="fill: #1f77b4; stroke: #000000; stroke-linejoin: miter"/>
   </g>
   <g id="patch_16">
    <path d="M 214.595493 135.781683 
L 221.488923 135.781683 
L 221.488923 123.26944 
L 214.595493 123.26944 
z
" clip-path="url(#p2618c33d62)" style="fill: #1f77b4; stroke: #000000; stroke-linejoin: miter"/>
   </g>
   <g id="patch_17">
    <path d="M 221.488923 135.781683 
L 228.382354 135.781683 
L 228.382354 104.501075 
L 221.488923 104.501075 
z
" clip-path="url(#p2618c33d62)" style="fill: #1f77b4; stroke: #000000; stroke-linejoin: miter"/>
   </g>
   <g id="patch_18">
    <path d="M 228.382354 135.781683 
L 235.275785 135.781683 
L 235.275785 110.757196 
L 228.382354 110.757196 
z
" clip-path="url(#p2618c33d62)" style="fill: #1f77b4; stroke: #000000; stroke-linejoin: miter"/>
   </g>
   <g id="patch_19">
    <path d="M 235.275785 135.781683 
L 242.169216 135.781683 
L 242.169216 104.501075 
L 235.275785 104.501075 
z
" clip-path="url(#p2618c33d62)" style="fill: #1f77b4; stroke: #000000; stroke-linejoin: miter"/>
   </g>
   <g id="patch_20">
    <path d="M 242.169216 135.781683 
L 249.062646 135.781683 
L 249.062646 117.013318 
L 242.169216 117.013318 
z
" clip-path="url(#p2618c33d62)" style="fill: #1f77b4; stroke: #000000; stroke-linejoin: miter"/>
   </g>
   <g id="patch_21">
    <path d="M 249.062646 135.781683 
L 255.956077 135.781683 
L 255.956077 91.988831 
L 249.062646 91.988831 
z
" clip-path="url(#p2618c33d62)" style="fill: #1f77b4; stroke: #000000; stroke-linejoin: miter"/>
   </g>
   <g id="patch_22">
    <path d="M 255.956077 135.781683 
L 262.849508 135.781683 
L 262.849508 73.220466 
L 255.956077 73.220466 
z
" clip-path="url(#p2618c33d62)" style="fill: #1f77b4; stroke: #000000; stroke-linejoin: miter"/>
   </g>
   <g id="patch_23">
    <path d="M 262.849508 135.781683 
L 269.742939 135.781683 
L 269.742939 104.501075 
L 262.849508 104.501075 
z
" clip-path="url(#p2618c33d62)" style="fill: #1f77b4; stroke: #000000; stroke-linejoin: miter"/>
   </g>
   <g id="patch_24">
    <path d="M 269.742939 135.781683 
L 276.636369 135.781683 
L 276.636369 123.26944 
L 269.742939 123.26944 
z
" clip-path="url(#p2618c33d62)" style="fill: #1f77b4; stroke: #000000; stroke-linejoin: miter"/>
   </g>
   <g id="patch_25">
    <path d="M 276.636369 135.781683 
L 283.5298 135.781683 
L 283.5298 117.013318 
L 276.636369 117.013318 
z
" clip-path="url(#p2618c33d62)" style="fill: #1f77b4; stroke: #000000; stroke-linejoin: miter"/>
   </g>
   <g id="patch_26">
    <path d="M 283.5298 135.781683 
L 290.423231 135.781683 
L 290.423231 98.244953 
L 283.5298 98.244953 
z
" clip-path="url(#p2618c33d62)" style="fill: #1f77b4; stroke: #000000; stroke-linejoin: miter"/>
   </g>
   <g id="patch_27">
    <path d="M 290.423231 135.781683 
L 297.316662 135.781683 
L 297.316662 91.988831 
L 290.423231 91.988831 
z
" clip-path="url(#p2618c33d62)" style="fill: #1f77b4; stroke: #000000; stroke-linejoin: miter"/>
   </g>
   <g id="patch_28">
    <path d="M 297.316662 135.781683 
L 304.210092 135.781683 
L 304.210092 104.501075 
L 297.316662 104.501075 
z
" clip-path="url(#p2618c33d62)" style="fill: #1f77b4; stroke: #000000; stroke-linejoin: miter"/>
   </g>
   <g id="patch_29">
    <path d="M 304.210092 135.781683 
L 311.103523 135.781683 
L 311.103523 98.244953 
L 304.210092 98.244953 
z
" clip-path="url(#p2618c33d62)" style="fill: #1f77b4; stroke: #000000; stroke-linejoin: miter"/>
   </g>
   <g id="patch_30">
    <path d="M 311.103523 135.781683 
L 317.996954 135.781683 
L 317.996954 117.013318 
L 311.103523 117.013318 
z
" clip-path="url(#p2618c33d62)" style="fill: #1f77b4; stroke: #000000; stroke-linejoin: miter"/>
   </g>
   <g id="patch_31">
    <path d="M 317.996954 135.781683 
L 324.890385 135.781683 
L 324.890385 117.013318 
L 317.996954 117.013318 
z
" clip-path="url(#p2618c33d62)" style="fill: #1f77b4; stroke: #000000; stroke-linejoin: miter"/>
   </g>
   <g id="patch_32">
    <path d="M 324.890385 135.781683 
L 331.783815 135.781683 
L 331.783815 129.525561 
L 324.890385 129.525561 
z
" clip-path="url(#p2618c33d62)" style="fill: #1f77b4; stroke: #000000; stroke-linejoin: miter"/>
   </g>
   <g id="patch_33">
    <path d="M 331.783815 135.781683 
L 338.677246 135.781683 
L 338.677246 123.26944 
L 331.783815 123.26944 
z
" clip-path="url(#p2618c33d62)" style="fill: #1f77b4; stroke: #000000; stroke-linejoin: miter"/>
   </g>
   <g id="patch_34">
    <path d="M 338.677246 135.781683 
L 345.570677 135.781683 
L 345.570677 117.013318 
L 338.677246 117.013318 
z
" clip-path="url(#p2618c33d62)" style="fill: #1f77b4; stroke: #000000; stroke-linejoin: miter"/>
   </g>
   <g id="patch_35">
    <path d="M 345.570677 135.781683 
L 352.464108 135.781683 
L 352.464108 123.26944 
L 345.570677 123.26944 
z
" clip-path="url(#p2618c33d62)" style="fill: #1f77b4; stroke: #000000; stroke-linejoin: miter"/>
   </g>
   <g id="patch_36">
    <path d="M 352.464108 135.781683 
L 359.357538 135.781683 
L 359.357538 129.525561 
L 352.464108 129.525561 
z
" clip-path="url(#p2618c33d62)" style="fill: #1f77b4; stroke: #000000; stroke-linejoin: miter"/>
   </g>
   <g id="patch_37">
    <path d="M 359.357538 135.781683 
L 366.250969 135.781683 
L 366.250969 129.525561 
L 359.357538 129.525561 
z
" clip-path="url(#p2618c33d62)" style="fill: #1f77b4; stroke: #000000; stroke-linejoin: miter"/>
   </g>
   <g id="patch_38">
    <path d="M 366.250969 135.781683 
L 373.1444 135.781683 
L 373.1444 117.013318 
L 366.250969 117.013318 
z
" clip-path="url(#p2618c33d62)" style="fill: #1f77b4; stroke: #000000; stroke-linejoin: miter"/>
   </g>
   <g id="patch_39">
    <path d="M 373.1444 135.781683 
L 380.037831 135.781683 
L 380.037831 85.73271 
L 373.1444 85.73271 
z
" clip-path="url(#p2618c33d62)" style="fill: #1f77b4; stroke: #000000; stroke-linejoin: miter"/>
   </g>
   <g id="patch_40">
    <path d="M 380.037831 135.781683 
L 386.931261 135.781683 
L 386.931261 123.26944 
L 380.037831 123.26944 
z
" clip-path="url(#p2618c33d62)" style="fill: #1f77b4; stroke: #000000; stroke-linejoin: miter"/>
   </g>
   <g id="patch_41">
    <path d="M 386.931261 135.781683 
L 393.824692 135.781683 
L 393.824692 129.525561 
L 386.931261 129.525561 
z
" clip-path="url(#p2618c33d62)" style="fill: #1f77b4; stroke: #000000; stroke-linejoin: miter"/>
   </g>
   <g id="patch_42">
    <path d="M 393.824692 135.781683 
L 400.718123 135.781683 
L 400.718123 135.781683 
L 393.824692 135.781683 
z
" clip-path="url(#p2618c33d62)" style="fill: #1f77b4; stroke: #000000; stroke-linejoin: miter"/>
   </g>
   <g id="patch_43">
    <path d="M 400.718123 135.781683 
L 407.611554 135.781683 
L 407.611554 135.781683 
L 400.718123 135.781683 
z
" clip-path="url(#p2618c33d62)" style="fill: #1f77b4; stroke: #000000; stroke-linejoin: miter"/>
   </g>
   <g id="patch_44">
    <path d="M 407.611554 135.781683 
L 414.504984 135.781683 
L 414.504984 135.781683 
L 407.611554 135.781683 
z
" clip-path="url(#p2618c33d62)" style="fill: #1f77b4; stroke: #000000; stroke-linejoin: miter"/>
   </g>
   <g id="patch_45">
    <path d="M 414.504984 135.781683 
L 421.398415 135.781683 
L 421.398415 110.757196 
L 414.504984 110.757196 
z
" clip-path="url(#p2618c33d62)" style="fill: #1f77b4; stroke: #000000; stroke-linejoin: miter"/>
   </g>
   <g id="patch_46">
    <path d="M 421.398415 135.781683 
L 428.291846 135.781683 
L 428.291846 129.525561 
L 421.398415 129.525561 
z
" clip-path="url(#p2618c33d62)" style="fill: #1f77b4; stroke: #000000; stroke-linejoin: miter"/>
   </g>
   <g id="patch_47">
    <path d="M 428.291846 135.781683 
L 435.185277 135.781683 
L 435.185277 129.525561 
L 428.291846 129.525561 
z
" clip-path="url(#p2618c33d62)" style="fill: #1f77b4; stroke: #000000; stroke-linejoin: miter"/>
   </g>
   <g id="patch_48">
    <path d="M 435.185277 135.781683 
L 442.078707 135.781683 
L 442.078707 123.26944 
L 435.185277 123.26944 
z
" clip-path="url(#p2618c33d62)" style="fill: #1f77b4; stroke: #000000; stroke-linejoin: miter"/>
   </g>
   <g id="patch_49">
    <path d="M 442.078707 135.781683 
L 448.972138 135.781683 
L 448.972138 123.26944 
L 442.078707 123.26944 
z
" clip-path="url(#p2618c33d62)" style="fill: #1f77b4; stroke: #000000; stroke-linejoin: miter"/>
   </g>
   <g id="patch_50">
    <path d="M 448.972138 135.781683 
L 455.865569 135.781683 
L 455.865569 129.525561 
L 448.972138 129.525561 
z
" clip-path="url(#p2618c33d62)" style="fill: #1f77b4; stroke: #000000; stroke-linejoin: miter"/>
   </g>
   <g id="patch_51">
    <path d="M 455.865569 135.781683 
L 462.759 135.781683 
L 462.759 117.013318 
L 455.865569 117.013318 
z
" clip-path="url(#p2618c33d62)" style="fill: #1f77b4; stroke: #000000; stroke-linejoin: miter"/>
   </g>
   <g id="patch_52">
    <path d="M 462.759 135.781683 
L 469.65243 135.781683 
L 469.65243 135.781683 
L 462.759 135.781683 
z
" clip-path="url(#p2618c33d62)" style="fill: #1f77b4; stroke: #000000; stroke-linejoin: miter"/>
   </g>
   <g id="patch_53">
    <path d="M 469.65243 135.781683 
L 476.545861 135.781683 
L 476.545861 135.781683 
L 469.65243 135.781683 
z
" clip-path="url(#p2618c33d62)" style="fill: #1f77b4; stroke: #000000; stroke-linejoin: miter"/>
   </g>
   <g id="patch_54">
    <path d="M 476.545861 135.781683 
L 483.439292 135.781683 
L 483.439292 135.781683 
L 476.545861 135.781683 
z
" clip-path="url(#p2618c33d62)" style="fill: #1f77b4; stroke: #000000; stroke-linejoin: miter"/>
   </g>
   <g id="patch_55">
    <path d="M 483.439292 135.781683 
L 490.332723 135.781683 
L 490.332723 135.781683 
L 483.439292 135.781683 
z
" clip-path="url(#p2618c33d62)" style="fill: #1f77b4; stroke: #000000; stroke-linejoin: miter"/>
   </g>
   <g id="patch_56">
    <path d="M 490.332723 135.781683 
L 497.226153 135.781683 
L 497.226153 135.781683 
L 490.332723 135.781683 
z
" clip-path="url(#p2618c33d62)" style="fill: #1f77b4; stroke: #000000; stroke-linejoin: miter"/>
   </g>
   <g id="patch_57">
    <path d="M 497.226153 135.781683 
L 504.119584 135.781683 
L 504.119584 135.781683 
L 497.226153 135.781683 
z
" clip-path="url(#p2618c33d62)" style="fill: #1f77b4; stroke: #000000; stroke-linejoin: miter"/>
   </g>
   <g id="patch_58">
    <path d="M 504.119584 135.781683 
L 511.013015 135.781683 
L 511.013015 135.781683 
L 504.119584 135.781683 
z
" clip-path="url(#p2618c33d62)" style="fill: #1f77b4; stroke: #000000; stroke-linejoin: miter"/>
   </g>
   <g id="patch_59">
    <path d="M 511.013015 135.781683 
L 517.906446 135.781683 
L 517.906446 135.781683 
L 511.013015 135.781683 
z
" clip-path="url(#p2618c33d62)" style="fill: #1f77b4; stroke: #000000; stroke-linejoin: miter"/>
   </g>
   <g id="patch_60">
    <path d="M 517.906446 135.781683 
L 524.799876 135.781683 
L 524.799876 135.781683 
L 517.906446 135.781683 
z
" clip-path="url(#p2618c33d62)" style="fill: #1f77b4; stroke: #000000; stroke-linejoin: miter"/>
   </g>
   <g id="patch_61">
    <path d="M 524.799876 135.781683 
L 531.693307 135.781683 
L 531.693307 135.781683 
L 524.799876 135.781683 
z
" clip-path="url(#p2618c33d62)" style="fill: #1f77b4; stroke: #000000; stroke-linejoin: miter"/>
   </g>
   <g id="patch_62">
    <path d="M 531.693307 135.781683 
L 538.586738 135.781683 
L 538.586738 135.781683 
L 531.693307 135.781683 
z
" clip-path="url(#p2618c33d62)" style="fill: #1f77b4; stroke: #000000; stroke-linejoin: miter"/>
   </g>
   <g id="patch_63">
    <path d="M 538.586738 135.781683 
L 545.480169 135.781683 
L 545.480169 135.781683 
L 538.586738 135.781683 
z
" clip-path="url(#p2618c33d62)" style="fill: #1f77b4; stroke: #000000; stroke-linejoin: miter"/>
   </g>
   <g id="patch_64">
    <path d="M 545.480169 135.781683 
L 552.373599 135.781683 
L 552.373599 135.781683 
L 545.480169 135.781683 
z
" clip-path="url(#p2618c33d62)" style="fill: #1f77b4; stroke: #000000; stroke-linejoin: miter"/>
   </g>
   <g id="patch_65">
    <path d="M 552.373599 135.781683 
L 559.26703 135.781683 
L 559.26703 135.781683 
L 552.373599 135.781683 
z
" clip-path="url(#p2618c33d62)" style="fill: #1f77b4; stroke: #000000; stroke-linejoin: miter"/>
   </g>
   <g id="patch_66">
    <path d="M 559.26703 135.781683 
L 566.160461 135.781683 
L 566.160461 135.781683 
L 559.26703 135.781683 
z
" clip-path="url(#p2618c33d62)" style="fill: #1f77b4; stroke: #000000; stroke-linejoin: miter"/>
   </g>
   <g id="patch_67">
    <path d="M 566.160461 135.781683 
L 573.053892 135.781683 
L 573.053892 135.781683 
L 566.160461 135.781683 
z
" clip-path="url(#p2618c33d62)" style="fill: #1f77b4; stroke: #000000; stroke-linejoin: miter"/>
   </g>
   <g id="patch_68">
    <path d="M 573.053892 135.781683 
L 579.947322 135.781683 
L 579.947322 135.781683 
L 573.053892 135.781683 
z
" clip-path="url(#p2618c33d62)" style="fill: #1f77b4; stroke: #000000; stroke-linejoin: miter"/>
   </g>
   <g id="patch_69">
    <path d="M 579.947322 135.781683 
L 586.840753 135.781683 
L 586.840753 135.781683 
L 579.947322 135.781683 
z
" clip-path="url(#p2618c33d62)" style="fill: #1f77b4; stroke: #000000; stroke-linejoin: miter"/>
   </g>
   <g id="patch_70">
    <path d="M 586.840753 135.781683 
L 593.734184 135.781683 
L 593.734184 135.781683 
L 586.840753 135.781683 
z
" clip-path="url(#p2618c33d62)" style="fill: #1f77b4; stroke: #000000; stroke-linejoin: miter"/>
   </g>
   <g id="patch_71">
    <path d="M 593.734184 135.781683 
L 600.627615 135.781683 
L 600.627615 135.781683 
L 593.734184 135.781683 
z
" clip-path="url(#p2618c33d62)" style="fill: #1f77b4; stroke: #000000; stroke-linejoin: miter"/>
   </g>
   <g id="patch_72">
    <path d="M 600.627615 135.781683 
L 607.521045 135.781683 
L 607.521045 135.781683 
L 600.627615 135.781683 
z
" clip-path="url(#p2618c33d62)" style="fill: #1f77b4; stroke: #000000; stroke-linejoin: miter"/>
   </g>
   <g id="patch_73">
    <path d="M 607.521045 135.781683 
L 614.414476 135.781683 
L 614.414476 135.781683 
L 607.521045 135.781683 
z
" clip-path="url(#p2618c33d62)" style="fill: #1f77b4; stroke: #000000; stroke-linejoin: miter"/>
   </g>
   <g id="patch_74">
    <path d="M 614.414476 135.781683 
L 621.307907 135.781683 
L 621.307907 135.781683 
L 614.414476 135.781683 
z
" clip-path="url(#p2618c33d62)" style="fill: #1f77b4; stroke: #000000; stroke-linejoin: miter"/>
   </g>
   <g id="patch_75">
    <path d="M 621.307907 135.781683 
L 628.201338 135.781683 
L 628.201338 135.781683 
L 621.307907 135.781683 
z
" clip-path="url(#p2618c33d62)" style="fill: #1f77b4; stroke: #000000; stroke-linejoin: miter"/>
   </g>
   <g id="patch_76">
    <path d="M 628.201338 135.781683 
L 635.094768 135.781683 
L 635.094768 135.781683 
L 628.201338 135.781683 
z
" clip-path="url(#p2618c33d62)" style="fill: #1f77b4; stroke: #000000; stroke-linejoin: miter"/>
   </g>
   <g id="patch_77">
    <path d="M 635.094768 135.781683 
L 641.988199 135.781683 
L 641.988199 135.781683 
L 635.094768 135.781683 
z
" clip-path="url(#p2618c33d62)" style="fill: #1f77b4; stroke: #000000; stroke-linejoin: miter"/>
   </g>
   <g id="patch_78">
    <path d="M 641.988199 135.781683 
L 648.88163 135.781683 
L 648.88163 135.781683 
L 641.988199 135.781683 
z
" clip-path="url(#p2618c33d62)" style="fill: #1f77b4; stroke: #000000; stroke-linejoin: miter"/>
   </g>
   <g id="patch_79">
    <path d="M 648.88163 135.781683 
L 655.775061 135.781683 
L 655.775061 135.781683 
L 648.88163 135.781683 
z
" clip-path="url(#p2618c33d62)" style="fill: #1f77b4; stroke: #000000; stroke-linejoin: miter"/>
   </g>
   <g id="patch_80">
    <path d="M 655.775061 135.781683 
L 662.668491 135.781683 
L 662.668491 135.781683 
L 655.775061 135.781683 
z
" clip-path="url(#p2618c33d62)" style="fill: #1f77b4; stroke: #000000; stroke-linejoin: miter"/>
   </g>
   <g id="patch_81">
    <path d="M 662.668491 135.781683 
L 669.561922 135.781683 
L 669.561922 135.781683 
L 662.668491 135.781683 
z
" clip-path="url(#p2618c33d62)" style="fill: #1f77b4; stroke: #000000; stroke-linejoin: miter"/>
   </g>
   <g id="patch_82">
    <path d="M 669.561922 135.781683 
L 676.455353 135.781683 
L 676.455353 135.781683 
L 669.561922 135.781683 
z
" clip-path="url(#p2618c33d62)" style="fill: #1f77b4; stroke: #000000; stroke-linejoin: miter"/>
   </g>
   <g id="patch_83">
    <path d="M 676.455353 135.781683 
L 683.348784 135.781683 
L 683.348784 135.781683 
L 676.455353 135.781683 
z
" clip-path="url(#p2618c33d62)" style="fill: #1f77b4; stroke: #000000; stroke-linejoin: miter"/>
   </g>
   <g id="patch_84">
    <path d="M 683.348784 135.781683 
L 690.242214 135.781683 
L 690.242214 135.781683 
L 683.348784 135.781683 
z
" clip-path="url(#p2618c33d62)" style="fill: #1f77b4; stroke: #000000; stroke-linejoin: miter"/>
   </g>
   <g id="patch_85">
    <path d="M 690.242214 135.781683 
L 697.135645 135.781683 
L 697.135645 135.781683 
L 690.242214 135.781683 
z
" clip-path="url(#p2618c33d62)" style="fill: #1f77b4; stroke: #000000; stroke-linejoin: miter"/>
   </g>
   <g id="patch_86">
    <path d="M 697.135645 135.781683 
L 704.029076 135.781683 
L 704.029076 135.781683 
L 697.135645 135.781683 
z
" clip-path="url(#p2618c33d62)" style="fill: #1f77b4; stroke: #000000; stroke-linejoin: miter"/>
   </g>
   <g id="patch_87">
    <path d="M 704.029076 135.781683 
L 710.922507 135.781683 
L 710.922507 135.781683 
L 704.029076 135.781683 
z
" clip-path="url(#p2618c33d62)" style="fill: #1f77b4; stroke: #000000; stroke-linejoin: miter"/>
   </g>
   <g id="patch_88">
    <path d="M 710.922507 135.781683 
L 717.815937 135.781683 
L 717.815937 135.781683 
L 710.922507 135.781683 
z
" clip-path="url(#p2618c33d62)" style="fill: #1f77b4; stroke: #000000; stroke-linejoin: miter"/>
   </g>
   <g id="patch_89">
    <path d="M 717.815937 135.781683 
L 724.709368 135.781683 
L 724.709368 135.781683 
L 717.815937 135.781683 
z
" clip-path="url(#p2618c33d62)" style="fill: #1f77b4; stroke: #000000; stroke-linejoin: miter"/>
   </g>
   <g id="patch_90">
    <path d="M 724.709368 135.781683 
L 731.602799 135.781683 
L 731.602799 135.781683 
L 724.709368 135.781683 
z
" clip-path="url(#p2618c33d62)" style="fill: #1f77b4; stroke: #000000; stroke-linejoin: miter"/>
   </g>
   <g id="patch_91">
    <path d="M 731.602799 135.781683 
L 738.49623 135.781683 
L 738.49623 135.781683 
L 731.602799 135.781683 
z
" clip-path="url(#p2618c33d62)" style="fill: #1f77b4; stroke: #000000; stroke-linejoin: miter"/>
   </g>
   <g id="patch_92">
    <path d="M 738.49623 135.781683 
L 745.38966 135.781683 
L 745.38966 135.781683 
L 738.49623 135.781683 
z
" clip-path="url(#p2618c33d62)" style="fill: #1f77b4; stroke: #000000; stroke-linejoin: miter"/>
   </g>
   <g id="patch_93">
    <path d="M 745.38966 135.781683 
L 752.283091 135.781683 
L 752.283091 135.781683 
L 745.38966 135.781683 
z
" clip-path="url(#p2618c33d62)" style="fill: #1f77b4; stroke: #000000; stroke-linejoin: miter"/>
   </g>
   <g id="patch_94">
    <path d="M 752.283091 135.781683 
L 759.176522 135.781683 
L 759.176522 135.781683 
L 752.283091 135.781683 
z
" clip-path="url(#p2618c33d62)" style="fill: #1f77b4; stroke: #000000; stroke-linejoin: miter"/>
   </g>
   <g id="patch_95">
    <path d="M 759.176522 135.781683 
L 766.069953 135.781683 
L 766.069953 135.781683 
L 759.176522 135.781683 
z
" clip-path="url(#p2618c33d62)" style="fill: #1f77b4; stroke: #000000; stroke-linejoin: miter"/>
   </g>
   <g id="patch_96">
    <path d="M 766.069953 135.781683 
L 772.963383 135.781683 
L 772.963383 135.781683 
L 766.069953 135.781683 
z
" clip-path="url(#p2618c33d62)" style="fill: #1f77b4; stroke: #000000; stroke-linejoin: miter"/>
   </g>
   <g id="patch_97">
    <path d="M 772.963383 135.781683 
L 779.856814 135.781683 
L 779.856814 135.781683 
L 772.963383 135.781683 
z
" clip-path="url(#p2618c33d62)" style="fill: #1f77b4; stroke: #000000; stroke-linejoin: miter"/>
   </g>
   <g id="patch_98">
    <path d="M 779.856814 135.781683 
L 786.750245 135.781683 
L 786.750245 135.781683 
L 779.856814 135.781683 
z
" clip-path="url(#p2618c33d62)" style="fill: #1f77b4; stroke: #000000; stroke-linejoin: miter"/>
   </g>
   <g id="patch_99">
    <path d="M 786.750245 135.781683 
L 793.643676 135.781683 
L 793.643676 135.781683 
L 786.750245 135.781683 
z
" clip-path="url(#p2618c33d62)" style="fill: #1f77b4; stroke: #000000; stroke-linejoin: miter"/>
   </g>
   <g id="patch_100">
    <path d="M 793.643676 135.781683 
L 800.537106 135.781683 
L 800.537106 135.781683 
L 793.643676 135.781683 
z
" clip-path="url(#p2618c33d62)" style="fill: #1f77b4; stroke: #000000; stroke-linejoin: miter"/>
   </g>
   <g id="patch_101">
    <path d="M 800.537106 135.781683 
L 807.430537 135.781683 
L 807.430537 135.781683 
L 800.537106 135.781683 
z
" clip-path="url(#p2618c33d62)" style="fill: #1f77b4; stroke: #000000; stroke-linejoin: miter"/>
   </g>
   <g id="patch_102">
    <path d="M 807.430537 135.781683 
L 814.323968 135.781683 
L 814.323968 135.781683 
L 807.430537 135.781683 
z
" clip-path="url(#p2618c33d62)" style="fill: #1f77b4; stroke: #000000; stroke-linejoin: miter"/>
   </g>
   <g id="patch_103">
    <path d="M 814.323968 135.781683 
L 821.217399 135.781683 
L 821.217399 135.781683 
L 814.323968 135.781683 
z
" clip-path="url(#p2618c33d62)" style="fill: #1f77b4; stroke: #000000; stroke-linejoin: miter"/>
   </g>
   <g id="patch_104">
    <path d="M 821.217399 135.781683 
L 828.110829 135.781683 
L 828.110829 135.781683 
L 821.217399 135.781683 
z
" clip-path="url(#p2618c33d62)" style="fill: #1f77b4; stroke: #000000; stroke-linejoin: miter"/>
   </g>
   <g id="patch_105">
    <path d="M 828.110829 135.781683 
L 835.00426 135.781683 
L 835.00426 135.781683 
L 828.110829 135.781683 
z
" clip-path="url(#p2618c33d62)" style="fill: #1f77b4; stroke: #000000; stroke-linejoin: miter"/>
   </g>
   <g id="patch_106">
    <path d="M 835.00426 135.781683 
L 841.897691 135.781683 
L 841.897691 135.781683 
L 835.00426 135.781683 
z
" clip-path="url(#p2618c33d62)" style="fill: #1f77b4; stroke: #000000; stroke-linejoin: miter"/>
   </g>
   <g id="patch_107">
    <path d="M 841.897691 135.781683 
L 848.791122 135.781683 
L 848.791122 135.781683 
L 841.897691 135.781683 
z
" clip-path="url(#p2618c33d62)" style="fill: #1f77b4; stroke: #000000; stroke-linejoin: miter"/>
   </g>
   <g id="patch_108">
    <path d="M 848.791122 135.781683 
L 855.684552 135.781683 
L 855.684552 135.781683 
L 848.791122 135.781683 
z
" clip-path="url(#p2618c33d62)" style="fill: #1f77b4; stroke: #000000; stroke-linejoin: miter"/>
   </g>
   <g id="patch_109">
    <path d="M 855.684552 135.781683 
L 862.577983 135.781683 
L 862.577983 135.781683 
L 855.684552 135.781683 
z
" clip-path="url(#p2618c33d62)" style="fill: #1f77b4; stroke: #000000; stroke-linejoin: miter"/>
   </g>
   <g id="patch_110">
    <path d="M 862.577983 135.781683 
L 869.471414 135.781683 
L 869.471414 135.781683 
L 862.577983 135.781683 
z
" clip-path="url(#p2618c33d62)" style="fill: #1f77b4; stroke: #000000; stroke-linejoin: miter"/>
   </g>
   <g id="patch_111">
    <path d="M 869.471414 135.781683 
L 876.364845 135.781683 
L 876.364845 135.781683 
L 869.471414 135.781683 
z
" clip-path="url(#p2618c33d62)" style="fill: #1f77b4; stroke: #000000; stroke-linejoin: miter"/>
   </g>
   <g id="patch_112">
    <path d="M 876.364845 135.781683 
L 883.258275 135.781683 
L 883.258275 135.781683 
L 876.364845 135.781683 
z
" clip-path="url(#p2618c33d62)" style="fill: #1f77b4; stroke: #000000; stroke-linejoin: miter"/>
   </g>
   <g id="patch_113">
    <path d="M 883.258275 135.781683 
L 890.151706 135.781683 
L 890.151706 135.781683 
L 883.258275 135.781683 
z
" clip-path="url(#p2618c33d62)" style="fill: #1f77b4; stroke: #000000; stroke-linejoin: miter"/>
   </g>
   <g id="patch_114">
    <path d="M 890.151706 135.781683 
L 897.045137 135.781683 
L 897.045137 135.781683 
L 890.151706 135.781683 
z
" clip-path="url(#p2618c33d62)" style="fill: #1f77b4; stroke: #000000; stroke-linejoin: miter"/>
   </g>
   <g id="patch_115">
    <path d="M 897.045137 135.781683 
L 903.938568 135.781683 
L 903.938568 135.781683 
L 897.045137 135.781683 
z
" clip-path="url(#p2618c33d62)" style="fill: #1f77b4; stroke: #000000; stroke-linejoin: miter"/>
   </g>
   <g id="patch_116">
    <path d="M 903.938568 135.781683 
L 910.831998 135.781683 
L 910.831998 135.781683 
L 903.938568 135.781683 
z
" clip-path="url(#p2618c33d62)" style="fill: #1f77b4; stroke: #000000; stroke-linejoin: miter"/>
   </g>
   <g id="patch_117">
    <path d="M 910.831998 135.781683 
L 917.725429 135.781683 
L 917.725429 135.781683 
L 910.831998 135.781683 
z
" clip-path="url(#p2618c33d62)" style="fill: #1f77b4; stroke: #000000; stroke-linejoin: miter"/>
   </g>
   <g id="patch_118">
    <path d="M 917.725429 135.781683 
L 924.61886 135.781683 
L 924.61886 135.781683 
L 917.725429 135.781683 
z
" clip-path="url(#p2618c33d62)" style="fill: #1f77b4; stroke: #000000; stroke-linejoin: miter"/>
   </g>
   <g id="patch_119">
    <path d="M 924.61886 135.781683 
L 931.512291 135.781683 
L 931.512291 135.781683 
L 924.61886 135.781683 
z
" clip-path="url(#p2618c33d62)" style="fill: #1f77b4; stroke: #000000; stroke-linejoin: miter"/>
   </g>
   <g id="patch_120">
    <path d="M 931.512291 135.781683 
L 938.405721 135.781683 
L 938.405721 135.781683 
L 931.512291 135.781683 
z
" clip-path="url(#p2618c33d62)" style="fill: #1f77b4; stroke: #000000; stroke-linejoin: miter"/>
   </g>
   <g id="patch_121">
    <path d="M 938.405721 135.781683 
L 945.299152 135.781683 
L 945.299152 135.781683 
L 938.405721 135.781683 
z
" clip-path="url(#p2618c33d62)" style="fill: #1f77b4; stroke: #000000; stroke-linejoin: miter"/>
   </g>
   <g id="patch_122">
    <path d="M 945.299152 135.781683 
L 952.192583 135.781683 
L 952.192583 135.781683 
L 945.299152 135.781683 
z
" clip-path="url(#p2618c33d62)" style="fill: #1f77b4; stroke: #000000; stroke-linejoin: miter"/>
   </g>
   <g id="patch_123">
    <path d="M 952.192583 135.781683 
L 959.086014 135.781683 
L 959.086014 135.781683 
L 952.192583 135.781683 
z
" clip-path="url(#p2618c33d62)" style="fill: #1f77b4; stroke: #000000; stroke-linejoin: miter"/>
   </g>
   <g id="patch_124">
    <path d="M 959.086014 135.781683 
L 965.979444 135.781683 
L 965.979444 135.781683 
L 959.086014 135.781683 
z
" clip-path="url(#p2618c33d62)" style="fill: #1f77b4; stroke: #000000; stroke-linejoin: miter"/>
   </g>
   <g id="patch_125">
    <path d="M 965.979444 135.781683 
L 972.872875 135.781683 
L 972.872875 135.781683 
L 965.979444 135.781683 
z
" clip-path="url(#p2618c33d62)" style="fill: #1f77b4; stroke: #000000; stroke-linejoin: miter"/>
   </g>
   <g id="patch_126">
    <path d="M 972.872875 135.781683 
L 979.766306 135.781683 
L 979.766306 135.781683 
L 972.872875 135.781683 
z
" clip-path="url(#p2618c33d62)" style="fill: #1f77b4; stroke: #000000; stroke-linejoin: miter"/>
   </g>
   <g id="patch_127">
    <path d="M 979.766306 135.781683 
L 986.659737 135.781683 
L 986.659737 135.781683 
L 979.766306 135.781683 
z
" clip-path="url(#p2618c33d62)" style="fill: #1f77b4; stroke: #000000; stroke-linejoin: miter"/>
   </g>
   <g id="matplotlib.axis_1">
    <g id="xtick_1">
     <g id="line2d_1">
      <defs>
       <path id="m7f5fa90297" d="M 0 0 
L 0 3.5 
" style="stroke: #000000; stroke-width: 0.8"/>
      </defs>
      <g>
       <use xlink:href="#m7f5fa90297" x="93.353006" y="135.781683" style="stroke: #000000; stroke-width: 0.8"/>
      </g>
     </g>
     <g id="text_1">
      <!-- $\mathdefault{0}$ -->
      <g transform="translate(90.862338 149.700182) scale(0.1 -0.1)">
       <defs>
        <path id="CMR17-30" d="M 2688 2025 
C 2688 2416 2682 3080 2413 3591 
C 2176 4039 1798 4198 1466 4198 
C 1158 4198 768 4058 525 3597 
C 269 3118 243 2524 243 2025 
C 243 1661 250 1106 448 619 
C 723 -39 1216 -128 1466 -128 
C 1760 -128 2208 -7 2470 600 
C 2662 1042 2688 1559 2688 2025 
z
M 1466 -26 
C 1056 -26 813 325 723 812 
C 653 1188 653 1738 653 2096 
C 653 2588 653 2997 736 3387 
C 858 3929 1216 4096 1466 4096 
C 1728 4096 2067 3923 2189 3400 
C 2272 3036 2278 2607 2278 2096 
C 2278 1680 2278 1169 2202 792 
C 2067 95 1690 -26 1466 -26 
z
" transform="scale(0.015625)"/>
       </defs>
       <use xlink:href="#CMR17-30" transform="scale(0.996264)"/>
      </g>
     </g>
    </g>
    <g id="xtick_2">
     <g id="line2d_2">
      <g>
       <use xlink:href="#m7f5fa90297" x="173.83109" y="135.781683" style="stroke: #000000; stroke-width: 0.8"/>
      </g>
     </g>
     <g id="text_2">
      <!-- $\mathdefault{2}$ -->
      <g transform="translate(171.340422 149.700182) scale(0.1 -0.1)">
       <defs>
        <path id="CMR17-32" d="M 2669 989 
L 2554 989 
C 2490 536 2438 459 2413 420 
C 2381 369 1920 369 1830 369 
L 602 369 
C 832 619 1280 1072 1824 1597 
C 2214 1967 2669 2402 2669 3035 
C 2669 3790 2067 4224 1395 4224 
C 691 4224 262 3604 262 3030 
C 262 2780 448 2748 525 2748 
C 589 2748 781 2787 781 3010 
C 781 3207 614 3264 525 3264 
C 486 3264 448 3258 422 3245 
C 544 3790 915 4058 1306 4058 
C 1862 4058 2227 3617 2227 3035 
C 2227 2479 1901 2000 1536 1584 
L 262 146 
L 262 0 
L 2515 0 
L 2669 989 
z
" transform="scale(0.015625)"/>
       </defs>
       <use xlink:href="#CMR17-32" transform="scale(0.996264)"/>
      </g>
     </g>
    </g>
    <g id="xtick_3">
     <g id="line2d_3">
      <g>
       <use xlink:href="#m7f5fa90297" x="254.309174" y="135.781683" style="stroke: #000000; stroke-width: 0.8"/>
      </g>
     </g>
     <g id="text_3">
      <!-- $\mathdefault{4}$ -->
      <g transform="translate(251.818506 149.700182) scale(0.1 -0.1)">
       <defs>
        <path id="CMR17-34" d="M 2150 4122 
C 2150 4256 2144 4256 2029 4256 
L 128 1254 
L 128 1088 
L 1779 1088 
L 1779 457 
C 1779 224 1766 160 1318 160 
L 1197 160 
L 1197 0 
C 1402 0 1747 0 1965 0 
C 2182 0 2528 0 2733 0 
L 2733 160 
L 2611 160 
C 2163 160 2150 224 2150 457 
L 2150 1088 
L 2803 1088 
L 2803 1254 
L 2150 1254 
L 2150 4122 
z
M 1798 3703 
L 1798 1254 
L 256 1254 
L 1798 3703 
z
" transform="scale(0.015625)"/>
       </defs>
       <use xlink:href="#CMR17-34" transform="scale(0.996264)"/>
      </g>
     </g>
    </g>
    <g id="xtick_4">
     <g id="line2d_4">
      <g>
       <use xlink:href="#m7f5fa90297" x="334.787257" y="135.781683" style="stroke: #000000; stroke-width: 0.8"/>
      </g>
     </g>
     <g id="text_4">
      <!-- $\mathdefault{6}$ -->
      <g transform="translate(332.29659 149.700182) scale(0.1 -0.1)">
       <defs>
        <path id="CMR17-36" d="M 678 2176 
C 678 3690 1395 4032 1811 4032 
C 1946 4032 2272 4009 2400 3776 
C 2298 3776 2106 3776 2106 3553 
C 2106 3381 2246 3323 2336 3323 
C 2394 3323 2566 3348 2566 3560 
C 2566 3954 2246 4179 1805 4179 
C 1043 4179 243 3390 243 1984 
C 243 253 966 -128 1478 -128 
C 2099 -128 2688 427 2688 1283 
C 2688 2081 2170 2662 1517 2662 
C 1126 2662 838 2407 678 1960 
L 678 2176 
z
M 1478 25 
C 691 25 691 1200 691 1436 
C 691 1896 909 2560 1504 2560 
C 1613 2560 1926 2560 2138 2120 
C 2253 1870 2253 1609 2253 1289 
C 2253 944 2253 690 2118 434 
C 1978 171 1773 25 1478 25 
z
" transform="scale(0.015625)"/>
       </defs>
       <use xlink:href="#CMR17-36" transform="scale(0.996264)"/>
      </g>
     </g>
    </g>
    <g id="xtick_5">
     <g id="line2d_5">
      <g>
       <use xlink:href="#m7f5fa90297" x="415.265341" y="135.781683" style="stroke: #000000; stroke-width: 0.8"/>
      </g>
     </g>
     <g id="text_5">
      <!-- $\mathdefault{8}$ -->
      <g transform="translate(412.774674 149.700182) scale(0.1 -0.1)">
       <defs>
        <path id="CMR17-38" d="M 1741 2264 
C 2144 2467 2554 2773 2554 3263 
C 2554 3841 1990 4179 1472 4179 
C 890 4179 378 3759 378 3180 
C 378 3021 416 2747 666 2505 
C 730 2442 998 2251 1171 2130 
C 883 1983 211 1634 211 934 
C 211 279 838 -128 1459 -128 
C 2144 -128 2720 362 2720 1010 
C 2720 1590 2330 1857 2074 2029 
L 1741 2264 
z
M 902 2822 
C 851 2854 595 3051 595 3351 
C 595 3739 998 4032 1459 4032 
C 1965 4032 2336 3676 2336 3262 
C 2336 2669 1670 2331 1638 2331 
C 1632 2331 1626 2331 1574 2370 
L 902 2822 
z
M 2080 1519 
C 2176 1449 2483 1240 2483 851 
C 2483 381 2010 25 1472 25 
C 890 25 448 438 448 940 
C 448 1443 838 1862 1280 2060 
L 2080 1519 
z
" transform="scale(0.015625)"/>
       </defs>
       <use xlink:href="#CMR17-38" transform="scale(0.996264)"/>
      </g>
     </g>
    </g>
    <g id="text_6">
     <!-- Oil Drop Charge Magnitude (Coulombs) -->
     <g transform="translate(170.429136 163.10934) scale(0.1 -0.1)">
      <defs>
       <path id="CMSS17-4f" d="M 4096 2178 
C 4096 3503 3219 4497 2214 4497 
C 1210 4497 333 3497 333 2178 
C 333 847 1222 -128 2214 -128 
C 3206 -128 4096 847 4096 2178 
z
M 2214 273 
C 1510 273 870 1057 870 2261 
C 870 3433 1549 4096 2214 4096 
C 2880 4096 3558 3433 3558 2261 
C 3558 1051 2912 273 2214 273 
z
" transform="scale(0.015625)"/>
       <path id="CMSS17-69" d="M 979 4183 
L 442 4183 
L 442 3648 
L 979 3648 
L 979 4183 
z
M 947 2739 
L 474 2739 
L 474 0 
L 947 0 
L 947 2739 
z
" transform="scale(0.015625)"/>
       <path id="CMSS17-6c" d="M 947 4416 
L 474 4416 
L 474 0 
L 947 0 
L 947 4416 
z
" transform="scale(0.015625)"/>
       <path id="CMSS17-44" d="M 570 4416 
L 570 0 
L 2144 0 
C 3194 0 4000 980 4000 2170 
C 4000 3398 3194 4416 2144 4416 
L 570 4416 
z
M 1094 357 
L 1094 4059 
L 2003 4059 
C 2861 4059 3475 3277 3475 2170 
C 3475 1107 2867 357 2003 357 
L 1094 357 
z
" transform="scale(0.015625)"/>
       <path id="CMSS17-72" d="M 954 1363 
C 954 1965 1395 2368 1958 2368 
L 1958 2789 
C 1549 2789 1165 2585 934 2253 
L 934 2758 
L 480 2758 
L 480 0 
L 954 0 
L 954 1363 
z
" transform="scale(0.015625)"/>
       <path id="CMSS17-6f" d="M 2829 1356 
C 2829 2176 2221 2816 1504 2816 
C 768 2816 173 2157 173 1356 
C 173 544 787 -64 1498 -64 
C 2227 -64 2829 563 2829 1356 
z
M 1504 337 
C 1050 337 659 709 659 1408 
C 659 2151 1114 2427 1498 2427 
C 1914 2427 2342 2126 2342 1408 
C 2342 683 1926 337 1504 337 
z
" transform="scale(0.015625)"/>
       <path id="CMSS17-70" d="M 966 333 
C 1178 129 1466 -5 1773 -5 
C 2368 -5 2880 603 2880 1412 
C 2880 2159 2496 2816 1946 2816 
C 1626 2816 1242 2702 954 2472 
L 954 2765 
L 480 2765 
L 480 -1216 
L 966 -1216 
L 966 333 
z
M 966 2100 
C 1018 2176 1235 2415 1587 2415 
C 2035 2415 2394 1960 2394 1412 
C 2394 787 1958 384 1530 384 
C 1402 384 1267 415 1139 523 
C 966 674 966 768 966 857 
L 966 2100 
z
" transform="scale(0.015625)"/>
       <path id="CMSS17-43" d="M 3501 714 
C 3072 427 2874 344 2355 344 
C 1459 344 934 1303 934 2179 
C 934 3112 1472 4032 2381 4032 
C 2790 4032 3059 3918 3386 3715 
L 3475 4217 
C 3168 4370 2778 4440 2387 4440 
C 1158 4440 397 3316 397 2179 
C 397 927 1299 -64 2323 -64 
C 2874 -64 3066 -19 3539 280 
L 3501 714 
z
" transform="scale(0.015625)"/>
       <path id="CMSS17-68" d="M 2618 1891 
C 2618 2292 2522 2820 1798 2820 
C 1395 2820 1133 2623 947 2407 
L 947 4448 
L 474 4448 
L 474 32 
L 960 32 
L 960 1573 
C 960 1973 1114 2432 1549 2432 
C 2112 2432 2131 2056 2131 1839 
L 2131 32 
L 2618 32 
L 2618 1891 
z
" transform="scale(0.015625)"/>
       <path id="CMSS17-61" d="M 2406 1791 
C 2406 2392 1978 2808 1402 2808 
C 1120 2808 813 2757 461 2553 
L 499 2135 
C 659 2248 934 2432 1395 2432 
C 1722 2432 1920 2180 1920 1782 
L 1920 1536 
C 896 1536 256 1238 256 726 
C 256 461 416 -64 947 -64 
C 1043 -64 1562 -64 1933 217 
L 1933 -19 
L 2406 -19 
L 2406 1791 
z
M 1920 816 
C 1920 701 1920 548 1728 434 
C 1562 325 1350 325 1261 325 
C 941 325 723 511 723 744 
C 723 1211 1722 1211 1920 1211 
L 1920 816 
z
" transform="scale(0.015625)"/>
       <path id="CMSS17-67" d="M 2848 2808 
C 2483 2808 2170 2738 1914 2617 
C 1702 2777 1485 2808 1338 2808 
C 781 2808 358 2349 358 1814 
C 358 1468 550 1207 563 1195 
C 448 1035 384 863 384 672 
C 384 448 474 289 544 200 
C 211 -3 166 -314 166 -435 
C 166 -898 749 -1280 1498 -1280 
C 2253 -1280 2835 -898 2835 -428 
C 2835 448 1856 448 1587 448 
L 1069 448 
C 973 448 717 448 717 791 
C 717 921 774 1004 781 1010 
C 877 940 1075 832 1338 832 
C 1869 832 2310 1278 2310 1827 
C 2310 2132 2170 2355 2112 2432 
L 2131 2432 
C 2150 2432 2419 2432 2515 2432 
C 2720 2432 2739 2429 2918 2419 
L 2848 2808 
z
M 1338 1182 
C 1120 1182 813 1315 813 1823 
C 813 2375 1165 2464 1331 2464 
C 1549 2464 1856 2331 1856 1823 
C 1856 1271 1504 1182 1338 1182 
z
M 1581 -10 
C 1734 -10 2381 -10 2381 -442 
C 2381 -714 1984 -929 1504 -929 
C 1018 -929 621 -720 621 -435 
C 621 -403 621 -10 1062 -10 
L 1581 -10 
z
" transform="scale(0.015625)"/>
       <path id="CMSS17-65" d="M 2502 1377 
C 2502 1590 2490 2003 2285 2345 
C 2061 2713 1696 2816 1421 2816 
C 755 2816 192 2188 192 1375 
C 192 582 774 -64 1510 -64 
C 1798 -64 2150 19 2470 248 
C 2470 274 2458 414 2451 420 
C 2451 433 2432 630 2432 656 
C 2125 407 1773 325 1517 325 
C 1107 325 666 667 646 1377 
L 2502 1377 
z
M 698 1728 
C 781 2084 1062 2421 1421 2421 
C 1517 2421 1965 2421 2080 1728 
L 698 1728 
z
" transform="scale(0.015625)"/>
       <path id="CMSS17-4d" d="M 3194 2371 
L 2886 1473 
C 2835 1307 2662 791 2624 587 
L 2618 587 
C 2598 715 2560 849 2458 1174 
C 2400 1365 2336 1562 2272 1741 
L 1325 4416 
L 576 4416 
L 576 0 
L 1075 0 
L 1075 3900 
L 1082 3900 
C 1082 3894 1139 3613 1530 2499 
L 2374 96 
L 2848 96 
L 3610 2231 
C 3661 2378 3821 2843 3891 3066 
C 3955 3257 4115 3728 4154 3913 
L 4160 3913 
L 4160 0 
L 4666 0 
L 4666 4416 
L 3923 4416 
L 3194 2371 
z
" transform="scale(0.015625)"/>
       <path id="CMSS17-6e" d="M 2618 1877 
C 2618 2283 2522 2816 1798 2816 
C 1389 2816 1120 2606 941 2389 
L 941 2758 
L 474 2758 
L 474 0 
L 960 0 
L 960 1559 
C 960 1964 1114 2428 1549 2428 
C 2112 2428 2131 2048 2131 1829 
L 2131 0 
L 2618 0 
L 2618 1877 
z
" transform="scale(0.015625)"/>
       <path id="CMSS17-74" d="M 1069 2368 
L 1901 2368 
L 1901 2737 
L 1069 2737 
L 1069 3520 
L 614 3520 
L 614 2737 
L 109 2737 
L 109 2368 
L 602 2368 
L 602 749 
C 602 384 685 -64 1107 -64 
C 1427 -64 1722 25 2003 172 
L 1901 548 
C 1747 414 1562 337 1363 337 
C 1082 337 1069 696 1069 856 
L 1069 2368 
z
" transform="scale(0.015625)"/>
       <path id="CMSS17-75" d="M 2618 2739 
L 2131 2739 
L 2131 972 
C 2131 498 1786 306 1421 306 
C 998 306 960 447 960 709 
L 960 2739 
L 474 2739 
L 474 678 
C 474 179 646 -64 1088 -64 
C 1306 -64 1798 -13 2144 306 
L 2144 0 
L 2618 0 
L 2618 2739 
z
" transform="scale(0.015625)"/>
       <path id="CMSS17-64" d="M 2611 4416 
L 2138 4416 
L 2138 2438 
C 1939 2603 1613 2756 1254 2756 
C 672 2756 211 2131 211 1347 
C 211 562 666 -64 1235 -64 
C 1677 -64 1971 172 2125 306 
L 2125 -13 
L 2611 -13 
L 2611 4416 
z
M 2125 836 
C 2125 747 2125 653 1926 482 
C 1798 375 1645 325 1498 325 
C 1152 325 698 576 698 1340 
C 698 2134 1210 2368 1562 2368 
C 1798 2368 1990 2254 2125 2065 
L 2125 836 
z
" transform="scale(0.015625)"/>
       <path id="CMSS17-28" d="M 1613 4768 
C 1267 4417 474 3601 474 1588 
C 474 -433 1267 -1243 1613 -1600 
L 2003 -1600 
C 1216 -784 960 357 960 1581 
C 960 2798 1203 3946 2003 4768 
L 1613 4768 
z
" transform="scale(0.015625)"/>
       <path id="CMSS17-6d" d="M 4288 1877 
C 4288 2308 4179 2816 3462 2816 
C 2982 2816 2694 2516 2566 2331 
C 2451 2670 2182 2816 1798 2816 
C 1363 2816 1088 2568 941 2389 
L 941 2758 
L 474 2758 
L 474 0 
L 960 0 
L 960 1559 
C 960 1939 1101 2428 1555 2428 
C 2138 2428 2138 2016 2138 1829 
L 2138 0 
L 2624 0 
L 2624 1559 
C 2624 1939 2765 2428 3219 2428 
C 3802 2428 3802 2016 3802 1829 
L 3802 0 
L 4288 0 
L 4288 1877 
z
" transform="scale(0.015625)"/>
       <path id="CMSS17-62" d="M 954 4416 
L 480 4416 
L 480 -13 
L 966 -13 
L 966 274 
C 1210 38 1504 -64 1766 -64 
C 2381 -64 2880 549 2880 1352 
C 2880 2086 2496 2756 1926 2756 
C 1523 2756 1165 2591 954 2419 
L 954 4416 
z
M 966 2046 
C 1107 2222 1306 2368 1587 2368 
C 1965 2368 2394 2097 2394 1352 
C 2394 558 1882 325 1530 325 
C 1402 325 1267 356 1139 464 
C 966 615 966 709 966 797 
L 966 2046 
z
" transform="scale(0.015625)"/>
       <path id="CMSS17-73" d="M 2061 2627 
C 1683 2807 1389 2807 1197 2807 
C 742 2807 198 2648 198 2003 
C 198 1359 902 1218 1094 1179 
C 1389 1122 1715 1058 1715 740 
C 1715 337 1254 337 1171 337 
C 915 337 563 407 243 638 
L 166 210 
C 531 0 883 -64 1178 -64 
C 1965 -64 2163 416 2163 781 
C 2163 1094 1984 1305 1862 1401 
C 1651 1568 1574 1587 1050 1696 
C 960 1709 646 1779 646 2066 
C 646 2432 1050 2432 1139 2432 
C 1555 2432 1811 2303 1984 2208 
L 2061 2627 
z
" transform="scale(0.015625)"/>
       <path id="CMSS17-29" d="M 723 -1600 
C 1069 -1249 1862 -433 1862 1581 
C 1862 3601 1069 4411 723 4768 
L 333 4768 
C 1120 3952 1376 2811 1376 1588 
C 1376 370 1133 -778 333 -1600 
L 723 -1600 
z
" transform="scale(0.015625)"/>
      </defs>
      <use xlink:href="#CMSS17-4f" transform="scale(0.996264)"/>
      <use xlink:href="#CMSS17-69" transform="translate(69.024255 0) scale(0.996264)"/>
      <use xlink:href="#CMSS17-6c" transform="translate(91.204978 0) scale(0.996264)"/>
      <use xlink:href="#CMSS17-44" transform="translate(144.614814 0) scale(0.996264)"/>
      <use xlink:href="#CMSS17-72" transform="translate(212.157656 0) scale(0.996264)"/>
      <use xlink:href="#CMSS17-6f" transform="translate(244.067428 0) scale(0.996264)"/>
      <use xlink:href="#CMSS17-70" transform="translate(290.911052 0) scale(0.996264)"/>
      <use xlink:href="#CMSS17-43" transform="translate(370.345108 0) scale(0.996264)"/>
      <use xlink:href="#CMSS17-68" transform="translate(430.200879 0) scale(0.996264)"/>
      <use xlink:href="#CMSS17-61" transform="translate(478.405823 0) scale(0.996264)"/>
      <use xlink:href="#CMSS17-72" transform="translate(520.725289 0) scale(0.996264)"/>
      <use xlink:href="#CMSS17-67" transform="translate(552.635062 0) scale(0.996264)"/>
      <use xlink:href="#CMSS17-65" transform="translate(599.478685 0) scale(0.996264)"/>
      <use xlink:href="#CMSS17-4d" transform="translate(672.34662 0) scale(0.996264)"/>
      <use xlink:href="#CMSS17-61" transform="translate(754.02265 0) scale(0.996264)"/>
      <use xlink:href="#CMSS17-67" transform="translate(798.944571 0) scale(0.996264)"/>
      <use xlink:href="#CMSS17-6e" transform="translate(845.788194 0) scale(0.996264)"/>
      <use xlink:href="#CMSS17-69" transform="translate(893.993137 0) scale(0.996264)"/>
      <use xlink:href="#CMSS17-74" transform="translate(916.17386 0) scale(0.996264)"/>
      <use xlink:href="#CMSS17-75" transform="translate(950.005427 0) scale(0.996264)"/>
      <use xlink:href="#CMSS17-64" transform="translate(998.21037 0) scale(0.996264)"/>
      <use xlink:href="#CMSS17-65" transform="translate(1046.415313 0) scale(0.996264)"/>
      <use xlink:href="#CMSS17-28" transform="translate(1119.283248 0) scale(0.996264)"/>
      <use xlink:href="#CMSS17-43" transform="translate(1155.717162 0) scale(0.996264)"/>
      <use xlink:href="#CMSS17-6f" transform="translate(1215.572934 0) scale(0.996264)"/>
      <use xlink:href="#CMSS17-75" transform="translate(1262.416557 0) scale(0.996264)"/>
      <use xlink:href="#CMSS17-6c" transform="translate(1310.621501 0) scale(0.996264)"/>
      <use xlink:href="#CMSS17-6f" transform="translate(1332.802224 0) scale(0.996264)"/>
      <use xlink:href="#CMSS17-6d" transform="translate(1379.645847 0) scale(0.996264)"/>
      <use xlink:href="#CMSS17-62" transform="translate(1453.875102 0) scale(0.996264)"/>
      <use xlink:href="#CMSS17-73" transform="translate(1502.080045 0) scale(0.996264)"/>
      <use xlink:href="#CMSS17-29" transform="translate(1537.993587 0) scale(0.996264)"/>
     </g>
    </g>
    <g id="text_7">
     <!-- $\times\mathdefault{10^{−19}}\mathdefault{}$ -->
     <g transform="translate(439.719445 161.640015) scale(0.1 -0.1)">
      <defs>
       <path id="CMSY10-2" d="M 2490 1785 
L 1210 3059 
C 1133 3136 1120 3148 1069 3148 
C 1005 3148 941 3091 941 3020 
C 941 2976 954 2963 1024 2892 
L 2304 1606 
L 1024 320 
C 954 249 941 236 941 192 
C 941 121 1005 64 1069 64 
C 1120 64 1133 76 1210 153 
L 2483 1427 
L 3808 102 
C 3821 96 3866 64 3904 64 
C 3981 64 4032 121 4032 192 
C 4032 204 4032 230 4013 262 
C 4006 275 2989 1280 2669 1606 
L 3840 2777 
C 3872 2816 3968 2899 4000 2937 
C 4006 2950 4032 2976 4032 3020 
C 4032 3091 3981 3148 3904 3148 
C 3853 3148 3827 3123 3757 3052 
L 2490 1785 
z
" transform="scale(0.015625)"/>
       <path id="CMR17-31" d="M 1702 4058 
C 1702 4192 1696 4192 1606 4192 
C 1357 3916 979 3827 621 3827 
C 602 3827 570 3827 563 3808 
C 557 3795 557 3782 557 3648 
C 755 3648 1088 3686 1344 3839 
L 1344 461 
C 1344 236 1331 160 781 160 
L 589 160 
L 589 0 
C 896 0 1216 0 1523 0 
C 1830 0 2150 0 2458 0 
L 2458 160 
L 2266 160 
C 1715 160 1702 230 1702 458 
L 1702 4058 
z
" transform="scale(0.015625)"/>
       <path id="CMSY10-0" d="M 4218 1472 
C 4326 1472 4442 1472 4442 1600 
C 4442 1728 4326 1728 4218 1728 
L 755 1728 
C 646 1728 531 1728 531 1600 
C 531 1472 646 1472 755 1472 
L 4218 1472 
z
" transform="scale(0.015625)"/>
       <path id="CMR17-39" d="M 2253 1864 
C 2253 464 1670 31 1190 31 
C 1043 31 685 31 538 294 
C 704 268 826 357 826 518 
C 826 692 685 749 595 749 
C 538 749 365 723 365 506 
C 365 71 742 -128 1203 -128 
C 1939 -128 2688 674 2688 2073 
C 2688 3817 1971 4179 1485 4179 
C 851 4179 243 3628 243 2778 
C 243 1991 762 1408 1414 1408 
C 1952 1408 2189 1903 2253 2112 
L 2253 1864 
z
M 1427 1510 
C 1254 1510 1011 1542 813 1922 
C 678 2169 678 2461 678 2771 
C 678 3146 678 3405 858 3684 
C 947 3817 1114 4032 1485 4032 
C 2240 4032 2240 2885 2240 2632 
C 2240 2182 2035 1510 1427 1510 
z
" transform="scale(0.015625)"/>
      </defs>
      <use xlink:href="#CMSY10-2" transform="scale(0.996264)"/>
      <use xlink:href="#CMR17-31" transform="translate(77.487468 0) scale(0.996264)"/>
      <use xlink:href="#CMR17-30" transform="translate(123.177945 0) scale(0.996264)"/>
      <use xlink:href="#CMSY10-0" transform="translate(168.868422 36.153639) scale(0.697382)"/>
      <use xlink:href="#CMR17-31" transform="translate(223.109415 36.153639) scale(0.697382)"/>
      <use xlink:href="#CMR17-39" transform="translate(255.092597 36.153639) scale(0.697382)"/>
     </g>
    </g>
   </g>
   <g id="matplotlib.axis_2">
    <g id="ytick_1">
     <g id="line2d_6">
      <defs>
       <path id="mbc56d61b9c" d="M 0 0 
L -3.5 0 
" style="stroke: #000000; stroke-width: 0.8"/>
      </defs>
      <g>
       <use xlink:href="#mbc56d61b9c" x="37.018347" y="135.781683" style="stroke: #000000; stroke-width: 0.8"/>
      </g>
     </g>
     <g id="text_8">
      <!-- $\mathdefault{0}$ -->
      <g transform="translate(25.037012 139.240932) scale(0.1 -0.1)">
       <use xlink:href="#CMR17-30" transform="scale(0.996264)"/>
      </g>
     </g>
    </g>
    <g id="ytick_2">
     <g id="line2d_7">
      <g>
       <use xlink:href="#mbc56d61b9c" x="37.018347" y="104.501075" style="stroke: #000000; stroke-width: 0.8"/>
      </g>
     </g>
     <g id="text_9">
      <!-- $\mathdefault{5}$ -->
      <g transform="translate(25.037012 107.960324) scale(0.1 -0.1)">
       <defs>
        <path id="CMR17-35" d="M 730 3692 
C 794 3666 1056 3584 1325 3584 
C 1920 3584 2246 3911 2432 4100 
C 2432 4157 2432 4192 2394 4192 
C 2387 4192 2374 4192 2323 4163 
C 2099 4058 1837 3973 1517 3973 
C 1325 3973 1037 3999 723 4139 
C 653 4171 640 4171 634 4171 
C 602 4171 595 4164 595 4037 
L 595 2203 
C 595 2089 595 2057 659 2057 
C 691 2057 704 2070 736 2114 
C 941 2401 1222 2522 1542 2522 
C 1766 2522 2246 2382 2246 1289 
C 2246 1085 2246 715 2054 421 
C 1894 159 1645 25 1370 25 
C 947 25 518 320 403 814 
C 429 807 480 795 506 795 
C 589 795 749 840 749 1038 
C 749 1210 627 1280 506 1280 
C 358 1280 262 1190 262 1011 
C 262 454 704 -128 1382 -128 
C 2042 -128 2669 440 2669 1264 
C 2669 2030 2170 2624 1549 2624 
C 1222 2624 947 2503 730 2274 
L 730 3692 
z
" transform="scale(0.015625)"/>
       </defs>
       <use xlink:href="#CMR17-35" transform="scale(0.996264)"/>
      </g>
     </g>
    </g>
    <g id="ytick_3">
     <g id="line2d_8">
      <g>
       <use xlink:href="#mbc56d61b9c" x="37.018347" y="73.220466" style="stroke: #000000; stroke-width: 0.8"/>
      </g>
     </g>
     <g id="text_10">
      <!-- $\mathdefault{10}$ -->
      <g transform="translate(20.055677 76.679715) scale(0.1 -0.1)">
       <use xlink:href="#CMR17-31" transform="scale(0.996264)"/>
       <use xlink:href="#CMR17-30" transform="translate(45.690477 0) scale(0.996264)"/>
      </g>
     </g>
    </g>
    <g id="ytick_4">
     <g id="line2d_9">
      <g>
       <use xlink:href="#mbc56d61b9c" x="37.018347" y="41.939858" style="stroke: #000000; stroke-width: 0.8"/>
      </g>
     </g>
     <g id="text_11">
      <!-- $\mathdefault{15}$ -->
      <g transform="translate(20.055677 45.399107) scale(0.1 -0.1)">
       <use xlink:href="#CMR17-31" transform="scale(0.996264)"/>
       <use xlink:href="#CMR17-35" transform="translate(45.690477 0) scale(0.996264)"/>
      </g>
     </g>
    </g>
    <g id="ytick_5">
     <g id="line2d_10">
      <g>
       <use xlink:href="#mbc56d61b9c" x="37.018347" y="10.659249" style="stroke: #000000; stroke-width: 0.8"/>
      </g>
     </g>
     <g id="text_12">
      <!-- $\mathdefault{20}$ -->
      <g transform="translate(20.055677 14.118498) scale(0.1 -0.1)">
       <use xlink:href="#CMR17-32" transform="scale(0.996264)"/>
       <use xlink:href="#CMR17-30" transform="translate(45.690477 0) scale(0.996264)"/>
      </g>
     </g>
    </g>
    <g id="text_13">
     <!-- Counts -->
     <g transform="translate(14.118498 87.749334) rotate(-90) scale(0.1 -0.1)">
      <use xlink:href="#CMSS17-43" transform="scale(0.996264)"/>
      <use xlink:href="#CMSS17-6f" transform="translate(59.855772 0) scale(0.996264)"/>
      <use xlink:href="#CMSS17-75" transform="translate(106.699395 0) scale(0.996264)"/>
      <use xlink:href="#CMSS17-6e" transform="translate(154.904338 0) scale(0.996264)"/>
      <use xlink:href="#CMSS17-74" transform="translate(203.109281 0) scale(0.996264)"/>
      <use xlink:href="#CMSS17-73" transform="translate(236.940848 0) scale(0.996264)"/>
     </g>
    </g>
   </g>
   <g id="LineCollection_1">
    <path d="M 171.33808 135.781683 
L 171.33808 -1 
" clip-path="url(#p2618c33d62)" style="fill: none; stroke-dasharray: 5.55,2.4; stroke-dashoffset: 0; stroke: #ff0000; stroke-width: 1.5"/>
    <path d="M 246.418378 135.781683 
L 246.418378 -1 
" clip-path="url(#p2618c33d62)" style="fill: none; stroke-dasharray: 5.55,2.4; stroke-dashoffset: 0; stroke: #ff0000; stroke-width: 1.5"/>
    <path d="M 296.888438 135.781683 
L 296.888438 -1 
" clip-path="url(#p2618c33d62)" style="fill: none; stroke-dasharray: 5.55,2.4; stroke-dashoffset: 0; stroke: #ff0000; stroke-width: 1.5"/>
    <path d="M 365.159002 135.781683 
L 365.159002 -1 
" clip-path="url(#p2618c33d62)" style="fill: none; stroke-dasharray: 5.55,2.4; stroke-dashoffset: 0; stroke: #ff0000; stroke-width: 1.5"/>
    <path d="M 428.611304 135.781683 
L 428.611304 -1 
" clip-path="url(#p2618c33d62)" style="fill: none; stroke-dasharray: 5.55,2.4; stroke-dashoffset: 0; stroke: #ff0000; stroke-width: 1.5"/>
   </g>
   <g id="patch_128">
    <path d="M 37.018347 135.781683 
L 37.018347 10.659249 
" style="fill: none; stroke: #000000; stroke-width: 0.8; stroke-linejoin: miter; stroke-linecap: square"/>
   </g>
   <g id="patch_129">
    <path d="M 471.6 135.781683 
L 471.6 10.659249 
" style="fill: none; stroke: #000000; stroke-width: 0.8; stroke-linejoin: miter; stroke-linecap: square"/>
   </g>
   <g id="patch_130">
    <path d="M 37.018347 135.781683 
L 471.6 135.781683 
" style="fill: none; stroke: #000000; stroke-width: 0.8; stroke-linejoin: miter; stroke-linecap: square"/>
   </g>
   <g id="patch_131">
    <path d="M 37.018347 10.659249 
L 471.6 10.659249 
" style="fill: none; stroke: #000000; stroke-width: 0.8; stroke-linejoin: miter; stroke-linecap: square"/>
   </g>
   <g id="patch_132">
    <path d="M 245.300344 41.939858 
Q 208.878229 41.939858 172.456114 41.939858 
" style="fill: none; stroke: #000000; stroke-linecap: round"/>
    <path d="M 241.300344 39.939858 
L 245.300344 41.939858 
L 241.300344 43.939858 
" style="fill: none; stroke: #000000; stroke-linecap: round"/>
    <path d="M 176.456114 43.939858 
L 172.456114 41.939858 
L 176.456114 39.939858 
" style="fill: none; stroke: #000000; stroke-linecap: round"/>
   </g>
   <g id="patch_133">
    <path d="M 247.536412 41.939858 
Q 271.653408 41.939858 295.770404 41.939858 
" style="fill: none; stroke: #000000; stroke-linecap: round"/>
    <path d="M 251.536412 43.939858 
L 247.536412 41.939858 
L 251.536412 39.939858 
" style="fill: none; stroke: #000000; stroke-linecap: round"/>
    <path d="M 291.770404 39.939858 
L 295.770404 41.939858 
L 291.770404 43.939858 
" style="fill: none; stroke: #000000; stroke-linecap: round"/>
   </g>
   <g id="patch_134">
    <path d="M 364.040968 41.939858 
Q 331.02372 41.939858 298.006472 41.939858 
" style="fill: none; stroke: #000000; stroke-linecap: round"/>
    <path d="M 360.040968 39.939858 
L 364.040968 41.939858 
L 360.040968 43.939858 
" style="fill: none; stroke: #000000; stroke-linecap: round"/>
    <path d="M 302.006472 43.939858 
L 298.006472 41.939858 
L 302.006472 39.939858 
" style="fill: none; stroke: #000000; stroke-linecap: round"/>
   </g>
   <g id="patch_135">
    <path d="M 427.49327 41.939858 
Q 396.885153 41.939858 366.277036 41.939858 
" style="fill: none; stroke: #000000; stroke-linecap: round"/>
    <path d="M 423.49327 39.939858 
L 427.49327 41.939858 
L 423.49327 43.939858 
" style="fill: none; stroke: #000000; stroke-linecap: round"/>
    <path d="M 370.277036 43.939858 
L 366.277036 41.939858 
L 370.277036 39.939858 
" style="fill: none; stroke: #000000; stroke-linecap: round"/>
   </g>
   <g id="text_14">
    <!-- $\mu_2-\mu_1$ -->
    <g transform="translate(193.950611 35.683736) scale(0.1 -0.1)">
     <defs>
      <path id="CMMI12-16" d="M 922 140 
C 1082 -6 1318 -64 1536 -64 
C 1946 -64 2227 208 2374 405 
C 2438 69 2707 -64 2931 -64 
C 3123 -64 3277 50 3392 277 
C 3494 493 3584 879 3584 903 
C 3584 935 3558 960 3520 960 
C 3462 960 3456 928 3430 834 
C 3334 461 3213 64 2950 64 
C 2765 64 2752 229 2752 358 
C 2752 504 2810 735 2854 926 
L 3034 1615 
C 3059 1737 3130 2023 3162 2139 
C 3200 2292 3270 2567 3270 2592 
C 3270 2688 3194 2752 3098 2752 
C 3040 2752 2906 2726 2854 2535 
L 2406 760 
C 2374 632 2374 619 2291 517 
C 2214 409 1965 64 1562 64 
C 1203 64 1088 326 1088 625 
C 1088 811 1146 1034 1171 1143 
L 1459 2293 
C 1491 2414 1542 2618 1542 2657 
C 1542 2759 1459 2816 1376 2816 
C 1318 2816 1178 2797 1126 2592 
L 198 -1107 
C 192 -1139 179 -1177 179 -1216 
C 179 -1312 256 -1376 352 -1376 
C 538 -1376 576 -1228 621 -1050 
L 922 140 
z
" transform="scale(0.015625)"/>
     </defs>
     <use xlink:href="#CMMI12-16" transform="scale(0.996264)"/>
     <use xlink:href="#CMR17-32" transform="translate(58.691421 -14.943915) scale(0.697382)"/>
     <use xlink:href="#CMSY10-0" transform="translate(113.311942 0) scale(0.996264)"/>
     <use xlink:href="#CMMI12-16" transform="translate(212.938617 0) scale(0.996264)"/>
     <use xlink:href="#CMR17-31" transform="translate(271.630038 -14.943915) scale(0.697382)"/>
    </g>
   </g>
   <g id="text_15">
    <!-- $\mu_3-\mu_2$ -->
    <g transform="translate(256.321126 35.683736) scale(0.1 -0.1)">
     <defs>
      <path id="CMR17-33" d="M 1414 2157 
C 1984 2157 2234 1662 2234 1090 
C 2234 320 1824 25 1453 25 
C 1114 25 563 194 390 693 
C 422 680 454 680 486 680 
C 640 680 755 782 755 948 
C 755 1133 614 1216 486 1216 
C 378 1216 211 1165 211 926 
C 211 335 787 -128 1466 -128 
C 2176 -128 2720 430 2720 1085 
C 2720 1707 2208 2157 1600 2227 
C 2086 2328 2554 2756 2554 3329 
C 2554 3820 2048 4179 1472 4179 
C 890 4179 378 3829 378 3329 
C 378 3110 544 3072 627 3072 
C 762 3072 877 3155 877 3321 
C 877 3486 762 3569 627 3569 
C 602 3569 570 3569 544 3557 
C 730 3959 1235 4032 1459 4032 
C 1683 4032 2106 3925 2106 3320 
C 2106 3143 2080 2828 1862 2550 
C 1670 2304 1453 2304 1242 2284 
C 1210 2284 1062 2269 1037 2269 
C 992 2263 966 2257 966 2208 
C 966 2163 973 2157 1101 2157 
L 1414 2157 
z
" transform="scale(0.015625)"/>
     </defs>
     <use xlink:href="#CMMI12-16" transform="scale(0.996264)"/>
     <use xlink:href="#CMR17-33" transform="translate(58.691421 -14.943915) scale(0.697382)"/>
     <use xlink:href="#CMSY10-0" transform="translate(113.311942 0) scale(0.996264)"/>
     <use xlink:href="#CMMI12-16" transform="translate(212.938617 0) scale(0.996264)"/>
     <use xlink:href="#CMR17-32" transform="translate(271.630038 -14.943915) scale(0.697382)"/>
    </g>
   </g>
   <g id="text_16">
    <!-- $\mu_4-\mu_3$ -->
    <g transform="translate(316.679689 35.683736) scale(0.1 -0.1)">
     <use xlink:href="#CMMI12-16" transform="scale(0.996264)"/>
     <use xlink:href="#CMR17-34" transform="translate(58.691421 -14.943915) scale(0.697382)"/>
     <use xlink:href="#CMSY10-0" transform="translate(113.311942 0) scale(0.996264)"/>
     <use xlink:href="#CMMI12-16" transform="translate(212.938617 0) scale(0.996264)"/>
     <use xlink:href="#CMR17-33" transform="translate(271.630038 -14.943915) scale(0.697382)"/>
    </g>
   </g>
   <g id="text_17">
    <!-- $\mu_5-\mu_4$ -->
    <g transform="translate(383.074108 35.683736) scale(0.1 -0.1)">
     <use xlink:href="#CMMI12-16" transform="scale(0.996264)"/>
     <use xlink:href="#CMR17-35" transform="translate(58.691421 -14.943915) scale(0.697382)"/>
     <use xlink:href="#CMSY10-0" transform="translate(113.311942 0) scale(0.996264)"/>
     <use xlink:href="#CMMI12-16" transform="translate(212.938617 0) scale(0.996264)"/>
     <use xlink:href="#CMR17-34" transform="translate(271.630038 -14.943915) scale(0.697382)"/>
    </g>
   </g>
   <g id="legend_1">
    <g id="patch_136">
     <path d="M 44.018347 47.559068 
L 148.877799 47.559068 
Q 150.877799 47.559068 150.877799 45.559068 
L 150.877799 17.659249 
Q 150.877799 15.659249 148.877799 15.659249 
L 44.018347 15.659249 
Q 42.018347 15.659249 42.018347 17.659249 
L 42.018347 45.559068 
Q 42.018347 47.559068 44.018347 47.559068 
z
" style="fill: #ffffff; opacity: 0.8; stroke: #cccccc; stroke-linejoin: miter"/>
    </g>
    <g id="patch_137">
     <path d="M 46.018347 26.659249 
L 66.018347 26.659249 
L 66.018347 19.659249 
L 46.018347 19.659249 
z
" style="fill: #1f77b4; stroke: #000000; stroke-linejoin: miter"/>
    </g>
    <g id="text_18">
     <!-- Included Data -->
     <g transform="translate(74.018347 26.659249) scale(0.1 -0.1)">
      <defs>
       <path id="CMSS17-49" d="M 1094 4416 
L 557 4416 
L 557 0 
L 1094 0 
L 1094 4416 
z
" transform="scale(0.015625)"/>
       <path id="CMSS17-63" d="M 2464 2541 
C 2464 2585 2170 2714 2093 2739 
C 1882 2816 1613 2816 1542 2816 
C 710 2816 211 2093 211 1363 
C 211 595 768 -64 1517 -64 
C 1946 -64 2253 76 2502 242 
L 2464 664 
C 2189 453 1869 337 1523 337 
C 1024 337 698 774 698 1369 
C 698 1831 909 2414 1549 2414 
C 1901 2414 2099 2343 2394 2145 
L 2464 2541 
z
" transform="scale(0.015625)"/>
      </defs>
      <use xlink:href="#CMSS17-49" transform="scale(0.996264)"/>
      <use xlink:href="#CMSS17-6e" transform="translate(25.783926 0) scale(0.996264)"/>
      <use xlink:href="#CMSS17-63" transform="translate(73.988869 0) scale(0.996264)"/>
      <use xlink:href="#CMSS17-6c" transform="translate(115.627691 0) scale(0.996264)"/>
      <use xlink:href="#CMSS17-75" transform="translate(137.808414 0) scale(0.996264)"/>
      <use xlink:href="#CMSS17-64" transform="translate(186.013357 0) scale(0.996264)"/>
      <use xlink:href="#CMSS17-65" transform="translate(234.2183 0) scale(0.996264)"/>
      <use xlink:href="#CMSS17-64" transform="translate(275.857122 0) scale(0.996264)"/>
      <use xlink:href="#CMSS17-44" transform="translate(355.291178 0) scale(0.996264)"/>
      <use xlink:href="#CMSS17-61" transform="translate(422.83402 0) scale(0.996264)"/>
      <use xlink:href="#CMSS17-74" transform="translate(467.75594 0) scale(0.996264)"/>
      <use xlink:href="#CMSS17-61" transform="translate(501.587507 0) scale(0.996264)"/>
     </g>
    </g>
    <g id="line2d_11">
     <path d="M 46.018347 37.568408 
L 66.018347 37.568408 
" style="fill: none; stroke-dasharray: 5.55,2.4; stroke-dashoffset: 0; stroke: #ff0000; stroke-width: 1.5"/>
    </g>
    <g id="text_19">
     <!-- Local Means ($\mu_i$) -->
     <g transform="translate(74.018347 41.068408) scale(0.1 -0.1)">
      <defs>
       <path id="CMSS17-4c" d="M 1670 414 
C 1594 414 1517 414 1440 414 
L 1101 414 
L 1101 4416 
L 563 4416 
L 563 0 
L 3002 0 
L 3002 414 
L 1670 414 
z
" transform="scale(0.015625)"/>
       <path id="CMMI12-69" d="M 1811 913 
C 1811 945 1786 971 1747 971 
C 1690 971 1683 952 1651 843 
C 1485 262 1222 64 1011 64 
C 934 64 845 83 845 275 
C 845 447 922 639 992 830 
L 1440 2018 
C 1459 2069 1504 2184 1504 2305 
C 1504 2574 1312 2816 998 2816 
C 410 2816 173 1890 173 1839 
C 173 1814 198 1782 243 1782 
C 301 1782 307 1807 333 1896 
C 486 2428 730 2682 979 2682 
C 1037 2682 1146 2682 1146 2478 
C 1146 2312 1062 2101 1011 1961 
L 563 773 
C 525 671 486 568 486 453 
C 486 166 685 -64 992 -64 
C 1581 -64 1811 869 1811 913 
z
M 1760 4013 
C 1760 4109 1683 4224 1542 4224 
C 1395 4224 1229 4083 1229 3917 
C 1229 3758 1363 3707 1440 3707 
C 1613 3707 1760 3873 1760 4013 
z
" transform="scale(0.015625)"/>
      </defs>
      <use xlink:href="#CMSS17-4c" transform="scale(0.996264)"/>
      <use xlink:href="#CMSS17-6f" transform="translate(50.687105 0) scale(0.996264)"/>
      <use xlink:href="#CMSS17-63" transform="translate(100.133168 0) scale(0.996264)"/>
      <use xlink:href="#CMSS17-61" transform="translate(141.77199 0) scale(0.996264)"/>
      <use xlink:href="#CMSS17-6c" transform="translate(186.69391 0) scale(0.996264)"/>
      <use xlink:href="#CMSS17-4d" transform="translate(240.103746 0) scale(0.996264)"/>
      <use xlink:href="#CMSS17-65" transform="translate(321.779776 0) scale(0.996264)"/>
      <use xlink:href="#CMSS17-61" transform="translate(363.418598 0) scale(0.996264)"/>
      <use xlink:href="#CMSS17-6e" transform="translate(408.340519 0) scale(0.996264)"/>
      <use xlink:href="#CMSS17-73" transform="translate(456.545462 0) scale(0.996264)"/>
      <use xlink:href="#CMSS17-28" transform="translate(523.688117 0) scale(0.996264)"/>
      <use xlink:href="#CMMI12-16" transform="translate(560.122031 0) scale(0.996264)"/>
      <use xlink:href="#CMMI12-69" transform="translate(618.813452 -14.943915) scale(0.697382)"/>
      <use xlink:href="#CMSS17-29" transform="translate(642.606492 0) scale(0.996264)"/>
     </g>
    </g>
   </g>
  </g>
 </g>
 <defs>
  <clipPath id="p2618c33d62">
   <rect x="37.018347" y="10.659249" width="434.581653" height="125.122434"/>
  </clipPath>
 </defs>
</svg>
